<svg xmlns="http://www.w3.org/2000/svg" width="155" height="155" viewBox="0 0 155 155"><g transform="translate(-89.5 -243)"><path d="M1268.76,190.086v.005C1268.807,190.067,1268.805,190.066,1268.76,190.086Z" transform="translate(-1068.5 167)"/><path d="M1268.52,192.005h-.054C1268.488,192.068,1268.506,192.074,1268.52,192.005Z" transform="translate(-1068.5 167)"/><path d="M1235.5,231a77.5,77.5,0,1,1,77.5-77.5A77.587,77.587,0,0,1,1235.5,231Z" transform="translate(-1068.5 167)" fill="#333"/><path d="M1235.5,80.94l-63,109.119h126Z" transform="translate(-1068.5 167)" fill="#fff"/><path d="M1236.341,157.381h0l19.489-24.945h-11.252l5.35-9.553L1246.567,121l-6.4,11.435H1213l19.489,24.945v19.768h-7.762V181H1244.1v-3.852h-7.762Z" transform="translate(-1068.5 167)" fill="#333"/><g transform="translate(-1068.5 167)"><path d="M1174.947,156.977l.239,1.872-1.841.99.435,3.406,2.025.457.233,1.825-8.944-2.233-.232-1.819Zm-2.967,3.6-3.012,1.577,3.309.747Z" fill="#fff"/><path d="M1174.959,155.073l-8.518-.162.033-1.734,7.071.135.082-4.312,1.447.027Z" fill="#fff"/><path d="M1173.043,140.963l.8-1.571a3.762,3.762,0,0,1,1.849,1.612,3.66,3.66,0,0,1,.3,2.363,3.7,3.7,0,0,1-1.615,2.583,4.475,4.475,0,0,1-3.334.561,4.7,4.7,0,0,1-3.1-1.639,3.8,3.8,0,0,1-.692-3.068,3.57,3.57,0,0,1,1.339-2.372,3.385,3.385,0,0,1,1.7-.608l.123,1.761a1.776,1.776,0,0,0-1.719,1.549,1.952,1.952,0,0,0,.422,1.642,3.358,3.358,0,0,0,2.092.951,3.605,3.605,0,0,0,2.386-.2,1.9,1.9,0,0,0,.932-1.389,1.737,1.737,0,0,0-.238-1.245A2.554,2.554,0,0,0,1173.043,140.963Z" fill="#fff"/><path d="M1172.883,136.471a5.48,5.48,0,0,1-1.958-1.084,4.061,4.061,0,0,1-.855-1.138,3.342,3.342,0,0,1-.373-1.3,4.724,4.724,0,0,1,.277-1.862,4.039,4.039,0,0,1,2.1-2.494,5.261,5.261,0,0,1,6.182,2.1,4.516,4.516,0,0,1-1.958,5.746A4.437,4.437,0,0,1,1172.883,136.471Zm.523-1.71a3.221,3.221,0,0,0,2.311.078,2.318,2.318,0,0,0,1.109-3.228,3.277,3.277,0,0,0-1.905-1.354,3.228,3.228,0,0,0-2.3-.1,2.4,2.4,0,0,0-1.106,3.265A3.244,3.244,0,0,0,1173.406,134.761Z" fill="#fff"/><path d="M1180.546,127.925l-7.565-4.069.822-1.527,2.977,1.6,1.61-2.992-2.977-1.6.821-1.527,7.565,4.068-.821,1.528-3.308-1.78-1.61,2.994,3.308,1.779Z" fill="#fff"/><path d="M1181.65,117.31a5.451,5.451,0,0,1-1.505-1.656,4.025,4.025,0,0,1-.445-1.352,3.341,3.341,0,0,1,.064-1.352,4.727,4.727,0,0,1,.861-1.674,4.031,4.031,0,0,1,2.787-1.688,5.264,5.264,0,0,1,5.179,3.978,4.517,4.517,0,0,1-3.7,4.812A4.435,4.435,0,0,1,1181.65,117.31Zm1.044-1.452a3.216,3.216,0,0,0,2.164.816,2.315,2.315,0,0,0,2.087-2.7,3.28,3.28,0,0,0-1.369-1.895,3.236,3.236,0,0,0-2.141-.831,2.4,2.4,0,0,0-2.1,2.737A3.245,3.245,0,0,0,1182.694,115.858Z" fill="#fff"/><path d="M1191.741,111.633l-5.884-6.161,1.255-1.2,4.884,5.115,3.119-2.978,1,1.047Z" fill="#fff"/><path d="M1197.837,106.143l-5.257-6.794,1.371-1.061,5.257,6.793Z" fill="#fff"/><path d="M1204.354,97.932l1.715-.414a3.772,3.772,0,0,1-.02,2.453,4.048,4.048,0,0,1-4.612,2.22,4.474,4.474,0,0,1-2.6-2.166,4.7,4.7,0,0,1-.776-3.423,3.8,3.8,0,0,1,1.878-2.522,3.574,3.574,0,0,1,2.674-.528,3.4,3.4,0,0,1,1.571.9l-1.257,1.239a1.775,1.775,0,0,0-2.3-.3,1.953,1.953,0,0,0-.971,1.388,3.357,3.357,0,0,0,.64,2.208,3.6,3.6,0,0,0,1.7,1.683,1.906,1.906,0,0,0,1.662-.2,1.743,1.743,0,0,0,.791-.992A2.555,2.555,0,0,0,1204.354,97.932Z" fill="#fff"/><path d="M1208.119,96.307l1.5-.794a2.061,2.061,0,0,0,1.046.919,1.876,1.876,0,0,0,1.314-.11,1.935,1.935,0,0,0,1.033-.809,1.054,1.054,0,0,0,.077-.929.783.783,0,0,0-.363-.411,1.426,1.426,0,0,0-.718-.106q-.322.018-1.427.182a4.7,4.7,0,0,1-2.133-.041,2.254,2.254,0,0,1-1.513-2.574,2.328,2.328,0,0,1,.66-1.213,4.327,4.327,0,0,1,1.449-.92,3.626,3.626,0,0,1,2.521-.271,2.5,2.5,0,0,1,1.515,1.423l-1.575.731a1.463,1.463,0,0,0-.8-.7,1.75,1.75,0,0,0-1.126.149,1.978,1.978,0,0,0-.976.738.623.623,0,0,0-.052.6.658.658,0,0,0,.437.384,4.525,4.525,0,0,0,1.692-.076,8.411,8.411,0,0,1,1.967-.141,2.416,2.416,0,0,1,1.21.446,2.71,2.71,0,0,1,.985,2.57,2.455,2.455,0,0,1-.709,1.327,4.853,4.853,0,0,1-1.608,1,3.723,3.723,0,0,1-2.6.256A3.272,3.272,0,0,1,1208.119,96.307Z" fill="#fff"/></g><g transform="translate(-1068.5 167)"><path d="M1252.864,92.512l1.648.4a2.057,2.057,0,0,0,.176,1.381,1.864,1.864,0,0,0,1.057.788,1.928,1.928,0,0,0,1.309.079,1.056,1.056,0,0,0,.673-.644.792.792,0,0,0,0-.549,1.437,1.437,0,0,0-.468-.556q-.254-.2-1.189-.809a4.7,4.7,0,0,1-1.571-1.444,2.235,2.235,0,0,1-.182-1.892,2.212,2.212,0,0,1,.754-1.038,2.339,2.339,0,0,1,1.3-.471,4.308,4.308,0,0,1,1.695.271,3.625,3.625,0,0,1,2.068,1.468,2.5,2.5,0,0,1,.192,2.069l-1.664-.5a1.471,1.471,0,0,0-.14-1.056,1.749,1.749,0,0,0-.942-.634,1.987,1.987,0,0,0-1.221-.094.627.627,0,0,0-.435.413.661.661,0,0,0,.074.578,4.538,4.538,0,0,0,1.317,1.064,8.438,8.438,0,0,1,1.566,1.2,2.422,2.422,0,0,1,.612,1.136,2.56,2.56,0,0,1-.125,1.4,2.532,2.532,0,0,1-.84,1.173,2.455,2.455,0,0,1-1.41.524,4.864,4.864,0,0,1-1.869-.315,3.723,3.723,0,0,1-2.117-1.531A3.272,3.272,0,0,1,1252.864,92.512Z" fill="#fff"/><path d="M1262.717,99.446l1.675-3.2-.484-5.867,1.8.942.218,3.949,3.329-2.1,1.771.926-5.109,2.956-1.669,3.194Z" fill="#fff"/><path d="M1268.542,102.695l5.09-6.92,1.359,1-.567,6.7,3.4-4.62,1.3.955-5.09,6.919-1.4-1.031.53-6.564-3.32,4.511Z" fill="#fff"/><path d="M1278.893,105.274a5.462,5.462,0,0,1,1.85-1.26,4.033,4.033,0,0,1,1.4-.251,3.336,3.336,0,0,1,1.329.253,4.715,4.715,0,0,1,1.538,1.086,4.033,4.033,0,0,1,1.282,3,5.26,5.26,0,0,1-4.663,4.571,4,4,0,0,1-2.954-1.339,4.047,4.047,0,0,1-1.294-3A4.438,4.438,0,0,1,1278.893,105.274Zm1.292,1.237a3.218,3.218,0,0,0-1.111,2.028,2.316,2.316,0,0,0,2.383,2.444,3.282,3.282,0,0,0,2.067-1.091,3.225,3.225,0,0,0,1.122-2,2.4,2.4,0,0,0-2.417-2.46A3.245,3.245,0,0,0,1280.185,106.511Z" fill="#fff"/><path d="M1283.084,115.976l7.032-4.934.969,1.382-2.676,6.172,4.695-3.294.926,1.319L1287,121.554l-1-1.425,2.6-6.051-4.585,3.217Z" fill="#fff"/><path d="M1289.386,125.952l3.241-1.6,3.066-5.025.9,1.823-2.152,3.318,3.925.27.885,1.791-5.87-.623-3.23,1.6Z" fill="#fff"/><path d="M1292.19,131.918l8.219-2.5.754,2.483-5.153,3.195,6.054-.229.757,2.489-8.219,2.5-.469-1.541,6.47-1.966-6.965.334-.486-1.6,5.976-3.591-6.47,1.965Z" fill="#fff"/><path d="M1299.275,141.549a5.458,5.458,0,0,1,2.235.126,4.029,4.029,0,0,1,1.265.653,3.332,3.332,0,0,1,.9,1.009,4.718,4.718,0,0,1,.559,1.8,4.03,4.03,0,0,1-.8,3.157,5.262,5.262,0,0,1-6.482.791,4,4,0,0,1-1.529-2.86,4.043,4.043,0,0,1,.8-3.165A4.435,4.435,0,0,1,1299.275,141.549Zm.273,1.767a3.219,3.219,0,0,0-2.115.934,2.2,2.2,0,0,0-.543,1.789,2.173,2.173,0,0,0,.946,1.6,3.282,3.282,0,0,0,2.3.392,3.226,3.226,0,0,0,2.109-.907,2.4,2.4,0,0,0-.422-3.422A3.244,3.244,0,0,0,1299.548,143.316Z" fill="#fff"/><path d="M1304.673,152.917l-.071,1.733-4.649-.192a9.664,9.664,0,0,0-1.437.006,1.388,1.388,0,0,0-.868.495,1.847,1.847,0,0,0-.366,1.131,1.748,1.748,0,0,0,.256,1.125,1.188,1.188,0,0,0,.722.481,9.625,9.625,0,0,0,1.455.137l4.747.2-.071,1.733-4.508-.186a11.566,11.566,0,0,1-2.177-.23,2.421,2.421,0,0,1-1.057-.563,2.614,2.614,0,0,1-.657-1.038,4.386,4.386,0,0,1-.193-1.662,4.757,4.757,0,0,1,.361-1.853,2.67,2.67,0,0,1,.779-.974,2.36,2.36,0,0,1,.971-.446,10.4,10.4,0,0,1,2.185-.08Z" fill="#fff"/><path d="M1298.3,162.22l-.163,1.687a2.065,2.065,0,0,0-1.344.367,1.871,1.871,0,0,0-.632,1.157,1.936,1.936,0,0,0,.1,1.307,1.052,1.052,0,0,0,.733.576.776.776,0,0,0,.542-.075,1.419,1.419,0,0,0,.485-.541q.164-.279.635-1.291a4.72,4.72,0,0,1,1.21-1.758,2.239,2.239,0,0,1,1.848-.444,2.212,2.212,0,0,1,1.134.6,2.324,2.324,0,0,1,.647,1.219,4.291,4.291,0,0,1-.031,1.717,3.628,3.628,0,0,1-1.163,2.253,2.5,2.5,0,0,1-2.022.479l.258-1.717a1.469,1.469,0,0,0,1.026-.286,1.739,1.739,0,0,0,.495-1.022,1.982,1.982,0,0,0-.077-1.221.624.624,0,0,0-.47-.373.658.658,0,0,0-.561.153,4.528,4.528,0,0,0-.87,1.453,8.464,8.464,0,0,1-.966,1.719,2.412,2.412,0,0,1-1.039.764,2.7,2.7,0,0,1-2.687-.594,2.454,2.454,0,0,1-.718-1.323,4.856,4.856,0,0,1,.052-1.895,3.718,3.718,0,0,1,1.219-2.31A3.271,3.271,0,0,1,1298.3,162.22Z" fill="#fff"/></g></g></svg>