<svg xmlns="http://www.w3.org/2000/svg" width="150.49" height="123.8" viewBox="0 0 150.49 123.8"><g id="Layer_2" data-name="Layer 2"><g id="logos"><path d="M107.3,23.3c0-1-1-1.87-1.7-2.38-2.89-2.2-8.83-6.79-9.68-6.79h-8a.85.85,0,0,0-.51.85c0,.68-.17,1.53-.68,1.53a9.48,9.48,0,0,1-2.21,0c-.34-.17-.51-1-.51-1.7s-.33-.68-.33-.68H81c-.34,0-1.36.51-1.36,1.36-.17,1,1.19,2.38,2.38,4.25a24.58,24.58,0,0,1,2.54,5.09h2.72c.34,0,3.74-.34,4.58-.34H105.6C106.11,24.49,107.3,24.32,107.3,23.3ZM81.15,43.17c-.34.34-.51.34-1,.34s-1.36-.17-1.53,0-.85,1.36-1.19,1.87c-.17.68-4.24,9.34-4.41,9.85a6.6,6.6,0,0,0-.34,2.71c.51.51.85,1.19,2,1.19s4.75-.17,5.94-1a18.34,18.34,0,0,0,3.22-3.22l9.68-12.74a3.16,3.16,0,0,0,.51-3.22c-.51-1.7-1.87-2.72-2.37-2.72H86.41a2.75,2.75,0,0,0-1.7,2.38,8.46,8.46,0,0,0,.85,3.22c.17.34-.17.51-.34.51h-3.9S81.49,43,81.15,43.17Zm-47-19.36c5.43,0,20.2-.51,26.48-.51,6.29-.17,15.28-.34,15.28-.34s1.53-1.36,1.87-1.36a1.19,1.19,0,0,1,.68.34l.34-.17A12.65,12.65,0,0,0,75,17.53a13.6,13.6,0,0,0-4.93-2.72,20.68,20.68,0,0,1-4.07.34H51.27V8h.5a.63.63,0,0,1,.51.34H66a33.14,33.14,0,0,1,4.07.17H83.53A2,2,0,0,1,85.39,7a2.27,2.27,0,0,1,2,1.53H97.79a2.87,2.87,0,0,1,.34-.85c.34-.34,1.53,0,1.86.17.68.34,1,.51,1,1v4.58a24,24,0,0,0,3.57,3.74,17.8,17.8,0,0,0,3.73,2.55s0-1,.17-1.19a2.09,2.09,0,0,1,1.7.17c.68.34,1,.68,1.36.85a8,8,0,0,0,.85.34h.85v-.34a8,8,0,0,1,.85.34,1.33,1.33,0,0,1,.51.68l-.17.5h.68a18.59,18.59,0,0,1,2.37,1.53v.68s.51,0,.68.34c.34.17.34.68.34.68h10.19a.63.63,0,0,1,.51.34h4.58c.51,0,.51.17.51.17h9.17s0-.51.85-.51c.68,0,.68.51.68.51a5.84,5.84,0,0,1,2.38-.51,5.52,5.52,0,0,1,2.2.51s0-.33.55-.46V0H.12V24.4c2.61-.08,6.08-.08,9.38-.08C14.93,24.32,28.68,23.81,34.12,23.81Zm116,5.53a.7.7,0,0,1-.55-.6,6.45,6.45,0,0,1-2.2.34,8.3,8.3,0,0,1-2.38-.34.67.67,0,0,1-.68.68c-.85,0-.85-.68-.85-.68h-9.17s0,.34-.51.34c-.34,0-3.9.17-3.9.17a2.1,2.1,0,0,0,.51.34,2.45,2.45,0,0,0,.51.34s0,.5-.34.67a2.49,2.49,0,0,1-.85.51s0,1-.68,1h-8.15l-.34,3.06s1.36-.17,1.87.34c.51.34.17,1.36.17,2.38a49.49,49.49,0,0,0,.51,5.77,83.31,83.31,0,0,1,.51,9.68,10.73,10.73,0,0,0,1.18,5.43c.17.68,0,1-1,1.19s-5.27.34-6.29.34-1.53-.17-1.69-.68-.51-2-.51-5.94.84-7.13.84-9.85a13.38,13.38,0,0,0-1.52-5.77c-.51-.68,0-1.36.68-1.87a4.15,4.15,0,0,1,1.35-.68v-.34h-1.52a1.78,1.78,0,0,1-1,.51,2.16,2.16,0,0,1-1-.34,7.71,7.71,0,0,0-1.7-.17,2,2,0,0,0-1.36.34s-1.87.17-3.73.17c-1.87.17-4.93,1.53-7.64,4.58-3.74,4.25-8.83,11.38-12.4,16.14C83,60.66,80.47,61.68,78.77,62s-12.9.34-14.09.34S63,62,62.81,61.68a14.8,14.8,0,0,1-.17-3.23,27.55,27.55,0,0,1,1.87-9.34c1.53-3.73,3.39-5.26,4.24-6.45s0-3.4-.85-4.24c-.84-1-2.71-1.19-5.09-1-2.38,0-10,2.37-11.37,2.88-1.19.51-1.19,2.21-1.36,2.72s-1.7.51-1.7.51a105.1,105.1,0,0,0,2.38,12.57c1.52,5.6,2.71,9,2.71,9a.84.84,0,0,1,.51.17,4.46,4.46,0,0,1,.85,1.53A1,1,0,0,1,54.32,68c-.17.17-13.92,4.76-14.26,4.93s-.51.17-.68-.17a1.33,1.33,0,0,1,0-.85,3,3,0,0,1-1-.85c-.34-.51-1.87-5.09-3.73-12.23a59.26,59.26,0,0,1-2-11.37.71.71,0,0,0,0-1c-.51-.51-.68.17-.68.17a10.66,10.66,0,0,1-1.87.17c-1,0-2.21,1.19-3.22,1.86S25,50,25,50l-1.7-1.36s-2,1.36-3.74,2.55-5.43,4.25-6.45,5.1A3.6,3.6,0,0,0,12,59c.17.68,1.36,1.19,1.36,2.38A1.57,1.57,0,0,1,11.87,63L.12,63.2V80h150ZM4.88,120.81H6.51v.75a4.2,4.2,0,0,1-.85.4,2.45,2.45,0,0,1-.78.12,1.71,1.71,0,0,1-1.34-.55,2.79,2.79,0,0,1-.48-1.83,2.66,2.66,0,0,1,.48-1.76,1.57,1.57,0,0,1,1.27-.55,1.61,1.61,0,0,1,.89.23,1.31,1.31,0,0,1,.49.69l2.35-.42a3.27,3.27,0,0,0-.65-1.26,2.55,2.55,0,0,0-1.07-.74,6.28,6.28,0,0,0-1.95-.23,5.16,5.16,0,0,0-2.16.38,3.41,3.41,0,0,0-1.55,1.45,4.45,4.45,0,0,0-.54,2.24,4.72,4.72,0,0,0,.49,2.17,3.25,3.25,0,0,0,1.37,1.42,4.76,4.76,0,0,0,2.28.48,6.38,6.38,0,0,0,2-.27,7.37,7.37,0,0,0,1.91-1v-3.35H4.88Zm22.54-.21a1.37,1.37,0,0,1-.36,1,1.54,1.54,0,0,1-2,0,1.36,1.36,0,0,1-.36-1v-4.81H22.3v4.69a4.7,4.7,0,0,0,.23,1.33,2.28,2.28,0,0,0,.52.91,2.76,2.76,0,0,0,.83.68,3.26,3.26,0,0,0,1.14.32,11.5,11.5,0,0,0,1.25.08,5,5,0,0,0,1.7-.26,2.71,2.71,0,0,0,1-.65,2.83,2.83,0,0,0,.68-1.09,3.81,3.81,0,0,0,.22-1.32v-4.69H27.42Zm21.5-.45-3-4.36H43.69v7.88H46v-4.33l3,4.33h2.3v-7.88h-2.3Zm37.4-1.08a9.92,9.92,0,0,0-2.28-.7,2.12,2.12,0,0,1-.82-.29.43.43,0,0,1-.18-.34.57.57,0,0,1,.22-.44,1,1,0,0,1,.64-.18,1.08,1.08,0,0,1,1.19,1l2.29-.13a2.41,2.41,0,0,0-.94-1.79,4,4,0,0,0-2.3-.56,4.88,4.88,0,0,0-1.94.31,2.34,2.34,0,0,0-1.06.85,2.09,2.09,0,0,0-.35,1.14,1.92,1.92,0,0,0,.69,1.52,5.32,5.32,0,0,0,2.28,1,2.9,2.9,0,0,1,1.25.46.71.71,0,0,1,.27.54A.75.75,0,0,1,85,122a1.22,1.22,0,0,1-.81.24,1.3,1.3,0,0,1-1.07-.47,1.74,1.74,0,0,1-.31-.86l-2.31.14a3.09,3.09,0,0,0,.87,2,4,4,0,0,0,2.79.77,4.71,4.71,0,0,0,1.89-.33,2.6,2.6,0,0,0,1.17-1,2.5,2.5,0,0,0,.42-1.4,2.19,2.19,0,0,0-.31-1.16A2.37,2.37,0,0,0,86.32,119.07Zm19.86-.52h-2.66v-2.76h-2.43v7.88h2.43v-3.19h2.66v3.19h2.44v-7.88h-2.44Zm20-2.89a3.73,3.73,0,0,0-4.07,4.07,4.35,4.35,0,0,0,.55,2.3,3.32,3.32,0,0,0,1.41,1.35,5.09,5.09,0,0,0,2.21.42,4.37,4.37,0,0,0,2.18-.49,3.32,3.32,0,0,0,1.35-1.38,4.81,4.81,0,0,0,.46-2.26,4,4,0,0,0-1.06-3A4.13,4.13,0,0,0,126.21,115.66Zm1.23,5.81a1.51,1.51,0,0,1-1.22.51,1.48,1.48,0,0,1-1.2-.52,3.58,3.58,0,0,1,0-3.44,1.47,1.47,0,0,1,1.18-.52,1.53,1.53,0,0,1,1.22.51,2.46,2.46,0,0,1,.45,1.63A2.89,2.89,0,0,1,127.44,121.47Zm22.39-5a2.73,2.73,0,0,0-2-.63h-4.05v7.88h2.45v-2.93h1.33a3.1,3.1,0,0,0,2.19-.67,2.44,2.44,0,0,0,.71-1.86A2.36,2.36,0,0,0,149.83,116.42Zm-2,2.48a1.49,1.49,0,0,1-1,.25h-.59v-1.76H147a1.31,1.31,0,0,1,.93.26.89.89,0,0,1,.25.63A.78.78,0,0,1,147.84,118.9Z" fill="#385d4b"/><path d="M19.36,95.4a5.6,5.6,0,0,0,.86-3.35,7.58,7.58,0,0,0-.33-2.37,3.54,3.54,0,0,0-1-1.62,4.11,4.11,0,0,0-1.79-.92,10.34,10.34,0,0,0-2.67-.3H0v21.92H14.42c2.13,0,3.62-.42,4.49-1.26s1.31-2.31,1.31-4.38a8,8,0,0,0-.89-4.21A4.32,4.32,0,0,0,16.51,97,4.74,4.74,0,0,0,19.36,95.4Zm-8.19,6.78a2.07,2.07,0,0,1-.27,1.23,1.26,1.26,0,0,1-1,.33h-1v-4h1a1.23,1.23,0,0,1,1,.35,2,2,0,0,1,.27,1.21Zm-.29-7.59a1.25,1.25,0,0,1-1,.35h-1v-3.1h1a1.26,1.26,0,0,1,1,.33,2.07,2.07,0,0,1,.27,1.23A1.86,1.86,0,0,1,10.88,94.59Zm14.59,14.19h8.92V86.85H25.47ZM50.79,93.41l0,.35h8.92V91.54a6.38,6.38,0,0,0-.31-2.13,3.18,3.18,0,0,0-1-1.46,4.06,4.06,0,0,0-1.72-.82,10.94,10.94,0,0,0-2.55-.26H45A6.09,6.09,0,0,0,40.94,88a4.5,4.5,0,0,0-1.28,3.56v12a9,9,0,0,0,.29,2.43,3.65,3.65,0,0,0,.91,1.63,3.49,3.49,0,0,0,1.66.92,9.25,9.25,0,0,0,2.47.29H55.82q3.87,0,3.87-4.06V96H49.57v4.88h1.21v1.35a2.1,2.1,0,0,1-.27,1.21,1.18,1.18,0,0,1-1.7,0,2.12,2.12,0,0,1-.25-1.21v-8.8a2.23,2.23,0,0,1,.26-1.22.94.94,0,0,1,.84-.38,1.08,1.08,0,0,1,.83.35,1.38,1.38,0,0,1,.32,1,1,1,0,0,1,0,.15A.86.86,0,0,0,50.79,93.41Zm27.7-6.56L74.3,108.78h8.93l.52-4.76h2.66l.55,4.76h9L91.72,86.85Zm5.82,12.34.78-7.45.79,7.45ZM110,86.85h-8.85v21.93h14.3v-5H110Zm7.92,5.44h3.73l-1.4,2.44h2.66l1.48-2.44V86.87h-6.47Zm32.43,1V90.83a3.38,3.38,0,0,0-1.42-3,7.38,7.38,0,0,0-4.25-1h-9.33a7.35,7.35,0,0,0-4.24,1,3.36,3.36,0,0,0-1.43,3v2.28a4.06,4.06,0,0,0,.75,2.56,7,7,0,0,0,2.94,1.72l6.29,2.33a5,5,0,0,1,.82.37,1.35,1.35,0,0,1,.68,1,6.09,6.09,0,0,1,.05.82,2.17,2.17,0,0,1-.28,1.27,1,1,0,0,1-.87.38c-.74,0-1.12-.51-1.12-1.52v-1.49h-9.26v3.84a3.76,3.76,0,0,0,1.37,3.39,7.32,7.32,0,0,0,4.25,1h9.33A6.91,6.91,0,0,0,149,107.7q1.37-1.1,1.41-3.87v-2.36a9.57,9.57,0,0,0-.13-1.72,3.74,3.74,0,0,0-.44-1.26,3,3,0,0,0-.78-.89,5.69,5.69,0,0,0-1.18-.65l-7.31-2.83a7.05,7.05,0,0,1-.86-.37,2.93,2.93,0,0,1-.49-.33.83.83,0,0,1-.23-.33,1.5,1.5,0,0,1-.05-.4,1,1,0,0,1,.3-.76,1.1,1.1,0,0,1,.79-.29c.78,0,1.18.48,1.18,1.44v.26Z"/></g></g></svg>