<?xml version="1.0" encoding="utf-8"?>
<!-- Generator: Adobe Illustrator 27.0.0, SVG Export Plug-In . SVG Version: 6.00 Build 0)  -->
<svg version="1.1" id="Layer_1" xmlns="http://www.w3.org/2000/svg" xmlns:xlink="http://www.w3.org/1999/xlink" x="0px" y="0px"
	 width="262.7px" height="110px" viewBox="0 0 262.7 110" style="enable-background:new 0 0 262.7 110;" xml:space="preserve">
<style type="text/css">
	.st0{fill:#1E1E1E;}
	.st1{fill:url(#Union_34_00000057123940044176638280000015493758484414744243_);enable-background:new    ;}
	.st2{fill:url(#Subtraction_117_00000013904565628211933030000002021650873168105143_);}
</style>
<path id="Path_31713" class="st0" d="M207.7,110H55C24.6,110,0,85.4,0,55c0,0,0,0,0,0l0,0C0,24.6,24.6,0,55,0c0,0,0,0,0,0h152.7
	c30.4,0,55,24.6,55,55c0,0,0,0,0,0l0,0C262.7,85.4,238.1,110,207.7,110C207.8,110,207.7,110,207.7,110z"/>
<linearGradient id="Union_34_00000109019483756833003640000001358610729393002634_" gradientUnits="userSpaceOnUse" x1="-9.4219" y1="266.1344" x2="-9.4219" y2="265.1364" gradientTransform="matrix(128.0132 0 0 -75.8669 1380.0933 20206.9336)">
	<stop  offset="0" style="stop-color:#D7C466"/>
	<stop  offset="1" style="stop-color:#645729"/>
</linearGradient>
<path id="Union_34" style="fill:url(#Union_34_00000109019483756833003640000001358610729393002634_);enable-background:new    ;" d="
	M115.8,92.1c-0.4-0.3-0.7-0.7-0.9-1.2c-0.2-0.4-0.4-0.8-0.5-1.2c-0.1-0.5-0.2-0.9-0.3-1.4c-0.1-0.9-0.1-1.7-0.1-2.6c0-1,0.1-2,0.3-3
	h-1.6c-0.2,0-0.4,0-0.5-0.2c-0.2-0.1-0.4-0.2-0.5-0.5c-0.1-0.2-0.1-0.4-0.1-0.5c0-0.2,0.3-0.3,0.6-0.4c0.4,0,0.8-0.1,1.2-0.2
	c0.5-0.1,0.8-0.2,1.2-0.3c0.2-1.4,0.5-2.8,0.8-4.2c0.4-1.4,0.7-2.8,1.1-4.1c0.4-1.4,0.8-2.5,1.2-3.7c0.4-1.2,0.7-2.2,1.1-3.1
	c0.4-0.8,0.6-1.5,0.9-2.1c0.3-0.5,0.5-0.8,0.6-0.9c0.2-0.1,0.5-0.2,0.7-0.3c0.3-0.1,0.6-0.2,1-0.3s0.7-0.1,1.1-0.2
	c0.3-0.1,0.7-0.1,1-0.1c0.4,0,0.5,0,0.6,0.1c0.1,0,0.1,0.1-0.1,0.3c-0.1,0.3-0.3,0.6-0.5,0.9c-0.3,0.5-0.5,1.2-0.9,2
	c-0.4,0.8-0.7,1.8-1.2,2.9c-0.5,1.1-0.9,2.3-1.4,3.5c-0.5,1.3-0.8,2.5-1.3,3.9c-0.4,1.3-0.8,2.6-1.1,3.9c1.9-0.7,3.7-1.7,5.3-2.9
	c1.6-1.2,3-2.5,4.2-4.1c1.3-1.5,2.3-3.3,3-5.1c0.8-2,1.3-4,1.4-6.1v-1.4c-0.3,0-0.5,0-0.8-0.1c-0.5-0.1-1-0.4-1.4-0.7
	c-0.8-0.6-1.4-1.5-1.5-2.5c-0.4,0-0.8,0-1.2,0c-1.4,0.2-2.8,0.7-4.1,1.4c-1.5,0.8-3,1.8-4.2,3.1c-1.5,1.4-2.7,3-3.8,4.7
	c-1.2,1.9-2,4-2.6,6.2c-0.1,0.2-0.2,0.3-0.5,0.2c-0.3-0.1-0.6-0.2-0.8-0.5c-0.3-0.3-0.6-0.6-0.8-0.9c-0.3-0.4-0.4-0.9-0.5-1.4
	c-0.1-1.3,0.1-2.5,0.5-3.7c0.5-1.2,1.1-2.4,1.9-3.4c0.8-1.1,1.8-2.1,2.9-3c1.1-0.9,2.3-1.7,3.6-2.3c1.3-0.7,2.6-1.3,4-1.7
	c1.3-0.4,2.6-0.7,4-0.9c0.4-0.1,0.9-0.1,1.4-0.1c0-1.5,0.3-3.1,0.9-4.5c0.8-1.9,2-3.7,3.4-5.2c1.5-1.6,3.2-2.9,5.1-3.9
	c1.9-1.1,4-2,6-2.7c0.2-1.1,0.4-2.1,0.5-3.1c0.1-1,0.2-1.9,0.3-2.8s0.2-1.7,0.2-2.4c0.1-0.6,0.1-1.3,0.1-1.9v-2.2
	c0-0.6-0.3-1.1-0.7-1.4c-0.6-0.3-1.4-0.4-2.1-0.3c-0.6,0.1-1.2,0.3-1.7,0.5c-0.8,0.4-1.7,0.8-2.4,1.4c-1,0.6-1.8,1.3-2.6,2.2
	c-0.9,0.9-1.7,1.9-2.3,3c-0.7,1.2-1.2,2.4-1.5,3.8c-0.4,1.5-0.5,3.1-0.3,4.6c0.1,0.7,0.3,1.4,0.5,2.3c0.1,0.2-0.1,0.2-0.5,0.2
	c-0.4-0.1-0.9-0.2-1.3-0.5c-1.1-0.5-2-1.4-2.4-2.6c-0.2-0.6-0.3-1.2-0.4-1.8c-0.2-1.1-0.1-2.3,0.2-3.4c0.3-1.2,0.7-2.3,1.3-3.3
	c0.6-1.1,1.3-2.2,2.1-3.2c0.8-1,1.8-1.8,2.8-2.6c1-0.8,2.2-1.4,3.3-2c1.2-0.5,2.4-0.9,3.7-1.1c1-0.2,2-0.2,3-0.1
	c0.8,0.1,1.7,0.3,2.4,0.7c0.7,0.4,1.3,0.9,1.7,1.6c0.5,0.9,0.8,1.8,0.9,2.8c0.2,1.8,0.2,3.5,0.1,5.3c-0.1,1.7-0.3,3.3-0.5,5
	c0.6-0.1,1.3-0.3,1.9-0.4l1.9-0.3c0.5,0,0.9-0.1,1.4-0.1c0.4-0.1,0.8-0.1,1.3-0.1c0.3-1.5,0.6-3.1,1-4.5c0.5-1.4,0.8-2.9,1.4-4.2
	c0.5-1.4,1.1-2.6,1.7-3.9c0.6-1.2,1.3-2.3,2.1-3.3c0.3-0.2,0.6-0.3,1-0.4h1.1c0.4,0,0.7,0.1,1.1,0.2c0.3,0.1,0.5,0.2,0.6,0.5
	c0.1,0.2,0.1,0.5-0.1,0.7c-1.5,2.2-2.7,4.6-3.7,7.1c-1.1,2.6-1.9,5.3-2.4,8c0.6,0.2,1.1,0.3,1.6,0.5c0.4,0.2,0.7,0.5,0.9,0.8
	c0.1,0.3,0.2,0.6,0.2,0.9c0,0.2-0.1,0.4-0.3,0.5c-0.2,0.1-0.4,0.1-0.5,0.1c-0.2,0-0.4-0.2-0.5-0.4c-0.5-0.4-1.1-0.6-1.8-0.6
	c-0.5,2.8-0.9,5.6-1,8.4c-0.1,2.6,0,5.2,0.3,7.8c0.1,0.8,0.2,1.6,0.4,2.4c0.1,0.8,0.3,1.5,0.5,2.3c0,0.2,0,0.5-0.2,0.6
	c-0.2,0.1-0.4,0.2-0.6,0.1c-0.2-0.1-0.3-0.1-0.5-0.2c-0.2,0.9-0.4,1.9-0.7,2.8c-0.3,1.3-0.8,2.5-1.3,3.7c-0.5,1.4-1.1,2.7-1.7,4.1
	c-0.6,1.4-1.3,2.7-1.9,4c-0.6,1.3-1.3,2.4-1.9,3.5v1.7c0,1.2,0.2,2.4,0.5,3.6c0.3,0.6,0.5,0.9,0.6,0.9c0.1-0.1,0.4-0.2,0.7-0.5
	c0.7-0.6,1.4-1.4,1.9-2.2c0.2-0.4,0.5-0.7,0.6-1.1c0-0.5,0-1,0.1-1.5c0.1-0.9,0.2-1.8,0.5-2.6c0.2-0.9,0.6-1.8,1-2.6
	c0.4-0.8,0.9-1.6,1.5-2.3c0.6-0.7,1.3-1.2,2.1-1.7c0.8-0.5,1.7-0.8,2.6-0.9c0.4-0.1,0.8-0.1,1.2,0.1c0.3,0.1,0.6,0.4,0.8,0.6
	c0.2,0.2,0.3,0.5,0.5,0.7c0.1,0.2,0.1,0.4,0.2,0.5c0.1,0.1,0.1,0.2,0.1,0.4v0.4c-0.1,0.8-0.3,1.6-0.6,2.3c-0.4,0.9-1,1.7-1.5,2.4
	c-0.6,0.8-1.3,1.5-2.1,2.1c-0.7,0.5-1.4,0.9-2.3,1.2c-0.1,0.1-0.3,0.1-0.5,0c-0.1-0.1-0.3-0.2-0.4-0.3c-0.1,0.6-0.1,1.2,0,1.8
	c0.1,0.3,0.1,0.6,0.2,0.9c0.1,0.3,0.1,0.6,0.3,0.8c0,0.2,0.2,0.3,0.3,0.4c0.1,0.1,0.2,0.1,0.4,0.1c0.7-0.1,1.3-0.3,1.8-0.8
	c0.7-0.7,1.4-1.4,2-2.2c0.6-0.8,1.4-1.8,2-2.8c0.4-0.6,0.8-1.2,1.2-1.9c0.2-0.8,0.4-1.5,0.7-2.3c0.4-0.9,0.9-1.8,1.5-2.6
	c0.6-0.8,1.4-1.5,2.3-2.1c0.9-0.6,2-1,3.2-1.2c0.8-0.2,1.6,0.1,2.1,0.7c0.2,0.3,0.3,0.6,0.4,0.9c0,0.3,0,0.6-0.1,0.8
	c-0.1,0.2-0.3,0.4-0.5,0.4c-0.3,0.1-0.7,0-1-0.2c-0.1-0.1-0.2-0.2-0.2-0.3c0-0.2-0.1-0.3-0.1-0.4c-0.1-0.1-0.1-0.2-0.2-0.3
	c-0.1-0.1-0.2-0.2-0.3-0.2c-0.6,0.1-1.1,0.4-1.4,0.8c-0.5,0.5-0.9,1-1.4,1.6c-0.5,0.7-0.9,1.4-1.2,2.2c-0.4,0.8-0.6,1.6-0.9,2.4
	c-0.3,0.8-0.5,1.6-0.6,2.4c-0.1,0.7-0.2,1.5-0.2,2.3c0.3-0.7,0.6-1.4,1-2c0.5-0.8,0.9-1.5,1.4-2.3c0.4-0.7,0.9-1.5,1.4-2.2
	c0.3-0.5,0.7-1,1.1-1.5v-0.1l0.2-0.2c0.1,0,0.3-0.2,0.4-0.3c0.2-0.2,0.3-0.3,0.5-0.4c0.2-0.1,0.5-0.2,0.6-0.3
	c0.2-0.2,0.4-0.2,0.5-0.3c0.4-0.1,0.6-0.1,0.7,0.1c0.1,0.2,0.2,0.4,0.1,0.6c-0.6,2.3-1.2,4.2-1.4,5.6c-0.4,1.4-0.5,2.3-0.6,2.7v0.3
	c0.3-0.2,0.6-0.5,0.7-0.8c0.4-0.5,0.7-0.9,1-1.4c0.4-0.6,0.8-1.2,1.1-1.9c0.4-0.7,0.7-1.4,1.1-2.1s0.6-1.4,1-2
	c0.4-0.6,0.6-1.3,0.9-1.7c0.1-0.1,0.1-0.3,0.2-0.4c0.1-0.4,0.2-0.8,0.3-1.3c0.4-1.7,0.8-3.3,1.2-4.9c0.4-1.5,0.8-2.9,1.2-4.1
	c0.5-1.3,0.8-2.3,1.2-3.1c0.2-0.6,0.6-1.1,1-1.6c0.3-0.2,0.5-0.3,0.8-0.4c0.4-0.2,0.9-0.3,1.4-0.4c0.4-0.1,0.8-0.2,1.2-0.2
	c0.4,0,0.5,0.1,0.4,0.3c-0.9,1.3-1.6,2.7-2.2,4.1c-0.6,1.6-1.3,3.3-1.8,5.1c-0.5,1.8-1.1,3.7-1.5,5.6s-0.8,3.8-1.2,5.6
	c0.6,0,1.1,0.2,1.6,0.5c0.4-0.3,0.9-0.7,1.3-1.1c0.5-0.5,1-1.1,1.4-1.7c0.5-0.8,1-1.5,1.4-2.3c0.4-0.9,0.9-1.9,1.4-3.1
	c0.1-0.2,0.2-0.3,0.5-0.4c0.2,0,0.4,0,0.5,0.1c0.2,0.1,0.4,0.2,1.4,1.2c0.1,0.1,0.1,0.3,0.1,0.5c-0.3,1.1-0.8,2.2-1.4,3.2
	c-0.5,0.9-1,1.7-1.6,2.5c-0.5,0.7-1,1.3-1.6,1.9c-0.5,0.5-1,0.9-1.4,1.3c0.4,1,0.5,2,0.5,3.1c0.1,1,0,2.1-0.2,3.1
	c-0.1,1-0.4,2-0.7,2.9c-0.4,0.9-0.7,1.7-1.1,2.4c-0.3,0.6-0.7,1.2-1.2,1.7c-0.4,0.5-0.7,0.7-1,0.7c-0.5,0.1-1-0.1-1.4-0.4
	c-0.4-0.5-0.8-1-1-1.6c-0.1-0.2-0.1-0.5-0.2-0.7c0-0.3-0.1-0.6-0.1-0.9c-0.1-1.2-0.2-2.3-0.1-3.5c0-1.5,0.2-3,0.4-4.5
	c0.1-1.2,0.3-2.3,0.5-3.5c-0.2,0.3-0.3,0.5-0.5,0.8c-0.6,1.2-1.3,2.3-1.9,3.2c-0.6,0.9-1.2,1.7-1.9,2.5c-0.4,0.5-1,0.9-1.6,1.1
	c-0.3,0-0.5,0-0.8,0c-0.4-0.1-0.7-0.3-0.8-0.6c-0.1-0.1-0.2-0.2-0.2-0.4c0-0.2-0.1-0.5-0.1-0.6c-0.1-0.7-0.1-1.5,0-2.3
	c0-1,0.2-2,0.4-3c-0.3,0.5-0.6,1.1-0.9,1.7c-0.3,0.6-0.6,1.3-0.9,1.8c-0.3,0.5-0.5,0.9-0.7,1.4c-0.2,0.5-0.5,0.8-0.6,1.2
	c-0.2,0.3-0.3,0.6-0.5,0.9l-0.5,0.5c-0.2,0.2-0.5,0.2-0.7,0.1c-0.3-0.1-0.5-0.3-0.6-0.5c-0.2-0.2-0.4-0.5-0.5-0.8
	c-0.1-0.3-0.2-0.6-0.4-0.9c-0.1-0.3-0.2-0.7-0.3-1.1v-1.5c-0.5,0.7-1.1,1.4-1.6,2.2c-0.8,0.9-1.7,1.8-2.7,2.5
	c-0.8,0.7-1.8,1.1-2.9,1.1c-0.3,0-0.5,0-0.8,0c-0.3-0.1-0.6-0.2-0.9-0.4c-0.4-0.2-0.7-0.5-0.9-0.8c-0.2-0.4-0.5-0.8-0.6-1.3
	c-0.4,0.8-0.9,1.5-1.5,2.1c-0.5,0.5-1.1,0.9-1.8,1.2c-0.7,0.1-1.4-0.1-2-0.5c-0.6-0.5-1-1.1-1.4-1.7c-0.4-0.9-0.6-2-0.7-3
	c-0.1-1-0.1-1.9-0.1-2.9c-0.5,0.8-0.9,1.7-1.4,2.6c-0.7,1.1-1.5,2.2-2.3,3.2c-0.8,0.9-1.7,1.8-2.7,2.5c-0.8,0.7-1.8,1.1-2.9,1.1
	c-0.3,0-0.5,0-0.8,0c-0.3-0.1-0.6-0.2-0.9-0.4c-0.4-0.2-0.7-0.5-0.9-0.8c-0.3-0.4-0.6-0.9-0.7-1.4c-0.1-0.5-0.2-0.9-0.3-1.4
	c-0.1-0.7-0.1-1.5,0-2.3c0.1-0.9,0.2-1.8,0.5-2.6c0.2-0.9,0.6-1.8,1-2.6c0.4-0.8,0.9-1.6,1.5-2.3c0.6-0.7,1.3-1.2,2.1-1.7
	c0.8-0.5,1.7-0.8,2.6-0.9c0.4-0.1,0.8-0.1,1.2,0.1c0.3,0.1,0.6,0.4,0.8,0.6c0.2,0.2,0.3,0.5,0.5,0.7c0.1,0.2,0.1,0.4,0.2,0.5
	c0.1,0.1,0.1,0.2,0.1,0.4v0.4c-0.1,0.8-0.3,1.6-0.6,2.3c-0.4,0.9-1,1.7-1.5,2.4c-0.6,0.8-1.3,1.5-2.1,2.1c-0.7,0.5-1.4,0.9-2.3,1.2
	c-0.1,0.1-0.3,0.1-0.5,0c-0.1-0.1-0.3-0.2-0.4-0.3c-0.1,0.6-0.1,1.2,0,1.8c0,0.1,0.1,0.3,0.1,0.5c0,0.1,0.1,0.3,0.1,0.5
	c0,0.1,0,0.3,0.1,0.4c0,0.2,0.1,0.3,0.2,0.5c0,0.2,0.2,0.3,0.3,0.4c0.1,0.1,0.2,0.1,0.4,0.1c0.7-0.1,1.3-0.3,1.8-0.8
	c0.7-0.7,1.4-1.4,2-2.2c0.6-0.8,1.4-1.8,2-2.8c0.6-1,1.2-2,1.7-2.9c0.5-0.9,0.9-1.7,1.3-2.3c0.1-1.1,0.2-2.1,0.4-3.2
	c0.3-1.7,0.6-3.5,1.1-5.2c0.4-1.6,1-3.2,1.7-4.7c0.6-1.3,1.3-2.5,2.3-3.6c0.6-0.8,1.4-1.3,2.3-1.6c-0.1-0.2-0.2-0.3-0.2-0.5
	c-0.2-1-0.4-2.1-0.5-3.3c-0.2-2.2-0.3-4.4-0.2-6.6c0.1-2.5,0.4-5,0.7-7.5c-0.8,0-1.6,0.1-2.3,0.2c-0.6,0.1-1.3,0.2-2,0.3
	c-0.6,0.2-1.4,0.3-2.1,0.5c-0.4,2.1-1,4.1-1.8,6c-0.7,1.7-1.5,3.4-2.4,5c-0.8,1.4-1.8,2.8-2.8,4.1c-0.9,1.1-1.8,2.1-2.8,3.1
	c-0.6,0.6-1.3,1.2-2.1,1.7c0.2,0.5,0.3,0.9,0.3,1.4c0.1,1.8-0.1,3.6-0.5,5.4c-0.5,1.9-1.2,3.7-2.2,5.3c-1,1.7-2.2,3.4-3.6,4.8
	c-1.4,1.5-3.1,2.8-4.9,3.9c0.5,1.2,1,2.3,1.6,3.4c0.6,1.1,1.3,2.2,2,3.2c0.7,0.9,1.4,1.8,2.3,2.5c0.7,0.6,1.5,1.1,2.4,1.4
	c0.2,0.1,0.3,0.2,0.3,0.4c0,0.2,0,0.4-0.1,0.6c-0.1,0.2-0.3,0.3-0.5,0.5c-0.2,0.2-0.5,0.2-0.8,0.1c-1-0.3-2-0.8-2.8-1.4
	c-1-0.8-1.9-1.6-2.7-2.5c-0.9-1-1.6-2.1-2.3-3.2c-0.7-1.1-1.3-2.3-1.9-3.5c-1.4,0.6-2.8,1.1-4.2,1.4c-0.3,1.5-0.5,2.9-0.6,4.4
	c-0.1,1.3-0.1,2.6,0,3.9c0,0.3,0.1,0.5,0.1,0.8c0.1,0.3,0.1,0.5,0.2,0.7c0.1,0.2,0,0.4-0.2,0.5c0,0,0,0,0,0
	c-0.2,0.1-0.4,0.1-0.6,0.1C116.3,92.4,116,92.3,115.8,92.1z M179.1,81.9c-0.2,1.1-0.2,2.2-0.3,3.2V86c0.1,0.3,0.1,0.5,0.1,0.8
	c0,0.3,0.1,0.6,0.2,0.9c0.1,0.3,0.3,0.3,0.4,0.1c0.6-0.7,1-1.4,1.4-2.3c0.4-0.9,0.6-1.8,0.8-2.7c0.2-0.9,0.3-1.7,0.4-2.4
	c0.1-0.5,0.1-1.1-0.1-1.6v-0.4c-0.1-0.2-0.1-0.5-0.2-0.8c-0.1-0.3-0.1-0.5-0.2-0.8c-0.2,0.1-0.3,0.2-0.4,0.2
	c-0.2,0.1-0.5,0.2-0.7,0.2c-0.2,0-0.5,0-0.7-0.1C179.5,78.9,179.3,80.5,179.1,81.9z M139.6,72c-0.5,0.5-1,1.1-1.4,1.8
	c-0.5,0.8-1,1.7-1.4,2.5c-0.4,1-0.6,2-0.7,3c0.7-0.2,1.4-0.6,1.9-1.2c0.6-0.5,1-1.1,1.4-1.8c0.4-0.7,0.7-1.4,1-2.1
	c0.2-0.6,0.4-1.2,0.5-1.9v-0.7c-0.1-0.3-0.1-0.4-0.2-0.4C140.4,71.2,140,71.5,139.6,72z M159.7,69.8c-0.5,0.5-1,1.1-1.4,1.8
	c-0.5,0.8-0.9,1.6-1.2,2.5c-0.4,0.9-0.8,1.9-0.9,3c0.7-0.2,1.4-0.6,1.9-1.2c0.6-0.5,1-1.1,1.4-1.8c0.4-0.7,0.7-1.4,1-2.1
	c0.2-0.6,0.4-1.2,0.5-1.9v-0.7c-0.1-0.3-0.1-0.4-0.2-0.4C160.5,69.1,160.1,69.3,159.7,69.8z M152.7,59.3c-0.6,1.2-1.1,2.5-1.5,3.8
	c-0.5,1.4-0.9,2.9-1.4,4.5c-0.5,1.6-0.8,3.2-1.1,4.9c0.8-1.5,1.5-3.1,2.2-4.6c0.7-1.5,1.3-3.1,1.8-4.4c0.5-1.2,0.9-2.5,1.3-3.8
	c0.2-0.8,0.4-1.6,0.4-2.4c0-0.1-0.1-0.1-0.1-0.2c-0.1,0-0.1-0.1-0.1-0.2C153.6,57.5,153.1,58.4,152.7,59.3z M130.6,57.2
	C130.7,57.2,130.7,57.2,130.6,57.2c0-0.1-0.2-0.2-0.3-0.4C130.5,56.9,130.5,57.1,130.6,57.2z M137.9,41.6c-1.5,1-2.8,2.1-4,3.4
	c-1.2,1.3-2.1,2.9-2.8,4.5c-0.5,1.3-0.8,2.6-1,4c0.8,0.2,1.5,0.4,2.2,0.8c0.5,0.3,1,0.8,1.4,1.3c0.8-0.7,1.5-1.4,2.2-2.3
	c1.2-1.4,2.2-2.9,3.1-4.4c0.9-1.5,1.6-3.1,2.2-4.8c0.6-1.6,1-3.2,1.4-4.9C140.9,39.9,139.4,40.7,137.9,41.6L137.9,41.6z M206.5,78.9
	c-0.9-0.2-1.7-0.5-2.4-1c-0.7-0.4-1.2-1-1.7-1.6c-0.4-0.6-0.8-1.3-1.2-2c-0.3-0.7-0.5-1.4-0.7-2.1c-0.2-0.6-0.3-1.3-0.4-1.9
	c-0.2-1.2-0.2-2.5-0.1-3.7c0.1-1.6,0.3-3.3,0.6-4.9c-1.2-0.5-2.3-1.2-3.2-2.2c-0.9-1-1.7-2.1-2.1-3.4c-0.1-0.3-0.2-0.5-0.3-0.9
	c-0.1-0.3-0.2-0.7-0.2-1v-1.6c0-0.5,0.1-1,0.2-1.5c0.1-0.5,0.2-0.9,0.3-1.4c0.2-0.5,0.3-0.8,0.4-1.1c0.2-0.3,0.4-0.5,0.6-0.7
	c0.2-0.2,0.5-0.3,0.6-0.5l-0.2-0.2c-0.2-0.2-0.4-0.5-0.5-0.8c-0.1-0.3-0.2-0.6-0.4-0.9c-0.1-0.3-0.2-0.7-0.3-1.1c0-0.7,0-1.4,0-2.1
	c0-0.9,0.2-1.8,0.4-2.6c0.1,0,0.1-0.1,0.1-0.2l-0.1,0.1c-0.7,0.6-1.4,1.3-2.1,1.8c-0.4,1-0.9,1.9-1.4,2.8c-0.5,0.8-1.1,1.6-1.7,2.3
	c-0.5,0.6-1.1,1.1-1.7,1.6c-0.4,0.4-1,0.7-1.5,0.8c-0.4,0.1-0.9,0-1.3-0.1c-0.4-0.1-0.7-0.3-1-0.5c-0.3-0.2-0.5-0.4-0.7-0.7
	c-0.2-0.2-0.3-0.5-0.5-0.7c-0.1-0.2-0.1-0.5-0.2-0.8c0-0.3-0.1-0.6-0.1-1c-0.1-1-0.1-2-0.1-3.2c-0.3,0.5-0.5,1-0.8,1.4
	c-0.5,0.9-1,1.7-1.5,2.5c-0.5,0.8-1,1.5-1.6,2.2c-0.5,0.6-1,1.1-1.6,1.5c-0.4,0.4-1,0.6-1.5,0.6c-0.5,0.1-1-0.1-1.4-0.5
	c-0.4-0.6-0.7-1.3-0.7-2c-0.1-0.8-0.1-1.7,0-2.5c0.1-1.1,0.3-2.1,0.5-3.2c0.3-1.1,0.6-2.1,1-3.2c0.3-0.9,0.8-1.7,1.3-2.5
	c-0.4,0.3-0.8,0.6-1.2,0.9c-0.4,0.3-0.9,0.6-1.4,0.7c-0.1,0.2-0.2,0.5-0.4,0.9c-0.3,0.9-0.7,1.8-1.2,2.6c-0.5,1.2-1.1,2.3-1.8,3.3
	c-0.7,1.1-1.5,2.2-2.3,3.3c-0.8,0.9-1.7,1.8-2.7,2.5c-0.8,0.7-1.8,1.1-2.9,1.1c-0.3,0-0.5,0-0.8,0c-0.3-0.1-0.6-0.2-0.9-0.4
	c-0.4-0.2-0.7-0.5-0.9-0.8c-0.3-0.4-0.6-0.9-0.7-1.4c-0.1-0.5-0.2-0.9-0.3-1.4c-0.1-0.7-0.1-1.5,0-2.3c0.1-0.9,0.2-1.8,0.5-2.6
	c0.2-0.9,0.6-1.8,1-2.6c0.4-0.8,0.9-1.6,1.5-2.3c0.6-0.7,1.3-1.2,2.1-1.7c0.8-0.5,1.7-0.8,2.6-0.9c0.4-0.1,0.8-0.1,1.2,0.1
	c0.6,0.3,1,0.8,1.3,1.4c0.1,0.2,0.1,0.4,0.2,0.5c0.1,0.1,0.1,0.2,0.1,0.4v0.4c-0.1,0.8-0.3,1.6-0.6,2.3c-0.4,0.9-1,1.7-1.5,2.4
	c-0.6,0.8-1.3,1.5-2.1,2.1c-0.7,0.5-1.4,0.9-2.3,1.2c-0.1,0.1-0.3,0.1-0.5,0c-0.1-0.1-0.3-0.2-0.4-0.3c-0.1,0.6-0.1,1.2,0,1.8
	c0,0.1,0.1,0.3,0.1,0.5c0,0.1,0.1,0.3,0.1,0.5c0,0.1,0,0.3,0.1,0.4c0,0.2,0.1,0.3,0.2,0.5c0,0.2,0.2,0.3,0.3,0.4
	c0.1,0.1,0.2,0.1,0.4,0.1c0.7-0.1,1.3-0.3,1.8-0.8c0.7-0.7,1.4-1.4,2-2.2c0.6-0.8,1.4-1.8,2-2.8c0.6-1,1.2-2,1.7-2.9
	c0.5-0.9,0.9-1.7,1.3-2.4c0-0.2,0.1-0.3,0.2-0.5c-0.2-0.1-0.5-0.3-0.6-0.5c-0.2-0.2-0.3-0.5-0.4-0.7c0-0.3-0.1-0.5-0.1-0.8v-0.5
	c0-0.3,0-0.6,0.1-0.9c0.1-0.4,0.3-0.9,0.4-1.3c0.3-0.5,0.5-1.1,0.9-1.7c0.1-0.2,0.3-0.3,0.5-0.3h1c0.3,0,0.7,0.1,1,0.2
	c0.2,0.1,0.4,0.1,0.5,0.3c0.1,0.2,0,0.5-0.2,0.9c-0.2,0.4-0.4,1-0.5,1.4s-0.4,0.7-0.5,1c-0.1,0.2-0.2,0.4-0.2,0.6
	c0.4-0.2,0.8-0.4,1.2-0.5c0.5-0.2,1-0.5,1.5-0.6c0.5-0.3,1-0.5,1.4-0.6c0.3-0.1,0.6-0.2,0.9-0.3c0.2,0,0.4,0.1,0.5,0.2
	c0.1,0.1,0.2,0.2,0.3,0.4c0.1,0.2,0.1,0.4,0.1,0.6c-0.5,1.1-1,2.2-1.4,3.3c-0.4,1.1-0.7,2.2-1.1,3.2c-0.3,1.1-0.5,2.1-0.7,3
	c-0.2,0.7-0.2,1.5-0.3,2.3v0.8c0.1,0.2,0.2,0.2,0.3,0.2c0.3-0.2,0.7-0.5,0.9-0.8c0.5-0.5,1-1.2,1.4-1.8c0.5-0.7,0.9-1.5,1.4-2.4
	c0.5-0.9,1-1.7,1.4-2.6c0.5-0.8,0.8-1.5,1.2-2.3c0.1-0.5,0.1-0.8,0.2-1.3c0.2-1.6,0.5-3.2,0.9-4.8c0.4-1.5,0.7-3,1.2-4.3
	c0.3-1.1,0.7-2.3,1.3-3.3c0.3-0.7,0.7-1.4,1.3-1.9c0.3-0.2,0.5-0.3,0.8-0.4c0.4-0.2,0.9-0.3,1.4-0.4c0.4-0.1,0.8-0.2,1.2-0.2
	c0.4,0,0.5,0.1,0.4,0.3c-0.7,1.1-1.3,2.2-1.8,3.3c-0.5,1.2-1,2.3-1.4,3.6c-0.4,1.2-0.8,2.5-1.1,3.8c-0.3,1.2-0.6,2.5-0.8,3.7
	c0.3-0.4,0.7-0.9,1.1-1.3c0.4-0.4,0.8-0.7,1.3-1.1c0.4-0.3,0.8-0.6,1.3-0.8c0.4-0.2,0.8-0.3,1.2-0.4c0.4-0.1,0.8,0,1.1,0.2
	c0.3,0.2,0.6,0.4,0.9,0.7c0.3,0.3,0.5,0.6,0.6,1c0.1,0.5,0.2,0.8,0.3,1.3c0,0.6,0,1.2-0.1,1.8c-0.1,0.5-0.2,1.2-0.3,1.7
	c0.7-0.7,1.4-1.5,2.2-2.3c0.2-0.2,0.4-0.5,0.5-0.6c0.3-0.5,0.6-1,1-1.4c0-0.1,0.1-0.2,0.2-0.3c0.1-0.2,0.2-0.3,0.3-0.5
	c0.1,0,0.2-0.1,0.3-0.1c0.5-0.4,1-0.8,1.5-1.2c0.9-0.6,2-1,3.2-1.2c0.4-0.1,0.9-0.1,1.3,0.1c0.3,0.1,0.6,0.4,0.8,0.6
	c0.2,0.3,0.3,0.6,0.4,0.9c0,0.3,0,0.5-0.1,0.8c-0.1,0.2-0.3,0.4-0.5,0.5c-0.3,0.1-0.7,0-1-0.2c-0.1-0.1-0.2-0.2-0.2-0.3
	c0-0.2-0.1-0.3-0.1-0.4c-0.1-0.1-0.1-0.2-0.2-0.3s-0.2-0.2-0.3-0.2c-0.6,0.1-1.1,0.4-1.4,0.8c-0.5,0.5-0.9,1-1.4,1.6
	c-0.5,0.7-0.9,1.4-1.2,2.2c-0.4,0.8-0.6,1.6-0.9,2.4c-0.3,0.8-0.5,1.6-0.6,2.4c-0.1,0.7-0.2,1.5-0.2,2.3c0.3-0.7,0.6-1.4,1-2
	c0.5-0.8,0.9-1.5,1.4-2.3c0.4-0.7,0.9-1.5,1.4-2.2c0.3-0.5,0.7-1,1.1-1.5V37l0.2-0.2c0.1,0,0.3-0.2,0.5-0.3c0.2-0.2,0.3-0.3,0.5-0.4
	c0.2-0.1,0.5-0.2,0.6-0.3c0.2-0.2,0.4-0.2,0.5-0.3c0.4-0.1,0.6-0.1,0.7,0.1c0.1,0.2,0.2,0.4,0.1,0.6c-0.6,2.3-1.2,4.2-1.4,5.6
	c-0.4,1.4-0.5,2.3-0.6,2.7v0.3c0.3-0.2,0.6-0.5,0.7-0.8c0.4-0.5,0.7-0.9,1-1.4c0.4-0.6,0.8-1.2,1.1-1.9c0.4-0.7,0.7-1.4,1.1-2.1
	c0.4-0.7,0.6-1.4,1-2c0.4-0.6,0.6-1.3,0.9-1.7c0.1-0.1,0.1-0.3,0.2-0.4c0.1-0.8,0.2-1.7,0.4-2.6c0.3-1.7,0.6-3.5,1.1-5.2
	c0.4-1.6,1-3.2,1.7-4.7c0.6-1.3,1.3-2.5,2.3-3.6c0.8-0.9,1.8-1.5,2.9-1.8c0.4-0.1,0.8,0,1.2,0.3c0.4,0.3,0.6,0.8,0.7,1.3
	c0.1,0.7,0.1,1.3-0.1,2c-0.2,0.9-0.5,2-0.8,3.1c-0.3,1.3-0.8,2.5-1.3,3.7c-0.5,1.4-1.1,2.7-1.7,4.1c-0.6,1.4-1.3,2.7-1.9,4
	s-1.3,2.4-1.9,3.5v1.7c0,0.5,0,1.1,0.1,1.6c0,0.3,0.1,0.5,0.1,0.7c1-0.5,2.1-0.8,3.2-1c0.3,0,0.5-0.1,0.7-0.1
	c0.4-0.7,0.8-1.4,1.2-2.3c0.5-1,1-2.1,1.4-3.2c0.4-1,0.8-2,1.1-3c0.1-0.1,0.2-0.2,0.4-0.3c0.2-0.1,0.3-0.2,0.5-0.2h0.5
	c0.2,0,0.2,0.1,0.2,0.2c-0.1,0.6-0.2,1.2-0.5,1.7c-0.3,0.7-0.6,1.6-1,2.6c-0.5,1-0.9,2-1.4,3.1c-0.2,0.5-0.4,0.9-0.6,1.4
	c0.8,0.1,1.6,0.3,2.3,0.7c0.7,0.4,1.3,0.9,1.7,1.5c0.5,0.7,0.8,1.6,0.8,2.4c0.1,1.5-0.1,3-0.4,4.4c-0.3,1.4-0.9,2.7-1.7,3.9
	c-0.8,1.2-1.7,2.3-2.8,3.2c-1.1,1-2.3,1.9-3.5,2.6c-1.3,0.7-2.6,1.3-4,1.8c-1.3,0.4-2.7,0.7-4.1,0.9c-0.9,0.2-1.9,0.2-2.8,0.1
	c-0.1,0.9-0.2,1.7-0.3,2.5c-0.1,0.7-0.2,1.4-0.2,2.2v1.7c0,0.5,0.1,0.8,0.1,1.1c0.1,1.1,0.3,2.2,0.6,3.2c0.2,0.7,0.5,1.4,0.9,2.1
	c0.3,0.5,0.7,0.8,1.1,1.2c0.3,0.3,0.7,0.4,1.1,0.5c0.3,0.1,0.6,0.1,0.9,0.1c0.2-0.1,0.4-0.1,0.6-0.1h0.2c1.2-0.3,2.3-0.7,3.3-1.4
	c1.1-0.7,2.1-1.5,3-2.3c0.9-0.9,1.8-1.9,2.6-2.9c0.8-1,1.5-2,2.2-3.1c0.5-0.7,1-1.4,1.4-2.2c0-0.1,0.1-0.2,0.1-0.3
	c0.3-0.9,0.7-1.9,1.3-2.7c0.2-1,0.6-2,1.4-2.8c0.9-0.9,2-1.4,3.2-1.5c0.5,0,1,0,1.5,0.2c0.4,0.2,0.8,0.4,1.1,0.8
	c0.3,0.4,0.6,0.8,0.7,1.3c0.2,0.5,0.3,1,0.4,1.5v1.8c0,0.6-0.1,1.2-0.2,1.8c0.5-0.4,1-0.9,1.4-1.4c0.5-0.5,0.9-1,1.3-1.5
	c0.4-0.5,0.7-1.1,1-1.5s0.5-0.9,0.7-1.3l0.5-0.8c0.1-0.1,0.2-0.2,0.4-0.2h0.5c0.2,0.1,0.4,0.1,0.5,0.2c0.1,0.1,0.2,0.2,0.3,0.3
	c0,0.2-0.1,0.4-0.2,0.6c-0.2,0.5-0.4,0.9-0.6,1.4c-0.4,0.5-0.7,1.1-1.1,0.9c-0.5,0.6-0.9,1.3-1.4,1.9c-0.5,0.6-1.1,1.2-1.7,1.7
	c-0.6,0.5-1.3,0.9-2,1.2c-0.3,0.8-0.6,1.5-1,2.3c-0.3,0.8-0.8,1.5-1.3,2.2c-0.5,0.7-1,1.3-1.7,1.7c-0.7,0.5-1.5,0.7-2.3,0.8
	c-0.7,0-1.4-0.2-2-0.6c-0.6-0.5-1-1.2-1.2-1.9c-0.1-0.6-0.2-1.2-0.2-1.8v-0.3c-0.4,0.6-0.9,1.4-1.4,2c-0.9,1.2-1.8,2.3-2.9,3.3
	c-1,1-2.1,1.9-3.3,2.6c-1.2,0.7-2.4,1.2-3.8,1.4c-0.3,0-0.6,0-0.9,0C208,79.1,207.3,79.1,206.5,78.9z M224.1,70.5c-0.4,1-0.4,2,0,3
	c0,0.2,0.1,0.3,0.3,0.2c0.4-0.1,0.7-0.4,1-0.6c0.3-0.4,0.6-0.8,0.9-1.2c0.3-0.5,0.5-1,0.8-1.5s0.5-1.1,0.8-1.7
	c-1.1,0-2.1-0.4-2.9-1.2C224.7,68.5,224.4,69.5,224.1,70.5z M228.1,61.2c-0.5,0.5-0.9,1.1-1.3,1.7c-0.5,0.9-1,1.8-1.4,2.7
	c0.3,0.5,0.7,0.9,1.3,1.1c0.5,0.2,0.9,0.3,1.4,0.4c0.3-1,0.5-1.9,0.6-2.8c0.2-0.9,0.3-1.6,0.4-2.2c0-0.3-0.1-0.7-0.2-1
	c-0.1-0.2-0.2-0.4-0.4-0.6c-0.2-0.2-0.3-0.3-0.4-0.4c0-0.1-0.1-0.1-0.2-0.1c-1.1,0.2-2,0.9-2.5,1.8V62c0.2-0.1,0.4-0.3,0.6-0.5
	c0.3-0.2,0.6-0.4,1-0.5c0.2-0.1,0.5-0.2,0.7-0.2C228.2,60.9,228.2,61,228.1,61.2z M210.6,46.9c-0.8,0.9-1.6,2-2.2,3.1
	c-0.7,1.2-1.2,2.4-1.7,3.6c-0.5,1.3-0.9,2.6-1.3,3.9c-0.3,1.3-0.6,2.6-0.8,3.9h0.7c0.2,0,0.5-0.1,0.7-0.1c1.2-0.2,2.4-0.5,3.5-1
	c1.2-0.5,2.4-1.2,3.4-2c1.1-0.8,2.2-1.7,3.2-2.7c0.9-1,1.8-2,2.5-3.2c0.7-1,1.2-2.2,1.5-3.3c0.4-1.1,0.4-2.2,0.3-3.3
	c-0.2-0.9-0.7-1.7-1.4-2.2c-0.3-0.2-0.6-0.3-1-0.4v0.1c-0.5,0.8-1.1,1.6-1.7,2.3c-0.5,0.5-1.1,0.9-1.8,1.2c-0.7,0.1-1.4-0.1-2-0.5
	c-0.2-0.2-0.4-0.4-0.6-0.6C211.5,46,211,46.5,210.6,46.9z M201,46.9c0.2,0.1,0.3,0.2,0.2,0.5l-0.2,0.4c-0.2,0.3-0.4,0.7-0.6,1.3
	s-0.5,1.2-0.7,1.9c-0.2,0.7-0.4,1.4-0.5,2.3c-0.2,0.7-0.2,1.5-0.1,2.3c0.1,0.4,0.2,0.7,0.3,1.1c0.1,0.7,0.4,1.4,0.8,2
	c0.3,0.5,0.6,1,1.1,1.4c0.4-1.4,0.8-2.6,1.3-4c0.4-1.3,1-2.6,1.6-3.8c0.6-1.3,1.4-2.5,2.3-3.6c0.8-1.1,1.8-2.2,2.8-3.1
	c0.6-0.5,1.3-1,1.9-1.4c-0.2-0.8-0.4-1.5-0.5-2.3c-0.1-0.9-0.1-1.9-0.1-2.8c-0.4,0.7-0.7,1.4-1.2,2.3c-0.6,1.2-1.3,2.3-1.9,3.2
	c-0.6,0.9-1.2,1.7-1.9,2.5c-0.4,0.5-1,0.9-1.6,1.1c-0.3,0-0.5,0-0.8,0c-0.4-0.1-0.7-0.3-0.8-0.6c-0.1-0.1-0.2-0.2-0.2-0.4
	c0-0.2-0.1-0.5-0.1-0.6c-0.1-0.7-0.1-1.5,0-2.3c0-1,0.2-2,0.4-3c-0.3,0.5-0.6,1.1-0.9,1.7c-0.3,0.6-0.6,1.3-0.9,1.8
	c-0.3,0.5-0.5,0.9-0.7,1.4c-0.2,0.5-0.5,0.8-0.6,1.2v0.1c0.3-0.1,0.6-0.2,0.9-0.3c0.2,0,0.3-0.1,0.5-0.1
	C200.8,46.8,200.9,46.8,201,46.9L201,46.9z M190.6,35.4c-0.4,0.3-0.7,0.6-1,1c-0.4,0.5-0.6,0.9-1,1.4c-0.3,0.5-0.6,0.9-0.9,1.4
	c-0.3,0.5-0.5,1-0.6,1.4c-0.2,0.4-0.3,0.8-0.4,1.2v0.4c-0.1,0.9-0.2,1.7-0.2,2.4c-0.1,0.6-0.1,1.3-0.1,1.9c0,0.5,0.1,1.1,0.5,1.5
	c0.3,0.3,0.7,0.3,1,0c0.6-0.5,1.1-1.2,1.5-1.9c-0.4,0.3-0.8,0.6-1.2,1c-0.3,0.3-0.5,0.5-0.5,0.5c-0.1,0.1-0.2,0.2-0.3,0.3h-0.4
	c-0.1-0.1-0.2-0.2-0.3-0.4c-0.1-0.3-0.1-0.6-0.1-0.9c0.2-0.6,0.5-1.1,1-1.4c0.7-0.6,1.4-1.2,2.2-1.7l0.7-0.5
	c0.3-0.7,0.5-1.4,0.6-2.1c0.2-0.7,0.4-1.4,0.5-1.9c0.1-0.5,0.2-1,0.3-1.5c0-0.4,0-0.7-0.1-0.7l-0.1-0.5c0-0.4-0.1-0.6-0.1-0.8
	c-0.1-0.3-0.2-0.4-0.3-0.4C191.2,35.1,190.8,35.2,190.6,35.4z M166.7,38.1c-0.5,0.5-1,1.1-1.4,1.8c-0.5,0.8-1,1.7-1.4,2.5
	c-0.5,0.9-0.7,1.9-0.7,3c0.7-0.2,1.4-0.6,1.9-1.2c0.6-0.5,1-1.1,1.4-1.8c0.4-0.7,0.7-1.4,1-2.1c0.2-0.6,0.4-1.2,0.5-1.9v-0.7
	c-0.1-0.3-0.1-0.4-0.2-0.4C167.5,37.3,167.1,37.6,166.7,38.1z M213.9,44.4c0.2,0.4,0.3,0.5,0.4,0.5c0.1-0.1,0.4-0.2,0.7-0.5
	c0.4-0.3,0.8-0.7,1.1-1.1C215.3,43.6,214.6,43.9,213.9,44.4L213.9,44.4z M217.6,21.3c-0.5,1.1-1,2.3-1.5,3.8
	c-0.5,1.4-0.9,2.9-1.4,4.5c-0.4,1.5-0.7,3.2-1.2,4.7c0.8-1.5,1.5-3.1,2.2-4.6c0.7-1.5,1.3-3.1,1.8-4.4c0.5-1.2,0.9-2.5,1.3-3.8
	c0.2-0.8,0.4-1.7,0.4-2.5v-0.3C218.5,19.5,218,20.4,217.6,21.3L217.6,21.3z M235.1,73.5c-0.4-0.3-0.6-0.7-0.6-1.2
	c0-0.4,0.1-0.9,0.4-1.3c0.3-0.3,0.7-0.5,1.2-0.6c0.5-0.1,0.9,0.1,1.3,0.4c0.4,0.3,0.6,0.7,0.6,1.2c0.1,0.5,0,1-0.5,1.3
	c-0.3,0.3-0.7,0.6-1.2,0.6c-0.1,0-0.2,0-0.2,0C235.7,73.9,235.4,73.7,235.1,73.5L235.1,73.5z"/>
<linearGradient id="Subtraction_117_00000094586585446199897030000011944721888854195593_" gradientUnits="userSpaceOnUse" x1="-9.3973" y1="266.5916" x2="-9.3973" y2="265.5936" gradientTransform="matrix(97.3782 0 0 -97.378 972.7369 25965.7812)">
	<stop  offset="0" style="stop-color:#D7C466"/>
	<stop  offset="1" style="stop-color:#645729"/>
</linearGradient>
<path id="Subtraction_117_00000053534298472008256540000012791210364158796441_" style="fill:url(#Subtraction_117_00000094586585446199897030000011944721888854195593_);" d="
	M57.6,103.7C30.7,103.7,8.9,81.9,9,55S30.8,6.3,57.7,6.3c26.9,0,48.7,21.8,48.7,48.7c0,12.9-5.1,25.3-14.3,34.4
	C82.9,98.6,70.5,103.7,57.6,103.7z M57.6,15.7c-21.7,0-39.4,17.6-39.4,39.3c0,6.5,1.6,12.8,4.6,18.5c4,7.4,10.2,13.3,17.7,17
	c10.7,5.1,23.2,5.1,33.9,0c7.5-3.7,13.7-9.6,17.7-17c3-5.7,4.6-12,4.6-18.5c0-5.9-1.3-11.7-3.9-17C86.4,24.4,72.7,15.6,57.6,15.7
	L57.6,15.7z M57.6,88.5c-3.6,0-7.2-0.6-10.6-1.7l10.6-10.6l10.6,10.6C64.8,87.9,61.2,88.5,57.6,88.5z M73.8,84.3L73.8,84.3l-9.4-9.4
	h20C81.7,78.8,78,82,73.8,84.3L73.8,84.3z M41.4,84.3L41.4,84.3c-4.2-2.3-7.8-5.5-10.6-9.4h20L41.4,84.3z M88.1,69.2H64.6l24.9-24.9
	C92.2,52.5,91.7,61.4,88.1,69.2z M50.8,69.2H27.3c-2.1-4.5-3.2-9.3-3.2-14.2c0-3.6,0.6-7.2,1.7-10.6L50.8,69.2z M60.6,65.2V21.5
	c5.5,0.5,10.7,2.3,15.3,5.3c4.6,3,8.4,7.1,11.1,11.9L60.6,65.2L60.6,65.2z M54.8,65.2L54.8,65.2L28.3,38.7
	c5.4-9.8,15.4-16.2,26.5-17.2V65.2L54.8,65.2z"/>
</svg>
