<svg xmlns="http://www.w3.org/2000/svg" xmlns:xlink="http://www.w3.org/1999/xlink" width="201.36" height="141.67" viewBox="0 0 201.36 141.67"><defs><linearGradient id="linear-gradient" x1="100.5" y1="110" x2="100.5" gradientUnits="userSpaceOnUse"><stop offset="0" stop-color="#665042"/><stop offset="1"/></linearGradient><linearGradient id="linear-gradient-2" x1="134.48" y1="128" x2="134.48" y2="116.47" gradientUnits="userSpaceOnUse"><stop offset="0" stop-color="#fff" stop-opacity="0.4"/><stop offset="1" stop-color="#fff" stop-opacity="0"/></linearGradient><linearGradient id="linear-gradient-3" x1="31.9" x2="31.9" y2="116.47" xlink:href="#linear-gradient-2"/><linearGradient id="linear-gradient-4" x1="169.22" x2="169.22" y2="116.47" xlink:href="#linear-gradient-2"/><linearGradient id="linear-gradient-5" x1="191.28" x2="191.28" y2="116.47" xlink:href="#linear-gradient-2"/><linearGradient id="linear-gradient-6" x1="63.55" x2="63.55" y2="116.47" xlink:href="#linear-gradient-2"/><linearGradient id="linear-gradient-7" x1="100.97" x2="100.97" y2="116.47" xlink:href="#linear-gradient-2"/><linearGradient id="linear-gradient-8" x1="80.69" x2="80.69" y2="116.47" xlink:href="#linear-gradient-2"/><linearGradient id="linear-gradient-9" x1="10.08" x2="10.08" y2="116.47" xlink:href="#linear-gradient-2"/><linearGradient id="linear-gradient-10" x1="49.94" x2="49.94" y2="116.47" xlink:href="#linear-gradient-2"/></defs><g id="Layer_2" data-name="Layer 2"><g id="logos"><path d="M18,118.68a7.79,7.79,0,0,0-2.42-1.62,7.27,7.27,0,0,0-2.93-.59h-5a7.23,7.23,0,0,0-2.95.59,7.94,7.94,0,0,0-2.4,1.62,7.74,7.74,0,0,0-1.62,2.41A7.53,7.53,0,0,0,0,124v10.08a7.44,7.44,0,0,0,.59,2.95,7.77,7.77,0,0,0,1.62,2.39,7.59,7.59,0,0,0,2.4,1.62,7.24,7.24,0,0,0,2.95.6h5a7.28,7.28,0,0,0,2.93-.6A7.46,7.46,0,0,0,18,139.45a7.77,7.77,0,0,0,1.62-2.39,7.44,7.44,0,0,0,.59-2.95v-1.26h-5v1.26a2.53,2.53,0,0,1-2.52,2.52h-5A2.53,2.53,0,0,1,5,134.11V124a2.46,2.46,0,0,1,.74-1.79,2.41,2.41,0,0,1,1.78-.73h5a2.41,2.41,0,0,1,1.78.73,2.46,2.46,0,0,1,.74,1.79v1.26h5V124a7.53,7.53,0,0,0-.59-2.94A7.74,7.74,0,0,0,18,118.68Z" fill="#362922"/><path d="M38.83,130.83a8.3,8.3,0,0,0,2.2-2.74,8,8,0,0,0,.2-6.67,8,8,0,0,0-1.71-2.54A8.38,8.38,0,0,0,37,117.15a7.88,7.88,0,0,0-3.1-.68H22v5h2.52v15.12H22v5H32v-5H29.51v-4H34l2.31,4H34.3v5H44.38v-5h-2.2Zm-2.89-4.16a2.93,2.93,0,0,1-2.15.88H29.51v-6h4.28a3,3,0,0,1,2.15,5.16Z" fill="#362922"/><path d="M58.51,121.51H61v12.6a2.53,2.53,0,0,1-2.52,2.52H55a2.53,2.53,0,0,1-2.52-2.52v-12.6H55v-5H44.9v5h2.52v12.6a7.44,7.44,0,0,0,.59,2.95,7.77,7.77,0,0,0,1.62,2.39,7.59,7.59,0,0,0,2.4,1.62,7.24,7.24,0,0,0,2.95.6h3.53a7.61,7.61,0,0,0,5.34-2.22,7.43,7.43,0,0,0,1.62-2.39,7.27,7.27,0,0,0,.6-2.95v-12.6h2.52v-5H58.51Z" fill="#362922"/><path d="M87.81,119.42a10.26,10.26,0,0,0-3.2-2.16,9.74,9.74,0,0,0-3.92-.79H70.61v5h2.52v15.12H70.61v5H80.69a9.75,9.75,0,0,0,3.92-.8A10.13,10.13,0,0,0,90,135.51a9.75,9.75,0,0,0,.8-3.92v-5a9.79,9.79,0,0,0-.8-3.93A9.93,9.93,0,0,0,87.81,119.42Zm-2.08,12.17a5.06,5.06,0,0,1-3.08,4.64,4.81,4.81,0,0,1-2,.4H78.17V121.51h2.52a5,5,0,0,1,2,.39,5.37,5.37,0,0,1,1.6,1.08,5,5,0,0,1,1.48,3.57Z" fill="#362922"/><polygon points="92.15 121.51 94.67 121.51 94.67 136.63 92.15 136.63 92.15 141.67 109.78 141.67 109.78 134.11 104.75 134.11 104.75 136.63 99.7 136.63 99.7 131.59 104.75 131.59 104.75 126.55 99.7 126.55 99.7 121.51 104.75 121.51 104.75 124.03 109.78 124.03 109.78 116.47 92.15 116.47 92.15 121.51" fill="#362922"/><path d="M142,124h-5v2.52h-5a2.53,2.53,0,0,1-2.52-2.52,2.46,2.46,0,0,1,.74-1.79,2.41,2.41,0,0,1,1.78-.73h2.52v-5H132a7.27,7.27,0,0,0-3,.59,7.77,7.77,0,0,0-2.39,1.62,7.59,7.59,0,0,0-1.71,8.1,7,7,0,0,0,1.44,2.29,7,7,0,0,0-1.44,2.28,7.36,7.36,0,0,0-.51,2.76,7.27,7.27,0,0,0,.6,2.95,7.66,7.66,0,0,0,4,4,7.27,7.27,0,0,0,3,.6h2.52a7.44,7.44,0,0,0,2.76-.51,7,7,0,0,0,2.28-1.44,7,7,0,0,0,2.29,1.44,7.35,7.35,0,0,0,2.75.51v-5a2.53,2.53,0,0,1-2.52-2.52v-2.52h2.52v-5H142Zm-5,10.08a2.53,2.53,0,0,1-2.52,2.52H132a2.53,2.53,0,0,1-2.52-2.52,2.46,2.46,0,0,1,.74-1.79,2.41,2.41,0,0,1,1.78-.73h5Z" fill="#362922"/><path d="M177.09,118.68a7.79,7.79,0,0,0-2.42-1.62,7.27,7.27,0,0,0-2.93-.59h-5a7.23,7.23,0,0,0-2.95.59,7.94,7.94,0,0,0-2.4,1.62,7.74,7.74,0,0,0-1.62,2.41,7.53,7.53,0,0,0-.59,2.94v10.08a7.44,7.44,0,0,0,.59,2.95,7.77,7.77,0,0,0,1.62,2.39,7.59,7.59,0,0,0,2.4,1.62,7.24,7.24,0,0,0,2.95.6h5a7.28,7.28,0,0,0,2.93-.6,7.46,7.46,0,0,0,2.42-1.62,7.77,7.77,0,0,0,1.62-2.39,7.44,7.44,0,0,0,.59-2.95v-1.26h-5v1.26a2.53,2.53,0,0,1-2.52,2.52h-5a2.53,2.53,0,0,1-2.52-2.52V124a2.46,2.46,0,0,1,.74-1.79,2.41,2.41,0,0,1,1.78-.73h5a2.41,2.41,0,0,1,1.78.73,2.46,2.46,0,0,1,.74,1.79v1.26h5V124a7.53,7.53,0,0,0-.59-2.94A7.74,7.74,0,0,0,177.09,118.68Z" fill="#362922"/><path d="M199.15,118.68a7.86,7.86,0,0,0-2.41-1.62,7.35,7.35,0,0,0-2.94-.59h-5a7.27,7.27,0,0,0-2.95.59,7.77,7.77,0,0,0-2.39,1.62A7.5,7.5,0,0,0,181.2,124v10.08a7.44,7.44,0,0,0,.59,2.95,7.63,7.63,0,0,0,1.63,2.39,7.43,7.43,0,0,0,2.39,1.62,7.27,7.27,0,0,0,2.95.6h5a7.36,7.36,0,0,0,2.94-.6,7.52,7.52,0,0,0,2.41-1.62,7.77,7.77,0,0,0,1.62-2.39,7.44,7.44,0,0,0,.59-2.95V124a7.53,7.53,0,0,0-.59-2.94A7.74,7.74,0,0,0,199.15,118.68Zm-2.83,15.43a2.53,2.53,0,0,1-2.52,2.52h-5a2.53,2.53,0,0,1-2.52-2.52V124a2.46,2.46,0,0,1,.74-1.79,2.41,2.41,0,0,1,1.78-.73h5a2.51,2.51,0,0,1,2.52,2.52Z" fill="#362922"/><path d="M165,88h-3l-7-21h1l-1-4-5-1-1-4h1l4-10L76,21,80,1,76,0A63.84,63.84,0,0,0,60.28,26.81L54,25l-1,1,6.57,3.29A81.65,81.65,0,0,0,57,57V68H56v1h1v38H38.91v-.55L36.18,95l6.73-2.36,2.18,4.72h.55a15.11,15.11,0,0,0-.47-5l1.19-.59-.18-.18L45,91.87A11.54,11.54,0,0,0,42.18,87l-.73.18.73,3.64L28,95.73l.73,1.82h.18l-.18.72-.91.18-.18.73h.18L26.55,103H26v4H0v3H201v-3H165ZM28.18,103.18V103H26.91l1.27-3.64.55-.18h.91l-.91,4Zm2.18,3.09v-2.18h.19v-.36h-.19V103h-.54v.18h-.91l1.27-4h.18l.19-.91-.91-.18L30,97l5.09-1.64v.37l-4.54,10.54Zm5.46-.36-.55.73h-4l4.18-9.46,1.46,8.73ZM68,17a1,1,0,1,1-1,1A1,1,0,0,1,68,17Zm-1,4a2,2,0,1,1-2,2A2,2,0,0,1,67,21Zm-3,7a1,1,0,1,1-1,1A1,1,0,0,1,64,28Zm-2,6a1,1,0,1,1-1,1A1,1,0,0,1,62,34Zm8.55,72.82-.28-.37h-.54l.72-4.36,2.1,4.73Zm2.72-1.73V105H73v.36h-.09v.19H73v1.09h-.09l-2.27-5.28v-.18l2.54.82.18.55-.45.09.09.45h.09l.64,2Zm.82-.09v.09h-.27l-.46-2h.46l.27.09.64,1.82Zm1.09,2v-2h-.27l-.64-1.91h.09l-.09-.36-.45-.09-.09-.37h.09l.36-.91-7.09-2.45.36-1.82L67.09,97a5.79,5.79,0,0,0-1.43,2.44l-.57-.17-.09.09.6.3a7.48,7.48,0,0,0-.24,2.52h.28l1.09-2.36L70.09,101l-1.36,5.73V107H58V78h1V77H58V71h1V69h1V68H59V57h1L72,31l37,13L94,107ZM99,104l6-23-4,23Zm15,4-3-4h-6l8-48,23,52Zm30-19V88h-3v4h-1v2h1v12h-1L115,48V46l28,9,2,6-5,1,1,5h1l7,22Zm9-1v1h-3l-5-22h5l3,1,7,20Z" fill="url(#linear-gradient)"/><path d="M142,124h-5v2.52h-5a2.53,2.53,0,0,1-2.52-2.52,2.46,2.46,0,0,1,.74-1.79,2.41,2.41,0,0,1,1.78-.73h2.52v-5H132a7.27,7.27,0,0,0-3,.59,7.77,7.77,0,0,0-2.39,1.62,7.59,7.59,0,0,0-1.71,8.1,6.62,6.62,0,0,0,.61,1.22h19v-1.45H142Z" fill="url(#linear-gradient-2)"/><path d="M39.52,118.88A8.38,8.38,0,0,0,37,117.15a7.88,7.88,0,0,0-3.1-.68H22v5h2.52V128h16.6a8,8,0,0,0,.16-6.58A8,8,0,0,0,39.52,118.88Zm-3.58,7.79a2.93,2.93,0,0,1-2.15.88H29.51v-6h4.28a3,3,0,0,1,2.15,5.16Z" fill="url(#linear-gradient-3)"/><path d="M177.09,118.68a7.79,7.79,0,0,0-2.42-1.62,7.27,7.27,0,0,0-2.93-.59h-5a7.23,7.23,0,0,0-2.95.59,7.94,7.94,0,0,0-2.4,1.62,7.74,7.74,0,0,0-1.62,2.41,7.53,7.53,0,0,0-.59,2.94v4h5v-4a2.46,2.46,0,0,1,.74-1.79,2.41,2.41,0,0,1,1.78-.73h5a2.41,2.41,0,0,1,1.78.73,2.46,2.46,0,0,1,.74,1.79v1.26h5V124a7.53,7.53,0,0,0-.59-2.94A7.74,7.74,0,0,0,177.09,118.68Z" fill="url(#linear-gradient-4)"/><path d="M199.15,118.68a7.86,7.86,0,0,0-2.41-1.62,7.35,7.35,0,0,0-2.94-.59h-5a7.27,7.27,0,0,0-2.95.59,7.77,7.77,0,0,0-2.39,1.62A7.5,7.5,0,0,0,181.2,124v4h5v-4a2.46,2.46,0,0,1,.74-1.79,2.41,2.41,0,0,1,1.78-.73h5a2.51,2.51,0,0,1,2.52,2.52v4h5v-4a7.53,7.53,0,0,0-.59-2.94A7.74,7.74,0,0,0,199.15,118.68Z" fill="url(#linear-gradient-5)"/><polygon points="58.51 121.51 61.03 121.51 61.03 128 66.07 128 66.07 121.51 68.59 121.51 68.59 116.47 58.51 116.47 58.51 121.51" fill="url(#linear-gradient-6)"/><polygon points="92.15 121.51 94.67 121.51 94.67 128 104.75 128 104.75 126.55 99.7 126.55 99.7 121.51 104.75 121.51 104.75 124.03 109.78 124.03 109.78 116.47 92.15 116.47 92.15 121.51" fill="url(#linear-gradient-7)"/><path d="M87.81,119.42a10.26,10.26,0,0,0-3.2-2.16,9.74,9.74,0,0,0-3.92-.79H70.61v5h2.52V128h5v-6.49h2.52a5,5,0,0,1,2,.39,5.37,5.37,0,0,1,1.6,1.08,5,5,0,0,1,1.48,3.57V128h5v-1.45a9.79,9.79,0,0,0-.8-3.93A9.93,9.93,0,0,0,87.81,119.42Z" fill="url(#linear-gradient-8)"/><path d="M18,118.68a7.79,7.79,0,0,0-2.42-1.62,7.27,7.27,0,0,0-2.93-.59h-5a7.23,7.23,0,0,0-2.95.59,7.94,7.94,0,0,0-2.4,1.62,7.74,7.74,0,0,0-1.62,2.41A7.53,7.53,0,0,0,0,124v4H5v-4a2.46,2.46,0,0,1,.74-1.79,2.41,2.41,0,0,1,1.78-.73h5a2.41,2.41,0,0,1,1.78.73,2.46,2.46,0,0,1,.74,1.79v1.26h5V124a7.53,7.53,0,0,0-.59-2.94A7.74,7.74,0,0,0,18,118.68Z" fill="url(#linear-gradient-9)"/><polygon points="44.9 121.51 47.42 121.51 47.42 128 52.46 128 52.46 121.51 54.98 121.51 54.98 116.47 44.9 116.47 44.9 121.51" fill="url(#linear-gradient-10)"/></g></g></svg>