<svg xmlns="http://www.w3.org/2000/svg" xmlns:xlink="http://www.w3.org/1999/xlink" width="287.21" height="92" viewBox="0 0 287.21 92"><defs><radialGradient id="radial-gradient" cx="116.55" cy="82.5" r="34.6" gradientUnits="userSpaceOnUse"><stop offset="0" stop-opacity="0.3"/><stop offset="1" stop-opacity="0.05"/></radialGradient><linearGradient id="linear-gradient" x1="114.05" y1="66" x2="114.05" y2="80" gradientUnits="userSpaceOnUse"><stop offset="0" stop-color="#c1b6b7"/><stop offset="1" stop-color="#edeaea"/></linearGradient><linearGradient id="linear-gradient-2" x1="114.05" y1="14" x2="114.05" y2="19" gradientUnits="userSpaceOnUse"><stop offset="0" stop-color="#695d5e"/><stop offset="0.51" stop-color="#766a6b"/><stop offset="1" stop-color="#5b5252"/></linearGradient><linearGradient id="linear-gradient-3" x1="114.05" y1="10" x2="114.05" y2="22" xlink:href="#linear-gradient-2"/><linearGradient id="linear-gradient-4" x1="101.05" y1="5" x2="101.05" y2="10" gradientUnits="userSpaceOnUse"><stop offset="0" stop-color="#ff9323"/><stop offset="1" stop-color="#f47d1c"/></linearGradient><linearGradient id="linear-gradient-5" x1="127.05" x2="127.05" xlink:href="#linear-gradient-4"/><linearGradient id="linear-gradient-6" x1="114.05" x2="114.05" y2="9" gradientUnits="userSpaceOnUse"><stop offset="0" stop-color="#867c7d"/><stop offset="0.32" stop-color="#5a5051"/><stop offset="0.87" stop-color="#5a5051"/><stop offset="1" stop-color="#56382c"/></linearGradient><linearGradient id="linear-gradient-7" x1="114.05" y1="9" x2="114.05" y2="37" xlink:href="#linear-gradient-4"/><linearGradient id="linear-gradient-8" x1="106.55" y1="41" x2="121.55" y2="41" gradientUnits="userSpaceOnUse"><stop offset="0" stop-color="#ada2a3"/><stop offset="0.36" stop-color="#fff"/><stop offset="1" stop-color="#514953"/></linearGradient><linearGradient id="linear-gradient-9" x1="110.55" y1="58.5" x2="117.55" y2="58.5" xlink:href="#linear-gradient-8"/><linearGradient id="linear-gradient-10" x1="114.05" y1="12" x2="114.05" y2="15" gradientUnits="userSpaceOnUse"><stop offset="0" stop-color="#fff" stop-opacity="0.3"/><stop offset="1" stop-opacity="0"/></linearGradient><linearGradient id="linear-gradient-11" x1="114.05" y1="17" x2="114.05" y2="20" gradientUnits="userSpaceOnUse"><stop offset="0" stop-color="#fff" stop-opacity="0.3"/><stop offset="0.96" stop-opacity="0.01"/><stop offset="1" stop-color="#fff" stop-opacity="0"/></linearGradient><linearGradient id="linear-gradient-12" x1="114.05" y1="22" x2="114.05" y2="25" xlink:href="#linear-gradient-11"/><linearGradient id="linear-gradient-13" x1="114.05" y1="27" x2="114.05" y2="30" xlink:href="#linear-gradient-11"/></defs><g id="Layer_2" data-name="Layer 2"><g id="logos"><path d="M61.78,44.13h5.43V58.56h6.45V44.13h5.43V37.74H61.78Zm28.46-.93L87,37.74H79.56L87,50.61v8h6.48v-8l7.44-12.87H93.45ZM52.16,37.74H41.87V58.56h6.51v-3h3.78A8.72,8.72,0,0,0,58.52,53a8.88,8.88,0,0,0-6.36-15.21Zm0,11.37H48.38v-5h3.78a2.43,2.43,0,0,1,2.46,2.46A2.48,2.48,0,0,1,52.16,49.11ZM6.48,50.61h8.4V45.39H6.48v-2H15v-5.7H0V58.56H15.06V52.68H6.48ZM32.94,37.8,28.5,43.59l-4.44-5.82h0v0H17.58V58.56H24V48.39l4.5,5.94,4.41-5.85V58.56h6.45V37.74H32.94Zm100.51-.06H127V58.56h13.08V52.08h-6.63Zm106.24,9.12a3.79,3.79,0,0,0,.93-2.82,5.89,5.89,0,0,0-1.56-4.41c-1.23-1.23-2.49-1.89-5.25-1.89l-9.45,0V58.56h11.1c2.67,0,4.29-.75,5.46-2A6.46,6.46,0,0,0,242.81,52a6,6,0,0,0-1.89-4.5A2.08,2.08,0,0,0,239.69,46.86Zm-9.06-4.32h3.18a1.49,1.49,0,0,1,1.5,1.5,1.54,1.54,0,0,1-.45,1.08,1.78,1.78,0,0,1-1.29.45h-2.94Zm5.91,10.59a2,2,0,0,1-1.47.48h-4.44V50.43h4.83A1.57,1.57,0,0,1,237,52,1.59,1.59,0,0,1,236.54,53.13Zm43.23-5.34,7-10H278.9l-3.09,4.38-3.09-4.38h-7.86l7,10-7.47,10.77h7.89l3.51-5.1,3.54,5.1h7.86Zm-64.56-2.91h-5.79V37.74h-6.51V58.56h6.51v-7.2h5.79v7.2h6.48V37.74h-6.48Zm47.12-4.56a11.16,11.16,0,0,0-19,7.89,11.18,11.18,0,0,0,22.35,0A10.69,10.69,0,0,0,262.33,40.32Zm-4.59,11.22a4.75,4.75,0,0,1-6.63,0,4.62,4.62,0,0,1-1.35-3.33,4.67,4.67,0,0,1,8-3.3,4.34,4.34,0,0,1,1.41,3.3A4.45,4.45,0,0,1,257.74,51.54Zm-83-4.32-6.66-9.48-6.45,0V58.56h6.45V49l6.69,9.63.06,0h6.39V37.74h-6.48Zm-22.18,3.21a2.48,2.48,0,0,1-5,0V37.77h-6.48V50.43a8.6,8.6,0,0,0,2.61,6.33,8.94,8.94,0,0,0,12.69,0,8.6,8.6,0,0,0,2.61-6.33V37.77h-6.48ZM198,51.6a5.18,5.18,0,0,1-3.69,1.14,4.82,4.82,0,0,1-3.51-1.29,4.14,4.14,0,0,1-1.2-3.24,4.42,4.42,0,0,1,1.38-3.3,4.48,4.48,0,0,1,3.33-1.38,4.53,4.53,0,0,1,3.33,1.38l.06.06,3.63-5.46a12.08,12.08,0,0,0-7-2.49A11.16,11.16,0,0,0,183.1,48.21a11.16,11.16,0,0,0,11.16,11.16c3.12,0,4.68-.33,7.17-2.37l.66-.66L198,51.51Z" fill="#5b5252"/><path d="M186,64.11H192V65.7h-2v4.86h-2V65.7h-2Z" fill="#978585"/><path d="M202,70.56V64.11h3.31a5,5,0,0,1,1.41.16,1.5,1.5,0,0,1,.79.59,1.75,1.75,0,0,1,.3,1,1.83,1.83,0,0,1-.23.93,1.73,1.73,0,0,1-.63.63,2.25,2.25,0,0,1-.7.25,2,2,0,0,1,.52.24,2.22,2.22,0,0,1,.32.34,2.77,2.77,0,0,1,.28.4l1,1.87H206l-1.06-2a1.68,1.68,0,0,0-.36-.5.84.84,0,0,0-.49-.15H204v2.62Zm2-3.84h.83a3.55,3.55,0,0,0,.53-.08.58.58,0,0,0,.45-.58.6.6,0,0,0-.2-.48,1.2,1.2,0,0,0-.74-.17H204Z" fill="#978585"/><path d="M221.89,69.49h-2.26l-.31,1.07h-2l2.43-6.45h2.17l2.42,6.45h-2.09Zm-.41-1.39-.71-2.32-.71,2.32Z" fill="#978585"/><path d="M234,64.11h2.95a3.52,3.52,0,0,1,1.42.24,2.41,2.41,0,0,1,.89.68,3,3,0,0,1,.51,1,5.1,5.1,0,0,1,.15,1.25,4.23,4.23,0,0,1-.23,1.6,2.86,2.86,0,0,1-.65,1,2.27,2.27,0,0,1-.9.51,4.53,4.53,0,0,1-1.19.18H234Zm2,1.46v3.52h.48a1.92,1.92,0,0,0,.89-.14.92.92,0,0,0,.42-.48,3.3,3.3,0,0,0,.14-1.12,2.19,2.19,0,0,0-.33-1.4,1.42,1.42,0,0,0-1.11-.38Z" fill="#978585"/><path d="M249.92,64.11h5.34v1.38h-3.34v1H255v1.32h-3.1V69.1h3.44v1.46h-5.44Z" fill="#978585"/><path d="M265.46,70.56V64.11h3.31a5,5,0,0,1,1.41.16,1.5,1.5,0,0,1,.79.59,1.75,1.75,0,0,1,.3,1,1.83,1.83,0,0,1-.23.93,1.73,1.73,0,0,1-.63.63,2.25,2.25,0,0,1-.7.25,2,2,0,0,1,.52.24,2.22,2.22,0,0,1,.32.34,2.77,2.77,0,0,1,.28.4l1,1.87h-2.25l-1.06-2a1.68,1.68,0,0,0-.36-.5.84.84,0,0,0-.49-.15h-.17v2.62Zm2-3.84h.83a3.55,3.55,0,0,0,.53-.08.58.58,0,0,0,.45-.58.6.6,0,0,0-.2-.48,1.2,1.2,0,0,0-.74-.17h-.87Z" fill="#978585"/><path d="M281.08,68.42l1.9-.11a1.41,1.41,0,0,0,.25.7,1,1,0,0,0,.88.39,1,1,0,0,0,.65-.2.57.57,0,0,0,0-.91,2.51,2.51,0,0,0-1-.38,4.17,4.17,0,0,1-1.86-.78,1.56,1.56,0,0,1-.57-1.24,1.73,1.73,0,0,1,.29-.94,1.86,1.86,0,0,1,.87-.69,4,4,0,0,1,1.58-.26,3.34,3.34,0,0,1,1.89.46,2,2,0,0,1,.77,1.46l-1.88.11a1,1,0,0,0-.31-.63,1,1,0,0,0-.67-.2.79.79,0,0,0-.52.15.44.44,0,0,0-.17.36.36.36,0,0,0,.14.28,1.68,1.68,0,0,0,.67.23,8.66,8.66,0,0,1,1.87.57,2,2,0,0,1,.82.72,1.81,1.81,0,0,1,.26.95,2,2,0,0,1-.35,1.14,2.15,2.15,0,0,1-.95.8,3.88,3.88,0,0,1-1.55.27A3.2,3.2,0,0,1,281.8,70,2.53,2.53,0,0,1,281.08,68.42Z" fill="#978585"/><polygon points="95.55 78 106.55 78 103.55 76 101.55 73 105.55 76 110.55 78 119.55 78 127.55 75 133.55 73 122.55 78 133.55 75 143.55 74 136.55 75 129.55 77 164.55 77 155.55 78 127.55 78 131.55 80 151.55 82 161.55 83 130.55 81 126.55 79 123.55 79 135.55 87 133.55 86 123.55 80 120.55 80 120.55 81 124.55 85 120.55 92 122.55 85 119.55 82 113.55 81 111.55 82 114.55 86 114.55 91 113.55 87 108.55 81 102.55 79 96.55 80 92.55 81 83.55 81 80.55 82 74.55 82 79.55 81 82.55 80 91.55 80 94.55 79 86.55 78 72.55 78 68.55 76 73.55 77 89.55 77 95.55 78" fill="url(#radial-gradient)"/><rect x="107.55" y="66" width="13" height="14" rx="3" fill="url(#linear-gradient)"/><rect x="74.55" y="14" width="79" height="5" rx="1" fill="url(#linear-gradient-2)"/><path d="M95.55,10s-4,5,0,12h37s4-5,0-12Z" fill="url(#linear-gradient-3)"/><rect x="98.55" y="5" width="5" height="5" fill="url(#linear-gradient-4)"/><rect x="124.55" y="5" width="5" height="5" fill="url(#linear-gradient-5)"/><path d="M101.55,0h25s4,1,4,5h-5V9H102.66l-.17-4H97.55S98.55,0,101.55,0Z" fill="url(#linear-gradient-6)"/><path d="M98.55,9l-2,1,3,15a7.89,7.89,0,0,1,5,7v5h19V32c0-5,5-7,5-7l3-15-2-1Z" fill="url(#linear-gradient-7)"/><rect x="106.55" y="37" width="15" height="8" fill="url(#linear-gradient-8)"/><polygon points="117.55 67 114.05 72 110.55 67 110.55 45 117.55 45 117.55 67" fill="url(#linear-gradient-9)"/><rect x="104.55" y="9" width="19" height="23" fill="#ff9a40"/><rect x="105.55" y="12" width="17" height="3" fill="url(#linear-gradient-10)"/><rect x="105.55" y="17" width="17" height="3" fill="url(#linear-gradient-11)"/><rect x="105.55" y="22" width="17" height="3" fill="url(#linear-gradient-12)"/><rect x="105.55" y="27" width="17" height="3" fill="url(#linear-gradient-13)"/><rect x="106.55" y="42" width="15" height="1" opacity="0.2"/><polygon points="131.55 10 96.55 10 98.55 9 129.55 9 131.55 10" fill="#fff" opacity="0.3"/><rect x="104.55" y="10" width="1" height="22" fill="#fff" opacity="0.1"/></g></g></svg>