<svg xmlns="http://www.w3.org/2000/svg" width="127" height="104.7" viewBox="0 0 127 104.7"><g id="Layer_2" data-name="Layer 2"><g id="logos"><path d="M39.47,102a3.21,3.21,0,0,0-.77-.6,2.23,2.23,0,0,0,1.41-.66,1.91,1.91,0,0,0,.48-1.33,2,2,0,0,0-.32-1.13,1.6,1.6,0,0,0-.83-.69,5.45,5.45,0,0,0-1.67-.19h-3v7.16h1.45v-3h.29a2.58,2.58,0,0,1,.73.08,1.09,1.09,0,0,1,.43.3,8.65,8.65,0,0,1,.76,1l1,1.56h1.73l-.88-1.4A8.54,8.54,0,0,0,39.47,102Zm-2.22-1.57H36.18V98.63h1.13a9.92,9.92,0,0,1,1,0,.86.86,0,0,1,.54.28.83.83,0,0,1,.2.58.93.93,0,0,1-.15.54.81.81,0,0,1-.4.3A5.47,5.47,0,0,1,37.25,100.45Zm25.19-15h-5V75h3.4V72.42h-3.4V62.63h4.83V60H54.86V88h7.58ZM51.93,103.1a1.44,1.44,0,0,1-1,.37,1.61,1.61,0,0,1-1.27-.58,3,3,0,0,1-.49-1.93,2.79,2.79,0,0,1,.5-1.85A1.61,1.61,0,0,1,51,98.53a1.49,1.49,0,0,1,1,.33,1.45,1.45,0,0,1,.53.88l1.43-.35a2.8,2.8,0,0,0-.73-1.31A3,3,0,0,0,51,97.3a3.14,3.14,0,0,0-2.42,1,3.88,3.88,0,0,0-.92,2.77,3.74,3.74,0,0,0,.91,2.67,3.1,3.1,0,0,0,2.35,1,3,3,0,0,0,1.9-.57,3.12,3.12,0,0,0,1.07-1.74l-1.4-.44A2.1,2.1,0,0,1,51.93,103.1Zm-40.76-.8-1.3-4.88H7.71v7.16H9.05V98.94l1.42,5.64h1.39l1.42-5.64v5.64h1.34V97.42H12.45ZM9.84,75h3.4V72.42H9.84V62.63h4.83V60H7.26V88h7.58V85.44h-5ZM21.47,60,17.63,88h2.51l.62-4.69h4.18L25.55,88h2.58L24.5,60Zm-.41,20.91L22.9,66.57l1.73,14.35Zm2.44,20.5h3.6v-1.2H23.5V98.63h3.87V97.42H22.06v7.16H27.5v-1.21h-4ZM37.42,87.87a2.62,2.62,0,0,0,1.32-1.24l.85,1.53H40V74.94H35.38v2.44h2.14v6.36c-.12,1.34-.78,2-2,2a1.68,1.68,0,0,1-1.29-.56,2.4,2.4,0,0,1-.51-1.65v-19a2.56,2.56,0,0,1,.43-1.63,1.66,1.66,0,0,1,1.41-.55,1.79,1.79,0,0,1,1.49.55,2.5,2.5,0,0,1,.44,1.63v4.93H39.8V64.5a5.55,5.55,0,0,0-1-3.56,4,4,0,0,0-3.24-1.24,4.24,4.24,0,0,0-3.32,1.24,5.18,5.18,0,0,0-1.1,3.56v19a6.68,6.68,0,0,0,.32,2.24,3.84,3.84,0,0,0,.88,1.48,3.3,3.3,0,0,0,1.33.8,5.59,5.59,0,0,0,1.68.24A4.84,4.84,0,0,0,37.42,87.87Zm14.14-2.43h-5V60H44V88h7.58Zm53.89,1.65a5.16,5.16,0,0,0,1.09-3.55V64.46a5.16,5.16,0,0,0-1.09-3.55,4.29,4.29,0,0,0-3.33-1.21,4.22,4.22,0,0,0-3.3,1.21,5.11,5.11,0,0,0-1.09,3.55V83.54a5.11,5.11,0,0,0,1.09,3.55,4.19,4.19,0,0,0,3.3,1.21A4.26,4.26,0,0,0,105.45,87.09Zm-5.14-3.55V64.46c0-1.42.61-2.14,1.81-2.14S104,63,104,64.46V83.54c0,1.47-.61,2.21-1.83,2.21S100.31,85,100.31,83.54ZM105,102a3.28,3.28,0,0,0-.78-.6,2.29,2.29,0,0,0,1.42-.66,1.9,1.9,0,0,0,.47-1.33,2,2,0,0,0-.31-1.13,1.64,1.64,0,0,0-.83-.69,5.5,5.5,0,0,0-1.67-.19h-3v7.16h1.44v-3h.3a2.45,2.45,0,0,1,.72.08,1.12,1.12,0,0,1,.44.3,8.65,8.65,0,0,1,.76,1l1,1.56h1.72l-.87-1.4A8.54,8.54,0,0,0,105,102Zm-2.23-1.57h-1.07V98.63h1.13a10,10,0,0,1,1.06,0,.88.88,0,0,1,.54.28.83.83,0,0,1,.19.58.93.93,0,0,1-.14.54.79.79,0,0,1-.41.3A5.35,5.35,0,0,1,102.8,100.45ZM114.9,60h-4.35V88h4.35q4.42,0,4.42-4.76V64.8a5.19,5.19,0,0,0-1.11-3.52A4.13,4.13,0,0,0,114.9,60Zm1.84,23.22c0,1.48-.62,2.21-1.84,2.21h-1.77V62.63h1.77a1.65,1.65,0,0,1,1.38.58,2.57,2.57,0,0,1,.46,1.63ZM89.5,59.7a4.25,4.25,0,0,0-3.3,1.21,5.16,5.16,0,0,0-1.08,3.55V83.54a5.16,5.16,0,0,0,1.08,3.55,5.15,5.15,0,0,0,6.63,0,5.11,5.11,0,0,0,1.09-3.55V64.46a5.11,5.11,0,0,0-1.09-3.55A4.26,4.26,0,0,0,89.5,59.7Zm1.84,23.84c0,1.47-.61,2.21-1.84,2.21s-1.8-.74-1.8-2.21V64.46c0-1.42.6-2.14,1.8-2.14s1.84.72,1.84,2.14Zm24.43,16.71-1.68-2.83h-1.7l2.62,4.15v3h1.45v-3l2.63-4.16h-1.67Zm-37.58,2-2.93-4.78h-1.4v7.16H75.2V99.91l2.88,4.67h1.45V97.42H78.19Zm10.93-4.78-2.79,7.16h1.54l.59-1.63h2.86l.63,1.63h1.57l-2.87-7.16Zm-.22,4.33,1-2.66,1,2.66Zm-26.28-.33h3.59v-1.2H62.62V98.63h3.86V97.42H61.17v7.16h5.45v-1.21h-4ZM77.16,82,75.05,60H72.47L70.05,82,67.91,60H65.23l3.12,28h3.17c.13-1,2.14-20.74,2.14-20.74S75.52,87,75.63,88h3.13l3.53-28H79.57C79.44,61.17,77.16,82,77.16,82ZM91,36l11-4,3-4L72,26l-3,5,4,.91ZM74,33.16v5.43L82,46,79.16,34.33Zm-1-.23L68.78,32l-.3-.07L65,38l8,12ZM112,21l4-6L75,21l-2.42,4L102,26.82ZM83.59,35.34l-3.34-.76.85,3.52L87,42ZM80,13l-4.3,6.89,34.05-5L124,6l3-6ZM54.42,25,52,21,11,15l4,6,10,5.82Zm4.1,6.88-.3.07L54,32.93V50l8-12ZM43.41,35.34,40,42l5.9-3.9.85-3.52ZM51.3,19.89,47,13,0,0,3,6l14.25,8.9ZM25,32l11,4,18-4.09L58,31l-3-5L22,28Zm28,1.16-5.16,1.17L45,46l8-7.41Z" fill="#465450"/></g></g></svg>