<svg xmlns="http://www.w3.org/2000/svg" width="205.02" height="70.33" viewBox="0 0 205.02 70.33"><g id="Layer_2" data-name="Layer 2"><g id="logos"><path d="M105.63,17.07H96.21V11h8V8.93h-8V3h9.05v-2H94.06v18.2h11.57Zm27.63,2.06h2.16V3h6.09v-2H127.13V3h6.13ZM106,60.13a5.32,5.32,0,0,0,1-3.26,4.06,4.06,0,0,0-.62-2.27,5.41,5.41,0,0,0-1.56-1.53,6.83,6.83,0,0,0-2-.87,8.13,8.13,0,0,0-2-.27H96.5v18.2h2.16V62h2.21l3.82,8.12H107l-3.9-8.27A4.64,4.64,0,0,0,106,60.13Zm-5.06-.2H98.66V54H101a4.79,4.79,0,0,1,1.52.24,3.82,3.82,0,0,1,1.22.64,2.94,2.94,0,0,1,.8.93,2.26,2.26,0,0,1,.3,1.11,3.35,3.35,0,0,1-.18,1,2.51,2.51,0,0,1-.62,1,3.47,3.47,0,0,1-1.19.75A5.27,5.27,0,0,1,100.92,59.93Zm12.23-44.4c.51-1.21,1-2.41,1.52-3.61h5.72c.51,1.2,1,2.4,1.52,3.61s1,2.4,1.53,3.6h2.15l-4-9.52q-2-4.72-4-9.52-2,4.79-4,9.52t-4,9.52h2.16C112.13,17.93,112.64,16.73,113.15,15.53Zm3.47-8.13a16.8,16.8,0,0,0,.91-2.52l.24.86.87,2.06q.42,1,.87,2.07h-4C115.9,9,116.26,8.22,116.62,7.4ZM82.86,55.92a7.36,7.36,0,0,1,2.27-1.58A7,7,0,0,1,89.77,54a8.38,8.38,0,0,1,1.69.73l.59-.87q.32-.44.6-.87a9.3,9.3,0,0,0-2.25-1,9.28,9.28,0,0,0-6.12.4,9.34,9.34,0,0,0-4.94,5,9.34,9.34,0,0,0,0,7.24,9.53,9.53,0,0,0,2,3,9.42,9.42,0,0,0,3,2,9.13,9.13,0,0,0,3.61.72A8.56,8.56,0,0,0,90.4,70a10.25,10.25,0,0,0,2.23-1V63.89a2.27,2.27,0,0,0-.25-1.19,1.13,1.13,0,0,0-1-.37H87.79v2h2.08c.28,0,.45.06.51.17a1.43,1.43,0,0,1,.09.61v2.65a7.24,7.24,0,0,1-2.58.47,6.72,6.72,0,0,1-2.76-.57,7.44,7.44,0,0,1-2.27-1.55,7.26,7.26,0,0,1-2.09-5.11,7.23,7.23,0,0,1,.56-2.81A7.32,7.32,0,0,1,82.86,55.92Zm61.56-27.44V26.43H133.21v18.2h11.57V42.57h-9.41V36.49h8V34.43h-8V28.48ZM81,11h8V8.93H81V3h9v-2H78.79v18.2H81ZM91,34.43H81.19v-8H79v18.2h2.16V36.49H91v8.14h2.16V26.43H91Zm82.07,1.4a8.09,8.09,0,0,0-1.83-1.1c-.66-.28-1.27-.53-1.85-.74q-.54-.18-1.05-.39a4.18,4.18,0,0,1-.91-.5,2.18,2.18,0,0,1-.9-1.84,3.08,3.08,0,0,1,.73-2,2.78,2.78,0,0,1,2.24-.85,4.17,4.17,0,0,1,1.13.14,5.16,5.16,0,0,1,1,.35,4.75,4.75,0,0,1,.77.46,4.57,4.57,0,0,1,.54.45l.61-.78.61-.78a7.65,7.65,0,0,0-2.49-1.53,6.81,6.81,0,0,0-2.16-.37,6,6,0,0,0-2.42.44,4.43,4.43,0,0,0-1.58,1.15,4.28,4.28,0,0,0-.86,1.56,5.61,5.61,0,0,0-.24,1.71,4.34,4.34,0,0,0,.45,1.94,4.69,4.69,0,0,0,1,1.33,5.38,5.38,0,0,0,1.23.84c.44.21.81.38,1.12.5s.87.32,1.4.49a7.41,7.41,0,0,1,1.55.69,4.36,4.36,0,0,1,1.25,1.08,2.66,2.66,0,0,1,.51,1.69,2.92,2.92,0,0,1-.29,1.32,2.67,2.67,0,0,1-.77.95,3.22,3.22,0,0,1-1.1.58,4.35,4.35,0,0,1-1.3.19,4.62,4.62,0,0,1-1.41-.21,5.61,5.61,0,0,1-1.19-.54,9.88,9.88,0,0,1-1-.74,10,10,0,0,1-.8-.77l-1.35,1.35a4.72,4.72,0,0,0,1,1,8.07,8.07,0,0,0,1.39,1,8.75,8.75,0,0,0,1.71.7,7,7,0,0,0,1.93.27,6.06,6.06,0,0,0,2.08-.35,5.15,5.15,0,0,0,1.73-1,4.94,4.94,0,0,0,1.17-1.6,5.1,5.1,0,0,0,.42-2.11,4.54,4.54,0,0,0-.55-2.31A5.65,5.65,0,0,0,173.08,35.83Zm0-18.76h-9.41V11h8V8.93h-8V3h9.05v-2H161.5v18.2h11.57ZM151,26.43h-2.16v18.2h11.57V42.57H151ZM114.69,39.17a9.18,9.18,0,0,0,0-7.22,9.75,9.75,0,0,0-2-3,9.61,9.61,0,0,0-3-2,9.15,9.15,0,0,0-7.21,0,9.37,9.37,0,0,0-4.94,5,9.29,9.29,0,0,0,0,7.22,9.33,9.33,0,0,0,4.94,4.94,9.39,9.39,0,0,0,7.21,0,9.44,9.44,0,0,0,5-4.94Zm-5.79,3a7.06,7.06,0,0,1-5.56,0,7.37,7.37,0,0,1-2.28-1.55A7.21,7.21,0,0,1,99,35.55a7.2,7.2,0,0,1,.56-2.82,7.34,7.34,0,0,1,1.53-2.3,7.23,7.23,0,0,1,2.28-1.56,7.06,7.06,0,0,1,5.56,0,7.23,7.23,0,0,1,2.28,1.56,7.34,7.34,0,0,1,1.53,2.3,7.38,7.38,0,0,1,0,5.64,7.08,7.08,0,0,1-1.53,2.29A7.37,7.37,0,0,1,108.9,42.21ZM202.37.93q-1.25,2.1-2.48,4.2c-.83,1.39-1.65,2.79-2.48,4.19-.06.14-.11.28-.16.41s-.1.26-.16.4h0l-.15-.4c0-.13-.09-.27-.14-.41l-2.49-4.19Q193,3,191.79.93h-2.65l3.31,5.59q1.65,2.77,3.32,5.59v7h2.65v-7l3.3-5.6L205,.93Zm-16.05,8.2a5.32,5.32,0,0,0,1-3.26,4.06,4.06,0,0,0-.62-2.27,5.41,5.41,0,0,0-1.56-1.53,6.83,6.83,0,0,0-2-.87,8.13,8.13,0,0,0-2-.27h-4.29v18.2H179V11h2.21L185,19.13h2.34l-3.9-8.27A4.64,4.64,0,0,0,186.32,9.13Zm-5.06-.2H179V3h2.29a4.79,4.79,0,0,1,1.52.24,3.82,3.82,0,0,1,1.22.64,3.07,3.07,0,0,1,.8.93,2.26,2.26,0,0,1,.3,1.11,3.35,3.35,0,0,1-.18,1,2.51,2.51,0,0,1-.62,1,3.47,3.47,0,0,1-1.19.75A5.27,5.27,0,0,1,181.26,8.93ZM157.05,53.07a6.66,6.66,0,0,0-2-.87,8.19,8.19,0,0,0-2-.27h-4.29v18.2h2.15V62h2.84a5.48,5.48,0,0,0,4.05-1.39,5,5,0,0,0,1.41-3.75,4,4,0,0,0-.63-2.27A5.17,5.17,0,0,0,157.05,53.07Zm-.15,4.84a2.42,2.42,0,0,1-.63,1,3.42,3.42,0,0,1-1.18.75,5.27,5.27,0,0,1-1.88.29h-2.27V54h2.29a4.7,4.7,0,0,1,1.52.24,3.62,3.62,0,0,1,1.22.64,3.11,3.11,0,0,1,.81.93,2.26,2.26,0,0,1,.3,1.11A3.35,3.35,0,0,1,156.9,57.91ZM117,28.48h6.14V44.63h2.15V28.48h6.09V26.43H117Zm8.92,26a9.61,9.61,0,0,0-3-2,9.15,9.15,0,0,0-7.21,0,9.63,9.63,0,0,0-3,2,9.47,9.47,0,0,0-2,3,9.29,9.29,0,0,0,0,7.22,9.33,9.33,0,0,0,2,3,9.58,9.58,0,0,0,3,2,9.39,9.39,0,0,0,7.21,0,9.55,9.55,0,0,0,3-2,9.42,9.42,0,0,0,2-3,9.18,9.18,0,0,0,0-7.22A9.55,9.55,0,0,0,126,54.47Zm0,9.4a7.27,7.27,0,0,1-1.54,2.29,7.44,7.44,0,0,1-2.27,1.55,7.09,7.09,0,0,1-5.57,0,7.44,7.44,0,0,1-2.27-1.55,7.27,7.27,0,0,1-1.54-2.29,7.5,7.5,0,0,1,0-5.64,7.55,7.55,0,0,1,1.54-2.3,7.3,7.3,0,0,1,2.27-1.56,7.09,7.09,0,0,1,5.57,0,7.3,7.3,0,0,1,2.27,1.56,7.55,7.55,0,0,1,1.54,2.3,7.38,7.38,0,0,1,0,5.64Zm29.52-44.74h2.16V.93h-2.16v8h-9.83v-8h-2.16v18.2h2.16V11h9.83Zm-12.25,45a4.42,4.42,0,0,1-.33,1.76,3.68,3.68,0,0,1-.93,1.28,3.9,3.9,0,0,1-1.39.8,5.57,5.57,0,0,1-1.77.27,5.46,5.46,0,0,1-1.76-.27,3.94,3.94,0,0,1-1.4-.8,3.51,3.51,0,0,1-.91-1.28,4.6,4.6,0,0,1-.32-1.76V51.93H132.3V64.25a6.6,6.6,0,0,0,.5,2.63,5.11,5.11,0,0,0,1.37,1.91,6,6,0,0,0,2.08,1.15,8.38,8.38,0,0,0,2.6.39,8.29,8.29,0,0,0,2.6-.39,5.93,5.93,0,0,0,2.08-1.15,5.27,5.27,0,0,0,1.39-1.91,6.43,6.43,0,0,0,.51-2.63V51.93h-2.16ZM0,70H70V0H0ZM20.29,47.64a3,3,0,0,0,.79,2.46,42.3,42.3,0,0,1,4.33-8.42h0a61.21,61.21,0,0,1,6.06-7.8c-1.43,2.31-.39,7.18-.39,7.18a61,61,0,0,1,2-5.82h0a61.23,61.23,0,0,1,5.91-11.47h0a42.6,42.6,0,0,1,5.65-7C43.25,21,44,23.51,44,23.51c2.67-10.13,8.63-14.28,12.23-14A2.74,2.74,0,0,1,58.7,11a8.92,8.92,0,0,1,.9,2.22C61,18.38,58.29,24.26,57.72,25.4c-.06.14-.11.23-.11.23-2.08,3.14-6.24,2.65-6.24,2.65a3.92,3.92,0,0,0,1.34.44l.13,0,.25,0h0a11.07,11.07,0,0,0,2.63-.1h0c-1.38,3.82-6.2,8.11-6.29,8.21-1.34,1.21-5.15,1.75-6.92,1.87h0c.89.72,5.67.14,5.67.14-3.1,2.1-10.94,3.57-11,3.58,1.59,1.83,6.62,1,8.9.69h0l0,0C37.45,51.31,31.28,48,31.18,48c1.93,2.7,4,2.26,4,2.26a12.07,12.07,0,0,1-10.7,2.75,4.29,4.29,0,0,0,2.38,1.77c-.84.54-3.71-.74-3.71-.74.34,1.53,1,1.77,1,1.77a15.82,15.82,0,0,1-2-1,4.86,4.86,0,0,0,.59,2.36,3.48,3.48,0,0,1-1.78-2.46c.35,1.52-1.73,1.72-1.73,1.72a2.52,2.52,0,0,0,.3-1.18c-2.81,2.23-6,4.32-9,5.19L10,58.3a25.21,25.21,0,0,0,8-4.23C17.5,51.63,20.29,47.64,20.29,47.64Z" fill="#d80048"/></g></g></svg>