<svg xmlns="http://www.w3.org/2000/svg" xmlns:xlink="http://www.w3.org/1999/xlink" width="252.07" height="145.68" viewBox="0 0 252.07 145.68"><defs><radialGradient id="radial-gradient" cx="125.54" cy="35.5" r="37.03" gradientUnits="userSpaceOnUse"><stop offset="0.54" stop-color="#c6af73"/><stop offset="1" stop-color="#a68423"/></radialGradient></defs><g id="Layer_2" data-name="Layer 2"><g id="logos"><path d="M18.32,106.5V99.63l-.08-.16c-2.45,0-4.37-.08-5.78-.08q-6,0-6,.2v6.76A14.8,14.8,0,0,0,6.8,110c0,.18.41.36,1.09.53a6.89,6.89,0,0,0,1.41.25c.08,0,.12.16.13.47a1.7,1.7,0,0,1,0,.66c-2.61-.13-4.12-.19-4.54-.19l-4.68.19a.77.77,0,0,1-.16-.58c0-.37.05-.55.16-.55a7.6,7.6,0,0,0,1.5-.23c.66-.16,1-.34,1.11-.55a14.91,14.91,0,0,0,.28-3.48V91.35a14.91,14.91,0,0,0-.28-3.48c-.07-.21-.45-.4-1.11-.57a7.24,7.24,0,0,0-1.5-.25c-.11,0-.16-.17-.16-.51a.86.86,0,0,1,.16-.62l2.07.13c1,.07,1.91.1,2.61.1.52,0,1,0,1.53,0L8,86l1.41-.1a1.5,1.5,0,0,1,0,.64c0,.33,0,.49-.13.49a6.66,6.66,0,0,0-1.41.27c-.68.19-1,.37-1.09.55a14.8,14.8,0,0,0-.35,3.63v5.82l.07.12c2.56,0,4.53.08,5.94.08s3.44,0,5.78-.08a.22.22,0,0,0,.08-.15V91.35a15.64,15.64,0,0,0-.27-3.48c-.08-.21-.45-.4-1.12-.57a7.14,7.14,0,0,0-1.5-.25c-.1,0-.16-.16-.16-.49a1,1,0,0,1,.16-.64l2.07.13c1.07.07,1.95.1,2.66.1.49,0,1,0,1.48,0L23.22,86l1.39-.1a1.89,1.89,0,0,1,.08.58c0,.37-.06.55-.16.55a6.5,6.5,0,0,0-1.4.27c-.68.19-1.05.37-1.1.55a15.6,15.6,0,0,0-.31,3.63v14.85A15.6,15.6,0,0,0,22,110c0,.18.42.36,1.1.53a6.73,6.73,0,0,0,1.4.25c.1,0,.16.2.16.59a1.71,1.71,0,0,1-.08.54c-2.61-.13-4.09-.19-4.45-.19l-4.73.19a.93.93,0,0,1-.16-.64c0-.33.06-.49.16-.49a7.5,7.5,0,0,0,1.5-.23c.67-.16,1-.34,1.12-.55A15.64,15.64,0,0,0,18.32,106.5Z" fill="#777"/><path d="M30.56,108.3a13.76,13.76,0,0,1,0-18.69,11.93,11.93,0,0,1,17.63,0,13.73,13.73,0,0,1,0,18.69,12,12,0,0,1-17.63,0Zm8.22-20.94a6.67,6.67,0,0,0-5.86,3.25,13.28,13.28,0,0,0-2.15,7.5,16.88,16.88,0,0,0,1,5.89A10.9,10.9,0,0,0,35,108.63a7.45,7.45,0,0,0,5,1.86,6.47,6.47,0,0,0,4.37-1.62,9.58,9.58,0,0,0,2.76-4A14.94,14.94,0,0,0,48,99.71a16.75,16.75,0,0,0-1-5.88,11,11,0,0,0-3.16-4.61A7.47,7.47,0,0,0,38.78,87.36Z" fill="#777"/><path d="M58.93,86.11c1,0,2.16-.06,3.59-.19q.28.9,7.74,19.57a.15.15,0,0,0,.15.08.19.19,0,0,0,.2-.16q3.83-9,6.09-14.8l1.57-4.69q2.49.15,3.24.15c1.61,0,3.07,0,4.37-.15a1.87,1.87,0,0,1,.12.58c0,.37-.07.55-.2.55h-.07a3.81,3.81,0,0,0-1.14.25,4.05,4.05,0,0,0-1,.53c-.31.24-.47,1.11-.47,2.62q0,.63.35,15.86A10.28,10.28,0,0,0,84,109.9c.1.24.49.44,1.17.61a6.83,6.83,0,0,0,1.45.25c.1,0,.15.18.15.55a1.89,1.89,0,0,1-.08.58c-2.6-.13-4.15-.19-4.65-.19l-4.68.19a.86.86,0,0,1-.16-.62c0-.34.05-.51.16-.51a5.57,5.57,0,0,0,1.19-.19,5,5,0,0,0,1.15-.39c.31-.19.47-.75.47-1.68v-2.07l-.47-13.75a12.31,12.31,0,0,0-.21-1.47c-.12-.56-.25-.84-.37-.84s-.12.09-.2.27l-8.16,19.54c-.5,1.12-1,1.68-1.45,1.68a1.35,1.35,0,0,1-.35-.08L60,89q-.08,3.75-.23,8.6t-.27,8c-.08,2.09-.12,3.17-.12,3.22a1.73,1.73,0,0,0,.23,1,2.91,2.91,0,0,0,1.43.61,8.82,8.82,0,0,0,1.58.29c.1,0,.16.2.16.59a1.71,1.71,0,0,1-.08.54c-2.61-.13-4.12-.19-4.53-.19l-4.57.19a.78.78,0,0,1-.2-.58c0-.37.07-.55.2-.55a7.7,7.7,0,0,0,1.62-.25,3.06,3.06,0,0,0,1.42-.61c.42-.47.65-1.6.71-3.4q.08-4.05.17-8t.18-6.2c.05-1.49.08-2.45.08-2.87a6.44,6.44,0,0,0-.16-1.56c-.08-.21-.52-.4-1.33-.57a10.52,10.52,0,0,0-1.76-.25c-.1,0-.15-.18-.15-.55a.84.84,0,0,1,.15-.58L56,86l1.46.07C57.93,86.1,58.41,86.11,58.93,86.11Z" fill="#777"/><path d="M94.14,86.15q1.76,0,6.09-.15t6.53-.16a30,30,0,0,0,.6,3c.3,1.24.48,2,.53,2.32a1,1,0,0,1-.7.2c-.34,0-.53-.09-.55-.28A4.34,4.34,0,0,0,105,88.32a5.88,5.88,0,0,0-2.89-.61H99.49c-2.24,0-3.39.17-3.44.51a18.77,18.77,0,0,0-.19,3.28v6.25q0,.24,1.68.24h3.65a3.54,3.54,0,0,0,1-.16l.71-.19c.1,0,.24-.2.41-.51a2.81,2.81,0,0,0,.29-.68c0-.15.12-.52.27-1.12,0-.18.23-.27.59-.27a.91.91,0,0,1,.66.19v7.39a.91.91,0,0,1-.62.15c-.34,0-.55-.1-.63-.31-.18-.7-.33-1.23-.46-1.58a2.59,2.59,0,0,0-.3-.63,1.94,1.94,0,0,0-.33-.25c-.34-.21-1.72-.31-4.14-.31-1.88,0-2.81.11-2.81.35v6a12.12,12.12,0,0,0,.35,3.56c.08.26,1,.39,2.66.39h1.87a12,12,0,0,0,4.92-.67A4.16,4.16,0,0,0,107,108a9,9,0,0,0,1.15-2.56c0-.16.24-.24.55-.24a1.43,1.43,0,0,1,1,.24c-.13.34-.34.88-.61,1.62s-.49,1.34-.64,1.8-.33,1-.51,1.58a9.74,9.74,0,0,0-.35,1.48q-2,0-6.29-.07c-2.87-.06-5.21-.08-7-.08l-4.73.11c-.08-.07-.12-.28-.12-.62s0-.51.12-.51a6.26,6.26,0,0,0,1.5-.27,2,2,0,0,0,1.2-.63,12.5,12.5,0,0,0,.27-3.67V91.43a14.89,14.89,0,0,0-.27-3.36c-.08-.21-.47-.41-1.16-.59a6.77,6.77,0,0,0-1.54-.27c-.1,0-.16-.16-.16-.47a1,1,0,0,1,.16-.67C90.84,86.13,92.39,86.15,94.14,86.15Z" fill="#777"/><path d="M131.29,86a9.78,9.78,0,0,1,2.69.39,11.75,11.75,0,0,1,2.7,1.17,6.25,6.25,0,0,1,2.19,2.23,6.44,6.44,0,0,1,.85,3.35,6.13,6.13,0,0,1-1.23,3.44,8,8,0,0,1-3.34,2.78c-.26.1-.33.23-.23.39a27.88,27.88,0,0,0,4.49,6.87c2.5,2.74,4.53,4.1,6.1,4.1a1.35,1.35,0,0,1,.11.55,1.48,1.48,0,0,1-.11.59,4.54,4.54,0,0,1-1.06.11q-5.47,0-9.49-5.62c-.42-.57-.89-1.26-1.43-2s-.92-1.37-1.17-1.72-.53-.74-.86-1.15a5.94,5.94,0,0,0-.86-.94,3.39,3.39,0,0,0-.8-.51,4.8,4.8,0,0,0-1.44-.16l-.47,0a.59.59,0,0,0-.31.18.61.61,0,0,0-.16.47v5.74a11.33,11.33,0,0,0,.31,3.4c.13.34.59.61,1.39.82a7.59,7.59,0,0,0,1.7.31c.1,0,.15.18.15.55a1.92,1.92,0,0,1-.07.58c-2.61-.13-4.3-.19-5.08-.19l-4.77.19c-.08-.07-.12-.31-.12-.7s0-.51.12-.51a6.8,6.8,0,0,0,1.53-.23c.65-.16,1-.35,1.17-.59a12.5,12.5,0,0,0,.27-3.67V91.43a14.89,14.89,0,0,0-.27-3.36c-.08-.21-.47-.41-1.16-.59a6.77,6.77,0,0,0-1.54-.27c-.1,0-.15-.16-.15-.47a1,1,0,0,1,.15-.67l4.69.08c.78,0,1.7,0,2.77-.08S130.53,86,131.29,86Zm-.63,1.71a10.66,10.66,0,0,0-2.73.28c-.11,0-.19.12-.26.29a5.67,5.67,0,0,0-.15,1.17c0,.62-.06,1.56-.06,2.84V97c0,.76,1.13,1.13,3.4,1.13h1a4.26,4.26,0,0,0,2.84-1.36,4.75,4.75,0,0,0,1.46-3.64C136.13,89.53,134.31,87.71,130.66,87.71Z" fill="#777"/><path d="M152.24,86.15q1.75,0,6.09-.15t6.53-.16a30,30,0,0,0,.6,3c.3,1.24.48,2,.53,2.32a1,1,0,0,1-.7.2c-.34,0-.53-.09-.55-.28a4.34,4.34,0,0,0-1.64-2.75,5.88,5.88,0,0,0-2.89-.61h-2.62c-2.24,0-3.39.17-3.44.51A18.77,18.77,0,0,0,154,91.5v6.25q0,.24,1.68.24h3.65a3.54,3.54,0,0,0,1-.16l.71-.19c.1,0,.24-.2.41-.51a2.81,2.81,0,0,0,.29-.68c0-.15.12-.52.27-1.12,0-.18.22-.27.59-.27a.91.91,0,0,1,.66.19v7.39a.91.91,0,0,1-.62.15c-.34,0-.55-.1-.63-.31-.18-.7-.33-1.23-.46-1.58a2.59,2.59,0,0,0-.3-.63,1.94,1.94,0,0,0-.33-.25c-.34-.21-1.72-.31-4.14-.31-1.88,0-2.81.11-2.81.35v6a12.12,12.12,0,0,0,.35,3.56c.08.26,1,.39,2.65.39h1.88a12,12,0,0,0,4.92-.67,4.16,4.16,0,0,0,1.31-1.38,9,9,0,0,0,1.15-2.56c.05-.16.24-.24.55-.24a1.43,1.43,0,0,1,1,.24c-.13.34-.34.88-.61,1.62s-.49,1.34-.64,1.8-.33,1-.51,1.58a9.74,9.74,0,0,0-.35,1.48q-2,0-6.29-.07c-2.87-.06-5.21-.08-7-.08l-4.73.11c-.08-.07-.12-.28-.12-.62s0-.51.12-.51a6.26,6.26,0,0,0,1.5-.27,2,2,0,0,0,1.2-.63,12.5,12.5,0,0,0,.27-3.67V91.43a14.89,14.89,0,0,0-.27-3.36c-.08-.21-.47-.41-1.16-.59a6.77,6.77,0,0,0-1.54-.27c-.1,0-.16-.16-.16-.47a1,1,0,0,1,.16-.67C148.94,86.13,150.49,86.15,152.24,86.15Z" fill="#777"/><path d="M176.83,86.07c1.79.06,3.25.08,4.4.08s2.61,0,4.41-.08,3.19-.07,4.18-.07a12.36,12.36,0,0,0,2.7-.43l.74,5.58a1.32,1.32,0,0,1-.94.28c-.23,0-.36-.07-.39-.2a5.31,5.31,0,0,0-1.35-2.83,5,5,0,0,0-3-.65c-2.77,0-4.2.2-4.3.59a15.49,15.49,0,0,0-.35,3.91v14.1a14.8,14.8,0,0,0,.35,3.63c.05.18.41.36,1.09.53a6.89,6.89,0,0,0,1.41.25c.1,0,.16.2.16.59a1.71,1.71,0,0,1-.08.54c-2.61-.13-4.12-.19-4.53-.19l-4.69.19a.77.77,0,0,1-.16-.58c0-.37,0-.55.16-.55a7.5,7.5,0,0,0,1.5-.23c.67-.16,1-.34,1.12-.55a15.64,15.64,0,0,0,.27-3.48V92.36a12.47,12.47,0,0,0-.35-4c-.21-.39-1.62-.59-4.22-.59a5.06,5.06,0,0,0-3,.65,5.46,5.46,0,0,0-1.35,2.83c0,.13-.15.2-.39.2a1.29,1.29,0,0,1-.93-.28l.74-5.58a12.2,12.2,0,0,0,2.69.43C173.66,86,175.05,86,176.83,86.07Z" fill="#777"/><path d="M205.22,86,213,106.62c.46,1.23.84,2.16,1.13,2.81a2,2,0,0,0,1.21,1,4.51,4.51,0,0,0,1.45.37c.1,0,.15.25.15.74a1,1,0,0,1-.08.39c-2.6-.13-4-.19-4.29-.19l-4.53.19a.81.81,0,0,1-.14-.64c0-.33.07-.49.17-.49a4.53,4.53,0,0,0,1.18-.19c.46-.13.74-.3.82-.51a2.7,2.7,0,0,0,.07-.63,6.31,6.31,0,0,0-.13-1.19c-.09-.45-.18-.81-.26-1.07l-.15-.43-1.6-4.42a.33.33,0,0,0-.24-.15q-1.52-.12-3-.12c-1.35,0-3,.07-5,.2l-.19.11-1.68,4.3a10,10,0,0,0-.67,2.7.92.92,0,0,0,.32.78,3,3,0,0,0,1.13.45,6.38,6.38,0,0,0,1.13.17c.08,0,.12.16.14.47a1.87,1.87,0,0,1-.06.66l-4-.19c-.53,0-1,0-1.37,0l-1.31.08-1.39.07a.82.82,0,0,1-.15-.58c0-.37.05-.55.15-.55a4.85,4.85,0,0,0,1.21-.19,1.87,1.87,0,0,0,1-.55,15.6,15.6,0,0,0,1.84-3.67l6.79-17.46c.05-.13.13-.34.22-.63s.16-.5.21-.64a4.4,4.4,0,0,1,.24-.55,2.88,2.88,0,0,1,.27-.49l.29-.35a1,1,0,0,1,.39-.27,1.53,1.53,0,0,1,.49-.08Zm-4.53,14.1c1.36.05,2.28.08,2.78.08,1.14,0,2.33,0,3.55-.12l.12-.2L204,91.23l-3.36,8.71C200.61,100.05,200.64,100.1,200.69,100.1Z" fill="#777"/><path d="M222.54,91.35a15.64,15.64,0,0,0-.27-3.48c-.08-.21-.45-.4-1.12-.57a7.14,7.14,0,0,0-1.5-.25c-.11,0-.16-.17-.16-.51a.86.86,0,0,1,.16-.62l4.69.19c.41,0,1.92-.06,4.53-.19a1.89,1.89,0,0,1,.08.58c0,.37-.06.55-.16.55a6.66,6.66,0,0,0-1.41.27c-.67.19-1,.37-1.09.55a15.31,15.31,0,0,0-.35,3.63v14.85a15.31,15.31,0,0,0,.35,3.63c.05.18.42.36,1.09.53a6.89,6.89,0,0,0,1.41.25c.1,0,.16.2.16.59a1.71,1.71,0,0,1-.08.54c-2.61-.13-4.12-.19-4.53-.19l-4.69.19a.77.77,0,0,1-.16-.58c0-.37,0-.55.16-.55a7.5,7.5,0,0,0,1.5-.23c.67-.16,1-.34,1.12-.55a15.64,15.64,0,0,0,.27-3.48Z" fill="#777"/><path d="M236.68,86.15c.52,0,1,0,1.52,0l1.6-.09,1.41-.1a1.89,1.89,0,0,1,.08.58c0,.37-.06.55-.16.55a6.66,6.66,0,0,0-1.41.27c-.68.19-1,.37-1.09.55a14.8,14.8,0,0,0-.35,3.63v14.73a13.84,13.84,0,0,0,.35,3.44c.08.26,1,.39,2.66.39h1.87a12,12,0,0,0,4.92-.67,4.16,4.16,0,0,0,1.31-1.38,9,9,0,0,0,1.15-2.56c.05-.16.24-.24.55-.24a1.43,1.43,0,0,1,1,.24c-.13.34-.34.88-.61,1.62s-.49,1.34-.64,1.8-.33,1-.51,1.58a9.74,9.74,0,0,0-.35,1.48c-1.36,0-3.47,0-6.35-.11s-5.2-.12-7-.12l-4.73.12a1,1,0,0,1-.12-.63q0-.51.12-.51a6.73,6.73,0,0,0,1.52-.23c.65-.16,1-.35,1.18-.59a12.5,12.5,0,0,0,.27-3.67V91.43a16.18,16.18,0,0,0-.27-3.56c-.08-.21-.45-.4-1.12-.57a7.14,7.14,0,0,0-1.5-.25c-.11,0-.16-.17-.16-.51a.86.86,0,0,1,.16-.62l2.07.13C235.1,86.12,236,86.15,236.68,86.15Z" fill="#777"/><path d="M82.93,118.54a2.18,2.18,0,0,0-.89.22,7.54,7.54,0,0,0-1.06.58,11,11,0,0,0-1.11.8c-.38.29-.74.59-1.08.89s-.64.6-.9.88l-.64.71c-.57.61-1.17,1.26-1.8,2s-1.26,1.42-1.84,2.18-1.16,1.5-1.73,2.24a23.8,23.8,0,0,0-1.49,2.12,15.24,15.24,0,0,0-1,1.88,4.8,4.8,0,0,0-.31,1l-.75.3-1.46.53a6.22,6.22,0,0,1-1.08.3,5.11,5.11,0,0,1-.81.07,1.29,1.29,0,0,1-.62-.14.53.53,0,0,1-.24-.49,2,2,0,0,1,.41-1.07,14.3,14.3,0,0,1,1-1.3l2.34-2.62.45-.51a.56.56,0,0,0,.19-.35.31.31,0,0,0-.12-.23,1.19,1.19,0,0,0-.29-.18,2.3,2.3,0,0,0-.35-.1,1.16,1.16,0,0,0-.28,0,.85.85,0,0,0-.42.2,7.19,7.19,0,0,0-.6.51q-.33.31-.69.72c-.24.27-.48.55-.73.82l-.7.79-.56.64a7.82,7.82,0,0,1-.71.76l-.66.64A9.33,9.33,0,0,1,61,134.32a2.69,2.69,0,0,1-1.32.39,1.42,1.42,0,0,1-.78-.16c-.16-.1-.24-.33-.24-.68a2.36,2.36,0,0,1,.21-.87,6.54,6.54,0,0,1,.57-1.06,7.92,7.92,0,0,1,.83-1.07,8.19,8.19,0,0,1,1-1,5.49,5.49,0,0,1,1.11-.69,2.8,2.8,0,0,1,1.12-.26.83.83,0,0,1,.43.1.72.72,0,0,1,.27.25,1,1,0,0,1,.15.34,1.87,1.87,0,0,1,0,.4,2.46,2.46,0,0,1-.08.59l.44-.2a2.48,2.48,0,0,0,.22-.94,1.21,1.21,0,0,0-.15-.62,1.33,1.33,0,0,0-.43-.42,2.23,2.23,0,0,0-.63-.23,4,4,0,0,0-.79-.08,4,4,0,0,0-1.37.26,7.12,7.12,0,0,0-1.41.7,9.14,9.14,0,0,0-1.33,1,8.31,8.31,0,0,0-1.1,1.22,6.34,6.34,0,0,0-.76,1.28,3.16,3.16,0,0,0-.24,1l-.06-.14-2.43,1a13.89,13.89,0,0,1-1.63.56,6.89,6.89,0,0,1-1.16.2c-.32,0-.65,0-1,0a1.18,1.18,0,0,1-.87-.32,1.06,1.06,0,0,1-.32-.81v-.2a.75.75,0,0,1,0-.21l1.41-.58,1.55-.64c.52-.21,1-.45,1.51-.7a11.4,11.4,0,0,0,1.28-.76,5.36,5.36,0,0,0,.88-.76,1.14,1.14,0,0,0,.33-.73.9.9,0,0,0-.24-.65,1.82,1.82,0,0,0-.58-.4,2.91,2.91,0,0,0-.73-.2,5.73,5.73,0,0,0-.66,0,5.17,5.17,0,0,0-1.59.25,7.1,7.1,0,0,0-1.52.67,8.14,8.14,0,0,0-1.34,1,7.37,7.37,0,0,0-1.07,1.18,6.1,6.1,0,0,0-.72,1.28,3.4,3.4,0,0,0-.24,1.09c-.49.23-.95.44-1.37.6a12.59,12.59,0,0,1-1.51.5,8.41,8.41,0,0,1-1.17.24,7.16,7.16,0,0,1-.84.06,1.5,1.5,0,0,1-.58-.09q-.21-.09-.21-.42a1.54,1.54,0,0,1,.16-.58,7.2,7.2,0,0,1,.45-.85c.19-.31.41-.64.67-1l.79-1,.41-.54a6.31,6.31,0,0,1,.53-.63l.54-.58c.17-.18.31-.31.42-.41l.31-.25a2.9,2.9,0,0,1,.38-.23.77.77,0,0,1-.09-.13l-.07-.12a.22.22,0,0,0,0-.08,7,7,0,0,1-1.76.75,5.22,5.22,0,0,1-1.3.19,3.43,3.43,0,0,1-.56,0,3,3,0,0,1-.45-.11l0-.63a4.75,4.75,0,0,0-.06-.78,1.18,1.18,0,0,0-.25-.59.91.91,0,0,0-.4-.35,1.3,1.3,0,0,0-.51-.11,1.15,1.15,0,0,0-.82.3,1,1,0,0,0-.33.77,1.47,1.47,0,0,0,.13.6,1.61,1.61,0,0,0,.35.5,2.58,2.58,0,0,0,.52.38,3.52,3.52,0,0,0,.63.27,6.59,6.59,0,0,1-.1.68,2.32,2.32,0,0,1-.26.72,3.25,3.25,0,0,1-.52.72,3.44,3.44,0,0,1-.85.64l.33.21a5.84,5.84,0,0,0,.86-.66,4.33,4.33,0,0,0,.58-.67,3.88,3.88,0,0,0,.36-.7,4.79,4.79,0,0,0,.21-.74,3.23,3.23,0,0,0,.47.05h.47a3.15,3.15,0,0,0,.44,0l.4-.07-.15.15-.29.31-.36.38-.37.4-.29.33c-.09.09-.14.16-.17.18-.39.47-.73.88-1,1.24l-.69.92a3.91,3.91,0,0,0-.42.67,1.42,1.42,0,0,0-.12.52,1.27,1.27,0,0,0,.31.91,1.33,1.33,0,0,0,1,.34,12.43,12.43,0,0,0,1.37-.1,12.89,12.89,0,0,0,1.65-.35,16.21,16.21,0,0,0,1.85-.63,13.88,13.88,0,0,0,1.29-.63,2,2,0,0,0,.16.69,1.67,1.67,0,0,0,.48.62,2.07,2.07,0,0,0,.71.36,2.84,2.84,0,0,0,.84.11,10.56,10.56,0,0,0,1.13,0,7.68,7.68,0,0,0,1.33-.26,15.85,15.85,0,0,0,1.84-.66l2.64-1.1s0,.06,0,.09a3.27,3.27,0,0,0,.08.7,1.47,1.47,0,0,0,.91,1.06,2.44,2.44,0,0,0,1,.17,4.19,4.19,0,0,0,1.79-.47,8.32,8.32,0,0,0,2-1.51,1,1,0,0,0-.14.35,1.15,1.15,0,0,0,0,.31.92.92,0,0,0,.18.57,1.65,1.65,0,0,0,.45.42,2,2,0,0,0,.6.25,2.46,2.46,0,0,0,.65.08,5.67,5.67,0,0,0,1.1-.12,9.42,9.42,0,0,0,1.34-.41l1.66-.63.71-.29s0,.08,0,.11a1.51,1.51,0,0,0,.08.53.89.89,0,0,0,.28.41,1.4,1.4,0,0,0,.53.28,3.38,3.38,0,0,0,.86.1,5,5,0,0,0,1.1-.13,9.28,9.28,0,0,0,1.34-.4l1.66-.63c.61-.24,1.3-.53,2.07-.88l-.13-.3c-.73.34-1.37.62-1.93.82l-1.46.53a6,6,0,0,1-1.08.3,5.25,5.25,0,0,1-.81.08l-.37,0a1.27,1.27,0,0,1-.36-.11.75.75,0,0,1-.26-.2.44.44,0,0,1-.1-.3,2,2,0,0,1,.07-.51,3.32,3.32,0,0,1,.21-.63l2.29-2,1.73-1.53c.5-.45,1-.9,1.43-1.36s.89-.9,1.31-1.33l1.3-1.34c.45-.46,1-1,1.5-1.55.12-.12.29-.29.51-.53l.76-.78a10.42,10.42,0,0,0,.8-.94l.72-1a8,8,0,0,0,.57-.87,1.54,1.54,0,0,0,.23-.72,1,1,0,0,0-.21-.66A.89.89,0,0,0,82.93,118.54Zm-33,13.74a8.82,8.82,0,0,1,1.52-1.87,6.42,6.42,0,0,1,.88-.73,4.81,4.81,0,0,1,.85-.5,1.81,1.81,0,0,1,.73-.18.77.77,0,0,1,.61.2.86.86,0,0,1,.16.51,1.31,1.31,0,0,1-.23.73,3.24,3.24,0,0,1-.62.68,6.72,6.72,0,0,1-.92.63c-.34.2-.71.39-1.09.57s-.78.35-1.19.5l-1.16.44A4.11,4.11,0,0,1,49.9,132.28ZM82.46,121l-.94,1.32a12.45,12.45,0,0,1-1.37,1.59l-1.67,1.73c-.57.61-1.18,1.23-1.84,1.84s-1.31,1.21-2,1.77-1.25,1.1-1.83,1.63l-1.56,1.41c.28-.47.61-1,1-1.5s.82-1.09,1.29-1.67L75,127.29c.5-.62,1-1.19,1.52-1.73l1.5-1.57,1.38-1.44.88-.93c.3-.32.61-.61.9-.87a9,9,0,0,1,.83-.64,1.19,1.19,0,0,1,.63-.25c.12,0,.17.06.17.18A1.75,1.75,0,0,1,82.46,121Zm19.54,6.7c-.31.22-.67.47-1.06.76l-1.29.9-1.38,1-1.36,1-1.18.84a.8.8,0,0,0-.28-.13,1,1,0,0,0-.36-.05,1.84,1.84,0,0,0-.79.17,2.31,2.31,0,0,0-.69.46,2.46,2.46,0,0,0-.47.64,2.12,2.12,0,0,0-.11.29l-2.32.94a13.89,13.89,0,0,1-1.63.56,6.89,6.89,0,0,1-1.16.2c-.32,0-.65,0-1,0a1.18,1.18,0,0,1-.87-.32,1.06,1.06,0,0,1-.32-.81v-.2a1.49,1.49,0,0,1,0-.21l1.41-.58,1.55-.64c.52-.21,1-.45,1.51-.7a11.4,11.4,0,0,0,1.28-.76,5,5,0,0,0,.88-.76,1.14,1.14,0,0,0,.33-.73.9.9,0,0,0-.24-.65,1.82,1.82,0,0,0-.58-.4,2.91,2.91,0,0,0-.73-.2,5.73,5.73,0,0,0-.66,0,5.17,5.17,0,0,0-1.59.25,7.1,7.1,0,0,0-1.52.67,8.14,8.14,0,0,0-1.34,1A7.37,7.37,0,0,0,85,131.3a6.58,6.58,0,0,0-.72,1.28,3.51,3.51,0,0,0-.26,1.27,2.11,2.11,0,0,0,.18.91,1.67,1.67,0,0,0,.48.62,2.16,2.16,0,0,0,.71.36,2.89,2.89,0,0,0,.84.11,10.56,10.56,0,0,0,1.13,0,7.68,7.68,0,0,0,1.33-.26,15.85,15.85,0,0,0,1.84-.66l2.44-1s0,0,0,.08a1.23,1.23,0,0,0,.29.82,2.44,2.44,0,0,0,.73.57,3.42,3.42,0,0,0,.93.33,4.5,4.5,0,0,0,.92.11,8.26,8.26,0,0,0,1.36-.12,6.24,6.24,0,0,0,1.39-.38,6.37,6.37,0,0,0,1.29-.73,4.63,4.63,0,0,0,1.07-1.13,5.55,5.55,0,0,0,.73-1.61,7.38,7.38,0,0,0,.28-2.15,2.24,2.24,0,0,1,0-.52,2.8,2.8,0,0,1,.16-.52,2.77,2.77,0,0,1,.32-.53,4.64,4.64,0,0,1,.48-.56l-.22-.39Zm-15.64,4.62a8.82,8.82,0,0,1,1.52-1.87,6.42,6.42,0,0,1,.88-.73,4.81,4.81,0,0,1,.85-.5,1.85,1.85,0,0,1,.73-.18.77.77,0,0,1,.61.2.86.86,0,0,1,.16.51,1.31,1.31,0,0,1-.23.73,3,3,0,0,1-.62.68,6.72,6.72,0,0,1-.92.63c-.34.2-.71.39-1.09.57s-.78.35-1.19.5l-1.16.44A4.54,4.54,0,0,1,86.36,132.28Zm13.44-.81A5.87,5.87,0,0,1,99,133,4.82,4.82,0,0,1,97.87,134a5,5,0,0,1-1.27.62,4.87,4.87,0,0,1-.61.18,2.68,2.68,0,0,1-.62.07l-.32,0a1.34,1.34,0,0,1-.3-.12.63.63,0,0,1-.23-.2.45.45,0,0,1-.09-.28.26.26,0,0,1,.12-.22,1.5,1.5,0,0,1,.31-.19l.4-.19a2,2,0,0,0,.4-.23,1.18,1.18,0,0,0,.3-.33.89.89,0,0,0,.12-.47.38.38,0,0,0-.07-.22l1.21-.86,1-.73,1-.67,1-.71A7.28,7.28,0,0,1,99.8,131.47Zm38.31,2.95a13.89,13.89,0,0,1-1.63.56,6.79,6.79,0,0,1-1.15.2c-.33,0-.65,0-1,0a1.19,1.19,0,0,1-.88-.32,1.1,1.1,0,0,1-.32-.81v-.2a1.49,1.49,0,0,1,0-.21l1.42-.58,1.55-.64c.52-.21,1-.45,1.5-.7a10.56,10.56,0,0,0,1.28-.76,5,5,0,0,0,.88-.76,1.11,1.11,0,0,0,.34-.73.87.87,0,0,0-.25-.65,1.72,1.72,0,0,0-.58-.4,3,3,0,0,0-.72-.2,6.07,6.07,0,0,0-.66,0,5.19,5.19,0,0,0-1.6.25,7,7,0,0,0-1.51.67,7.74,7.74,0,0,0-1.34,1,8,8,0,0,0-1.08,1.18,6,6,0,0,0-.71,1.28,3.46,3.46,0,0,0-.24,1.09c-.51.24-1,.46-1.43.63s-1.06.38-1.51.5a8.13,8.13,0,0,1-1.17.24c-.33,0-.61.05-.84.05a1.53,1.53,0,0,1-.58-.09q-.21-.09-.21-.42a1.57,1.57,0,0,1,.29-.73,10.39,10.39,0,0,1,.75-1l.43-.49c.2-.24.46-.53.76-.87s.63-.73,1-1.16l1.19-1.37,1.3-1.49,1.35-1.54h3.27l.56-.84-3-.15c.16-.17.31-.35.47-.54l.45-.52.37-.42.25-.28,2.09-2.41.45-.51a.63.63,0,0,0,.19-.36.31.31,0,0,0-.12-.23,1.09,1.09,0,0,0-.3-.18,2.19,2.19,0,0,0-.34-.1,1.23,1.23,0,0,0-.28,0,.81.81,0,0,0-.42.2,5.87,5.87,0,0,0-.6.51,8.26,8.26,0,0,0-.7.73c-.23.28-.47.55-.71.83l-.68.79-.56.65-.77.89-.75.87-2.45-.16-.94,1.27h2.44l-1.27,1.47-1.22,1.41-1.11,1.29-.93,1.08-.67.78-.34.39a11.32,11.32,0,0,0-1,1.33v0c-.51.23-1,.43-1.41.59l-1.46.53a6,6,0,0,1-1.08.3,5.11,5.11,0,0,1-.81.07,1.25,1.25,0,0,1-.61-.14.52.52,0,0,1-.25-.49,2,2,0,0,1,.42-1.07,11.46,11.46,0,0,1,1-1.3l2.33-2.62.46-.51a.58.58,0,0,0,.18-.35.31.31,0,0,0-.12-.23,1.19,1.19,0,0,0-.29-.18,2,2,0,0,0-.35-.1,1.16,1.16,0,0,0-.28,0,.79.79,0,0,0-.41.2,7.15,7.15,0,0,0-.61.51q-.33.31-.69.72l-.72.82-.7.79-.57.64a6.76,6.76,0,0,1-.71.76l-.66.64a8.88,8.88,0,0,1-1.45,1.08,2.69,2.69,0,0,1-1.32.39,1.38,1.38,0,0,1-.77-.16c-.17-.1-.25-.33-.25-.68a2.58,2.58,0,0,1,.21-.87,6.54,6.54,0,0,1,.57-1.06,8.82,8.82,0,0,1,.83-1.07,8.27,8.27,0,0,1,1-1,5.49,5.49,0,0,1,1.11-.69,2.72,2.72,0,0,1,1.11-.26.83.83,0,0,1,.43.1.65.65,0,0,1,.27.25,1,1,0,0,1,.15.34,1.87,1.87,0,0,1,0,.4,2.44,2.44,0,0,1-.07.59l.43-.2a2.51,2.51,0,0,0,.23-.94,1.21,1.21,0,0,0-.16-.62,1.33,1.33,0,0,0-.43-.42,2.12,2.12,0,0,0-.63-.23,4,4,0,0,0-.79-.08,4,4,0,0,0-1.37.26,7.7,7.7,0,0,0-1.41.7,8.84,8.84,0,0,0-2.43,2.23,6.34,6.34,0,0,0-.76,1.28,3.16,3.16,0,0,0-.24,1l-.06-.14a18.44,18.44,0,0,1-1.89.86c-.56.21-1.06.38-1.51.5a8.3,8.3,0,0,1-1.16.24c-.34,0-.62.05-.85.05a1.53,1.53,0,0,1-.58-.09q-.21-.09-.21-.42a1.57,1.57,0,0,1,.29-.73,10.39,10.39,0,0,1,.75-1l.43-.49.76-.87c.29-.35.63-.73,1-1.16l1.19-1.37,1.3-1.49,1.35-1.54h3.27l.56-.84-3-.15.46-.54.45-.52.37-.42.25-.28,2.09-2.41.45-.51a.63.63,0,0,0,.19-.36.31.31,0,0,0-.12-.23,1.09,1.09,0,0,0-.3-.18,2.19,2.19,0,0,0-.34-.1,1.23,1.23,0,0,0-.28,0,.85.85,0,0,0-.42.2,5.87,5.87,0,0,0-.6.51,7,7,0,0,0-.69.73l-.72.83-.68.79-.56.65-.77.89-.75.87-2.45-.16-.94,1.27H110l-1.27,1.47-1.22,1.41-1.11,1.29-.93,1.08-.67.78-.34.39a11.32,11.32,0,0,0-1,1.33,1.8,1.8,0,0,0-.3.88,1.29,1.29,0,0,0,.32.91,1.32,1.32,0,0,0,1,.33,10.15,10.15,0,0,0,1.37-.1,12.91,12.91,0,0,0,1.66-.34,14.46,14.46,0,0,0,1.84-.64,15,15,0,0,0,1.84-.92v.07a3.26,3.26,0,0,0,.07.7,1.49,1.49,0,0,0,.3.62,1.58,1.58,0,0,0,.61.44,2.47,2.47,0,0,0,1,.17,4.16,4.16,0,0,0,1.79-.47,8.14,8.14,0,0,0,2-1.51,1.28,1.28,0,0,0-.14.35,1.15,1.15,0,0,0,0,.31.92.92,0,0,0,.18.57,1.81,1.81,0,0,0,.45.42,2,2,0,0,0,.6.25,2.46,2.46,0,0,0,.65.08,5.69,5.69,0,0,0,1.11-.12,9.33,9.33,0,0,0,1.33-.41l1.66-.63c.37-.14.78-.31,1.21-.5a1.35,1.35,0,0,0-.08.42,1.29,1.29,0,0,0,.32.91,1.32,1.32,0,0,0,1,.33,10.15,10.15,0,0,0,1.37-.1,12.91,12.91,0,0,0,1.66-.34,14.46,14.46,0,0,0,1.84-.64,11.87,11.87,0,0,0,1.35-.65,2,2,0,0,0,.15.69,1.59,1.59,0,0,0,.49.62,2,2,0,0,0,.7.36,3,3,0,0,0,.85.11,10.68,10.68,0,0,0,1.13,0,7.42,7.42,0,0,0,1.32-.26,15.92,15.92,0,0,0,1.85-.66l2.73-1.13-.13-.31Zm-4.35-2.14c.21-.33.44-.66.69-1a10,10,0,0,1,.83-.89,7.08,7.08,0,0,1,.88-.73,5.19,5.19,0,0,1,.85-.5,1.85,1.85,0,0,1,.74-.18.74.74,0,0,1,.6.2.8.8,0,0,1,.16.51,1.31,1.31,0,0,1-.23.73,3,3,0,0,1-.62.68,6.59,6.59,0,0,1-.91.63c-.35.2-.71.39-1.1.57s-.78.35-1.18.5l-1.16.44A4.48,4.48,0,0,1,133.76,132.28ZM214,133c-1.19.33-2.33.69-3.43,1.1s-2.17.84-3.2,1.31l.71-.8.75-.85.47-.53.48-.54.4-.45.26-.3,2.1-2.38.45-.51a.58.58,0,0,0,.19-.35.31.31,0,0,0-.12-.23,1.19,1.19,0,0,0-.29-.18,2,2,0,0,0-.35-.1,1.16,1.16,0,0,0-.28,0,.79.79,0,0,0-.41.2,5.87,5.87,0,0,0-.6.51c-.23.21-.46.45-.71.71l-.74.81-.68.8-.55.66a1.07,1.07,0,0,1-.13.15l-.34.39-.34.42-.49.52a1.67,1.67,0,0,1-.25.24,9.8,9.8,0,0,1-.87.55,6.3,6.3,0,0,1-.9.45,7.16,7.16,0,0,1-.88.31,3.58,3.58,0,0,1-.83.11.45.45,0,0,1-.27-.06.21.21,0,0,1-.09-.17.77.77,0,0,1,.14-.29l.35-.5.47-.58.51-.58.45-.51.28-.32,2.09-2.4q.27-.29.45-.51a.58.58,0,0,0,.19-.35.31.31,0,0,0-.12-.24.92.92,0,0,0-.29-.17,1.75,1.75,0,0,0-.35-.11,1.23,1.23,0,0,0-.28,0,.81.81,0,0,0-.42.2,7.15,7.15,0,0,0-.61.51,9.63,9.63,0,0,0-.68.72l-.72.82-.69.8c-.22.25-.4.47-.56.64l-.66.76c-.22.26-.43.52-.61.77-.05.07-.07.13-.11.19a23.52,23.52,0,0,1-2.62,1.1,7.77,7.77,0,0,1-2.38.42,3.77,3.77,0,0,1-.78-.07,1.76,1.76,0,0,1-.61-.22,1.18,1.18,0,0,1-.4-.4,1.27,1.27,0,0,1-.14-.6,2.37,2.37,0,0,1,.21-.88,6.08,6.08,0,0,1,.57-1,8.9,8.9,0,0,1,.83-1.08,9.11,9.11,0,0,1,1-.95,5.43,5.43,0,0,1,1.11-.68,2.57,2.57,0,0,1,1.11-.26.5.5,0,0,1,.26.06.23.23,0,0,1,.1.22c0,.09-.07.17-.2.23l-.44.22a2.16,2.16,0,0,0-.43.29.65.65,0,0,0-.2.5.56.56,0,0,0,.18.37.75.75,0,0,0,.58.19,1.59,1.59,0,0,0,.61-.13,1.9,1.9,0,0,0,.52-.35,1.77,1.77,0,0,0,.36-.5,1.33,1.33,0,0,0,.14-.57,1.24,1.24,0,0,0-.16-.62,1.33,1.33,0,0,0-.43-.42,2.23,2.23,0,0,0-.63-.23,4,4,0,0,0-.79-.08,4,4,0,0,0-1.37.26,8.4,8.4,0,0,0-1.41.7,8.55,8.55,0,0,0-1.33,1,9.55,9.55,0,0,0-1.1,1.21,6.14,6.14,0,0,0-.76,1.29,3.3,3.3,0,0,0-.28,1.24,1.86,1.86,0,0,0,0,.34c-.36.15-.71.3-1.08.42a11.55,11.55,0,0,1-1.4.37,7.81,7.81,0,0,1-1.44.14l-.25,0a.47.47,0,0,1-.21-.06.44.44,0,0,1-.16-.17.55.55,0,0,1-.07-.28,1.22,1.22,0,0,1,.29-.67c.19-.25.42-.53.69-.83l.87-1,.89-1a4.37,4.37,0,0,0,.7-1,2.16,2.16,0,0,0,.27-1,.8.8,0,0,0-.29-.65,1.85,1.85,0,0,0-1.11-.23,4.2,4.2,0,0,0-1.14.17,8.16,8.16,0,0,0-1.14.44,9.87,9.87,0,0,0-1,.55l-.78.48.26-.29.46-.5a.56.56,0,0,0,.19-.35.31.31,0,0,0-.12-.23,1.19,1.19,0,0,0-.29-.18,2.35,2.35,0,0,0-.35-.11l-.28,0a.93.93,0,0,0-.49.24,4.55,4.55,0,0,0-.65.62l-.77.86-.8.9-2.41,2.71-2.39,1a13.89,13.89,0,0,1-1.63.56,6.79,6.79,0,0,1-1.15.2c-.33,0-.65,0-1,0a1.19,1.19,0,0,1-.88-.32,1.1,1.1,0,0,1-.32-.81v-.2a1.49,1.49,0,0,1,0-.21l1.42-.58,1.55-.64c.52-.21,1-.45,1.5-.7a10.56,10.56,0,0,0,1.28-.76,5,5,0,0,0,.88-.76,1.11,1.11,0,0,0,.34-.73.87.87,0,0,0-.25-.65,1.72,1.72,0,0,0-.58-.4,3,3,0,0,0-.72-.2,6.07,6.07,0,0,0-.66,0,5.19,5.19,0,0,0-1.6.25,7,7,0,0,0-1.51.67,7.74,7.74,0,0,0-1.34,1,8,8,0,0,0-1.08,1.18,6,6,0,0,0-.71,1.28,4.25,4.25,0,0,0-.21.73c-.8.24-1.58.49-2.34.77-1.1.4-2.17.84-3.2,1.31l.7-.8.75-.84.47-.54c.17-.19.33-.36.47-.53l.41-.46.25-.29,2.11-2.39q.27-.28.45-.51a.58.58,0,0,0,.19-.35.31.31,0,0,0-.12-.23.92.92,0,0,0-.29-.17,2,2,0,0,0-.35-.11l-.28,0a.79.79,0,0,0-.41.2,5.9,5.9,0,0,0-.61.52c-.22.21-.46.44-.7.71s-.5.53-.74.8-.47.54-.68.8-.4.47-.55.66a4.12,4.12,0,0,0-.28.31c-.1.11-.19.23-.28.35l-.41.4-.38.33a10.64,10.64,0,0,1-1.46,1.08,2.61,2.61,0,0,1-1.3.4,1.52,1.52,0,0,1-.78-.16.79.79,0,0,1-.24-.68A2.37,2.37,0,0,1,163,133a6.75,6.75,0,0,1,.56-1.05,8.21,8.21,0,0,1,.84-1.07,7.61,7.61,0,0,1,1-1,5.43,5.43,0,0,1,1.11-.68,2.58,2.58,0,0,1,1.12-.26.87.87,0,0,1,.42.09.85.85,0,0,1,.28.25,1.22,1.22,0,0,1,.14.35,1.75,1.75,0,0,1,.05.4,2.38,2.38,0,0,1-.08.58l.43-.2a2.33,2.33,0,0,0,.23-.94,1.09,1.09,0,0,0-.16-.61,1.06,1.06,0,0,0-.42-.42,1.94,1.94,0,0,0-.64-.24,3.81,3.81,0,0,0-.78-.08,4.14,4.14,0,0,0-1.38.26,8,8,0,0,0-1.4.7,8.55,8.55,0,0,0-1.33,1,8.25,8.25,0,0,0-1.1,1.21,6.14,6.14,0,0,0-.76,1.29,3.11,3.11,0,0,0-.28,1.24s0,.05,0,.08c-.32.14-.62.25-.9.36l-1.46.53a6.22,6.22,0,0,1-1.08.3,5.11,5.11,0,0,1-.81.07,1.29,1.29,0,0,1-.62-.14.53.53,0,0,1-.24-.49,2.09,2.09,0,0,1,.41-1.07,14.3,14.3,0,0,1,1-1.3l2.34-2.62.45-.51a.56.56,0,0,0,.19-.35.31.31,0,0,0-.12-.23,1.19,1.19,0,0,0-.29-.18,2.3,2.3,0,0,0-.35-.1,1.16,1.16,0,0,0-.28,0,.85.85,0,0,0-.42.2,7.19,7.19,0,0,0-.6.51q-.33.31-.69.72c-.24.27-.48.55-.73.82l-.7.79-.56.64a7.82,7.82,0,0,1-.71.76l-.66.64a9.33,9.33,0,0,1-1.45,1.08,2.69,2.69,0,0,1-1.32.39,1.42,1.42,0,0,1-.78-.16c-.16-.1-.24-.33-.24-.68a2.36,2.36,0,0,1,.21-.87,6.54,6.54,0,0,1,.57-1.06,7.92,7.92,0,0,1,.83-1.07,8.19,8.19,0,0,1,1-1,5.49,5.49,0,0,1,1.11-.69,2.8,2.8,0,0,1,1.12-.26.83.83,0,0,1,.43.1.72.72,0,0,1,.27.25,1,1,0,0,1,.15.34,1.87,1.87,0,0,1,0,.4,2.46,2.46,0,0,1-.08.59l.44-.2a2.48,2.48,0,0,0,.22-.94,1.21,1.21,0,0,0-.15-.62,1.33,1.33,0,0,0-.43-.42,2.23,2.23,0,0,0-.63-.23,4,4,0,0,0-.79-.08,4,4,0,0,0-1.37.26,7.12,7.12,0,0,0-1.41.7,9.14,9.14,0,0,0-1.33,1,8.31,8.31,0,0,0-1.1,1.22,6.34,6.34,0,0,0-.76,1.28,3,3,0,0,0-.2,1.94,1.47,1.47,0,0,0,.91,1.06,2.44,2.44,0,0,0,1,.17,4.19,4.19,0,0,0,1.79-.47,8.32,8.32,0,0,0,2-1.51,1,1,0,0,0-.14.35,1.15,1.15,0,0,0,0,.31.92.92,0,0,0,.18.57,1.65,1.65,0,0,0,.45.42,2,2,0,0,0,.6.25,2.46,2.46,0,0,0,.65.08,5.67,5.67,0,0,0,1.1-.12,9.42,9.42,0,0,0,1.34-.41l1.66-.63.94-.38c0,.09,0,.19,0,.29a1.56,1.56,0,0,0,.29.61,1.8,1.8,0,0,0,.61.45,2.66,2.66,0,0,0,1,.17,3.65,3.65,0,0,0,1.21-.22,5,5,0,0,0,1.32-.7l-.89,1.09-.91,1.12c-.9.48-1.75,1-2.56,1.49L158.7,140a18.55,18.55,0,0,0-1.83,1.33,13.21,13.21,0,0,0-1.3,1.24,6,6,0,0,0-.8,1.1,2,2,0,0,0-.26.85,1,1,0,0,0,.11.5,1,1,0,0,0,.31.35,1.2,1.2,0,0,0,.43.19,2.63,2.63,0,0,0,.49.05,3.45,3.45,0,0,0,1.06-.16,5.07,5.07,0,0,0,1-.44,6,6,0,0,0,.87-.62,9.27,9.27,0,0,0,.78-.75l2.66-3,4-4.48c.73-.33,1.44-.65,2.14-.95s1.36-.58,2-.83,1.25-.47,1.81-.67l.28-.08a1.1,1.1,0,0,0,0,.18,2.27,2.27,0,0,0,.17.91,1.59,1.59,0,0,0,.49.62,2,2,0,0,0,.7.36,3,3,0,0,0,.85.11,10.68,10.68,0,0,0,1.13,0,7.42,7.42,0,0,0,1.32-.26,15.92,15.92,0,0,0,1.85-.66l2.06-.86-.5.56a2,2,0,0,0-.23.3.57.57,0,0,0-.1.31.32.32,0,0,0,.07.19,1,1,0,0,0,.18.17,1.35,1.35,0,0,0,.26.15,1,1,0,0,0,.3.05H181l.12,0,.26-.17a2.39,2.39,0,0,0,.32-.32l.82-.9.86-.94q.89-.87,1.8-1.68a21.07,21.07,0,0,1,1.94-1.53l.8-.51a4.82,4.82,0,0,1,.74-.39,5.07,5.07,0,0,1,.72-.24,3.84,3.84,0,0,1,.76-.08.38.38,0,0,1,.27.07.18.18,0,0,1,.09.16.6.6,0,0,1-.14.34,2.73,2.73,0,0,0-.22.3c-.15.16-.33.37-.56.61l-.72.8-.79.87c-.27.3-.51.59-.73.88a6.85,6.85,0,0,0-.53.85,1.71,1.71,0,0,0-.2.71,1.14,1.14,0,0,0,.36.93,1.5,1.5,0,0,0,1,.29,9.6,9.6,0,0,0,2.05-.22A15.38,15.38,0,0,0,192,135a12.45,12.45,0,0,0,1.2-.49,1,1,0,0,0,.06.18,1.75,1.75,0,0,0,.58.63,2.62,2.62,0,0,0,.85.35,5.22,5.22,0,0,0,1.08.1,9.81,9.81,0,0,0,1.72-.17,14.5,14.5,0,0,0,1.8-.48,15.42,15.42,0,0,0,1.72-.69c.19-.08.36-.17.53-.26a1.63,1.63,0,0,0-.16.64.83.83,0,0,0,.33.68,1.91,1.91,0,0,0,1.15.26,3.15,3.15,0,0,0,.84-.12,5.92,5.92,0,0,0,.87-.29q.44-.18.84-.39l.73-.4c-.69.8-1.37,1.63-2.06,2.47-.85.51-1.68,1-2.5,1.54l-2.36,1.48a20.12,20.12,0,0,0-1.82,1.32,13.21,13.21,0,0,0-1.3,1.25,5.54,5.54,0,0,0-.8,1.09,1.91,1.91,0,0,0-.27.86,1,1,0,0,0,.12.5,1.1,1.1,0,0,0,.3.34,1.25,1.25,0,0,0,.44.19,2,2,0,0,0,.49.06,3.51,3.51,0,0,0,1.06-.17,4.94,4.94,0,0,0,1-.43,5,5,0,0,0,.88-.63c.28-.24.53-.49.78-.74l2.66-3,4-4.48c.71-.33,1.42-.65,2.12-.95s1.36-.58,2-.83,1.25-.47,1.81-.66,1.08-.35,1.53-.47Zm-39.3-.73c.21-.33.44-.66.69-1a10,10,0,0,1,.83-.89,7.08,7.08,0,0,1,.88-.73,5.19,5.19,0,0,1,.85-.5,1.85,1.85,0,0,1,.74-.18.74.74,0,0,1,.6.2.8.8,0,0,1,.16.51,1.31,1.31,0,0,1-.23.73,3,3,0,0,1-.62.68,6.59,6.59,0,0,1-.91.63c-.35.2-.72.39-1.1.57s-.78.35-1.18.5l-1.16.44A4.48,4.48,0,0,1,174.69,132.28Zm-13.17,7.23-1.33,1.55-1.2,1.39-1,1.17c-.17.16-.33.32-.51.47a6.08,6.08,0,0,1-.54.39,3.31,3.31,0,0,1-.52.28,1.32,1.32,0,0,1-.47.11.87.87,0,0,1-.61-.17.54.54,0,0,1-.17-.43,1.44,1.44,0,0,1,.15-.61,3.29,3.29,0,0,1,.37-.57,10.47,10.47,0,0,1,1.24-1.29,15.74,15.74,0,0,1,1.72-1.3l2-1.34a23.72,23.72,0,0,1,2.26-1.3Zm40.46,0-1.32,1.56-1.19,1.4c-.36.44-.69.83-1,1.18-.16.16-.33.31-.5.46a6.25,6.25,0,0,1-.54.4,5.36,5.36,0,0,1-.52.28,1.28,1.28,0,0,1-.47.1.83.83,0,0,1-.61-.17.54.54,0,0,1-.17-.42,1.4,1.4,0,0,1,.15-.61,3.38,3.38,0,0,1,.37-.58,10.44,10.44,0,0,1,1.24-1.28,15.28,15.28,0,0,1,1.71-1.3l2-1.34c.72-.47,1.45-.92,2.2-1.34Z" fill="#b6994b"/><path d="M115,59h10V49H115Zm12,0h10V49H127ZM115,71h10V61H115Zm12,0h10V61H127ZM108,0h-5V29.62l5-4.8Zm51,0V40.19l-3-2.88V0h-5V32.51l2.83,2.72-15.49-14.9L140,21.94V0h-5V17.13l-3-2.88V0h-5V9.44l3.59,3.45L125.54,8l-5.08,4.89L124,9.44V0h-5V14.25l-3,2.88V0h-5V21.94l1.67-1.61-15.5,14.9L100,32.51V0H95V37.31l-3,2.88V0H87V52l38.5-37L164,52V0ZM148,0h-5V24.82l5,4.8ZM87,57v7l38.5-37L164,64V57l-38.5-37Z" fill="url(#radial-gradient)"/></g></g></svg>