<svg xmlns="http://www.w3.org/2000/svg" width="318.88" height="52.04" viewBox="0 0 318.88 52.04"><g id="Layer_2" data-name="Layer 2"><g id="logos"><path d="M59.39,51.6V3.85h5.53V51.6Z" fill="#6c6d6f"/><path d="M72.9,51.6V3.85h5.53V51.6Z" fill="#6c6d6f"/><path d="M111.19,51.6h-5.53V25.83c0-5-5-5-5-5H96.91c-5,0-5,5-5,5V51.6H86.41V15.4h2.31l5.39,5.46c0-5.46,2.8-5.46,2.8-5.46h3.78s10.5-.14,10.5,10.22Z" fill="#6c6d6f"/><path d="M128.55,15.4h8.75V0h5.53V51.6h-2.24l-5.46-5.47s0,5.47-2.73,5.47h-3.85s-10.43,0-10.43-10.43V25.76C118.12,15.4,128.55,15.4,128.55,15.4Zm-4.9,25.77s0,5,4.9,5h3.85s4.9,0,4.9-5V20.86h-8.75s-4.9,0-4.9,4.9Z" fill="#6c6d6f"/><path d="M150.46,15.4H156V41.17c0,5,4.9,5,4.9,5h3.85c4.9,0,4.9-5,4.9-5V15.4h5.53V51.6h-2.24l-5.46-5.47c0,5.47-2.73,5.47-2.73,5.47h-3.85s-10.43,0-10.43-10.43Z" fill="#6c6d6f"/><path d="M183.08,46.13H195s5,0,5-5c0-2.88-3.15-3.79-7.07-4.91-5.25-1.47-12.18-3.36-12.18-11.2,0-9.66,10.5-9.66,10.5-9.66h11.9v5.46H191.2s-5,0-5,4.9c0,2.8,3.22,3.85,7.14,5,5.25,1.54,12.11,3.5,12.11,11.2,0,9.67-10.5,9.67-10.5,9.67h-11.9Z" fill="#6c6d6f"/><path d="M217.45,20.86V41.17s0,5,5,5h2.66V51.6h-2.66S212,51.6,212,41.17V20.86h-3.78V20c2.94-4.2,5.6-8,8.54-12.25h.7v7.7h7.7v5.46Z" fill="#6c6d6f"/><path d="M236.49,46.13h7.7V51.6h-17V46.13H231V15.4h2.17l5.53,5.39s0-5.39,2.66-5.39H248v5.46h-6.58s-4.9,0-4.9,4.9Z" fill="#6c6d6f"/><path d="M261.75,46.13V51.6H248.59V46.13h3.85V15.4H258V46.13ZM258,5.53h-5.53V0H258Z" fill="#6c6d6f"/><path d="M280.17,36.26h-8.76v4.91s0,5,5,5h14.29V51.6H276.38s-10.5,0-10.5-10.43V25.76s0-10.36,10.5-10.36h3.79s10.5,0,10.5,10.36C290.67,25.76,290.67,36.26,280.17,36.26Zm0-5.53s5,0,5-5-5-4.9-5-4.9h-3.79s-5,0-5,4.9v5Z" fill="#6c6d6f"/><path d="M296.47,46.13h11.9s5,0,5-5c0-2.88-3.15-3.79-7.07-4.91-5.25-1.47-12.18-3.36-12.18-11.2,0-9.66,10.5-9.66,10.5-9.66H316.5v5.46H304.59s-5,0-5,4.9c0,2.8,3.22,3.85,7.14,5,5.25,1.54,12.12,3.5,12.12,11.2,0,9.67-10.51,9.67-10.51,9.67h-11.9Z" fill="#6c6d6f"/><path d="M22,34H15a2,2,0,0,0-2,2v4a2,2,0,0,0,2,2h7a2,2,0,0,0,2-2V36A2,2,0,0,0,22,34ZM9,14H2a2,2,0,0,0-2,2v4a2,2,0,0,0,2,2H9a2,2,0,0,0,2-2V16A2,2,0,0,0,9,14ZM9,24H2a2,2,0,0,0-2,2v4a2,2,0,0,0,2,2H9a2,2,0,0,0,2-2V26A2,2,0,0,0,9,24Z" fill="#dae7a4"/><path d="M35,4H28a2,2,0,0,0-2,2v4a2,2,0,0,0,2,2h7a2,2,0,0,0,2-2V6A2,2,0,0,0,35,4Zm0,20H28a2,2,0,0,0-2,2v4a2,2,0,0,0,2,2h7a2,2,0,0,0,2-2V26A2,2,0,0,0,35,24Zm0,20H28a2,2,0,0,0-2,2v4a2,2,0,0,0,2,2h7a2,2,0,0,0,2-2V46A2,2,0,0,0,35,44ZM48,34H41a2,2,0,0,0-2,2v4a2,2,0,0,0,2,2h7a2,2,0,0,0,2-2V36A2,2,0,0,0,48,34Zm0,10H41a2,2,0,0,0-2,2v4a2,2,0,0,0,2,2h7a2,2,0,0,0,2-2V46A2,2,0,0,0,48,44ZM48,4H41a2,2,0,0,0-2,2v4a2,2,0,0,0,2,2h7a2,2,0,0,0,2-2V6A2,2,0,0,0,48,4Z" fill="#a4cc38"/><path d="M28,22h7a2,2,0,0,0,2-2V16a2,2,0,0,0-2-2H28a2,2,0,0,0-2,2v4a2,2,0,0,0,.59,1.41l-3.18,3.18A2,2,0,0,0,22,24H15a2,2,0,0,0-2,2v4a2,2,0,0,0,2,2h7a2,2,0,0,0,1.41-.59l3.18,3.18A2,2,0,0,0,26,36v4a2,2,0,0,0,2,2h7a2,2,0,0,0,2-2V36a2,2,0,0,0-2-2H28a2,2,0,0,0-.82.18l-3.36-3.36A2,2,0,0,0,24,30V26a2,2,0,0,0-.18-.82l3.36-3.36A2,2,0,0,0,28,22ZM22,44H15a2,2,0,0,0-.82.18l-3.36-3.36A2,2,0,0,0,11,40V36a2,2,0,0,0-2-2H2a2,2,0,0,0-2,2v4a2,2,0,0,0,2,2H9a2,2,0,0,0,1.41-.59l3.18,3.18A2,2,0,0,0,13,46v4a2,2,0,0,0,2,2h7a2,2,0,0,0,2-2V46A2,2,0,0,0,22,44Z" fill="#6c6d6f"/></g></g></svg>