<svg xmlns="http://www.w3.org/2000/svg" width="204.1" height="131.9" viewBox="0 0 204.1 131.9"><g id="Layer_2" data-name="Layer 2"><g id="logos"><path d="M150.48,119.94c.22-1.35.29-4.24-.95-10l-.52-1.82s-7.92.52-7.4-3.38c.3-2.31,1.94-4.35,2.38-6.71,1.89-.3,6.37-1.63,6.06-7.59-.39-7.54-6.89-24.57-3.25-28.6s1.3-7.66,1.3-7.66a6.27,6.27,0,0,1,1.83-6.51S142,51.3,144.72,68.07s8,26.28-1.27,26.13a9.37,9.37,0,0,0-1.07-1.69l-7-9.88s-.91-4,.9-6.63a3.85,3.85,0,0,0,1.95,1.3,3.7,3.7,0,0,1-.9-4.55,11.63,11.63,0,0,0,1.81,2.08s-1.29-1.82-.65-5.2-.38-4.81-.38-4.81l1.69-2.73s1.3-2-3.12-6.37a3.8,3.8,0,0,1-1.82.65A6.49,6.49,0,0,0,132,58.19a9.22,9.22,0,0,0-1.43-3.12,1.57,1.57,0,0,1-.26-2,4.21,4.21,0,0,1-1.7,1.05c-.77.12-6.49,1-2.73,6.49a3.9,3.9,0,0,1-3.11,1v1.17a6.21,6.21,0,0,1-3.77.91l1.3,2.73a3.77,3.77,0,0,1,1.95.78s-.78.26-1.82.65-3.12.26-3.64-.78c0,0,.52,1.82,3.9,1.56,0,0,2.21-1.3,1.3.52a1.88,1.88,0,0,1-1.82.52l.91.91-.26.52s3.12.39,4.55-.78c0,0,.65.52,0,.91a6,6,0,0,0-2.47,7.93s0-1.3,2.08-2.08,4.55-2,4.29-4.81a1.91,1.91,0,0,1,.52,2.47c-.78,1.56-3.51,3.51-4.55,4.16a3.75,3.75,0,0,0-1.43,2,16,16,0,0,1-9.62,1l-3.64-1.3s-1.81-1-2.89-.09c-.74-.11-1.5-.21-2.27-.28,6.37,1.4,11.05,6.23,11.05,12s-4.68,10.56-11,12a37.71,37.71,0,0,0,4.19,5.78s-3,5.47-3.21,9.16c0,0,5.17,8.52,8.72,5.6s-1.37-4.46-.11-6.36c0,0-1.84.89-.12,4.07s-3.78,2.16-4.82-.26.13-5.55,3.24-8.72c1.89,1.38,7.13,4.49,10.65-.44,0,0-3.45-5.08-7.23-7.63a16.91,16.91,0,0,0-6.2,3.69s-2.81-1.59-3.48-3.28c-.19-1.15,1.07-1.81,2.19-2.16,8.58-1.7,14.7-6.16,14.7-11.41,0-3.13-2.18-6-5.77-8.14l4.49,1.62s1,1.56.52,2.08c0,0,4.16-2.21,5.33-4.94,0,0-1.17,3-.78,4.42s8.57,9.23,8.57,9.23a10.49,10.49,0,0,0-1,8.19c1.44,4.29,5.86,6,11.7,5.07,0,0,2.79,5.57,3.21,10.35-5.33,3.06-10.63-.68-17.49-3.59a11.43,11.43,0,0,0-7.31-.62l8.6-8h.65l.52-.65c-3.25-6.24-.13-10.27-.13-10.27-9.36,3.12-5.07,9-5.07,9v2.6l-6,7.73a14.74,14.74,0,0,0-4.94,3.06l3.25,6.11h-40l3.25-6.11a14.27,14.27,0,0,0-7.24-3.66l-5.5-7.13V106s4.29-5.85-5.07-9c0,0,3.12,4-.13,10.27L68,108h.65l8.25,7.64a11.74,11.74,0,0,0-5.13.94c-7.58,3.22-13.26,7.44-19.17,2.38a37.33,37.33,0,0,1,3.06-9.14c5.84.91,10.26-.78,11.69-5.07a10.49,10.49,0,0,0-1-8.19s8.19-7.8,8.58-9.23-.78-4.42-.78-4.42c1.17,2.73,5.33,4.94,5.33,4.94-.52-.52.52-2.08.52-2.08l3.94-1.42c-3.39,2.13-5.45,4.9-5.45,7.94,0,5.25,6.13,9.71,14.7,11.41,1.12.35,2.38,1,2.19,2.16-.67,1.69-3.48,3.28-3.48,3.28a16.83,16.83,0,0,0-6.2-3.69c-3.78,2.55-7.22,7.63-7.22,7.63,3.52,4.93,8.76,1.82,10.64.44,3.11,3.17,4.23,6.41,3.24,8.72s-6.54,3.44-4.82.26-.11-4.07-.11-4.07c1.26,1.9-3.68,3.43-.12,6.36s8.72-5.6,8.72-5.6c-.23-3.69-3.21-9.16-3.21-9.16A37.71,37.71,0,0,0,97,104.23c-6.35-1.4-11-6.22-11-12s4.69-10.56,11-12c-.7.07-1.4.15-2.08.25-1.08-.9-2.85.12-2.85.12L88.45,82a16,16,0,0,1-9.62-1,3.75,3.75,0,0,0-1.43-2c-1-.65-3.77-2.6-4.55-4.16a1.91,1.91,0,0,1,.52-2.47c-.26,2.86,2.21,4,4.29,4.81s2.08,2.08,2.08,2.08a6,6,0,0,0-2.47-7.93c-.65-.39,0-.91,0-.91,1.43,1.17,4.55.78,4.55.78l-.26-.52.91-.91a1.88,1.88,0,0,1-1.82-.52c-.91-1.82,1.3-.52,1.3-.52,3.38.26,3.9-1.56,3.9-1.56-.52,1-2.6,1.17-3.64.78s-1.82-.65-1.82-.65a3.77,3.77,0,0,1,2-.78l1.3-2.73a6.21,6.21,0,0,1-3.77-.91V61.7a3.93,3.93,0,0,1-3.12-1c3.77-5.46-2-6.37-2.73-6.49a4.22,4.22,0,0,1-1.69-1.05,1.57,1.57,0,0,1-.26,2,9.22,9.22,0,0,0-1.43,3.12,6.49,6.49,0,0,0-2.86-1.82A3.72,3.72,0,0,1,66,55.72c-4.42,4.42-3.12,6.37-3.12,6.37l1.69,2.73s-1,1.43-.39,4.81-.65,5.2-.65,5.2a11.36,11.36,0,0,0,1.82-2.08,3.72,3.72,0,0,1-.91,4.55A3.79,3.79,0,0,0,66.35,76c1.82,2.6.91,6.63.91,6.63l-7,9.88a9.87,9.87,0,0,0-1.06,1.69c-9.27.15-4-9.45-1.28-26.13s-5.19-20.41-5.19-20.41a6.29,6.29,0,0,1,1.81,6.51s-2.33,3.63,1.3,7.66S53,82.89,52.57,90.43c-.3,6,4.18,7.29,6.07,7.59.44,2.36,2.08,4.4,2.38,6.71.52,3.9-7.41,3.38-7.41,3.38l-.52,1.82c-2,9.1-.64,11-.64,11a13,13,0,0,1,.17-1.84L56,126.31s3.76,3.38,13.64-2.08,12.22.13,12.22.91l-3.77,6.76h48.36l-3.77-6.76c0-.78,2.34-6.37,12.22-.91s13.65,2.08,13.65,2.08l3.51-7.54A10.62,10.62,0,0,1,150.48,119.94Zm-36.76-6.88c3.44-3.3,6.42-4.58,8.26-2,0,0-3.47,5.59-8.29,2.06Zm-33.29-2c1.83-2.55,4.82-1.27,8.26,2l0,0C83.89,116.62,80.43,111,80.43,111Zm-15-57.46a7.1,7.1,0,0,1,2.4-1.7l.09.28.28-.09a16.67,16.67,0,0,1,.32,3.84,2,2,0,0,1,1.62.8A2,2,0,0,1,71,55.1a16.68,16.68,0,0,1-2-3.3l.25-.08-.09-.28a7.12,7.12,0,0,1,3,0l-.4-1.23-.4-1.23a7.15,7.15,0,0,1-2.43,1.7l-.07-.24-.26.08a7.13,7.13,0,0,1,0-3l-1.23.4-1.23.4a7.11,7.11,0,0,1,1.71,2.43l-.28.09.08.24a7.18,7.18,0,0,1-2.94,0l.4,1.23Zm68.07-2.13-.09.28.25.08a16.68,16.68,0,0,1-2,3.3,2,2,0,0,1,.84,1.6,2,2,0,0,1,1.62-.8,16.32,16.32,0,0,1,.33-3.84l.27.09.09-.28a7.1,7.1,0,0,1,2.4,1.7l.4-1.23.4-1.23a7.18,7.18,0,0,1-2.94,0l.07-.24-.27-.09a7.11,7.11,0,0,1,1.71-2.43l-1.23-.4-1.23-.4a7.13,7.13,0,0,1,0,3l-.26-.08-.08.24a7.18,7.18,0,0,1-2.42-1.7l-.4,1.23-.4,1.23A7.12,7.12,0,0,1,133.49,51.44ZM99,48.18h.74a18.44,18.44,0,0,1-2.26,7.26c2.58.68,3.35,6.32,3.35,6.32s.77-5.64,3.35-6.32a18.44,18.44,0,0,1-2.26-7.26h.68v-.76a18.36,18.36,0,0,1,7.34,2.27V43a18.36,18.36,0,0,1-7.34,2.27v-.67h-.69a18.52,18.52,0,0,1,2.27-7.36h-6.7a18.52,18.52,0,0,1,2.27,7.36H99v.67A18.46,18.46,0,0,1,91.7,43v6.71A18.46,18.46,0,0,1,99,47.42ZM101.13,81V92.16h13.49C114.62,86,108.58,81,101.13,81Zm0,22.34h0V92.16H87.63C87.63,98.33,93.67,103.33,101.13,103.33ZM108.38,97h.77v-.77h-.77Zm-3.1.77v.78h.78v-.78Zm0-.77h-.77v.77h.77Zm9.06-4.64h-.54v.77h.5C114.32,92.91,114.34,92.66,114.34,92.4Zm-6.74,5.41h.78V97h-.78Zm-.77.78h.77v-.78h-.77Zm-1.55-3.1h-.77v.78h.77Zm.78.78h-.78V97h.78Zm0,1.54h.77V97h-.77Zm.77-.77h.77v-.77h-.77Zm0-.77v-.78h-.77v.78Zm4.64,2.32H112l.3-.37v-.41h-.78Zm-5.41-3.1v-.77h-.78v.77Zm2.32.78v-.78h-.78v.78Zm2.32,3.09h.52l.25-.25v-.52h-.77Zm-6.19-4.64h-.78v.77h.78Zm7.74,3.09h.31c.16-.23.32-.47.46-.71V97h-.77Zm.77-2.32h.77a0,0,0,0,1,0,0v-.74H113Zm-8.51.78h-.78V97h.78Zm8.51-3.1v.77h.78v-.77Zm-3.87,2.32v-.77h-.77v.77Zm-1.55,0v-.77h-.77v.77Zm4.65.78H113v-.78h-.77Zm-3.1,0h.78v-.78h-.78Zm-3.35,6.19h-.52v.14Zm-4.39-.78v.78h.78v-.78Zm2.32,1.24.78-.14v-.32h-.78Zm-1.54.15c.26,0,.51,0,.77-.06v-.55h-.77Zm-.78-2.93v.77h.78v-.77Zm0-1.55v.77h.78v-.77ZM113.06,97a8,8,0,0,0,.4-.77H113V97Zm1-2.32a7.25,7.25,0,0,0,.17-.78h-.4v.78ZM101.41,97v.77h.78V97Zm7,4.36c.26-.14.52-.28.77-.44v0h-.77Zm-.56.28h-.22v.11Zm-1.76.7.77-.27v-.43h-.77Zm.77-10h-.77v.77h.77Zm-5.42,3.09v.78h.78v-.78Zm7-3.09h-.78v.77h.78Zm1.55,0h-.78v.77h.78Zm.77,3.09v-.77h-.77v.77ZM113,92.4h-.77v.77H113Zm-1.55,0h-.77v.77h.77Zm-10.06,1.54v.78h.78v-.78Zm0-1.54v.77h.78V92.4Zm2.32,0H103v.77h.77Zm.78,7h.77v-.77h-.77Zm.77-7h-.77v.77h.77Zm.78,8.51h.77v-.77h-.77Zm.77-6.19v-.78h-.77v.78ZM103,93.17h-.77v.77H103Zm1.55.77v-.77h-.78v.77Zm.77.78v-.78h-.77v.78Zm3.1,0v-.78h-.78v.78Zm-2.32-.78v-.77h-.78v.77Zm-3.1.78h-.77v.77H103Zm6.19,4.64h.78v-.77h-.78ZM103,96.27h-.77V97H103Zm.77-2.33H103v.78h.77Zm7.74,3.1h.78v-.77h-.78Zm-1.54-2.32v-.78h-.78v.78ZM103.73,97H103v.77h.77Zm8.52-3.1v-.77h-.78v.77Zm-8.52,6.2H103v.77h.77Zm8.52-5.42H113v-.78h-.77Zm-.78.77h.78v-.77h-.78Zm-7.74,6.19h.78v-.77h-.78Zm7-7.74v-.77h-.77v.77Zm-7,1.55H103v.78h.77Zm5.42-1.55v-.77h-.77v.77Zm-4.64,6.2v.77h.77v-.77Zm-.78-1.55H103v.77h.77Zm7-.78h.77V97h-.77Zm-3.1-3.87v-.77h-.77v.77Zm-.77,7.74h.77v-.77h-.77Zm-1.55-.77v.77h.78v-.77Zm.78-2.32v.77h.77v-.77Zm2.32,0h.77v-.78h-.77Zm-3.87,3.87h.77v-.78h-.77Zm3.09-3.1h.78v-.77h-.78Zm-3.09-1.55h-.78v.78h.78Zm4.64,3.1h.08c.24-.15.47-.31.7-.47v-.3h-.78Zm-1.55-.77v.77h.78v-.77Zm-3.87-.78v.78h.78v-.78Zm1.55.78h.78v-.78h-.78Zm1.55-.78v.78h.77v-.78Zm1.55.78h.77v-.78h-.77Zm2.32-3.87h.77v-.78h-.77Zm-.77,2.32h.77v-.78h-.77Zm-7-.78h-.77v.78H103Zm8.51-3.09v-.78h-.77v.78Zm-2.32,3.09h.78V97h-.78ZM103,99.36h-.77v.78H103Zm0,2.32v.78h.77v-.78Zm0-.77h-.77v.77H103Zm7-.77h.4l.37-.31v-.47h-.77Zm0-3.1h.77v-.77h-.77Zm-16.5-9c-.17,0-.52-.21-.81,0a.46.46,0,0,0-.67.11c.2-.12.34-.11.38,0a.23.23,0,0,0,0,.17c-.09,0-.31,0-.27.25,0-.06.21-.05.23,0s0,.09,0,.1-.17,0-.21.13c.11,0,.2,0,.24.06a1.24,1.24,0,0,0,0,.16c-.07,0-.11,0-.16,0a.23.23,0,0,0,.14.21c0,.07-.06.22.06.27s0-.13.1-.12.15.2.24.33-.06,0-.08,0a.35.35,0,0,0-.15-.07.21.21,0,0,0-.19.09.83.83,0,0,0,.31.36c.12.07.1.14.1.17s.1,0,.15,0,.21-.07.26,0,0-.07.05-.09.06,0,.07,0,0,.2.14.23,0,0,0,0l0,0c.1,0,.15-.12.16-.16a.06.06,0,0,1,.11,0,.89.89,0,0,0,0,.14.18.18,0,0,0,.19.08.15.15,0,0,0,.15-.2.21.21,0,0,1,.12.16.19.19,0,0,0,0-.28.21.21,0,0,0,.17-.09.16.16,0,0,1,.11.05.12.12,0,0,0-.08-.17.35.35,0,0,0-.22-.32c-.2-.08-.32.12-.37.19a.43.43,0,0,0-.34-.08,1.29,1.29,0,0,1-.2-.3.59.59,0,0,0,.27-.42,2.15,2.15,0,0,0,.73.35c.07,0,0,.06,0,.09s.21-.09.31-.1.15.23.13.36a.38.38,0,0,0,.1-.57c.07-.09.17,0,.19,0,0-.15-.08-.26-.11-.3a1.65,1.65,0,0,0-.09-.91.44.44,0,0,1,.54.23c.19.43,0,.51-.15.65s0,.14,0,.25a.08.08,0,0,1,.08,0s0,0,.07.09l.22.17a.24.24,0,0,1,.13.1.19.19,0,0,1,0,.16c.1,0,.21-.07.22-.1a.21.21,0,0,1,0,.26.28.28,0,0,0,.25-.12c0-.05.06-.08.14-.06a2.11,2.11,0,0,1,.52.17.3.3,0,0,0,0,.26.2.2,0,0,0,.22.07.18.18,0,0,0,.1,0,.34.34,0,0,1,0-.1.66.66,0,0,0,.06-.26c.1,0,.12-.09.23-.09s.2.2.35.15a.22.22,0,0,1,.06.15.29.29,0,0,0-.08-.49.15.15,0,0,1,0-.13c.1,0,.21.06.26,0a.39.39,0,0,1,.16.07.17.17,0,0,0-.1-.2.39.39,0,0,0-.3-.29.4.4,0,0,1,0-.15.35.35,0,0,1,.32,0,.41.41,0,0,0-.46-.18c-.11-.06-.39.1-.22.4-.09,0-.07.06-.07.15a.23.23,0,0,1-.08.18.12.12,0,0,1-.16,0c-.17-.12-.3-.33-.47-.45a1.21,1.21,0,0,1-.2-.14.11.11,0,0,1,0-.08,1.05,1.05,0,0,0,.37-.4s0,0,.06,0a.28.28,0,0,1,.29.29c.15-.15,0-.34,0-.42a.4.4,0,0,0,.15-.18c.19-.07.32.1.32.32.21-.14.06-.58-.17-.6a.36.36,0,0,1,.22-.19c.14,0,.27,0,.27.24a.27.27,0,0,0,.14-.2.41.41,0,0,1,.09.43c.29-.14.25-.63,0-.81a.89.89,0,0,0-1,.21c-.1-.14-.25-.24-.41-.15a.31.31,0,0,1,.21.27c0,.09-.09.09-.17.08a.55.55,0,0,1-.23-.11,1.63,1.63,0,0,0-1-.07,1.52,1.52,0,0,0-.85,0,.79.79,0,0,1,.49-.24.54.54,0,0,0-.31,0,.57.57,0,0,1,.48-.07,2.85,2.85,0,0,1,.41-.18.36.36,0,0,1,0-.11l.09,0a.27.27,0,0,0,.18-.27.28.28,0,0,1,0,.28.3.3,0,0,0,.19-.17.3.3,0,0,1-.12.25c.38,0,.48-.41.53-.61a.27.27,0,0,1,.07.24c.11,0,.16-.13.19-.18s.15,0,.21,0,.11,0,.16,0,0,.2.17.24a.36.36,0,0,1,.07.1s0-.07,0-.11.16-.18.11-.27,0,0,0-.06a.2.2,0,0,0,.23.09.23.23,0,0,1,0,.13.17.17,0,0,0,.07-.19c.16-.17,0-.31-.09-.4.07,0,.2-.1.22-.13a.29.29,0,0,1,.1,0,.14.14,0,0,0-.06-.12c0-.28-.25-.28-.46-.22,0,0,.08-.15,0-.2s0-.09.12-.11a.14.14,0,0,0-.23.05c-.2-.05-.3.07-.31.32a1.11,1.11,0,0,0-.34.08.84.84,0,0,0-.23-.23c.09,0,.25-.06.28-.2-.06,0-.23.12-.28,0s.28-.1.29-.22a.39.39,0,0,1-.24.07,1.65,1.65,0,0,1,.2-.71.41.41,0,0,1,.32.12.49.49,0,0,0-.24-.43c.13,0,.22.09.33.07a.24.24,0,0,0,.22-.09.18.18,0,0,1-.16-.06.52.52,0,0,0-.06-.13s.08,0,.14,0,.07-.08.11-.08.14.08.18.14a.19.19,0,0,0,0-.25.37.37,0,0,0-.17-.4c.06-.1.13-.06.21,0a.19.19,0,0,0-.12-.15.29.29,0,0,0-.34-.17.84.84,0,0,0-.31.14.17.17,0,0,1,0-.19c-.13,0-.17,0-.26.09s-.06.4,0,.47a2.7,2.7,0,0,1-.4.67c-.06,0-.39.28-.4.48a1.29,1.29,0,0,0-.88,0c-.07,0-.08,0-.1-.09a.26.26,0,0,0,.19,0c.08-.06.1-.19,0-.21-.14.14-.3.1-.35,0,.36-.08.42.08.67.17a.45.45,0,0,0,.3,0,.48.48,0,0,0,.37-.45.38.38,0,0,0-.4-.38.33.33,0,0,1,.26.21.33.33,0,0,1,0,.33c.11-.26-.28-.43-.28-.43.39.25.16.48.1.54h-.1c-.22,0-.31-.14-.52-.15a.52.52,0,0,0-.38.1.16.16,0,0,1,0-.2.35.35,0,0,1,.4.09.25.25,0,0,0,0-.27.19.19,0,0,0-.07-.23.48.48,0,0,0-.09-.14c-.09,0-.16,0-.24,0-.28-.36-.6-.34-1-.24a.12.12,0,0,1-.1,0s0,.07,0,.08a.57.57,0,0,1-.36,0,.51.51,0,0,0,.06.21s0,.07,0,.11,0,.25-.05.37,0,.09-.11.09a.17.17,0,0,0,.1.12,3.22,3.22,0,0,0,.08.58c0,.05-.16.05-.28,0a.53.53,0,0,0,.39.33,4.09,4.09,0,0,0,.2.42.32.32,0,0,1-.22,0,.35.35,0,0,0,.32.21.69.69,0,0,1,.14.34c0,.06-.21,0-.27,0,0,.14.27.22.32.22s0,.31-.29.19c0,.14.14.17.17.19a3.91,3.91,0,0,1-.4.45,1.07,1.07,0,0,0-.21.6h-.06c.15,0,.13.17.12.3a.1.1,0,0,1,0,.06C93.53,88,93.53,88.05,93.43,88.07ZM105.3,70.54s-2.29-3.82-4.49-5.44c-2.19,1.62-4.49,5.44-4.49,5.44-1.52-3-5.63-4.77-5.63-4.77a20.59,20.59,0,0,1,3.82,11.07h12.6a20.69,20.69,0,0,1,3.82-11.07S106.83,67.58,105.3,70.54ZM88.88,60.9c0,1.34,2.45,4,3.72,4.87s3.33,2.29,3.62,3c0,0,2.74-3.25,3.92-4.39,0,0,1.47-4.3-3.92-9.07,0,0-4.5-.1-5.29-2.2a4.39,4.39,0,0,0,1.47,3.06S88.88,59.56,88.88,60.9Zm12.69,3.44c1.17,1.14,3.92,4.39,3.92,4.39.29-.67,2.35-2.1,3.62-3s3.72-3.53,3.72-4.87-3.52-4.77-3.52-4.77a4.39,4.39,0,0,0,1.47-3.06c-.79,2.1-5.29,2.2-5.29,2.2C100.1,60,101.57,64.34,101.57,64.34Zm3.55-9.55a.67.67,0,1,0-.67-.67A.67.67,0,0,0,105.12,54.79Zm1.71-.91a.33.33,0,1,0-.33.33A.34.34,0,0,0,106.83,53.88Zm1-.19a.24.24,0,1,0-.23.24A.23.23,0,0,0,107.78,53.69Zm-12.12.43a.67.67,0,1,0,.67-.67A.67.67,0,0,0,95.66,54.12Zm-1-.24a.34.34,0,0,0,.67,0,.34.34,0,1,0-.67,0Zm-1-.19a.24.24,0,1,0,.24-.24A.24.24,0,0,0,93.66,53.69Z" fill="#476d64"/><path d="M11.83,107.88l.33,0,.45,5.08-.32,0,0-.42a1.28,1.28,0,0,0-.52-1,2.78,2.78,0,0,0-1.37-.09l-7.67.69a4.33,4.33,0,0,0-1.18.22.86.86,0,0,0-.34.4,1.68,1.68,0,0,0-.14.82l0,.42-.33,0-.45-5.08.32,0,0,.42a1.25,1.25,0,0,0,.52,1,2.52,2.52,0,0,0,1.37.1l7.67-.69a3.66,3.66,0,0,0,1.18-.22.73.73,0,0,0,.34-.4,1.55,1.55,0,0,0,.14-.82Z" fill="#777"/><path d="M0,107.78l.05-3.23,9.06-7.14L2.24,97.3a2.42,2.42,0,0,0-1.38.22,1.28,1.28,0,0,0-.38,1V99H.14L.21,94.8H.54v.42A1.22,1.22,0,0,0,1,96.31a2.67,2.67,0,0,0,1.28.21l10,.17V97l-9.73,7.7,7.34.12a2.56,2.56,0,0,0,1.38-.21,1.33,1.33,0,0,0,.38-1v-.43H12l-.06,4.15H11.6v-.41a1.23,1.23,0,0,0-.44-1.09,2.7,2.7,0,0,0-1.28-.21l-8.29-.14a5.12,5.12,0,0,0-.81.78,2.58,2.58,0,0,0-.37.78,2.44,2.44,0,0,0-.09.77Z" fill="#777"/><path d="M1.77,83.11l2.79.26,0,.33a3.55,3.55,0,0,0-1.08.12,1.71,1.71,0,0,0-.84.61,2.47,2.47,0,0,0-.41,1.15L2,87.24l9,1.26a2.48,2.48,0,0,0,1.39,0,1.37,1.37,0,0,0,.51-1l.05-.41.32,0-.7,5-.32,0,.06-.41a1.22,1.22,0,0,0-.3-1.13,2.73,2.73,0,0,0-1.25-.37l-9-1.26-.19,1.42a4.27,4.27,0,0,0-.05,1.19,1.62,1.62,0,0,0,.53.86A2.62,2.62,0,0,0,3.22,93l-.05.33L.42,92.75Z" fill="#777"/><path d="M3.65,78l4.55,1.2.67-2.53a2.14,2.14,0,0,0,.05-1.39,2,2,0,0,0-1.25-.86l.09-.32,4,1.06-.09.32a4.39,4.39,0,0,0-1.14-.05,1.16,1.16,0,0,0-.6.38,2.73,2.73,0,0,0-.45,1L8.82,79.4l3.8,1a4.33,4.33,0,0,0,1,.18.66.66,0,0,0,.33-.17,1.75,1.75,0,0,0,.27-.62l.51-2a5.65,5.65,0,0,0,.24-1.45,2.19,2.19,0,0,0-.31-1,6.63,6.63,0,0,0-1.31-1.5l.09-.34L16,75.3l-2.34,8.88-.32-.08.11-.41a1.63,1.63,0,0,0,0-.82.73.73,0,0,0-.31-.48A4.33,4.33,0,0,0,12.08,82L4.59,80a2.54,2.54,0,0,0-1.41-.14,1.37,1.37,0,0,0-.6.93l-.11.41-.32-.08,2.34-8.88,2.56.53L7,73.14a4,4,0,0,0-1.35.06,1.52,1.52,0,0,0-.69.51,4,4,0,0,0-.44,1.16Z" fill="#777"/><path d="M20.78,63l-1.19,2.95-6.67,1.67c-.11.28-.19.51-.26.68s-.06.15-.1.23-.07.16-.11.25L15.66,70a2.38,2.38,0,0,0,1.39.29,1.24,1.24,0,0,0,.73-.78L18,69.1l.3.13L16.36,74l-.31-.12.17-.41a1.21,1.21,0,0,0,0-1.19A2.83,2.83,0,0,0,15,71.59L7.89,68.72a2.5,2.5,0,0,0-1.39-.3,1.3,1.3,0,0,0-.73.8l-.17.42-.3-.12,1.62-4A10.16,10.16,0,0,1,8.22,63a3.15,3.15,0,0,1,1.51-1,2.61,2.61,0,0,1,1.88.08,2.76,2.76,0,0,1,1.5,1.37,4,4,0,0,1,.24,2.49l4.09-1a6.43,6.43,0,0,0,2-.76,3.69,3.69,0,0,0,1.05-1.29Zm-8.84,5.57.11-.27.08-.18a3.9,3.9,0,0,0,.27-2.66A2.37,2.37,0,0,0,11,63.91,2.39,2.39,0,0,0,7.7,65.34a7.28,7.28,0,0,0-.36,1.34Z" fill="#777"/><path d="M10.05,57.74l1.6-2.81L23,53l-6-3.4a2.34,2.34,0,0,0-1.31-.47,1.33,1.33,0,0,0-.83.71l-.21.36-.28-.16,2-3.6.28.16-.2.36a1.22,1.22,0,0,0-.14,1.16,2.63,2.63,0,0,0,1,.8l8.73,5-.15.28L13.78,56.27l6.38,3.63a2.41,2.41,0,0,0,1.31.47,1.33,1.33,0,0,0,.83-.71l.21-.37.28.16-2.05,3.61-.29-.16.21-.36a1.22,1.22,0,0,0,.14-1.16,2.62,2.62,0,0,0-1-.81l-7.21-4.1a5.45,5.45,0,0,0-1.08.29,2.64,2.64,0,0,0-.7.51,3,3,0,0,0-.46.63Z" fill="#777"/><path d="M28.6,43.51l-2.82,3.66,1,1.79a2.76,2.76,0,0,0,.64.87.57.57,0,0,0,.53.08,2.17,2.17,0,0,0,.9-.72l.26.2-2.29,3-.26-.2a2.1,2.1,0,0,0,.32-1,5.44,5.44,0,0,0-.75-1.84l-5.21-9.3.18-.25,10.39,2.77a4.58,4.58,0,0,0,1.78.23,1.87,1.87,0,0,0,1-.66l.25.2-2.87,3.72-.26-.2a1.65,1.65,0,0,0,.4-.9.6.6,0,0,0-.23-.5A3.54,3.54,0,0,0,30.39,44Zm-.67-.2L22.88,42l2.55,4.59Z" fill="#777"/><path d="M31.81,28.19,33.92,30l-.23.24a3.11,3.11,0,0,0-.95-.54,1.75,1.75,0,0,0-1,0,2.58,2.58,0,0,0-1,.69l-1.16,1.22,6.57,6.29c.53.51.92.77,1.16.78a1.31,1.31,0,0,0,1-.49l.28-.29.24.22-3.5,3.65L35,41.58l.29-.31a1.21,1.21,0,0,0,.41-1.09,2.8,2.8,0,0,0-.79-1l-6.58-6.29-1,1a3.84,3.84,0,0,0-.73.94,1.62,1.62,0,0,0-.08,1A2.65,2.65,0,0,0,27.23,37l-.23.24-1.92-2Z" fill="#777"/><path d="M44.69,32.38l.21.24L41.05,36l-.22-.25.32-.28a1.27,1.27,0,0,0,.53-1A2.73,2.73,0,0,0,41,33.26l-5.06-5.8a3.73,3.73,0,0,0-.87-.83.8.8,0,0,0-.52-.05,1.76,1.76,0,0,0-.75.37l-.31.28L33.22,27l3.86-3.35.21.25-.33.28a1.28,1.28,0,0,0-.52,1,2.69,2.69,0,0,0,.73,1.17l5,5.81a4,4,0,0,0,.87.82.77.77,0,0,0,.53.05,1.57,1.57,0,0,0,.74-.37Z" fill="#777"/><path d="M43.24,18.62a5.39,5.39,0,0,1,4.3-.87,6,6,0,0,1,3.92,2.61A6.22,6.22,0,0,1,52.66,25a5.71,5.71,0,0,1-6.74,4.81,6.31,6.31,0,0,1-4-2.73,6.05,6.05,0,0,1-1.09-4.9A5.72,5.72,0,0,1,43.24,18.62Zm.23.62a3.15,3.15,0,0,0-1.41,2.45,6.67,6.67,0,0,0,1.51,4.23,7.06,7.06,0,0,0,3.61,2.95,3.09,3.09,0,0,0,2.75-.48,3.45,3.45,0,0,0,1.51-2.67,6.38,6.38,0,0,0-1.48-4,7.26,7.26,0,0,0-3.62-3A3.26,3.26,0,0,0,43.47,19.24Z" fill="#777"/><path d="M49.49,14.61l2.87-1.48,10.57,4.62-3.14-6.11c-.34-.65-.62-1-.85-1.11a1.31,1.31,0,0,0-1.08.14l-.37.19-.15-.29L61,8.68l.15.29-.37.19a1.22,1.22,0,0,0-.75.9,2.67,2.67,0,0,0,.42,1.23l4.59,8.93-.28.14L53.41,15.42,56.77,22c.33.65.61,1,.83,1.11a1.33,1.33,0,0,0,1.09-.14l.37-.2.15.29-3.69,1.9-.15-.29.37-.19a1.22,1.22,0,0,0,.75-.9,2.74,2.74,0,0,0-.41-1.23l-3.79-7.37a5.23,5.23,0,0,0-1.07-.35,2.94,2.94,0,0,0-.86,0,2.52,2.52,0,0,0-.72.28Z" fill="#777"/><path d="M72.83,12.84l-4.35,1.51-.15,2a2.81,2.81,0,0,0,.06,1.08.62.62,0,0,0,.4.37,2.3,2.3,0,0,0,1.14-.12L70,18,66.5,19.26,66.39,19a2,2,0,0,0,.8-.64,5.32,5.32,0,0,0,.38-1.94l.74-10.64.29-.1,7.17,8a4.65,4.65,0,0,0,1.37,1.17,1.91,1.91,0,0,0,1.21,0l.1.31L74,16.65l-.11-.31a1.63,1.63,0,0,0,.83-.54.59.59,0,0,0,.08-.54,3.54,3.54,0,0,0-.73-1Zm-.44-.54L68.9,8.42l-.38,5.23Z" fill="#777"/><path d="M87.73,9.89H88l-.35,3.37-9,1.88-.07-.32.44-.09a1.24,1.24,0,0,0,1-.7,3,3,0,0,0-.08-1.32L78.34,5.18a2.43,2.43,0,0,0-.53-1.31,1.28,1.28,0,0,0-1.08-.18l-.43.09-.07-.31,5.28-1.1.07.32a3.35,3.35,0,0,0-1.27.44,1.14,1.14,0,0,0-.42.56A4.12,4.12,0,0,0,80,5l1.52,7.33a2.34,2.34,0,0,0,.34,1,.63.63,0,0,0,.37.21,6.09,6.09,0,0,0,1.36-.2l.85-.17a6.41,6.41,0,0,0,1.85-.59,2.56,2.56,0,0,0,.84-.91A5.81,5.81,0,0,0,87.73,9.89Z" fill="#777"/><path d="M100.06,0l.2,4.12h-.32a5.43,5.43,0,0,0-.66-1.86,3,3,0,0,0-1.22-1A3.32,3.32,0,0,0,96.48.88,2.2,2.2,0,0,0,95,1.52a1.7,1.7,0,0,0-.53,1.3,1.51,1.51,0,0,0,.43,1,9.63,9.63,0,0,0,2.68,1.62,20,20,0,0,1,2.34,1.26,3.31,3.31,0,0,1,1,1.08,3.06,3.06,0,0,1-.54,3.73,3.81,3.81,0,0,1-2.65,1.12,7.62,7.62,0,0,1-1,0,9.2,9.2,0,0,1-1.15-.27,5.15,5.15,0,0,0-1.1-.22.49.49,0,0,0-.34.15,1.08,1.08,0,0,0-.16.55l-.32,0-.21-4.08.33,0a5.62,5.62,0,0,0,.71,1.89,3,3,0,0,0,1.23,1,3.76,3.76,0,0,0,1.77.33,2.47,2.47,0,0,0,1.7-.67,1.82,1.82,0,0,0,.57-1.4A1.87,1.87,0,0,0,99.49,9a2.6,2.6,0,0,0-.79-.8c-.24-.16-.88-.5-1.93-1A18.57,18.57,0,0,1,94.53,5.9a3.59,3.59,0,0,1-1-1.07,2.69,2.69,0,0,1-.4-1.34A2.88,2.88,0,0,1,94,1.24,3.45,3.45,0,0,1,96.42.18a5,5,0,0,1,2,.37,1.93,1.93,0,0,0,.7.18.59.59,0,0,0,.37-.15,1.11,1.11,0,0,0,.2-.56Z" fill="#777"/><path d="M113.72.58V4.64l-.27,0a5,5,0,0,0-1.38-2.71,3.73,3.73,0,0,0-2.36-1,3.79,3.79,0,0,0-3.82,2.27,8.54,8.54,0,0,0-.76,3.24,7,7,0,0,0,.33,2.83,3.87,3.87,0,0,0,1.44,1.92,4.45,4.45,0,0,0,2.33.79,4.12,4.12,0,0,0,2.07-.36,6.81,6.81,0,0,0,2.08-1.84l.26.19a6.28,6.28,0,0,1-2.24,2.19,5.31,5.31,0,0,1-2.88.55,5.43,5.43,0,0,1-4.44-2.5,6.29,6.29,0,0,1-1-3.92,6.83,6.83,0,0,1,1-3.22A5.77,5.77,0,0,1,106.5.92a5.9,5.9,0,0,1,3.11-.61,5.61,5.61,0,0,1,2.5.8,1.62,1.62,0,0,0,.51.23A.58.58,0,0,0,113,1.2a1.3,1.3,0,0,0,.37-.64Z" fill="#777"/><path d="M118.59,7.21,124,8.31,124.69,5a3.91,3.91,0,0,0,.13-1.2.74.74,0,0,0-.29-.44,1.62,1.62,0,0,0-.74-.37l-.41-.08.06-.32,5,1-.07.32L128,3.81a1.52,1.52,0,0,0-.82,0,.67.67,0,0,0-.46.34,3.7,3.7,0,0,0-.33,1.12l-1.54,7.53a3.8,3.8,0,0,0-.12,1.2.78.78,0,0,0,.27.44,1.76,1.76,0,0,0,.75.37l.42.08-.07.32-5-1,.06-.32.42.08a1.23,1.23,0,0,0,1.12-.21,2.53,2.53,0,0,0,.49-1.28L123.88,9l-5.42-1.1-.73,3.56a3.72,3.72,0,0,0-.12,1.19.75.75,0,0,0,.28.44,1.67,1.67,0,0,0,.74.37l.43.09-.07.31-5-1,.06-.32.42.08a1.24,1.24,0,0,0,1.13-.21,2.55,2.55,0,0,0,.48-1.28l1.53-7.54a3.91,3.91,0,0,0,.13-1.2.77.77,0,0,0-.28-.44,1.66,1.66,0,0,0-.75-.37l-.41-.08.06-.32,5,1-.07.32-.42-.08a1.52,1.52,0,0,0-.82,0,.76.76,0,0,0-.46.34,3.7,3.7,0,0,0-.33,1.12Z" fill="#777"/><path d="M136.32,5.93a5.4,5.4,0,0,1,3.19,3,6.09,6.09,0,0,1,.14,4.71,6.29,6.29,0,0,1-3.13,3.68,5.73,5.73,0,0,1-7.82-2.73,6.29,6.29,0,0,1-.06-4.83A6.06,6.06,0,0,1,132,6.05,5.74,5.74,0,0,1,136.32,5.93Zm-.38.55a3.12,3.12,0,0,0-2.81.26,6.65,6.65,0,0,0-2.58,3.67,7,7,0,0,0-.33,4.65,3.1,3.1,0,0,0,2,2,3.46,3.46,0,0,0,3.05-.31,6.38,6.38,0,0,0,2.42-3.53,7.23,7.23,0,0,0,.39-4.7A3.27,3.27,0,0,0,135.94,6.48Z" fill="#777"/><path d="M149.42,11.67a5.39,5.39,0,0,1,2.74,3.42,6.11,6.11,0,0,1-.53,4.69A6.27,6.27,0,0,1,148,23a5.74,5.74,0,0,1-7.36-3.8,6.31,6.31,0,0,1,.61-4.79,6,6,0,0,1,3.86-3.21A5.7,5.7,0,0,1,149.42,11.67Zm-.45.49a3.13,3.13,0,0,0-2.82-.14,6.71,6.71,0,0,0-3.08,3.27,7.11,7.11,0,0,0-1,4.56,3.06,3.06,0,0,0,1.69,2.23,3.46,3.46,0,0,0,3.06.13,6.42,6.42,0,0,0,2.88-3.15,7.17,7.17,0,0,0,1.05-4.6A3.23,3.23,0,0,0,149,12.16Z" fill="#777"/><path d="M159.44,28.52l.2.22L157,30.8l-7.56-5.29.18-.27.37.26a1.21,1.21,0,0,0,1.17.22,3,3,0,0,0,.9-1l4.41-6.3a2.41,2.41,0,0,0,.6-1.29,1.29,1.29,0,0,0-.61-.9L156,16l.19-.26,4.42,3.09-.19.27a3.37,3.37,0,0,0-1.19-.62,1.13,1.13,0,0,0-.7.08,3.82,3.82,0,0,0-.88,1l-4.3,6.14a2.35,2.35,0,0,0-.46.9A.62.62,0,0,0,153,27a5.79,5.79,0,0,0,1.07.86l.71.49a6.15,6.15,0,0,0,1.7.94,2.6,2.6,0,0,0,1.24,0A6.21,6.21,0,0,0,159.44,28.52Z" fill="#777"/><path d="M176.23,32.19l-1.85,2.1-.24-.23a3.42,3.42,0,0,0,.55-.94,1.75,1.75,0,0,0,0-1,2.38,2.38,0,0,0-.69-1l-1.21-1.17-6.31,6.56c-.51.53-.77.91-.78,1.16a1.29,1.29,0,0,0,.49,1l.29.29-.22.24-3.64-3.51.22-.23.31.29a1.17,1.17,0,0,0,1.08.41,2.55,2.55,0,0,0,1-.79l6.32-6.56-1-1a4.49,4.49,0,0,0-.94-.74,1.71,1.71,0,0,0-1-.08,2.6,2.6,0,0,0-1.17.66l-.24-.23,2-1.92Z" fill="#777"/><path d="M181.58,38.08a5.43,5.43,0,0,1,1.16,4.24,6.09,6.09,0,0,1-2.36,4.08,6.27,6.27,0,0,1-4.58,1.51,5.73,5.73,0,0,1-5.24-6.42A6.26,6.26,0,0,1,173,37.34a6,6,0,0,1,4.82-1.4A5.68,5.68,0,0,1,181.58,38.08Zm-.61.27a3.18,3.18,0,0,0-2.53-1.25,6.7,6.7,0,0,0-4.12,1.79,7,7,0,0,0-2.71,3.79,3.07,3.07,0,0,0,.66,2.72A3.45,3.45,0,0,0,175,46.73a6.37,6.37,0,0,0,3.9-1.74,7.15,7.15,0,0,0,2.79-3.81A3.22,3.22,0,0,0,181,38.35Z" fill="#777"/><path d="M182.21,60.85l-1.65-2.72,2.67-6.34c-.17-.25-.3-.46-.4-.62a2,2,0,0,1-.12-.21,1.36,1.36,0,0,1-.13-.24l-3,1.8c-.64.39-1,.7-1.07.94a1.26,1.26,0,0,0,.19,1l.24.4-.28.17-2.65-4.37.28-.17.23.39a1.23,1.23,0,0,0,1,.67,2.73,2.73,0,0,0,1.2-.52l6.58-4c.64-.39,1-.7,1.06-.94a1.27,1.27,0,0,0-.19-1.07L186,44.7l.28-.17,2.25,3.71a10.08,10.08,0,0,1,1.22,2.54,3.18,3.18,0,0,1-.08,1.83,2.62,2.62,0,0,1-1.19,1.46,2.76,2.76,0,0,1-2,.38,4.07,4.07,0,0,1-2.13-1.31L182.67,57a6.12,6.12,0,0,0-.59,2,3.76,3.76,0,0,0,.4,1.61Zm.84-10.42c.06.1.11.18.15.26a1.94,1.94,0,0,0,.1.17,3.83,3.83,0,0,0,2,1.81,2.38,2.38,0,0,0,2.06-.23,2.4,2.4,0,0,0,.83-3.48,8.75,8.75,0,0,0-.86-1.1Z" fill="#777"/><path d="M192.81,55.37l1.29,3-5.29,10.25,6.3-2.75c.67-.29,1.06-.55,1.16-.77A1.29,1.29,0,0,0,196.2,64L196,63.6l.3-.13L198,67.28l-.3.13-.17-.39a1.21,1.21,0,0,0-.84-.8,2.64,2.64,0,0,0-1.26.33l-9.21,4-.12-.29,5.66-11L185,62.17a2.46,2.46,0,0,0-1.16.76,1.29,1.29,0,0,0,.07,1.09l.17.39-.3.13-1.66-3.8.3-.13.17.38a1.24,1.24,0,0,0,.85.81,2.69,2.69,0,0,0,1.25-.34l7.6-3.31a5.79,5.79,0,0,0,.42-1,3.05,3.05,0,0,0,0-.87,2.78,2.78,0,0,0-.23-.74Z" fill="#777"/><path d="M202.68,83.87,198.79,85l-.06-.26a5.14,5.14,0,0,0,2.21-2.11,3.84,3.84,0,0,0,.23-2.54,4.06,4.06,0,0,0-1.07-2,4,4,0,0,0-2.21-1,8.43,8.43,0,0,0-3.32.2A6.8,6.8,0,0,0,192,78.48a3.78,3.78,0,0,0-1.42,1.92,4.45,4.45,0,0,0-.09,2.46,4.13,4.13,0,0,0,1,1.89,6.57,6.57,0,0,0,2.36,1.45l-.11.31A6.27,6.27,0,0,1,190.91,85a5.87,5.87,0,0,1-.25-7.57,6.29,6.29,0,0,1,3.48-2.05,7,7,0,0,1,3.37,0,5.79,5.79,0,0,1,2.75,1.63,5.91,5.91,0,0,1,1.49,2.8,5.54,5.54,0,0,1,0,2.62,1.48,1.48,0,0,0-.07.56.58.58,0,0,0,.26.37,1.36,1.36,0,0,0,.71.17Z" fill="#777"/><path d="M191.91,93l-.32,0L190.93,88l.32,0,.06.42a1.24,1.24,0,0,0,.56,1,2.63,2.63,0,0,0,1.37,0l7.64-1a4,4,0,0,0,1.17-.27.82.82,0,0,0,.33-.41,1.69,1.69,0,0,0,.1-.83l0-.42.32,0,.66,5.06-.32,0-.06-.43a1.26,1.26,0,0,0-.56-1,2.63,2.63,0,0,0-1.37,0l-7.64,1a4,4,0,0,0-1.17.27.8.8,0,0,0-.33.42,1.64,1.64,0,0,0-.1.82Z" fill="#777"/><path d="M204.05,103.12l-2.79.24V103a3.15,3.15,0,0,0,1-.31A1.7,1.7,0,0,0,203,102a2.53,2.53,0,0,0,.19-1.2l-.06-1.68-9.1.36a2.4,2.4,0,0,0-1.36.29,1.3,1.3,0,0,0-.33,1l0,.41-.33,0-.2-5,.33,0,0,.42a1.22,1.22,0,0,0,.49,1.06,2.68,2.68,0,0,0,1.29.14l9.1-.35L203,96a4.29,4.29,0,0,0-.17-1.18,1.68,1.68,0,0,0-.67-.76,2.57,2.57,0,0,0-1.3-.34v-.33l2.79,0Z" fill="#777"/><path d="M203.35,113.39l-.36,4.14-.33,0,0-.22a1.68,1.68,0,0,0-.14-.69,2.63,2.63,0,0,0-.51-.84,7.5,7.5,0,0,0-1.14-1l-4.26-3.26-3-.26a2.27,2.27,0,0,0-1.38.12,1.33,1.33,0,0,0-.46,1l0,.38-.32,0,.45-5,.32,0,0,.42a1.24,1.24,0,0,0,.36,1.11,2.76,2.76,0,0,0,1.26.31l2.81.24,5.27-2.81a9.68,9.68,0,0,0,1.16-.69,2.92,2.92,0,0,0,.6-.8,1.21,1.21,0,0,0,.13-.5l.33,0-.45,5.08-.33,0,0-.26a1.55,1.55,0,0,0-.13-.77.61.61,0,0,0-.55-.4,2.69,2.69,0,0,0-1.18.43l-4.05,2.14,3.46,2.65a2.8,2.8,0,0,0,1.17.64.83.83,0,0,0,.45-.09.85.85,0,0,0,.34-.34,1.92,1.92,0,0,0,.17-.7Z" fill="#777"/></g></g></svg>