<svg xmlns="http://www.w3.org/2000/svg" width="233.8" height="99.18" viewBox="0 0 233.8 99.18"><g id="Layer_2" data-name="Layer 2"><g id="logos"><circle cx="78.5" cy="5.5" r="1.5"/><circle cx="83.5" cy="4.5" r="1.5"/><circle cx="87.5" cy="5.5" r="1.5"/><path d="M28,8s-5.23-.87-9.18.64l2.94,5.88C27.28,11.74,40,19,40,19Z" fill="#4eb450"/><path d="M10.18,14.27C7.44,14.4,4.05,14.28,0,24c0,0,5-4,10-4a18.25,18.25,0,0,0,2.62-.15Z" fill="#e11b26"/><path d="M12.62,19.85c3-.39,4.4-1.67,8.38-4.85a4.24,4.24,0,0,1,.76-.48L18.82,8.64c-.28.11-.55.23-.82.36-4,2-3,4-6,5a6.72,6.72,0,0,1-1.82.27Z" fill="#f3af45"/><path d="M41,68c-1-4,4-3,8-5s4-5,4-5a25,25,0,0,0,8,4,6.46,6.46,0,0,1-3-5s6,4,9,4,2,2,2,2c-4,3-5,6-5,6l3-1a14.33,14.33,0,0,0-2,7H81c0-7-8-6-8-6,0-3,4-6,6-6s5,4,5,6a4.38,4.38,0,0,0,1,3c1-2,2-2,2-2,0,2,2,5,2,5h14c1-7-8-8-8-8s-8-7-8-10,3-12-2-15-10,3-10,3c-3-1,1-3,1-3a8.1,8.1,0,0,0-2,.25c3-1.92,4.41-4.48,10-3.25,9,2,5,18,5,18,7-3,5-11,5-11,3,1,2,6,2,6,3-4,2-10,2-10,3,0,4,5,4,5a8.91,8.91,0,0,0-3-11c1-2,4-2,4-2,3,5,8,0,8,0-3,1-3-1-3-1,4,1,5-2,5-2-5,1-5-1-5-1,2-4,0-5,0-5-4,8-5,2-5,2s-3,6-6,2c-3.84-5.12,3-7,3-7l3,3V21l2,1c5-4,0-8,0-8-4-1-11,2-11,2a2,2,0,0,0-2-2,6.83,6.83,0,0,1,4-4c-4-1-6,3-7,2s2-3,2-3H89V6H87V9L85,6H83v4L79,6,78,7v5L74,9l-.16.16A1.46,1.46,0,0,0,74,8.5,1.5,1.5,0,1,0,72.5,10a1.46,1.46,0,0,0,.66-.16L73,10l2,4-3-1-.16.16A1.46,1.46,0,0,0,72,12.5,1.5,1.5,0,1,0,70.5,14a1.46,1.46,0,0,0,.66-.16L71,14l2,2c-4,2-5,7-5,7,5-4,6-1,6-1-5,1-6,6-6,6,4-4,7-2,7-2-5,1-8,6-8,6,4-3,7-2,7-2-5,3-6,7-6,7a14.63,14.63,0,0,1,8-3c-1.31,3.94-4.89,5.07-9.32,4.82l-8-7.2A3.81,3.81,0,0,0,60,29c8-7,1-13-2-15s-3-7-3-7c-2,4,0,10,0,10-3.24,2.7-3.27,6.27-2.62,9L29,5V1H25V0L23,2h1V6h4L53.35,28.75A13,13,0,0,0,54,30c-2,1-5-1-12-7s-12-7-16-7S16,18,16,26,26,38,26,38s-7,14,0,14c6,0,6-15,16-15,8,0,11,6,23,7a16.63,16.63,0,0,0,6.26-.48A7.74,7.74,0,0,0,68,50c0,5,5,9,5,9-9-1-7-13-7-13-3,1-3,5-3,5a24.08,24.08,0,0,0-10-7c2,1,3,6,3,6-11-11-20-3-24,1s-8,5-12,7a23.13,23.13,0,0,0-7,6h3c-6,5-5,11-5,11H28c0-7-9-6-9-6,0-9,7-7,11-9s7-6,9-6,1,2,1,2c-10,8-8,11-8,11a4.94,4.94,0,0,1,3-1,12.28,12.28,0,0,0,2,9H52C52,64,42,72,41,68ZM28,5H26V3h2ZM41,32a43.6,43.6,0,0,0-12,2c-15-5-8-15-3-15s8,2,14,6,8,8,14,8a8.58,8.58,0,0,0,3.41-.6l6.88,6.17C55.54,37.28,44.69,32,41,32ZM222.42,92.59a2,2,0,0,1-.82.2.67.67,0,0,1-.45-.16,1,1,0,0,1-.28-.58,16,16,0,0,1-.09-2.28v-6.5h-3.65v.43a2.14,2.14,0,0,1,1.38.34,1.7,1.7,0,0,1,.34,1.24v6.08a6,6,0,0,1-1.52,1.21,2.68,2.68,0,0,1-1.14.32,1.84,1.84,0,0,1-1.26-.47,2.67,2.67,0,0,1-.52-2V83.27h-3.77v.43a2.72,2.72,0,0,1,1.17.15,1,1,0,0,1,.49.45,2.32,2.32,0,0,1,.16,1v4.79a8.13,8.13,0,0,0,.26,2.32,2.71,2.71,0,0,0,.92,1.35,2.48,2.48,0,0,0,1.56.52,3.23,3.23,0,0,0,1.54-.39,9.94,9.94,0,0,0,2.11-1.89v2.28h.53L222.59,93ZM36.69,83.73a2.85,2.85,0,0,0-.58,0H33.83A4.67,4.67,0,0,0,31.17,83,4.24,4.24,0,0,0,28.1,84.1a3.63,3.63,0,0,0-1.21,2.74,3.56,3.56,0,0,0,2,3.25,8.21,8.21,0,0,0-1.54,1.55,2,2,0,0,0-.33,1,1,1,0,0,0,.25.65,4.18,4.18,0,0,0,.86.65c-.74.77-1.14,1.19-1.19,1.26a6.23,6.23,0,0,0-.82,1.21,1.27,1.27,0,0,0-.13.56c0,.42.29.83.88,1.22a6.82,6.82,0,0,0,3.82,1,6.71,6.71,0,0,0,4.77-1.71A3.41,3.41,0,0,0,36.74,95a2.19,2.19,0,0,0-.65-1.61,3,3,0,0,0-1.74-.81c-.48-.07-1.52-.13-3.13-.17-.88,0-1.42,0-1.64-.08a1.34,1.34,0,0,1-.76-.27.52.52,0,0,1-.19-.38,1.24,1.24,0,0,1,.18-.57,3.06,3.06,0,0,1,.7-.78,6.22,6.22,0,0,0,1.63.23,4.35,4.35,0,0,0,3.08-1.06,3.62,3.62,0,0,0,.49-4.73h1.4a3.06,3.06,0,0,0,.59,0,.24.24,0,0,0,.12-.09,1.05,1.05,0,0,0,.06-.43.67.67,0,0,0-.07-.37A.18.18,0,0,0,36.69,83.73ZM28.82,94a40,40,0,0,0,4,.27,8,8,0,0,1,2.42.3.91.91,0,0,1,.59.87,2,2,0,0,1-1,1.59,5.2,5.2,0,0,1-3.11.74,6.52,6.52,0,0,1-3.39-.72,1.19,1.19,0,0,1-.68-1,2.12,2.12,0,0,1,.28-1A6,6,0,0,1,28.82,94Zm3.92-4.7a1.83,1.83,0,0,1-1.46.67,1.9,1.9,0,0,1-1.55-.77,4.59,4.59,0,0,1-.8-2.88,3.23,3.23,0,0,1,.59-2.12A1.82,1.82,0,0,1,31,83.51a1.86,1.86,0,0,1,1.54.78,4.66,4.66,0,0,1,.81,2.91A3.12,3.12,0,0,1,32.74,89.3ZM204.62,83a4.9,4.9,0,0,0-2.53.7,5,5,0,0,0-1.93,2.15,6.48,6.48,0,0,0-.73,2.94,5.93,5.93,0,0,0,1.21,3.65,4.55,4.55,0,0,0,3.85,1.94,4.92,4.92,0,0,0,4.61-3,6.85,6.85,0,0,0,.69-2.92,5.73,5.73,0,0,0-1.25-3.63A4.78,4.78,0,0,0,204.62,83Zm2.25,9.61a2.3,2.3,0,0,1-1.87.94,2.78,2.78,0,0,1-2.46-1.7,8.33,8.33,0,0,1-.93-4,6.14,6.14,0,0,1,.39-2.37,2.55,2.55,0,0,1,1-1.3,2.4,2.4,0,0,1,1.25-.37,2.54,2.54,0,0,1,2.12,1.13,7.33,7.33,0,0,1,1.23,4.5A5.35,5.35,0,0,1,206.87,92.56ZM12.54,91.77a3.45,3.45,0,0,1-1.35,1A8.37,8.37,0,0,1,8.63,93H7.46a8.21,8.21,0,0,1-1.82-.11.85.85,0,0,1-.44-.37A3.36,3.36,0,0,1,5,91.18v-10A5.31,5.31,0,0,1,5.2,79.4a1.44,1.44,0,0,1,.7-.62,4.41,4.41,0,0,1,1.78-.24v-.43H.48v.43h.6a1.71,1.71,0,0,1,1.36.52,3.26,3.26,0,0,1,.33,1.86V91.18a3.82,3.82,0,0,1-.25,1.73,1.6,1.6,0,0,1-1.44.66H.48V94H12.79l1.35-4.31-.38-.08A7.92,7.92,0,0,1,12.54,91.77ZM130.78,79.71a1.11,1.11,0,0,0,.84-.35,1.18,1.18,0,0,0-.84-2,1.16,1.16,0,0,0-.85.34,1.14,1.14,0,0,0-.34.84,1.2,1.2,0,0,0,1.19,1.19Zm101.7,4.5a3.41,3.41,0,0,0-2.7-1.26,3.07,3.07,0,0,0-1.76.57,6,6,0,0,0-1.67,2V83h-.45l-3.3,1.33.14.38a2.16,2.16,0,0,1,.71-.17,1,1,0,0,1,.56.14.8.8,0,0,1,.3.43,5.63,5.63,0,0,1,.09,1.32V96.58a5.12,5.12,0,0,1-.12,1.46.8.8,0,0,1-.35.41,2,2,0,0,1-1.1.25h-.29v.43h5.62V98.7a2.82,2.82,0,0,1-1.21-.18,1,1,0,0,1-.47-.47,4.42,4.42,0,0,1-.13-1.4V93.38a3.59,3.59,0,0,0,1.05.7,4,4,0,0,0,1.5.25,4.24,4.24,0,0,0,3.31-1.49,6.71,6.71,0,0,0,1.59-4.59A6,6,0,0,0,232.48,84.21Zm-1.71,8.5a2.33,2.33,0,0,1-1.9.92,2.49,2.49,0,0,1-1.61-.52,2.16,2.16,0,0,1-.81-1.2,8.71,8.71,0,0,1-.1-1.71v-4a6.46,6.46,0,0,1,1.39-1.27,2.41,2.41,0,0,1,1.12-.28,2.24,2.24,0,0,1,1.78.91,5.88,5.88,0,0,1,1.07,3.79A5.31,5.31,0,0,1,230.77,92.71Zm-86.65-13a1.13,1.13,0,0,0,.84-.35,1.21,1.21,0,0,0,0-1.68,1.19,1.19,0,1,0-.84,2Zm-97.48,13a.44.44,0,0,1-.31-.11.83.83,0,0,1-.19-.47,16.2,16.2,0,0,1-.06-1.88V86.63a6.38,6.38,0,0,0-.21-2.06,2.2,2.2,0,0,0-1-1.14A5,5,0,0,0,42.5,83a4.46,4.46,0,0,0-2.89.84,2.4,2.4,0,0,0-1,1.85,1.23,1.23,0,0,0,.27.84.93.93,0,0,0,.71.3,1,1,0,0,0,.72-.29,1.14,1.14,0,0,0,.28-.83l0-.68a1.19,1.19,0,0,1,.44-.92,1.69,1.69,0,0,1,1.17-.4,1.83,1.83,0,0,1,1.48.6,3.49,3.49,0,0,1,.51,2.2v.43a25.61,25.61,0,0,0-4,1.71,4.7,4.7,0,0,0-1.67,1.5,2.57,2.57,0,0,0-.35,1.36,2.79,2.79,0,0,0,.72,2,2.4,2.4,0,0,0,1.83.76,3.09,3.09,0,0,0,1.35-.29,17.84,17.84,0,0,0,2.07-1.48,2.13,2.13,0,0,0,.36,1.36,1.11,1.11,0,0,0,.91.4c.8,0,1.63-.58,2.51-1.76V91.8a7.24,7.24,0,0,1-1,.85A.58.58,0,0,1,46.64,92.73Zm-2.5-1a4.23,4.23,0,0,1-2.34,1.17,1.53,1.53,0,0,1-1.16-.55,2,2,0,0,1-.5-1.4,2,2,0,0,1,.4-1.23,3.75,3.75,0,0,1,1.32-1.08,21.34,21.34,0,0,1,2.28-1ZM23.47,84.13a3.93,3.93,0,0,0-3-1.19A4.61,4.61,0,0,0,17,84.48a6.13,6.13,0,0,0-1.41,4.29,5.75,5.75,0,0,0,1.38,4,4.31,4.31,0,0,0,3.31,1.51,3.8,3.8,0,0,0,3-1.32,5.55,5.55,0,0,0,1.43-2.92l-.36-.24a4.29,4.29,0,0,1-1.31,2,3,3,0,0,1-1.83.58,3.54,3.54,0,0,1-2.75-1.36,5.52,5.52,0,0,1-1.17-3.75h7.42A4.32,4.32,0,0,0,23.47,84.13Zm-6.26,2.5a3.29,3.29,0,0,1,.9-2.1,2.39,2.39,0,0,1,1.74-.76,2.17,2.17,0,0,1,1.21.37,2.36,2.36,0,0,1,.88,1,4.77,4.77,0,0,1,.24,1.45Zm166.93-.86a3.22,3.22,0,0,1,1.34.2,1.22,1.22,0,0,1,.56.56,4.29,4.29,0,0,1,.18,1.56v4.6a6.71,6.71,0,0,1-3.28.88,5.46,5.46,0,0,1-2.92-.88A6.17,6.17,0,0,1,177.71,90a9.76,9.76,0,0,1-.87-4.15A8.65,8.65,0,0,1,178.16,81a5.18,5.18,0,0,1,4.62-2.4,5,5,0,0,1,3.64,1.37A6.85,6.85,0,0,1,188,82.76h.41l-.41-5h-.44a1.52,1.52,0,0,1-.19.8.46.46,0,0,1-.38.2,3.32,3.32,0,0,1-.88-.24,14.12,14.12,0,0,0-2-.62,7.67,7.67,0,0,0-1.58-.14,8,8,0,0,0-4.12,1,9,9,0,0,0-4.29,7.53,7.92,7.92,0,0,0,1.79,5.11q2.4,3,7,3a11.53,11.53,0,0,0,2.92-.34A11.89,11.89,0,0,0,188.51,93V88.09a4.25,4.25,0,0,1,.23-1.71,1.33,1.33,0,0,1,1.26-.61h.29v-.44h-6.15Zm-44.49,6.81a1.33,1.33,0,0,1-.75.24.94.94,0,0,1-.77-.37,2.4,2.4,0,0,1-.29-1.4v-7h2.5v-.82h-2.5V79.74h-.37a13.23,13.23,0,0,1-.75,1.63,6.93,6.93,0,0,1-1.2,1.46,4.41,4.41,0,0,1-1.32.87v.39h1.7V91.3a4.36,4.36,0,0,0,.25,1.72,1.82,1.82,0,0,0,.76.86,2.07,2.07,0,0,0,1.05.3,2.53,2.53,0,0,0,1.55-.58,3.7,3.7,0,0,0,1.16-1.73h-.46A1.55,1.55,0,0,1,139.65,92.58Zm-7.75.34a3.92,3.92,0,0,1-.15-1.35V83h-.51L128,84.26l.17.42a2.5,2.5,0,0,1,.79-.17.79.79,0,0,1,.49.14,1,1,0,0,1,.25.53,14.34,14.34,0,0,1,.11,2.26v4.13a3.65,3.65,0,0,1-.16,1.35,1.1,1.1,0,0,1-.43.51,2.45,2.45,0,0,1-1.05.15V94h5.21v-.42a2.35,2.35,0,0,1-1-.17A1,1,0,0,1,131.9,92.92ZM126,83c-.94,0-1.86.8-2.76,2.41V83h-.49l-3.25,1.31.12.42a2.45,2.45,0,0,1,.82-.17.8.8,0,0,1,.51.16.93.93,0,0,1,.28.52,17.28,17.28,0,0,1,.08,2.24v4.16a5.81,5.81,0,0,1-.06,1.13,1,1,0,0,1-.41.6,2.31,2.31,0,0,1-1.22.26V94h5.49v-.42a2.38,2.38,0,0,1-1.11-.21,1.2,1.2,0,0,1-.54-.53,3.14,3.14,0,0,1-.22-1.35V86.35a5.47,5.47,0,0,1,1.09-1.58.69.69,0,0,1,.46-.24,1.55,1.55,0,0,1,.75.41,1.54,1.54,0,0,0,.92.4,1,1,0,0,0,.73-.32,1.08,1.08,0,0,0,.3-.77,1.22,1.22,0,0,0-.42-.91A1.52,1.52,0,0,0,126,83Zm-12.65,0a4.88,4.88,0,0,0-2.53.7,5,5,0,0,0-1.93,2.15,6.48,6.48,0,0,0-.73,2.94,6,6,0,0,0,1.2,3.65,4.57,4.57,0,0,0,3.86,1.94,4.92,4.92,0,0,0,4.61-3,6.85,6.85,0,0,0,.69-2.92,5.69,5.69,0,0,0-1.26-3.63A4.76,4.76,0,0,0,113.31,83Zm2.25,9.61a2.31,2.31,0,0,1-1.88.94,2.78,2.78,0,0,1-2.45-1.7,8.33,8.33,0,0,1-.93-4,6.35,6.35,0,0,1,.38-2.37,2.62,2.62,0,0,1,1-1.3,2.4,2.4,0,0,1,1.25-.37,2.56,2.56,0,0,1,2.12,1.13,7.33,7.33,0,0,1,1.23,4.5A5.35,5.35,0,0,1,115.56,92.56Zm29.68.36a3.92,3.92,0,0,1-.15-1.35V83h-.52l-3.23,1.31.16.42a2.55,2.55,0,0,1,.8-.17.78.78,0,0,1,.48.14,1,1,0,0,1,.26.53,14.82,14.82,0,0,1,.1,2.26v4.13a4,4,0,0,1-.15,1.35,1.1,1.1,0,0,1-.43.51,2.47,2.47,0,0,1-1.06.15V94h5.22v-.42a2.29,2.29,0,0,1-1.05-.17A1,1,0,0,1,145.24,92.92ZM164.07,88l-1.71-.83a4.14,4.14,0,0,1-1.47-1,1.74,1.74,0,0,1-.38-1.12,1.26,1.26,0,0,1,.51-1,2,2,0,0,1,1.32-.43,2.61,2.61,0,0,1,1.78.62,4.87,4.87,0,0,1,1.14,2.35h.38V83h-.38a1.11,1.11,0,0,1-.25.36.43.43,0,0,1-.29.08,3.4,3.4,0,0,1-.8-.17,5.48,5.48,0,0,0-1.53-.27,3.22,3.22,0,0,0-2.35.89,3,3,0,0,0-.91,2.21,2.59,2.59,0,0,0,.53,1.69,6.69,6.69,0,0,0,2.22,1.53,9.66,9.66,0,0,1,2.27,1.39,1.82,1.82,0,0,1,.57,1.36,1.5,1.5,0,0,1-.51,1.14,1.85,1.85,0,0,1-1.32.48,3,3,0,0,1-2.07-.84,4.31,4.31,0,0,1-1.26-2.47h-.38v3.83h.38a.46.46,0,0,1,.42-.3,2.26,2.26,0,0,1,.64.12,8.65,8.65,0,0,0,2.25.35,3.85,3.85,0,0,0,2.48-.9,2.9,2.9,0,0,0,1.1-2.36C166.45,89.8,165.66,88.79,164.07,88Zm-58.34,5a4,4,0,0,1-.17-1.4V87.78a11.13,11.13,0,0,0-.22-2.74,3,3,0,0,0-1-1.59,2.54,2.54,0,0,0-1.57-.5,3.24,3.24,0,0,0-1.53.4,9.16,9.16,0,0,0-2.06,1.84V77.34h-.54l-3.21,1.31.17.41a2.66,2.66,0,0,1,.79-.19.74.74,0,0,1,.49.15,1.08,1.08,0,0,1,.27.58,15.75,15.75,0,0,1,.09,2.26v9.71a4.16,4.16,0,0,1-.14,1.34.87.87,0,0,1-.38.45,2.47,2.47,0,0,1-1.12.22V94H101v-.42a2.64,2.64,0,0,1-1.16-.18,1.05,1.05,0,0,1-.46-.45,4.57,4.57,0,0,1-.12-1.38V85.9a6.11,6.11,0,0,1,1.49-1.23,2.72,2.72,0,0,1,1.19-.3,1.7,1.7,0,0,1,1,.27,1.66,1.66,0,0,1,.58.83,9.24,9.24,0,0,1,.18,2.31v3.79a7.8,7.8,0,0,1,0,1.11,1.2,1.2,0,0,1-.41.67,1.75,1.75,0,0,1-1,.23h-.25V94h5.28v-.42a2.19,2.19,0,0,1-1-.17A.85.85,0,0,1,105.73,93Zm50.39-8.84a4,4,0,0,0-3-1.19,4.59,4.59,0,0,0-3.54,1.54,6.13,6.13,0,0,0-1.41,4.29,5.74,5.74,0,0,0,1.37,4,4.31,4.31,0,0,0,3.31,1.51,3.82,3.82,0,0,0,3-1.32,5.62,5.62,0,0,0,1.43-2.92l-.37-.24a4.28,4.28,0,0,1-1.3,2,3,3,0,0,1-1.84.58A3.56,3.56,0,0,1,151,91.06a5.52,5.52,0,0,1-1.16-3.75h7.42A4.36,4.36,0,0,0,156.12,84.13Zm-6.26,2.5a3.24,3.24,0,0,1,.9-2.1,2.39,2.39,0,0,1,1.74-.76,2.2,2.2,0,0,1,1.21.37,2.28,2.28,0,0,1,.87,1,4.41,4.41,0,0,1,.25,1.45ZM197.29,83c-.95,0-1.87.8-2.77,2.41V83H194l-3.25,1.31.12.42a2.45,2.45,0,0,1,.82-.17.8.8,0,0,1,.51.16.87.87,0,0,1,.28.52,17.28,17.28,0,0,1,.08,2.24v4.16a5.81,5.81,0,0,1-.06,1.13,1,1,0,0,1-.41.6,2.31,2.31,0,0,1-1.22.26V94h5.49v-.42a2.38,2.38,0,0,1-1.11-.21,1.2,1.2,0,0,1-.54-.53,3.14,3.14,0,0,1-.22-1.35V86.35a5.47,5.47,0,0,1,1.09-1.58.69.69,0,0,1,.46-.24,1.55,1.55,0,0,1,.75.41,1.54,1.54,0,0,0,.92.4,1,1,0,0,0,.73-.32,1.08,1.08,0,0,0,.3-.77,1.22,1.22,0,0,0-.42-.91A1.51,1.51,0,0,0,197.29,83ZM87.62,92.79a.67.67,0,0,1-.45-.16,1,1,0,0,1-.28-.58,16,16,0,0,1-.09-2.28v-6.5H83.14v.43a2.15,2.15,0,0,1,1.39.34,1.7,1.7,0,0,1,.34,1.24v6.08a6,6,0,0,1-1.52,1.21,2.68,2.68,0,0,1-1.14.32A1.8,1.8,0,0,1,81,92.42a2.67,2.67,0,0,1-.52-2V83.27H76.66v.43a2.72,2.72,0,0,1,1.17.15,1.07,1.07,0,0,1,.49.45,2.32,2.32,0,0,1,.16,1v4.79a8.13,8.13,0,0,0,.26,2.32,2.71,2.71,0,0,0,.92,1.35,2.48,2.48,0,0,0,1.56.52,3.23,3.23,0,0,0,1.54-.39,9.94,9.94,0,0,0,2.11-1.89v2.28h.52L88.61,93l-.17-.41A2,2,0,0,1,87.62,92.79ZM73.64,91,68.11,77.75H67.7L62.11,90.82a7.35,7.35,0,0,1-1.32,2.29,2.74,2.74,0,0,1-1.29.46V94h5v-.43A3.08,3.08,0,0,1,63,93.21a.81.81,0,0,1-.35-.64,3.86,3.86,0,0,1,.4-1.38l1.08-2.51h6.15l1,2.28a5,5,0,0,1,.47,1.63.81.81,0,0,1-.34.66,2.32,2.32,0,0,1-1.28.32V94h6.27v-.43A2.48,2.48,0,0,1,74.85,93,6,6,0,0,1,73.64,91ZM64.5,87.81l2.77-6.42L70,87.81Zm29.82,4.77a1.33,1.33,0,0,1-.75.24.92.92,0,0,1-.76-.37,2.31,2.31,0,0,1-.3-1.4v-7H95v-.82H92.51V79.74h-.37a13.23,13.23,0,0,1-.75,1.63,6.93,6.93,0,0,1-1.2,1.46,4.51,4.51,0,0,1-1.31.87v.39h1.69V91.3A4.55,4.55,0,0,0,90.82,93a1.82,1.82,0,0,0,.76.86,2.11,2.11,0,0,0,1.06.3,2.53,2.53,0,0,0,1.54-.58,3.7,3.7,0,0,0,1.16-1.73h-.45A1.57,1.57,0,0,1,94.32,92.58Zm-41.77.33a4.16,4.16,0,0,1-.14-1.34V77.34h-.53l-3.2,1.31.2.41a2.08,2.08,0,0,1,.77-.19.73.73,0,0,1,.47.15,1,1,0,0,1,.26.57,18,18,0,0,1,.08,2.23v9.75a4,4,0,0,1-.15,1.35,1,1,0,0,1-.42.51,2.32,2.32,0,0,1-1,.15V94h5.26v-.42A2.7,2.7,0,0,1,53,93.41,1.09,1.09,0,0,1,52.55,92.91Z"/></g></g></svg>