<?xml version="1.0" encoding="utf-8"?>
<!-- Generator: Adobe Illustrator 27.0.0, SVG Export Plug-In . SVG Version: 6.00 Build 0)  -->
<svg version="1.1" id="Layer_1" xmlns="http://www.w3.org/2000/svg" xmlns:xlink="http://www.w3.org/1999/xlink" x="0px" y="0px"
	 width="308.6px" height="96.6px" viewBox="0 0 308.6 96.6" style="enable-background:new 0 0 308.6 96.6;" xml:space="preserve">
<style type="text/css">
	.st0{fill:#A0B28E;}
	.st1{fill:#C1DEA8;}
	.st2{fill:#24221F;}
	.st3{fill:#576454;}
	.st4{fill:url(#Union_39_00000142873290522185916410000006168605235149161857_);}
</style>
<circle class="st0" cx="48.5" cy="48.2" r="48.3"/>
<ellipse id="Ellipse_125" class="st1" cx="48.5" cy="48.2" rx="26.9" ry="26.9"/>
<g id="Group_2289" transform="translate(2968.117 14.418)">
	<g id="Lo_Squalo">
		<g id="Group_2287">
			<path id="Path_31869" class="st2" d="M-2861.2,4.8h16.2v1h-4.8v29.5h1.6c2.3,0.1,4.5-0.7,6.1-2.3c1.9-2.1,3.5-4.6,4.6-7.2h0.9
				l-0.9,10.5h-23.8v-1h2.7V5.8h-2.7L-2861.2,4.8z"/>
			<path id="Path_31870" class="st2" d="M-2831.6,33.9c-1.9-1.9-2.9-4.7-2.9-8.3s1-6.3,3.1-8.3c2.1-1.9,4.9-2.9,8.7-2.9
				c3.7,0,6.5,0.9,8.3,2.7c1.8,1.8,2.7,4.5,2.7,8.2c0,7.7-3.8,11.5-11.4,11.5C-2826.8,36.8-2829.7,35.8-2831.6,33.9z M-2820.3,27.5
				v-3.8c0.1-2.1-0.1-4.3-0.5-6.4c-0.3-1.3-1-2-2.2-2c-0.6,0-1.2,0.2-1.6,0.6c-0.5,0.5-0.8,1.2-0.9,1.9c-0.3,2-0.5,4.1-0.4,6.2v3.5
				c-0.1,2,0,3.9,0.3,5.9c0.2,0.6,0.4,1.1,0.6,1.6c0.4,0.7,1.1,1.2,1.9,1.1c1.2,0,2.2-0.9,2.3-2
				C-2820.3,31.8-2820.2,29.6-2820.3,27.5L-2820.3,27.5z"/>
			<path id="Path_31871" class="st2" d="M-2788.1,35.8c1.4,0,2.8-0.4,4-1.2c1.2-0.8,1.8-2.2,1.7-3.7c0.1-1.5-0.6-2.9-1.9-3.8
				c-1.6-1-3.4-1.8-5.3-2.3c-1.7-0.4-3.4-1-5-1.7c-1.1-0.5-2.1-1.1-2.9-1.9c-1.9-1.6-2.8-4-2.8-7.2c0-2.6,1-5.1,2.9-6.9
				c2.1-2,4.9-3,7.8-2.9c1.7,0,3.4,0.2,5,0.7c1,0.3,2.1,0.6,3.2,0.7c0.4,0,0.8-0.3,1.1-0.9h0.5l0.3,9.1h-0.7
				c-1.2-2.3-2.7-4.4-4.5-6.3c-1.3-1.5-3.2-2.3-5.1-2.4c-1.5-0.1-3.1,0.4-4.3,1.3c-1,0.8-1.6,2.1-1.5,3.4c0,1.3,0.7,2.6,1.8,3.3
				c1.4,0.8,2.9,1.5,4.5,1.9c1.8,0.5,2.9,0.8,3.5,1c0.6,0.2,1.2,0.4,2.1,0.7c0.7,0.3,1.4,0.6,2,1c0.6,0.4,1.1,0.8,1.7,1.3
				c0.6,0.5,1,1.1,1.4,1.7c2.1,4.3,1.4,9.4-1.8,12.9c-2.2,2-5,3.1-8,2.9c-2,0-3.9-0.3-5.9-0.7c-2.2-0.5-3.4-0.7-3.7-0.7
				c-0.4,0-0.8,0.5-1.2,1.4h-0.6l-0.5-10.7h0.8c1.3,2.6,3,4.9,5.1,6.8C-2792.9,34.7-2790.6,35.8-2788.1,35.8z"/>
			<path id="Path_31872" class="st2" d="M-2760.6,46.2V32.9c-0.9,2.4-3.3,4-5.9,3.9c-5.6,0-8.4-3.7-8.4-11.2c0-3.8,0.8-6.6,2.3-8.4
				c1.5-1.8,3.9-2.7,7-2.7c2.2-0.2,4.2,0.9,5.3,2.8l0.3-2.4h10.3v0.8h-2.5v30.5h2.2V47h-15.2v-0.8H-2760.6z M-2765.7,33.3
				c0.3,1.1,0.9,1.6,1.8,1.6c1-0.1,1.9-0.7,2.3-1.6c0.8-1.4,1.1-2.9,1-4.5v-8.4c0-1.1-0.2-2.3-0.8-3.3c-0.4-0.8-1.3-1.4-2.2-1.3
				c-1,0-1.7,0.7-2.1,2c-0.4,2.3-0.6,4.6-0.5,6.9V27C-2766.3,29.1-2766.1,31.2-2765.7,33.3L-2765.7,33.3z"/>
			<path id="Path_31873" class="st2" d="M-2722.5,36.3h-10.3l-0.5-3.3c-0.4,1.1-1.2,2.1-2.1,2.8c-1.3,0.7-2.7,1.1-4.2,1
				c-4.7,0-7-2.5-7-7.5V15.7h-2.5v-0.8h10.9v15.4c-0.1,1.2,0.1,2.4,0.4,3.6c0.3,0.6,0.9,0.9,1.5,0.9c0.9-0.1,1.7-0.6,2-1.4
				c0.7-1.2,1-2.5,0.9-3.9V15.7h-2.1v-0.8h10.4v20.6h2.5V36.3z"/>
			<path id="Path_31874" class="st2" d="M-2710.8,25.8h1.3v-3.5c0.1-1.9-0.1-3.9-0.5-5.7c-0.2-0.9-0.9-1.5-1.8-1.5
				c-0.5,0-1,0.1-1.5,0.4c-0.4,0.2-0.7,0.7-0.7,1.2c0,0.5,0.1,1,0.3,1.5h1.1c0.3,0.7,0.4,1.5,0.4,2.3c0,0.9-0.4,1.7-1.1,2.3
				c-0.8,0.7-1.8,1-2.8,1c-2.6,0-3.9-1.2-3.9-3.7c0-3.7,3.1-5.5,9.4-5.5c3.6,0,6,0.6,7.4,1.8c1.4,1.2,2,3.4,2,6.7v9.1
				c0,1.6,0.4,2.3,1.3,2.3c1,0,1.6-1.5,1.8-4.6l0.7,0c-0.1,2.6-0.6,4.5-1.5,5.4c-0.9,1-2.3,1.5-4.3,1.5c-3.6,0-5.7-1.1-6.2-3.3
				c-0.3,1-0.9,1.9-1.8,2.5c-1,0.6-2.2,0.9-3.4,0.8c-4.4,0-6.7-1.8-6.7-5.4c-0.2-1.9,0.9-3.6,2.5-4.4
				C-2716.9,26.2-2714.3,25.8-2710.8,25.8z M-2712.4,34.3c0.1,0.4,0.5,0.7,0.9,0.7c0.5,0,0.9-0.4,1.3-1.1c0.5-1,0.7-2.1,0.6-3.2
				v-4.2h-0.3c-1.9,0-2.8,1.4-2.8,4.1v0.7C-2712.7,32.3-2712.6,33.3-2712.4,34.3z"/>
			<path id="Path_31875" class="st2" d="M-2697.1,2.6h11v32.9h2.5v0.8h-13.4v-0.8h2.5V3.4h-2.7V2.6z"/>
			<path id="Path_31876" class="st2" d="M-2679.5,33.9c-1.9-1.9-2.9-4.7-2.9-8.3s1-6.3,3.1-8.3c2.1-1.9,4.9-2.9,8.7-2.9
				c3.7,0,6.5,0.9,8.3,2.7c1.8,1.8,2.7,4.5,2.7,8.2c0,7.7-3.8,11.5-11.4,11.5C-2674.7,36.8-2677.5,35.8-2679.5,33.9z M-2668.2,27.5
				v-3.8c0.1-2.1-0.1-4.3-0.5-6.4c-0.3-1.3-1-2-2.2-2c-0.6,0-1.2,0.2-1.6,0.6c-0.5,0.5-0.8,1.2-0.9,1.9c-0.3,2-0.5,4.1-0.4,6.2v3.5
				c-0.1,2,0,3.9,0.3,5.9c0.2,0.6,0.4,1.1,0.6,1.6c0.3,0.7,1.1,1.2,1.9,1.1c1.2,0,2.2-0.9,2.3-2
				C-2668.2,31.8-2668.1,29.6-2668.2,27.5L-2668.2,27.5z"/>
		</g>
	</g>
	<g id="Waste_Management">
		<g id="Group_2288">
			<path id="Path_31877" class="st3" d="M-2846.4,53.4l-0.9,0.1l-2.3,9.9h-2.1l-2.1-7.5h0l-2.1,7.5h-2.1l-2.3-9.9l-0.9-0.1v-1.4h4.2
				v1.4l-1,0.2l1.3,6.2l0,0l2.1-7.8h1.7l2.1,7.8l0,0l1.3-6.2l-1-0.2v-1.4h4.2L-2846.4,53.4z"/>
			<path id="Path_31878" class="st3" d="M-2845.6,62.1l0.8-0.1l3.5-9.9h2.3l3.4,9.9l0.8,0.1v1.4h-3.9v-1.4l0.8-0.1l-0.5-1.6h-3.7
				l-0.5,1.6l0.8,0.1v1.4h-3.9V62.1z M-2841.5,58.7h2.6l-1.3-4h0L-2841.5,58.7z"/>
			<path id="Path_31879" class="st3" d="M-2823.8,55.7h-1.7l-0.3-1.6c-0.3-0.2-0.6-0.3-0.9-0.3c-0.4-0.1-0.8-0.1-1.2-0.1
				c-0.5,0-1,0.1-1.4,0.4c-0.3,0.2-0.5,0.6-0.5,1c0,0.4,0.2,0.7,0.5,1c0.6,0.3,1.2,0.6,1.8,0.8c1,0.2,2,0.7,2.9,1.4
				c0.6,0.6,1,1.4,1,2.3c0,0.9-0.4,1.8-1.2,2.3c-0.9,0.6-2,0.9-3,0.8c-0.8,0-1.7-0.1-2.4-0.4c-0.7-0.3-1.3-0.7-1.8-1.2v-2.4h1.8
				l0.2,1.6c0.3,0.2,0.6,0.4,0.9,0.5c0.4,0.1,0.9,0.2,1.3,0.2c0.5,0,1-0.1,1.4-0.4c0.3-0.2,0.5-0.6,0.5-1c0-0.4-0.2-0.8-0.5-1.1
				c-0.5-0.4-1-0.6-1.6-0.8c-1.1-0.3-2.1-0.7-3.1-1.4c-0.7-0.5-1.1-1.3-1-2.2c0-0.9,0.4-1.8,1.2-2.3c0.9-0.6,1.9-0.9,2.9-0.9
				c0.8,0,1.6,0.1,2.4,0.4c0.7,0.2,1.3,0.6,1.8,1.1L-2823.8,55.7z"/>
			<path id="Path_31880" class="st3" d="M-2811.1,52.1v3h-1.8l-0.1-1.3h-2.1v8l1.2,0.2v1.4h-4.7v-1.4l1.2-0.2v-8h-2.1l-0.1,1.3h-1.7
				v-3L-2811.1,52.1z"/>
			<path id="Path_31881" class="st3" d="M-2801.4,58.4h-3.9v3.2h3.7l0.1-1.4h1.7v3.1h-9v-1.4l1.2-0.2v-8.2l-1.2-0.2v-1.4h9v3.1h-1.8
				l-0.1-1.4h-3.6v2.9h3.9V58.4z"/>
			<path id="Path_31882" class="st3" d="M-2780.4,55L-2780.4,55l-3.1,8.4h-1.5l-3-8.4l0,0l0.2,5v1.8l1.2,0.2v1.4h-4.7v-1.4l1.2-0.2
				v-8.2l-1.2-0.2v-1.4h4.2l2.9,8.4h0l2.9-8.4h4.2v1.4l-1.2,0.2v8.2l1.2,0.2v1.4h-4.7v-1.4l1.2-0.2V60L-2780.4,55z"/>
			<path id="Path_31883" class="st3" d="M-2774.8,62.1l0.8-0.1l3.5-9.9h2.3l3.4,9.9l0.8,0.1v1.4h-3.9v-1.4l0.8-0.1l-0.5-1.6h-3.7
				l-0.5,1.6l0.8,0.1v1.4h-3.9V62.1z M-2770.7,58.7h2.6l-1.3-4h0L-2770.7,58.7z"/>
			<path id="Path_31884" class="st3" d="M-2750,52.1v1.4l-1.2,0.2v9.8h-2.3l-4.6-7.7l0,0v6l1.2,0.2v1.4h-4.7v-1.4l1.2-0.2v-8.2
				l-1.2-0.2v-1.4h3.5l4.6,7.7l0,0v-6l-1.2-0.2v-1.4H-2750L-2750,52.1z"/>
			<path id="Path_31885" class="st3" d="M-2748.8,62.1l0.8-0.1l3.5-9.9h2.3l3.4,9.9l0.8,0.1v1.4h-3.9v-1.4l0.8-0.1l-0.5-1.6h-3.7
				l-0.5,1.6l0.8,0.1v1.4h-3.9V62.1z M-2744.7,58.7h2.6l-1.3-4h0L-2744.7,58.7z"/>
			<path id="Path_31886" class="st3" d="M-2726.6,62.2c-0.5,0.4-1,0.8-1.6,1c-0.9,0.3-1.8,0.5-2.7,0.4c-1.4,0.1-2.8-0.5-3.8-1.5
				c-1-1.1-1.5-2.5-1.4-4v-0.4c-0.1-1.5,0.4-3,1.4-4.2c0.9-1.1,2.3-1.6,3.7-1.6c0.8,0,1.7,0.1,2.4,0.4c0.7,0.3,1.3,0.6,1.8,1.2v2.3
				h-1.7l-0.3-1.5c-0.2-0.2-0.5-0.3-0.8-0.4c-0.4-0.1-0.8-0.2-1.2-0.2c-0.9,0-1.8,0.4-2.3,1.1c-0.6,0.8-0.9,1.9-0.8,2.9V58
				c-0.1,1,0.2,2,0.8,2.8c0.6,0.7,1.4,1.1,2.3,1c0.4,0,0.7,0,1.1-0.1c0.2-0.1,0.5-0.2,0.7-0.3v-1.9l-1.6-0.1v-1.6h3.9L-2726.6,62.2z
				"/>
			<path id="Path_31887" class="st3" d="M-2716.5,58.4h-3.9v3.2h3.7l0.1-1.4h1.7v3.1h-9v-1.4l1.2-0.2v-8.2l-1.2-0.2v-1.4h9v3.1h-1.8
				l-0.1-1.4h-3.6v2.9h3.9L-2716.5,58.4z"/>
			<path id="Path_31888" class="st3" d="M-2701.1,55L-2701.1,55l-3.1,8.4h-1.5l-3-8.4l0,0l0.2,5v1.8l1.2,0.2v1.4h-4.7v-1.4l1.2-0.2
				v-8.2l-1.2-0.2v-1.4h4.2l2.9,8.4h0l2.9-8.4h4.2v1.4l-1.2,0.2v8.2l1.2,0.2v1.4h-4.7v-1.4l1.2-0.2V60L-2701.1,55z"/>
			<path id="Path_31889" class="st3" d="M-2688.1,58.4h-3.8v3.2h3.7l0.1-1.4h1.7v3.1h-9v-1.4l1.2-0.2v-8.2l-1.2-0.2v-1.4h9v3.1h-1.8
				l-0.1-1.4h-3.6v2.9h3.9L-2688.1,58.4z"/>
			<path id="Path_31890" class="st3" d="M-2672,52.1v1.4l-1.2,0.2v9.8h-2.3l-4.6-7.7l0,0v6l1.2,0.2v1.4h-4.7v-1.4l1.2-0.2v-8.2
				l-1.2-0.2v-1.4h3.5l4.6,7.7l0,0v-6l-1.2-0.2v-1.4H-2672z"/>
			<path id="Path_31891" class="st3" d="M-2659.6,52.1v3h-1.8l-0.1-1.3h-2.1v8l1.2,0.2v1.4h-4.7v-1.4l1.2-0.2v-8h-2.1l-0.1,1.3h-1.7
				v-3L-2659.6,52.1z"/>
		</g>
	</g>
</g>
<g id="Group_2067_00000015343349216646602250000010632888416846515643_" transform="translate(0)">
	<g>
		
			<linearGradient id="Union_39_00000075142617099082081040000009904210071133409942_" gradientUnits="userSpaceOnUse" x1="23.8879" y1="227.624" x2="24.6041" y2="228.2479" gradientTransform="matrix(96.558 0 0 96.555 -2293.3921 -21960.8203)">
			<stop  offset="0" style="stop-color:#211E1E"/>
			<stop  offset="1" style="stop-color:#5C772C"/>
		</linearGradient>
		
			<path id="Union_39_00000014634459143155610700000013303763751567363503_" style="fill:url(#Union_39_00000075142617099082081040000009904210071133409942_);" d="
			M49.6,83.8c18.8-0.6,34-15.7,34.5-34.5H94c-0.6,24.3-20.1,43.8-44.4,44.4V83.8z M3,49.3h9.9c0.6,18.8,15.7,34,34.5,34.5v9.9
			C23.1,93.1,3.6,73.5,3,49.3z M49.6,78.1h-2.2v3.5C29.8,81.1,15.6,66.9,15,49.3h3.5v-2.2H15c0.6-17.6,14.7-31.8,32.4-32.4v3.5h2.2
			v-3.5c17.6,0.6,31.8,14.8,32.3,32.4h-3.5v2.2h3.5c-0.5,17.6-14.7,31.8-32.3,32.3V78.1z M43.2,62.7l10.2,8.4v-5.8h12.5
			c2.8-0.1,5.1-2.4,5-5.3c0-0.9-0.3-1.7-0.7-2.4l-4.7-8.3L60.9,52l4.6,8H53.4v-5.8L43.2,62.7z M27.1,45.1l5.1,3l-5.4,9.5
			c-0.9,1.6-0.9,3.6,0,5.1c0.9,1.6,2.5,2.6,4.3,2.6H39v-5.6h-7.6l5.3-9.1l5.1,3l-2.3-13L27.1,45.1z M53.8,39.8l-5.1,3l12.5,4.5
			l2.3-13l-5.1,3L53,27.8c-0.8-1.6-2.5-2.6-4.3-2.6s-3.5,1-4.3,2.6l-5,8.1l4.6,2.6l4.5-7.7L53.8,39.8z M84.1,47.1
			c-0.6-18.8-15.7-34-34.5-34.5V2.7C73.9,3.3,93.4,22.8,94,47.1H84.1z M3,47.1C3.6,22.8,23.1,3.3,47.4,2.7v9.9
			c-18.8,0.6-34,15.7-34.5,34.5H3z"/>
	</g>
</g>
</svg>
