<svg xmlns="http://www.w3.org/2000/svg" width="175.5" height="118.6" viewBox="0 0 175.5 118.6"><g id="Layer_2" data-name="Layer 2"><g id="logos"><polygon points="61.64 0 113.76 0 124.36 21 87.71 60.94 50.99 21 61.64 0" fill="#988574"/><path d="M72,20.87h-21L61.54.18Z" fill="#988574"/><path d="M87.75,61,51.17,21.19h21Z" fill="#524640"/><path d="M124.3,20.87H102.39L113.85.18Z" fill="#988574"/><path d="M101.81,20.87H72.6L87.21.11Z" fill="#988574"/><path d="M87.7,59.82,72.6,21.19h29.26Z" fill="#726256"/><path d="M72.29,20.65,61.86,0h25Z" fill="#c6b198"/><path d="M87.65,61l14.57-39.82h22Z" fill="#524640"/><path d="M102.09,20.67,87.54,0h26Z" fill="#c6b198"/><path d="M26.55,89.66a11.36,11.36,0,0,1-2.74-1.52c-1-.73-2.16-1.61-3.38-2.62s-2.52-2-3.86-3c-.52-.38-1.06-.72-1.59-1.07.31-.3.61-.62.91-1a20.48,20.48,0,0,0,2.54-3.94l4.24-8.76c.88-1.73,1.66-3.17,2.36-4.32a23.05,23.05,0,0,1,1.86-2.72,7.27,7.27,0,0,1,1.4-1.4,1.8,1.8,0,0,1,1-.4c.4,0,.56.31.5.92a9.2,9.2,0,0,1-.7,2.36c-.4,1-.91,2-1.52,3.2s-1.26,2.31-1.92,3.4-1.33,2.09-2,3a16.23,16.23,0,0,1-1.66,2,5.78,5.78,0,0,0,3.24.12,8.65,8.65,0,0,0,3-1.4,12.89,12.89,0,0,0,2.52-2.44,15.77,15.77,0,0,0,1.88-3,12.92,12.92,0,0,0,1-3.14,6.71,6.71,0,0,0,0-2.8,3.64,3.64,0,0,0-1.34-2,4.54,4.54,0,0,0-2.82-.78,12,12,0,0,0-7,2.16,18.23,18.23,0,0,0-5.5,6.84l-4.24,8.76c-.62,1.24-1.19,2.3-1.71,3.2a14.21,14.21,0,0,0-3.13-.88,13.7,13.7,0,0,0-3.38-.18,6.49,6.49,0,0,0-2.3.6A3.84,3.84,0,0,0,.73,80,3.48,3.48,0,0,0,.07,81.4a2.69,2.69,0,0,0,.06,1.44A2.43,2.43,0,0,0,1,84a4.87,4.87,0,0,0,1.9.8A11.9,11.9,0,0,0,6,85a16.84,16.84,0,0,0,3.7-.54,11.74,11.74,0,0,0,3-1.26c.47.68,1,1.39,1.41,2.16.64,1.07,1.31,2.09,2,3.06A15.19,15.19,0,0,0,18.41,91a5.87,5.87,0,0,0,2.72,1.4,6.12,6.12,0,0,0,3.34-.34,13.31,13.31,0,0,0,4.12-2.7A2,2,0,0,1,26.55,89.66Zm-18-6.8a5.74,5.74,0,0,1-1.34,1.22,2.11,2.11,0,0,1-1,.32A1.29,1.29,0,0,1,5,83.62a2.68,2.68,0,0,1-.16-1.74,3.48,3.48,0,0,1,.94-1.74,2.64,2.64,0,0,1,2-.78,3.57,3.57,0,0,1,2.34.88l.19.17A20.55,20.55,0,0,1,8.53,82.86Zm80,5.5A45.68,45.68,0,0,0,91.67,83c1.12-2.24,2.08-4.19,2.9-5.86s1.5-3.06,2.06-4.18c.64-1.31,1.18-2.44,1.64-3.4L92,70.4c-.32.68-.67,1.42-1,2.17.11-.24.21-.48.32-.73-.22.51-.45,1-.7,1.53l-.24.5c-.27.53-.54,1.07-.84,1.61a39.18,39.18,0,0,1-2.08,3.36,21.86,21.86,0,0,1-2,2.48c-.62.64-1.11,1-1.48,1s-.39-.09-.44-.26a1.66,1.66,0,0,1,.14-.92,13.51,13.51,0,0,1,.78-1.8c.37-.76.86-1.74,1.48-2.94s1.12-2.23,1.54-3.08.76-1.55,1.06-2.08l.8-1.6L83,70.48q-.41.67-.84,1.56c-.27.51-.58,1.12-.94,1.84l-1.18,2.36c-.56,1.15-1,2.19-1.4,3.12-.36.53-.72,1-1.08,1.52a18.73,18.73,0,0,1-1.76,2,2.56,2.56,0,0,1-1.6.92c-.4,0-.54-.19-.42-.58a11.4,11.4,0,0,1,.6-1.46c.28-.59.57-1.22.88-1.9a4.54,4.54,0,0,0,.44-1.9A1.86,1.86,0,0,0,75,76.54a3.06,3.06,0,0,0-1.28-.47c.65-.21,1.3-.43,1.92-.67a12.25,12.25,0,0,0,2.14-1.1,4.06,4.06,0,0,0,1.42-1.58,2.75,2.75,0,0,0,.38-1.82,1.45,1.45,0,0,0-.88-1,4.13,4.13,0,0,0-1.82-.24,9.1,9.1,0,0,0-2.36.46c.24.24.17.77-.2,1.6a13.49,13.49,0,0,1-2.44,3.06A36,36,0,0,1,68,78.05l9.44-19.33-6.28.88-9.8,20a21.32,21.32,0,0,1-4.18,3.74,8.92,8.92,0,0,1-5,1.52c-1,0-1.53-.36-1.7-1.08a5.39,5.39,0,0,1,.2-2.72,17.68,17.68,0,0,1,1.44-3.52A33.39,33.39,0,0,1,54.19,74a20.18,20.18,0,0,1,2.16-2.72c.69-.72,1.22-1.08,1.6-1.08s.35.29.26.88a9.41,9.41,0,0,1-.68,2.12,18.42,18.42,0,0,1-1.4,2.58,13.32,13.32,0,0,1-1.86,2.3,6.54,6.54,0,0,0,3.5.08,6.67,6.67,0,0,0,2.66-1.38,5.91,5.91,0,0,0,1.6-2.2,4.27,4.27,0,0,0,.32-2.36,3.05,3.05,0,0,0-1.22-1.88,4.93,4.93,0,0,0-3-.78,11.92,11.92,0,0,0-5.36,1.18,14,14,0,0,0-4.08,3,12.7,12.7,0,0,0-2.52,3.86,8.78,8.78,0,0,0-.62,2.3c-.22.33-.44.66-.66,1a16.53,16.53,0,0,1-1.72,2,2.56,2.56,0,0,1-1.6.92c-.24,0-.39-.09-.44-.28a1.84,1.84,0,0,1,.16-1c.16-.47.42-1.09.78-1.88s.84-1.78,1.46-3,1.15-2.29,1.62-3.28.88-1.84,1.26-2.56.77-1.61,1.12-2.28l-6.32.88c-.35.72-.72,1.48-1.12,2.28s-.73,1.46-1.14,2.3c-.22.44-.43.88-.64,1.32-.63,1.11-1.27,2.17-1.92,3.14a30.19,30.19,0,0,1-2.22,2.94c-.7.79-1.23,1.18-1.6,1.18s-.39-.09-.44-.26a1.66,1.66,0,0,1,.14-.92,13.51,13.51,0,0,1,.78-1.8c.37-.76.86-1.74,1.48-2.94l1.66-3.28c.49-1,.92-1.84,1.3-2.56s.81-1.61,1.16-2.28l-6.32.88q-.6,1.08-1.2,2.28c-.38.69-.77,1.46-1.18,2.3L28.67,77.6c-.59,1.23-1.08,2.33-1.48,3.3a6.34,6.34,0,0,0-.58,2.5,1.89,1.89,0,0,0,.8,1.6,4.74,4.74,0,0,0,2.66.56A5.14,5.14,0,0,0,33,84.64a10.29,10.29,0,0,0,2.56-2.7c.17-.25.34-.52.51-.8a8.6,8.6,0,0,0-.45,1.74,2.43,2.43,0,0,0,.44,1.92,3.07,3.07,0,0,0,2.48.76,5.74,5.74,0,0,0,1.9-.32,7,7,0,0,0,1.68-.86,9.23,9.23,0,0,0,1.42-1.22,15.1,15.1,0,0,0,1.16-1.4q.39-.54.75-1.14a6.13,6.13,0,0,0,0,.86,4.46,4.46,0,0,0,1.5,3,5.69,5.69,0,0,0,3.92,1.18,10.3,10.3,0,0,0,3.26-.52,13.16,13.16,0,0,0,3-1.4,15,15,0,0,0,2.52-2,14.76,14.76,0,0,0,1.55-1.85L58.39,85.6h5.88l1.36-2.79.12-.17a10.91,10.91,0,0,1,.5-1.09l0-.07a9.74,9.74,0,0,1,.59-1A9.86,9.86,0,0,1,68.13,79a2.17,2.17,0,0,1,1.54-.68c.34,0,.48.18.4.54a7.16,7.16,0,0,1-.48,1.34c-.24.53-.5,1.11-.76,1.74a4.07,4.07,0,0,0-.38,1.74A1.74,1.74,0,0,0,69.09,85a3.5,3.5,0,0,0,2.26.54,5.74,5.74,0,0,0,1.9-.32,7,7,0,0,0,1.68-.86,9.23,9.23,0,0,0,1.42-1.22,15.1,15.1,0,0,0,1.16-1.4c.24-.34.46-.69.69-1.06A4.85,4.85,0,0,0,78,82a1.89,1.89,0,0,0,.8,1.6,4.74,4.74,0,0,0,2.66.56,5.48,5.48,0,0,0,2.82-.72,8.14,8.14,0,0,0,2.32-2.22l.34-.5-1.2,2.52Q84.43,86,83.29,87.84a32.28,32.28,0,0,1-2,3,8.63,8.63,0,0,1-1.6,1.64,2.23,2.23,0,0,1-1.1.5c-.24,0-.39-.15-.44-.46a3,3,0,0,1,.08-1.2,9.38,9.38,0,0,1,.52-1.62A11.17,11.17,0,0,1,79.59,88a9.85,9.85,0,0,1,1.16-1.54,4,4,0,0,1,1.36-1A8.44,8.44,0,0,0,78,84.78a5.43,5.43,0,0,0-2.82,1.16,4.44,4.44,0,0,0-1.44,2.22,4.17,4.17,0,0,0,0,2.52,4,4,0,0,0,1.54,2.06,5.13,5.13,0,0,0,3.12.86,16.42,16.42,0,0,0,3.88-.42,9,9,0,0,0,3.26-1.58A14.43,14.43,0,0,0,88.53,88.36Zm19.36-6a7.28,7.28,0,0,0,6.38,3.32,8.71,8.71,0,0,0,3.46-.66,7.45,7.45,0,0,0,2.62-1.86A8.15,8.15,0,0,0,122,80.32a11.69,11.69,0,0,0,.56-3.68,24.32,24.32,0,0,0-.12-2.56c-.08-.75-.17-1.46-.26-2.14s-.18-1.37-.26-2.06a20.37,20.37,0,0,1-.12-2.32,21,21,0,0,1,.36-4.28,10,10,0,0,1,.88-2.64,3.41,3.41,0,0,1,1.08-1.32A1.84,1.84,0,0,1,125,59a.93.93,0,0,1,.92.76,4.83,4.83,0,0,1,.12,1.92,15.3,15.3,0,0,1-.52,2.54,24.7,24.7,0,0,1-.92,2.6,14.54,14.54,0,0,1-1.1,2.1,2.68,2.68,0,0,1-1.1,1.08,5.29,5.29,0,0,0,3.68.24,6.1,6.1,0,0,0,2.74-1.86,7.32,7.32,0,0,0,1.52-3,6.75,6.75,0,0,0,0-3.28,4.93,4.93,0,0,0-1.74-2.64,5.82,5.82,0,0,0-3.74-1.08,10.27,10.27,0,0,0-3.56.58,7.47,7.47,0,0,0-2.74,1.7,7.64,7.64,0,0,0-1.78,2.82,10.92,10.92,0,0,0-.64,3.9,34,34,0,0,0,.32,5.12,26.18,26.18,0,0,1,0,7.92,12.67,12.67,0,0,1-.7,2.64,4.14,4.14,0,0,1-.88,1.42,1.35,1.35,0,0,1-.86.42,2.29,2.29,0,0,1-2-1.52,8.81,8.81,0,0,1-.82-3.92,17.54,17.54,0,0,1,.84-5.34,18.52,18.52,0,0,1,3-5.82,6.16,6.16,0,0,0-3.58-.46,5.58,5.58,0,0,0-2.72,1.42,7.78,7.78,0,0,0-1.82,2.72,10.94,10.94,0,0,0-.82,3.48,12.36,12.36,0,0,0,.26,3.68A9.42,9.42,0,0,0,107.89,82.4Zm50.48-11.62a4.71,4.71,0,0,0-3.54-1.18,12.2,12.2,0,0,0-5.48,1.18,13.51,13.51,0,0,0-4,3,11.91,11.91,0,0,0-2.44,3.86,9.47,9.47,0,0,0-.58,2.3c-.23.33-.47.67-.7,1a18.73,18.73,0,0,1-1.76,2,2.56,2.56,0,0,1-1.6.92c-.48,0-.52-.46-.1-1.38s1.23-2.5,2.46-4.74q2.31-4.16,1.8-6.14c-.35-1.32-1.44-2-3.28-2a5,5,0,0,0-2.46.6,7.84,7.84,0,0,0-2,1.56,9.25,9.25,0,0,0-.63.75l6.73-13.79-6.28.88-12.72,26,6.32-.88L130.85,79c.36-.64.71-1.26,1.06-1.85s.81-1.32,1.24-2,.84-1.21,1.24-1.72a7.65,7.65,0,0,1,1.16-1.22,1.62,1.62,0,0,1,1-.46.43.43,0,0,1,.5.44,3.55,3.55,0,0,1-.26,1.2,19.21,19.21,0,0,1-.82,1.84c-.36.72-.76,1.49-1.18,2.32-.3.56-.6,1.15-.9,1.76s-.58,1.21-.82,1.8a8.1,8.1,0,0,0-.5,1.68,2.7,2.7,0,0,0,.06,1.4,1.7,1.7,0,0,0,.84,1,3.89,3.89,0,0,0,1.88.36,5.74,5.74,0,0,0,1.9-.32,7,7,0,0,0,1.68-.86,9.23,9.23,0,0,0,1.42-1.22,15.1,15.1,0,0,0,1.16-1.4c.25-.36.49-.73.72-1.12a7.38,7.38,0,0,0,0,.82,4.64,4.64,0,0,0,1.44,3,5.06,5.06,0,0,0,3.64,1.18,10.4,10.4,0,0,0,4.9-1.18,14.36,14.36,0,0,0,3.9-3,13.8,13.8,0,0,0,2.54-3.86,9.35,9.35,0,0,0,.86-3.86A4.25,4.25,0,0,0,158.37,70.78Zm-3.88,3.32a30.32,30.32,0,0,1-1.44,3.5c-.6,1.25-1.23,2.42-1.88,3.5a19,19,0,0,1-1.94,2.7c-.64.72-1.19,1.08-1.64,1.08s-.6-.36-.58-1.08a10.7,10.7,0,0,1,.48-2.7,26.21,26.21,0,0,1,1.28-3.5,28,28,0,0,1,1.8-3.5,14.82,14.82,0,0,1,2-2.7,2.9,2.9,0,0,1,2-1.08c.4,0,.57.36.52,1.08A12,12,0,0,1,154.49,74.1Zm17.66-6.78c1.06-2.19,2.18-4.45,3.35-6.8l-7.23,2.76c-.84,1.65-1.62,3.23-2.38,4.76h-2L163,69.6h2.1c-.33.66-.66,1.31-1,2s-.79,1.59-1.17,2.34-.71,1.44-1,2.08-.57,1.17-.75,1.6q-.65,1.28-1.29,2.7a9.58,9.58,0,0,0-.79,2.58,2.46,2.46,0,0,0,.43,1.92,3.09,3.09,0,0,0,2.49.76,5.68,5.68,0,0,0,1.89-.32,7.08,7.08,0,0,0,1.69-.86A9.73,9.73,0,0,0,167,83.16a15.1,15.1,0,0,0,1.16-1.4,17.61,17.61,0,0,0,2.11-3.84c-.66,1.09-1.32,2.08-2,3a15,15,0,0,1-1.72,2,2.52,2.52,0,0,1-1.59.92.4.4,0,0,1-.45-.28,2,2,0,0,1,.16-1,19.54,19.54,0,0,1,.79-1.88c.35-.79.84-1.78,1.45-3,.3-.59.64-1.29,1.05-2.1s.83-1.68,1.29-2.6,1-1.87,1.42-2.84l.29-.58h2.31l.85-1.56h-2.4C171.91,67.8,172,67.55,172.15,67.32ZM77.59,103.48a30.76,30.76,0,0,1,1.64,5.24,18.63,18.63,0,0,1,.4,3.82,7.38,7.38,0,0,1-.48,2.62,5.56,5.56,0,0,1-1,1.62,3.54,3.54,0,0,1-1.14.82,2.63,2.63,0,0,1-.94.24.65.65,0,0,1-.7-.54,3,3,0,0,1,0-1.36,9.08,9.08,0,0,1,.54-1.78,13.6,13.6,0,0,1,.86-1.8,8.21,8.21,0,0,1,1-1.42,1.81,1.81,0,0,1,.92-.66,5.57,5.57,0,0,0-3.28-.32,5.18,5.18,0,0,0-2.19,1.12.77.77,0,0,1,.07-.16l-.14.21a1.31,1.31,0,0,0-.12.11,5,5,0,0,0-1.25,2l-.45.65a16.53,16.53,0,0,1-1.72,2,2.56,2.56,0,0,1-1.6.92c-.24,0-.39-.09-.44-.28a1.84,1.84,0,0,1,.16-1c.16-.47.42-1.09.78-1.88s.84-1.78,1.46-3,1.15-2.29,1.62-3.28.88-1.84,1.26-2.56.77-1.61,1.12-2.28l-6,.83a4.61,4.61,0,0,0-.43-.29,4.76,4.76,0,0,0-2.36-.54,9.34,9.34,0,0,0-4.64,1.18,13,13,0,0,0-3.64,3,14.34,14.34,0,0,0-2.38,3.84,12.43,12.43,0,0,0-.75,2.46,24.34,24.34,0,0,1-2.63,2.2,15.18,15.18,0,0,1-3.26,1.82,8.21,8.21,0,0,1-2.94.62,2.09,2.09,0,0,1-2-1.08,5.6,5.6,0,0,1-.52-2.86,17.21,17.21,0,0,1,.7-4.06,41.91,41.91,0,0,1,1.6-4.64q1-2.36,2.16-4.64a36.58,36.58,0,0,1,2.46-4.06,17.59,17.59,0,0,1,2.44-2.86,3.32,3.32,0,0,1,2.1-1.08c.32,0,.5.25.56.74a6.25,6.25,0,0,1-.18,1.9,19.43,19.43,0,0,1-.84,2.62,27.88,27.88,0,0,1-1.4,2.94,22.17,22.17,0,0,1-1.84,2.8,13.94,13.94,0,0,1-2.14,2.24,7.73,7.73,0,0,0,4.58-.32,9.45,9.45,0,0,0,3.48-2.42,10.88,10.88,0,0,0,2.14-3.56,8.66,8.66,0,0,0,.56-3.72,4.92,4.92,0,0,0-1.26-2.94,4.21,4.21,0,0,0-3.26-1.2,11.23,11.23,0,0,0-5,1.16,17.41,17.41,0,0,0-4.4,3.06,23.09,23.09,0,0,0-3.6,4.34,24.81,24.81,0,0,0-2.52,5,20.26,20.26,0,0,0-1.2,5,10.16,10.16,0,0,0,.36,4.34,5.93,5.93,0,0,0,2.2,3.06,7.13,7.13,0,0,0,4.3,1.16,9.39,9.39,0,0,0,2.94-.54,14,14,0,0,0,3.38-1.74,20.67,20.67,0,0,0,2.93-2.49c0,.21,0,.42,0,.63a4.59,4.59,0,0,0,.84,3,3.29,3.29,0,0,0,2.84,1.18,4.45,4.45,0,0,0,2.36-.66,8.16,8.16,0,0,0,2-1.72c.17-.2.32-.42.48-.63,0,.11-.05.22-.06.33a2.43,2.43,0,0,0,.44,1.92,3.07,3.07,0,0,0,2.48.76,5.74,5.74,0,0,0,1.9-.32,7,7,0,0,0,1.68-.86A9.23,9.23,0,0,0,70,116.16a15.1,15.1,0,0,0,1.16-1.4c.13-.17.25-.36.37-.54a4.19,4.19,0,0,0,.07,1.62,3.49,3.49,0,0,0,1.26,2,4.3,4.3,0,0,0,2.78.8,10.81,10.81,0,0,0,4.84-1.06,7.6,7.6,0,0,0,3.32-3.1,9.45,9.45,0,0,0,1.06-5A17.89,17.89,0,0,0,83,102.6Zm-11,2.28c-.35.69-.73,1.46-1.14,2.3-.26.52-.51,1-.76,1.58-.43.82-.85,1.6-1.26,2.32s-.7,1.21-1.06,1.78-.71,1.08-1,1.52a9.07,9.07,0,0,1-1,1.08,1.31,1.31,0,0,1-.82.42q-.81,0-.84-1a7,7,0,0,1,.42-2.4,18.88,18.88,0,0,1,1.34-3.12,22.25,22.25,0,0,1,2-3.12,13.72,13.72,0,0,1,2.24-2.4,3.51,3.51,0,0,1,2.2-1,1.47,1.47,0,0,1,.61.14Zm29.3-10.52a9.46,9.46,0,0,0-1.1,1.7c-.38.71-.83,1.58-1.36,2.62l3.1-.54c.84-.15,1.54-.3,2.12-.46a6.07,6.07,0,0,0,1.44-.58,4,4,0,0,0,1.06-1,11.25,11.25,0,0,0,1-1.56c.33-.63.74-1.42,1.22-2.38-1.12.13-2.08.23-2.86.3a14.85,14.85,0,0,0-2,.3,5,5,0,0,0-1.44.56A4.55,4.55,0,0,0,95.85,95.24Zm30.65,7.36a12.15,12.15,0,0,0-5.47,1.18,13.55,13.55,0,0,0-4,3,12.26,12.26,0,0,0-2.44,3.86,9.43,9.43,0,0,0-.57,2.3c-.24.33-.47.67-.7,1a18.79,18.79,0,0,1-1.77,2,2.51,2.51,0,0,1-1.6.92c-.48,0-.51-.46-.1-1.38s1.24-2.5,2.47-4.74q2.31-4.16,1.8-6.14t-3.33-2a5,5,0,0,0-2.44.6,8.11,8.11,0,0,0-2,1.56,11.42,11.42,0,0,0-.87,1.06L107,102.6l-6.33.88-3.65,7.46c-.66,1.09-1.31,2.07-1.94,2.94a16.53,16.53,0,0,1-1.72,2,2.56,2.56,0,0,1-1.6.92c-.24,0-.39-.09-.44-.28a1.84,1.84,0,0,1,.16-1c.16-.47.42-1.09.78-1.88s.84-1.78,1.46-3l1.66-3.28,1.26-2.56,1.08-2.28-6.32.88c-.38.72-.75,1.48-1.12,2.28s-.72,1.46-1.12,2.3-.82,1.69-1.24,2.54-.86,1.75-1.28,2.7a8.86,8.86,0,0,0-.78,2.58,2.47,2.47,0,0,0,.46,1.92,3.07,3.07,0,0,0,2.48.76,5.74,5.74,0,0,0,1.9-.32,7,7,0,0,0,1.68-.86,9.23,9.23,0,0,0,1.42-1.22,15.1,15.1,0,0,0,1.16-1.4c.3-.42.58-.88.85-1.35L93.3,118.6h5.89l2.49-5.09c.63-1.2,1.25-2.32,1.86-3.35.4-.67.82-1.32,1.24-2s.85-1.21,1.26-1.72a8.69,8.69,0,0,1,1.19-1.22,1.62,1.62,0,0,1,1-.46.44.44,0,0,1,.5.44,3.38,3.38,0,0,1-.27,1.2,18.81,18.81,0,0,1-.81,1.84l-1.19,2.32c-.29.56-.59,1.15-.89,1.76s-.59,1.21-.83,1.8a8.76,8.76,0,0,0-.5,1.68,2.93,2.93,0,0,0,.06,1.4,1.75,1.75,0,0,0,.85,1,3.89,3.89,0,0,0,1.88.36,5.68,5.68,0,0,0,1.89-.32,7.08,7.08,0,0,0,1.69-.86,9.73,9.73,0,0,0,1.42-1.22,15.1,15.1,0,0,0,1.16-1.4c.25-.36.49-.73.72-1.12a7.4,7.4,0,0,0,0,.82,4.7,4.7,0,0,0,1.45,3A5,5,0,0,0,119,118.6a10.36,10.36,0,0,0,4.89-1.18,14.06,14.06,0,0,0,3.9-3,13.37,13.37,0,0,0,2.54-3.86,9.37,9.37,0,0,0,.87-3.86,4.21,4.21,0,0,0-1.19-3A4.7,4.7,0,0,0,126.5,102.6Zm-.34,4.5a30.14,30.14,0,0,1-1.43,3.5c-.61,1.25-1.23,2.42-1.88,3.5a19,19,0,0,1-1.95,2.7c-.63.72-1.18,1.08-1.63,1.08s-.6-.36-.58-1.08a11.08,11.08,0,0,1,.47-2.7,29.33,29.33,0,0,1,1.28-3.5,31,31,0,0,1,1.8-3.5,15.31,15.31,0,0,1,2-2.7,2.88,2.88,0,0,1,2-1.08c.39,0,.57.36.51,1.08A11,11,0,0,1,126.16,107.1Z" fill="#726256"/></g></g></svg>