<svg xmlns="http://www.w3.org/2000/svg" width="212.17" height="116.77" viewBox="0 0 212.17 116.77"><g id="Layer_2" data-name="Layer 2"><g id="logos"><path d="M.24,72.37H9.39l3.93,9.18,4.1-9.18h9.12V95.63H19.15V84.34l-5.83,11.2L7.63,84.34V95.63H.24Z" fill="#695278"/><path d="M34.86,95.63c-3.65,0-5-1.21-5-4.77V77.2c0-3.81,1.47-4.83,5.18-4.83H45.13l1.31,6.21H38.38c-.86,0-1.12.29-1.12,1.12v8.44c0,1.09.16,1.28,1.41,1.28h8.12l-1.56,6.21Z" fill="#695278"/><path d="M58.16,95.63l-1.28-6.21h9.75c.33,0,.45-.09.45-.48v-1.6c0-.35-.12-.54-.51-.54H61.39c-3.81,0-4.83-1-4.83-4.74V77.39c0-3.81,1.31-5,5.08-5H73.23l1.28,6.21H64.17c-.32,0-.41.09-.41.48v1.79c0,.35.09.51.48.51h5.63c3.74,0,4.86,1,4.86,4.77v4.61c0,3.74-1.34,4.89-5.09,4.89Z" fill="#695278"/><path d="M78,72.37h9.15l3.93,9.18,4.1-9.18h9.12V95.63H96.91V84.34l-5.83,11.2-5.69-11.2V95.63H78Z" fill="#695278"/><path d="M107.63,91.63V76.4a3.84,3.84,0,0,1,4-4h11.9a3.85,3.85,0,0,1,4,4V91.63a4.06,4.06,0,0,1-4.32,4H111.63A3.79,3.79,0,0,1,107.63,91.63Zm11.52-2.21c.86,0,1.08-.25,1.08-1.12V79.67c0-.9-.25-1.13-1.11-1.13H116c-.89,0-1.09.23-1.09,1.09V88.3c0,.9.2,1.12,1.09,1.12Z" fill="#695278"/><path d="M130.89,91.63V76.4a3.84,3.84,0,0,1,4-4h11.9a3.85,3.85,0,0,1,4,4V91.63a4.06,4.06,0,0,1-4.32,4H134.89A3.79,3.79,0,0,1,130.89,91.63Zm11.52-2.21c.86,0,1.09-.25,1.09-1.12V79.67c0-.9-.26-1.13-1.12-1.13h-3.11c-.89,0-1.08.23-1.08,1.09V88.3c0,.9.19,1.12,1.08,1.12Z" fill="#695278"/><path d="M162.63,78.58c-.86,0-1.12.22-1.12,1.12v8.89c0,.9.26,1.12,1.12,1.12h3.88V86.58H165V81.84h8.42V95.31l-6.94,1.57V95.63h-7.4c-3.8,0-5-1.12-5-4.73V77.36c0-3.71,1.15-5,5-5h11.62L172,78.58Z" fill="#695278"/><path d="M176.71,95.63V72.37h7.49v17h8.42l-1.57,6.21Z" fill="#695278"/><path d="M202.38,78.58v2.81h8.29v5.47h-8.29v2.56h9.79l-1.54,6.21H195.15V72.37h15.68l1.28,6.21Z" fill="#695278"/><path d="M25.8,106.59a4.23,4.23,0,0,0-3,1.07,3.66,3.66,0,0,0-1.12,2.74A3.57,3.57,0,0,0,23,113.29a4.32,4.32,0,0,0,2.83.89,4.21,4.21,0,0,0,3.07-1.08A3.62,3.62,0,0,0,30,110.36a3.7,3.7,0,0,0-.89-2.51A4.19,4.19,0,0,0,25.8,106.59Zm1,5.25a1.29,1.29,0,0,1-2,0,2.2,2.2,0,0,1-.39-1.43,2.14,2.14,0,0,1,.4-1.43,1.28,1.28,0,0,1,2,0,2.16,2.16,0,0,1,.39,1.41A2.27,2.27,0,0,1,26.81,111.84ZM5.19,112a1.46,1.46,0,0,1-.92.28,1.42,1.42,0,0,1-1.08-.46,2,2,0,0,1-.42-1.36A2.22,2.22,0,0,1,3.2,109a1.39,1.39,0,0,1,1.11-.5,1.46,1.46,0,0,1,.88.24,1.23,1.23,0,0,1,.44.7l2.62-.35a3.4,3.4,0,0,0-1.31-1.86,4.82,4.82,0,0,0-2.71-.63,5.56,5.56,0,0,0-2.08.33,3.36,3.36,0,0,0-1,.65,3.44,3.44,0,0,0-.77,1A4.1,4.1,0,0,0,0,110.41a4,4,0,0,0,.31,1.72,3.43,3.43,0,0,0,.87,1.13,3.33,3.33,0,0,0,1.33.7,7.35,7.35,0,0,0,1.92.22,5,5,0,0,0,2-.34,3.39,3.39,0,0,0,1.28-.94,3.63,3.63,0,0,0,.71-1.43l-2.64-.3A1.64,1.64,0,0,1,5.19,112Zm83.05-5.44a4.23,4.23,0,0,0-3,1.07,3.63,3.63,0,0,0-1.12,2.74,3.57,3.57,0,0,0,1.33,2.89,4.3,4.3,0,0,0,2.83.89,4.23,4.23,0,0,0,3.07-1.08,3.62,3.62,0,0,0,1.11-2.74,3.66,3.66,0,0,0-.9-2.51A4.16,4.16,0,0,0,88.24,106.59Zm1,5.25a1.26,1.26,0,0,1-1,.46,1.24,1.24,0,0,1-1-.47,2.82,2.82,0,0,1,0-2.86,1.28,1.28,0,0,1,1-.47,1.23,1.23,0,0,1,1,.46,2.16,2.16,0,0,1,.39,1.41A2.33,2.33,0,0,1,89.25,111.84Zm-42.19-5a2.79,2.79,0,0,0-.78,1.06v-1.19h-2.6V114h2.79v-2.43a4.66,4.66,0,0,1,.43-2.38,1,1,0,0,1,.85-.45,2.33,2.33,0,0,1,.78.2l.86-2a3,3,0,0,0-1.34-.38A1.59,1.59,0,0,0,47.06,106.88Zm20.67-.29a2.8,2.8,0,0,0-1.35.32,3.46,3.46,0,0,0-1,.91v-1.07h-2.6v10H65.6v-3.46a2.88,2.88,0,0,0,.94.65,3.2,3.2,0,0,0,1.17.22,2.84,2.84,0,0,0,2.2-1,4,4,0,0,0,.87-2.76,4.62,4.62,0,0,0-.8-2.76A2.6,2.6,0,0,0,67.73,106.59Zm-.06,5.11a1,1,0,0,1-.82.4,1.14,1.14,0,0,1-.91-.42,1.92,1.92,0,0,1-.36-1.28,2.06,2.06,0,0,1,.35-1.35,1.12,1.12,0,0,1,.89-.42,1,1,0,0,1,.83.41,2,2,0,0,1,.35,1.3A2.17,2.17,0,0,1,67.67,111.7Zm97.25-5.82h2.78V104h-2.78Zm20.68.71a4.19,4.19,0,0,0-3,1.07,3.84,3.84,0,0,0,.2,5.63,4.32,4.32,0,0,0,2.83.89,4.21,4.21,0,0,0,3.07-1.08,4,4,0,0,0,.22-5.25A4.17,4.17,0,0,0,185.6,106.59Zm1,5.25a1.28,1.28,0,0,1-2,0,2.14,2.14,0,0,1-.4-1.43,2.2,2.2,0,0,1,.4-1.43,1.26,1.26,0,0,1,1-.47,1.24,1.24,0,0,1,1,.46,2.16,2.16,0,0,1,.39,1.41A2.27,2.27,0,0,1,186.61,111.84ZM164.92,114h2.78v-7.26h-2.78Zm45.56-6.74a2.41,2.41,0,0,0-1.81-.68,3.08,3.08,0,0,0-1.45.31,3.91,3.91,0,0,0-1.18,1v-1.18h-2.59V114h2.79v-3.49a2.23,2.23,0,0,1,.31-1.37,1,1,0,0,1,.82-.38.89.89,0,0,1,.71.28,1.45,1.45,0,0,1,.25,1v4h2.8V109.4A3,3,0,0,0,210.48,107.27Zm-101-.39a2.79,2.79,0,0,0-.78,1.06v-1.19h-2.6V114h2.79v-2.43a4.56,4.56,0,0,1,.43-2.38,1,1,0,0,1,.85-.45,2.33,2.33,0,0,1,.78.2l.86-2a3,3,0,0,0-1.35-.38A1.56,1.56,0,0,0,109.5,106.88Zm40.7,5.33a.5.5,0,0,1-.47-.24,1.34,1.34,0,0,1-.09-.61v-2.57h1.53v-2h-1.53V104l-2.79,1.43v1.33h-1v2h1v2.55a5,5,0,0,0,.23,1.76,1.65,1.65,0,0,0,.73.81,3.32,3.32,0,0,0,1.53.27,9.12,9.12,0,0,0,1.93-.23l-.2-1.92A3,3,0,0,1,150.2,112.21Zm-17.67.26v-3.21a3.35,3.35,0,0,0-.2-1.08,2.22,2.22,0,0,0-.56-.87,2.62,2.62,0,0,0-1.27-.58,10.82,10.82,0,0,0-2-.14,9.39,9.39,0,0,0-1.45.11A3.51,3.51,0,0,0,126,107a2.39,2.39,0,0,0-.82.7,2.92,2.92,0,0,0-.43,1.09l2.66.28a1.18,1.18,0,0,1,.43-.64,1.89,1.89,0,0,1,1-.22,1.05,1.05,0,0,1,.75.21,1,1,0,0,1,.21.71c-.35.14-.67.25-1,.34s-1,.23-2,.44a3.29,3.29,0,0,0-1.8.79,2,2,0,0,0-.48,1.36,1.89,1.89,0,0,0,.67,1.48,2.85,2.85,0,0,0,2,.61,4.5,4.5,0,0,0,1.71-.31,3.68,3.68,0,0,0,1.09-.75,3.07,3.07,0,0,0,.09.46,3.17,3.17,0,0,0,.21.43h2.61a3.22,3.22,0,0,1-.28-.74A3.37,3.37,0,0,1,132.53,112.47ZM129.81,111a1.81,1.81,0,0,1-.17.84,1.35,1.35,0,0,1-.56.55,1.67,1.67,0,0,1-.87.23,1,1,0,0,1-.67-.21.67.67,0,0,1-.23-.53.71.71,0,0,1,.23-.52,2.89,2.89,0,0,1,1.07-.44q.63-.17,1.2-.36Zm15.9-57.82c-.42-3.17-2.08-8.83-2.75-13.42s1.92-11.25,2.5-11.33.67,4.25,1.67,5.75-.25,4.08-.25,4.08c2.25-.33,3.58-3.66,1.75-7.33s-1-5.17-4.59-10.67-12.66-7.83-18.16-8.75-6.42-2.75-9.42-5.33-10.67-.67-10.67-.67c-2.16-7.33-8.5-5.25-8.5-5.25-7.41-.16-6.41,5.92-6.41,5.92,0,1.52-4.84,6.5-6.17,9.92a18.36,18.36,0,0,0-1.17,6.75c-1.75,3.91-7,6-7,6-6.58-3.17-5.33-10.34-4.33-11.5S72.13,16,72.13,16c-5.59,5.59.91,13.5.91,13.5s-5.33,1.42-8.16-2.91,1.25-10,2.83-11.09-.33-1.41-.33-1.41c-1.59,1-7.42,6.25-4.09,13.75S77,32.27,77,32.27c1.09,1.5,5,3.17,5,3.17-3.58,6.58-7.16,2.25-7.91,2s-2.17,2.08-1.92,3,3.17,2.42,8.75,2.17S93,27.27,93.71,25.86s2-.75,2,1.33.17,3.17,1.42,3.67.66,2.58,1.83,4.58,3.58,2.25,3.58,3.92-1.91,5.75-3.33,8.75-1.5,4.58-.92,6.5,0,3.58-1.75,5.58,1.17,2.83,4,3.05,5.42-.8,4.75-3.05.34-4.08,1.09-6.75a10.26,10.26,0,0,1,3.16-4.58c.5,6-1,4.83-1.83,6.91s1.42,2.5,4.42,2.84,3.66-1.25,3.91-3,2.09-2.25,1.75-6.34.59-5.5.59-5.5c5.5,3.17,9.83,1.34,9.83,1.34,1.58.58,1.5,4.25,1,6.33a11.18,11.18,0,0,0,.25,5.33c.33,1.5-2.25,2.42-2.33,4.34s2.66,2.41,6.25,2,2.66-1.25,3-4.83,1.41-5.34,2.08-5.09a8.55,8.55,0,0,1-.67,3.08c-.58,1,.34,1.92,4.34,2S146.13,56.36,145.71,53.19Z" fill="#9f9a9e"/></g></g></svg>