<svg xmlns="http://www.w3.org/2000/svg" xmlns:xlink="http://www.w3.org/1999/xlink" width="256.96" height="41.33" viewBox="0 0 256.96 41.33"><defs><linearGradient id="linear-gradient" x1="165.01" y1="3" x2="165.01" y2="41.33" gradientUnits="userSpaceOnUse"><stop offset="0" stop-color="#f6933e"/><stop offset="1" stop-color="#f05538"/></linearGradient><linearGradient id="linear-gradient-2" x1="191.13" x2="191.13" y2="29.17" gradientUnits="userSpaceOnUse"><stop offset="0" stop-color="#16b4f0"/><stop offset="1" stop-color="#55caf4"/></linearGradient><linearGradient id="linear-gradient-3" x1="175.29" y1="16.6" x2="175.29" y2="10.67" xlink:href="#linear-gradient"/><linearGradient id="linear-gradient-4" x1="165.01" y1="41.33" x2="165.01" y2="12.4" xlink:href="#linear-gradient"/></defs><g id="Layer_2" data-name="Layer 2"><g id="logos"><path d="M168,14.89c7.89,5.55,14.66-4.22,14.66-4.22C168,12,162.18,3,152.74,3s-18,10.33-18,10.33c10.11,0,18.55,28,37.44,28,13,0,23.11-12.66,23.11-12.66C180.07,32.33,168,14.89,168,14.89Zm-18.34.22a3,3,0,1,1,3-3A3,3,0,0,1,149.62,15.11Z" fill="url(#linear-gradient)"/><path d="M196.4,0c-10.22,0-10.55,7.78-29.66,3.33a19.33,19.33,0,0,0,5.41,6.46,29.09,29.09,0,0,0,10.47.88s-3.75,5.41-8.92,5.89l-3,1.7c4.41,4.86,13.65,13,24.49,10.43,2.62-3,15.82-17.92,20.31-17C215.51,11.67,206.63,0,196.4,0Zm3.22,14.11a3,3,0,1,1,3-3A3,3,0,0,1,199.62,14.11Z" fill="url(#linear-gradient-2)"/><path d="M168,13.89s.51.73,1.44,1.85c7.26,3.54,13.22-5.07,13.22-5.07l-.84.06C179.73,13.09,174.19,18.28,168,13.89Z" fill="url(#linear-gradient-3)"/><path d="M172.18,40.33c-18.37,0-26.86-26.47-36.61-27.93-.54.58-.83.93-.83.93,10.11,0,18.55,28,37.44,28,13,0,23.11-12.66,23.11-12.66-.35.08-.7.14-1.06.21C191.32,32,182.7,40.33,172.18,40.33Z" fill="url(#linear-gradient-4)"/><path d="M196.4,0c-10.22,0-10.55,7.78-29.66,3.33,0,0,8.33,4.09,17.41,1.67s17.23-6.17,31.36,6.67C215.51,11.67,206.63,0,196.4,0Z" fill="#55caf4"/><path d="M193,29.06c-9.3.47-21-11.5-21-11.5l-1.23.7C174.81,22.78,183.11,30.12,193,29.06Z" fill="#0baeea"/><path d="M60.48,25a34.21,34.21,0,0,0-3.9-2.34c-1.41-.75-2.12-1.27-2.12-1.57s.21-.49.63-.7A3,3,0,0,1,56.51,20a19.38,19.38,0,0,1,5,.83V18.55A26,26,0,0,0,56.8,18a8.08,8.08,0,0,0-5.15,1.41,4.21,4.21,0,0,0-1.6,3.49c0,1,.71,2.06,2.14,3.07a38.43,38.43,0,0,0,3.9,2.17c1.43.73,2.15,1.28,2.15,1.67,0,.66-.91,1-2.72,1a24.71,24.71,0,0,1-5-.69A4.41,4.41,0,0,0,51,28c0-1-.72-2-2.15-3.07a34.21,34.21,0,0,0-3.9-2.34c-1.41-.75-2.11-1.27-2.11-1.57s.2-.49.62-.7A3,3,0,0,1,44.86,20a19.32,19.32,0,0,1,5,.83V18.55A25.76,25.76,0,0,0,45.15,18,8.08,8.08,0,0,0,40,19.39a4.21,4.21,0,0,0-1.6,3.49c0,1,.71,2.06,2.14,3.07a37.83,37.83,0,0,0,3.91,2.17c1.43.73,2.14,1.28,2.14,1.67,0,.66-.91,1-2.72,1A26.56,26.56,0,0,1,38.46,30v2.37a29.05,29.05,0,0,0,5.28.61,9.83,9.83,0,0,0,5.06-1.12,4.54,4.54,0,0,0,1.31-1.13v1.64a29.05,29.05,0,0,0,5.28.61,9.86,9.86,0,0,0,5.06-1.12A4.18,4.18,0,0,0,62.62,28C62.62,27,61.91,26,60.48,25Zm-24-5.41a5.46,5.46,0,0,0-4.22-1.83,7.27,7.27,0,0,0-5.41,2,7.68,7.68,0,0,0-2.11,5.79,7.16,7.16,0,0,0,2.11,5.54A7.5,7.5,0,0,0,32.26,33a7.7,7.7,0,0,0,5.47-1.86l0-2.75a5.56,5.56,0,0,1-4,2.08,3.53,3.53,0,0,1-3-1.57,5.94,5.94,0,0,1-1.09-3.33l8.58-1.82A7,7,0,0,0,36.48,19.55Zm-6.82,4.32c.15-3.1,1-4.64,2.6-4.64,1.42,0,2.26,1.18,2.49,3.55Zm66.18-6.4a2.67,2.67,0,0,0,1.93-.79,2.51,2.51,0,0,0,.82-1.9,2.47,2.47,0,0,0-.82-1.89,2.73,2.73,0,0,0-1.93-.77,2.53,2.53,0,0,0-1.88.77,2.59,2.59,0,0,0-.75,1.89,2.63,2.63,0,0,0,.75,1.9A2.48,2.48,0,0,0,95.84,17.47ZM14,27.13,7.52,12l-7,1.24a.52.52,0,0,0-.54.58.54.54,0,0,0,.48.61l.1,0a1.7,1.7,0,0,1,1.6.7A4.45,4.45,0,0,1,2.43,17l0,15.67h2V16.47l6.88,16.16h2.85l5.12-14.39V32.63h4.89V12.22h-5Zm57.54-8A3.41,3.41,0,0,0,68.89,18a6,6,0,0,0-4.73,2.12,7.5,7.5,0,0,0-1.86,5.15A8.26,8.26,0,0,0,64,30.55,5.94,5.94,0,0,0,69,33a3.35,3.35,0,0,0,2.53-.8v.44h4.93V17.53l-4.93.9Zm0,7.3c0,2.88-.56,4.32-1.67,4.32-1.75,0-2.62-1.82-2.62-5.44q0-5.19,2.62-5.19,1.66,0,1.67,5.19Zm61.31-9.6h-.13L125.82,18v1.12A3.46,3.46,0,0,0,123.16,18a6,6,0,0,0-4.72,2.12,7.58,7.58,0,0,0-1.84,5.15,8.36,8.36,0,0,0,1.67,5.24,6,6,0,0,0,5,2.44,3.33,3.33,0,0,0,2.53-.83v.25c0,3.12-.35,4.67-1.06,4.67h-5.18v1.86h5.15a5.5,5.5,0,0,0,4.48-2.11,6.81,6.81,0,0,0,1.54-4.45V20.51a3.33,3.33,0,0,1,.4-2,2,2,0,0,1,1.58-.48c.41,0,.61-.19.61-.64A.52.52,0,0,0,132.83,16.83Zm-7,9.6c0,2.88-.56,4.32-1.66,4.32-1.75,0-2.63-1.82-2.63-5.44q0-5.19,2.63-5.19c1.1,0,1.66,1.73,1.66,5.19ZM92.92,18c.41,0,.61-.19.61-.64a.52.52,0,0,0-.51-.57h-.13L86,18v1.12A3.45,3.45,0,0,0,83.36,18a6,6,0,0,0-4.72,2.12,7.53,7.53,0,0,0-1.84,5.15,8.35,8.35,0,0,0,1.66,5.24,6,6,0,0,0,5,2.44A3.32,3.32,0,0,0,86,32.16v.25c0,3.12-.35,4.67-1.05,4.67H79.77v1.86h5.15a5.5,5.5,0,0,0,4.48-2.11,6.81,6.81,0,0,0,1.54-4.45V20.51a3.33,3.33,0,0,1,.4-2A2,2,0,0,1,92.92,18ZM86,26.43c0,2.88-.55,4.32-1.66,4.32-1.75,0-2.63-1.82-2.63-5.44q0-5.19,2.63-5.19,1.66,0,1.66,5.19ZM110.68,18a7,7,0,0,0-4.25,1.16V17.53l-7,1.25a.52.52,0,0,0-.57.58.55.55,0,0,0,.51.6h.09a2.06,2.06,0,0,1,1.6.48,3.23,3.23,0,0,1,.42,2v10.2h4.93V23.8a4.48,4.48,0,0,1,.73-2.68A2.73,2.73,0,0,1,109.5,20a1.59,1.59,0,0,1,1.6,1.41,11.06,11.06,0,0,1,.16,2.37v8.89h4.93v-8.8a6,6,0,0,0-1.28-3.67A5,5,0,0,0,110.68,18ZM91.13,19.36a.55.55,0,0,0,.51.6h.1a2.08,2.08,0,0,1,1.6.48,3.23,3.23,0,0,1,.42,2v10.2h4.92V17.53l-7,1.25C91.32,18.8,91.13,19,91.13,19.36ZM237.67,18a7,7,0,0,0-4.26,1.16V17.53l-7,1.25a.52.52,0,0,0-.57.58.55.55,0,0,0,.51.6h.1a2.08,2.08,0,0,1,1.6.48,3.31,3.31,0,0,1,.41,2v10.2h4.93V23.8a4.48,4.48,0,0,1,.74-2.68A2.7,2.7,0,0,1,236.48,20a1.58,1.58,0,0,1,1.6,1.41,11.06,11.06,0,0,1,.16,2.37v8.89h4.93v-8.8a6,6,0,0,0-1.28-3.67A5,5,0,0,0,237.67,18ZM257,22.59v-.23a4,4,0,0,0-1.77-3.29A6.77,6.77,0,0,0,251,17.72a7.4,7.4,0,0,0-5.44,2,7.79,7.79,0,0,0-2,5.78,7.21,7.21,0,0,0,2,5.52A7.59,7.59,0,0,0,251,33a7.79,7.79,0,0,0,5.5-1.86l-.06-2.69a5.6,5.6,0,0,1-4,2,3.46,3.46,0,0,1-3-1.89,8.13,8.13,0,0,1-1.06-4.41c.07-3.29.94-4.93,2.63-4.93a2,2,0,0,1,1.73.89,4,4,0,0,1,.6,2.24v.23Zm-38.65-8.77a.58.58,0,0,0,.48.64h.09c1.35,0,2,.83,2,2.5V32.63h4.93V12l-7,1.21A.52.52,0,0,0,218.31,13.82Z" fill="#15b4f0"/></g></g></svg>