<svg xmlns="http://www.w3.org/2000/svg" xmlns:xlink="http://www.w3.org/1999/xlink" width="140" height="166.68" viewBox="0 0 140 166.68"><defs><radialGradient id="radial-gradient" cx="69.29" cy="31.75" r="74.72" gradientUnits="userSpaceOnUse"><stop offset="0" stop-color="#6fc25c"/><stop offset="1" stop-color="#193618"/></radialGradient></defs><g id="Layer_2" data-name="Layer 2"><g id="logos"><path d="M70,6a64,64,0,1,0,64,64A64,64,0,0,0,70,6Z" fill="url(#radial-gradient)"/><path d="M20.16,110.13,70,21,18.32,107.74C18.91,108.55,19.53,109.35,20.16,110.13ZM71.5,130,70,21,68.5,130Zm-28.26-3.33L70,21,40.34,125.9ZM7.78,85,70,21,7.16,82.13C7.35,83.08,7.55,84,7.78,85ZM15.53,36.4,70,21,16.76,34.48C16.34,35.11,15.93,35.76,15.53,36.4ZM7.05,58.51,70,21,7.58,55.9C7.38,56.77,7.21,57.63,7.05,58.51Zm114.63,49.23L70,21l49.84,89.13C120.47,109.35,121.09,108.55,121.68,107.74Zm1.56-73.26L70,21l54.47,15.4C124.07,35.76,123.66,35.11,123.24,34.48ZM99.66,125.9,70,21,96.76,126.67Zm32.76-70L70,21,133,58.51C132.79,57.63,132.62,56.77,132.42,55.9ZM28.18,21.58,70,21l-40.49-.56C29.06,20.81,28.62,21.2,28.18,21.58ZM132.22,85c.23-.94.43-1.88.62-2.83L70,21ZM98.81,12.85,70,21l29.92-7.58ZM83.25,7.38,70,21,83.86,7.52Zm-5.16-.85L70,21,78.59,6.59Zm32.4,13.91L70,21l41.82.58C111.38,21.2,110.94,20.81,110.49,20.44ZM73.77,6.12,70,21,74.2,6.15Zm16.1,3L70,21,90.68,9.44Zm-24.07-3L70,21,66.23,6.12ZM56.14,7.52,70,21,56.75,7.38ZM49.32,9.44,70,21,50.13,9.16ZM61.41,6.59,70,21,61.91,6.53ZM40.08,13.42,70,21,41.19,12.85ZM70,6h-.21L70,21l.21-15Z" fill="#7acb6e"/><path d="M45.11,129l-.09,0Z" opacity="0.5"/><path d="M39.55,126.31l-.29-.17Z" opacity="0.5"/><path d="M42.28,127.7l-.14-.07Z" opacity="0.5"/><path d="M54.08,132l-.4-.11Z" opacity="0.5"/><path d="M51,131.14l-.23-.08Z" opacity="0.5"/><path d="M48,130.13l-.12,0Z" opacity="0.5"/><path d="M27.25,117.61c-.76-.68-1.51-1.38-2.24-2.1C25.74,116.23,26.48,116.93,27.25,117.61Z" opacity="0.5"/><path d="M57.19,132.72l-.58-.13Z" opacity="0.5"/><path d="M36.92,124.8l-.57-.36Z" opacity="0.5"/><path d="M29.55,119.59c-.63-.52-1.25-1-1.87-1.6C28.29,118.53,28.92,119.07,29.55,119.59Z" opacity="0.5"/><path d="M34.38,123.18l-.94-.66Z" opacity="0.5"/><path d="M31.93,121.44c-.47-.35-.93-.71-1.4-1.08C31,120.73,31.46,121.09,31.93,121.44Z" opacity="0.5"/><path d="M93.65,129.47q-1.84.74-3.72,1.35C91.19,130.41,92.43,130,93.65,129.47Z" opacity="0.5"/><path d="M95.85,128.55l-1.82.77Z" opacity="0.5"/><path d="M87.17,131.65c-1.73.48-3.49.89-5.26,1.23C83.69,132.54,85.45,132.13,87.17,131.65Z" opacity="0.5"/><path d="M89.72,130.89c-.58.19-1.16.36-1.75.53C88.56,131.25,89.14,131.08,89.72,130.89Z" opacity="0.5"/><path d="M101.71,125.58q-2.67,1.53-5.47,2.79Q99.06,127.1,101.71,125.58Z" opacity="0.5"/><path d="M103.87,124.3c-.57.35-1.15.7-1.74,1C102.72,125,103.3,124.65,103.87,124.3Z" opacity="0.5"/><path d="M80.52,133.12l-1.28.21Z" opacity="0.5"/><path d="M63.54,133.68l-.88-.11Z" opacity="0.5"/><path d="M66.76,133.92l-.89-.07Z" opacity="0.5"/><path d="M73.75,133.88l-.86.05Z" opacity="0.5"/><path d="M60.35,133.28l-.75-.13Z" opacity="0.5"/><path d="M76.7,133.65l-.7.06Z" opacity="0.5"/><path d="M99.16,107.36A40.86,40.86,0,0,1,88.8,101c3.61.35,4.53-1.7.57-2.49.15-.6,1-1,.79-1.68a1.15,1.15,0,0,0,.71-1.46c-.24-1.49-2.31-.83-3.34-.81.6-1,.28-2.7.2-4a10.7,10.7,0,0,0,1.45-3.65c3.51.5,4.11-5.4,5.25-7.54.84-1.65-.46-3,.27-4.66,2.32-1.18,1.69-5.57-1.34-4.12-.11-.24-.28-.44-.38-.68.53-.73.07-1.58-.23-2.31.39-1.31,0-2.77.14-4.21.75-.47,0-1.91.47-2.32a1.11,1.11,0,0,0,0-1.3c.82-.8-.28-1.39-.24-2.27-.31-2.52-.4-5.91-1.81-8.21a1,1,0,0,0-.07-.93A2.2,2.2,0,0,0,90.69,47c.22-.77-.59-1.15-1-1.6a1,1,0,0,0-.51-1.22,1,1,0,0,0-.46-1.21,1,1,0,0,0-.79-1.35c0-.67-.58-.85-1-1.1a1.25,1.25,0,0,0-.76-.84c-.22-.52-.63-1.27-1.34-1.13a.94.94,0,0,0-.4-.13,1.75,1.75,0,0,0-1.11-.66,1,1,0,0,0-.58-.57,1,1,0,0,0-1.73-.64c-.36-.31-.73-.75-1.27-.65a1,1,0,0,0-1.51-.38A1.07,1.07,0,0,0,77,35.13a1.17,1.17,0,0,0-.49-.15,1,1,0,0,0-1.67-.5,1,1,0,0,0-1.6,0c-.95,0-2.26-.69-2.91.27l-.18-.06a1.09,1.09,0,0,0-1.93-.25,2,2,0,0,0-.66.14,1,1,0,0,0-1.42.21c-.34.13-.73,0-1,.28a1.56,1.56,0,0,0-.51-.11,1,1,0,0,0-1.63.24,1,1,0,0,0-.93.44,1,1,0,0,0-.61.24,1,1,0,0,0-.82.17C59,35.74,58,36.7,57.14,38a1,1,0,0,0-.79.52,1,1,0,0,0-.66.69l-.22.19a1.26,1.26,0,0,0-.72.13,1,1,0,0,0-.7.11,1,1,0,0,0-1.33.77,1,1,0,0,0-.32.45,1,1,0,0,0-.7.51,2.78,2.78,0,0,0-1.08,1.24.93.93,0,0,0-.44.39c-1,.33-2.67.45-2.52,2a2.87,2.87,0,0,0-.95,1.41,1.14,1.14,0,0,0-.48,1.13,1.15,1.15,0,0,0-.36,1.79,1.05,1.05,0,0,0,0,1.69A1.17,1.17,0,0,0,45.78,52a5.09,5.09,0,0,1-.19.77c-1.06.17-.89,1.33-.54,2.06-.51.7-1.47,1.64-.5,2.37.7,2.31-1.63,6,.53,7.55.1.6-.51,1.33.15,1.84s.36,1.06.49,1.64a1.15,1.15,0,0,0-.1.79c-.49.44-.89,1.32-.29,1.85-1.92.85-3,4.48-.5,4,0,.69,0,1.45,0,2.16-1.76.4-.64,3.18.7,3.64a3.13,3.13,0,0,0,1.34,3.19c.4,3.87,1.41,4.36,4.78,2.5,1.06,3.21.42,6,.57,9.35-.74.13-3-.43-3.36.61a1.63,1.63,0,0,0-1,2.42,3.49,3.49,0,0,0,.09,1.66,1.06,1.06,0,0,0,1,1.73,9.24,9.24,0,0,1,2.78-.51c-3.38,7.21-12.43,6.43-19,8.59-3.29.94-6.42,2.25-9.73,3.11,22.87,27.09,71.28,27.07,94.13,0C111.12,111.23,105.17,109.26,99.16,107.36ZM66.53,28.82a1.46,1.46,0,0,0,1.34.88,1.27,1.27,0,0,0,.28,0l1.67-.33h3.54a1.47,1.47,0,0,0,1.43-1.15l2-9.15a1.15,1.15,0,0,0,0-.26,1.42,1.42,0,0,0-.09-.57l-2-5.21a1.49,1.49,0,0,0-1.37-.94H71a1.45,1.45,0,0,0-1-.36,1.33,1.33,0,0,0-.28,0L68,12.08l0,0-3.16.62a1.48,1.48,0,0,0-1.16,1.2l-.93,5.49s0,.07,0,.09a1.58,1.58,0,0,0,.11.74Z" fill="#fff"/><path d="M70,140A70,70,0,1,0,0,70,70,70,0,0,0,70,140ZM70,4A66,66,0,1,1,4,70,66,66,0,0,1,70,4ZM94,141a1.36,1.36,0,0,0-.76-.56h-.4v.08h0l0,0a1.28,1.28,0,0,0-.36.32,1.37,1.37,0,0,0-.22.36.74.74,0,0,0,0,.12v.16a.19.19,0,0,0,0,.1s0,.06.08.06v.08a0,0,0,0,0,0,0v0l.12.12s0,.06.14.1a.33.33,0,0,1,.18.26c.16.13.24.22.24.28a.43.43,0,0,1,.24.16v.76c-.11.42-.23.67-.36.74a1.91,1.91,0,0,0-.44.3l-1,.32a2.19,2.19,0,0,1-.48,0l-.26,0-.42-.14a.21.21,0,0,1-.12,0h-.12s-.13-.06-.24-.16L85.69,143l-.12.12a.92.92,0,0,1-.12.16l-.24.24a11.34,11.34,0,0,1-4.16,2.88v6.84l3.64,2.24-4.76,7,.56.4a5.63,5.63,0,0,1,1-.56,14.49,14.49,0,0,1,1.84-.48,1.49,1.49,0,0,0,.36,0h.72a1.49,1.49,0,0,0,.36,0h.16l.2,0a1.54,1.54,0,0,0,.32.08,13,13,0,0,1,1.44.44c.61.26,1.07.48,1.36.64a.26.26,0,0,0,.1,0l.1-.08a.21.21,0,0,1,.1-.06.7.7,0,0,0,.14-.08.22.22,0,0,1,.12-.06,17.57,17.57,0,0,1,2.24-1.52,18.23,18.23,0,0,1,2.48-1.2v-7.68L89.81,150l4.32-6.2a.09.09,0,0,1,0-.08v-.08a.09.09,0,0,1,0-.08v-.12l.12-.48a.79.79,0,0,1,0-.28V142a.31.31,0,0,1,0-.12A3.46,3.46,0,0,0,94,141Zm-3.88,13.92v5.2a9.93,9.93,0,0,0-1.64-.8c-.37-.14-.65-.23-.84-.28a7.78,7.78,0,0,0-.84-.14l-.36-.06h-.32a.63.63,0,0,1-.28,0h-.6a1.86,1.86,0,0,1-.34,0,5.27,5.27,0,0,0-.74.08H84l-.12,0a.33.33,0,0,1-.24-.08l3.88-5.64Zm-3.24-2.32-2.24-1.32v-4.56c.93.34,1.64.58,2.12.72,1.49.18,2.2.28,2.12.28h.36a.37.37,0,0,0,.2,0h.24l.2,0h.2a.54.54,0,0,0,.36-.16Zm-47.32,6.72-.14.12a1.78,1.78,0,0,1-.2.1.46.46,0,0,0-.18.12s-.09.07-.2.1a.49.49,0,0,1-.24,0l-.84-1.48v-17.6a6.23,6.23,0,0,1,1.08-2.24l.16-.16a.67.67,0,0,1,.16-.24v-.16a.09.09,0,0,1,0-.08v-.24c0-.06,0-.1,0-.12V137h0s-.05,0-.08,0H39a6.31,6.31,0,0,0-1.08.48,5.71,5.71,0,0,0-.8.72l-4.32-3L26.17,140a6.36,6.36,0,0,0-.4-1.36l-.6-1.36s-.06,0-.1-.1A.38.38,0,0,1,25,137a6.14,6.14,0,0,0-.52-.46c-.24-.2-.41-.36-.52-.46a12.22,12.22,0,0,0-1.2-.88v.08a68.42,68.42,0,0,0-8.52,4.88A8.2,8.2,0,0,0,11,143.92a15.43,15.43,0,0,0-1,4.84,2,2,0,0,0-.38,0,1.65,1.65,0,0,0-.38.1l-.36.12-.4.12c-2,.69-3,1.84-3,3.44v.08h0v.12h0v0l.18-.1a.35.35,0,0,1,.16-.06,1.35,1.35,0,0,0,.34-.12l.72-.16a.88.88,0,0,0,.2,0h.2a.88.88,0,0,0,.2,0h.56a.51.51,0,0,0,.14,0,1.87,1.87,0,0,1,.38.08,1.07,1.07,0,0,1,.36.08,2,2,0,0,1,.72.24,6,6,0,0,1,2.8,5.2v.76c-.34,1.7-1.72,2.56-4.12,2.56H8.25l-.16.06-.2,0H7.81l-.12,0-.24.08a6.37,6.37,0,0,0-2.52,1.44,3.77,3.77,0,0,0-1.08,2.56v.12a.5.5,0,0,1,0,.16v.36a1,1,0,0,1,.08.32v.16a.24.24,0,0,1,0,.12,3.34,3.34,0,0,1,1.36-1.58,3.67,3.67,0,0,1,1.72-.42,9.17,9.17,0,0,1,1,0c.51.08.88.14,1.12.2l1.08.12c.48.05.83.08,1,.08h.88a.57.57,0,0,1,.16,0h.2l.16,0a4.82,4.82,0,0,0,3.06-2.38,11.3,11.3,0,0,0,1.1-4v-7.8h4.6v6.56a.12.12,0,0,0,0,.08v.12a2,2,0,0,1-.34.88,2.7,2.7,0,0,1-.78.8,21.33,21.33,0,0,1,2.32,1.88c.88.9,1.52,1.6,1.92,2.08l6.52-5.68-.68-.44a2.43,2.43,0,0,1-.44.32l-.6.12v-6.72L32,147.44h-2.4v-8.6l.08-.08.18-.1a1.09,1.09,0,0,0,.22-.18l0,0h.08s.1,0,.12-.12l2.84,2v18.36a6.6,6.6,0,0,0,.9,2.82,5.51,5.51,0,0,0,2.06,1.78h.4l3.8-3.56-.64-.56ZM16.85,139.8a6.4,6.4,0,0,0-.44,1c-.13.45-.23.8-.28,1a.59.59,0,0,0-.08.2l-.08.36a2.47,2.47,0,0,0,0,.36v16.16a1,1,0,0,0,0,.24c-.13.53-.2.8-.2.82a.48.48,0,0,1,0,.12,1.42,1.42,0,0,1-.08.18v0a.12.12,0,0,0,0,.08v0a.12.12,0,0,0,0,.08,1.7,1.7,0,0,1-1.12,1c-.64.18-.92.28-.84.28H13l-.12,0-.08-.06h-.08a1.4,1.4,0,0,1-.36-.08.44.44,0,0,0-.12-.1.25.25,0,0,0-.16-.06,5.94,5.94,0,0,0,1.74-1.46,3.23,3.23,0,0,0,.82-2.1v-15a6.86,6.86,0,0,1,.88-1.64,19.63,19.63,0,0,1,1.36-1.44Zm4.68,7.48H18.81L17,149.92v-8.36a7.18,7.18,0,0,1,.8-1.52,11.26,11.26,0,0,1,1-1.36h.12a.23.23,0,0,0,.16-.08h.12l0,0h0a.12.12,0,0,0,.12-.08h.24v.08a2.47,2.47,0,0,1,1.26.76,1.85,1.85,0,0,1,.62,1.08Zm7,12a4.11,4.11,0,0,1-.66.54,2.33,2.33,0,0,1-.82.3,3.4,3.4,0,0,1-.64-1.08,3.59,3.59,0,0,1-.2-1.32v-6.88h2.32Zm0-11.88h-2.4v-5.8l2.4-1.72Zm48,12.48a.79.79,0,0,1-.28-.24,1.87,1.87,0,0,0-.2-.24l-.12-.14a.63.63,0,0,0-.12-.14.72.72,0,0,0-.1-.28,1.65,1.65,0,0,1-.14-.48V147.68A5.65,5.65,0,0,1,77,145.12l.08-.08a.46.46,0,0,0,.08-.16l-.52-.52L75,145.76,72.25,143l-5,4.48a4.46,4.46,0,0,0-.8-2.48A11.21,11.21,0,0,0,64.65,143l-3.24,3.32.36.56.88-.32q0,.12.24.24a4.91,4.91,0,0,1,.4.56,1.07,1.07,0,0,1,.2.52V159l-1.16,1.24,3,2.72a11.53,11.53,0,0,0,3.16-2.64.84.84,0,0,0-.1-.1s0-.07-.1-.16a.36.36,0,0,0-.16-.18,3.87,3.87,0,0,1-.5-.68,4.69,4.69,0,0,1-.38-.8v-9.64l2.48-2.4.4.08a1.19,1.19,0,0,1,.72.48,1.81,1.81,0,0,1,.6.72,1.21,1.21,0,0,1,.24.48s0,0,.08.08a.27.27,0,0,1,0,.14s0,.06.08.06v12.08a6.75,6.75,0,0,0,.92,1.6,3.29,3.29,0,0,0,1.48,1l3.68-3.12-.64-.68Zm26.4-22.08L97.73,145l-.24.72,1.48.16V157a7.29,7.29,0,0,1-.4,1.56,5.28,5.28,0,0,1-.76,1.44,13.46,13.46,0,0,1,2.44,1.4,20.31,20.31,0,0,1,2.12,1.8l4.28-3.72-.56-.64-1.44,1.08-1.88-1.6V145.76H107v-2h-4.12Zm27.2,8.44,2.32,2.48,2.64-2.4-.08-.32-2.56-3-3.88,3.48v-.12l-.06-.12s0-.11-.08-.24a.93.93,0,0,0-.08-.22s0-.06-.08-.14a.49.49,0,0,1-.06-.2.29.29,0,0,0,0-.16c0-.06-.05-.08-.08-.08l-.08-.24q0-.21-.12-.24a.8.8,0,0,0-.24-.32q-.12-.36-.12-.24a.22.22,0,0,0-.06-.12l-.08-.12s0-.06-.1-.1l-.12-.1-.1-.12a.44.44,0,0,0-.18-.14,1.71,1.71,0,0,1-.36-.3.21.21,0,0,1-.12,0,.6.6,0,0,0-.08-.08h-.08a.35.35,0,0,1-.24-.12h-.08l-3.32,3.16.32.56.92-.48a1.69,1.69,0,0,1,.6.56,3.36,3.36,0,0,1,.38.78.31.31,0,0,0,.06.18v.16a.22.22,0,0,0,0,.16v8.8a2.78,2.78,0,0,1-.48,1.64,2.49,2.49,0,0,1-.92,1.32A13,13,0,0,1,128,163l4.64-4-.72-.68-1.44,1.24a5.11,5.11,0,0,1-2-1.56v-10.4Zm-9.28,2-5.2-5.36V143c-.91.74-1.76,1.38-2.56,1.92a14.08,14.08,0,0,1-2.84,1.48V157.6a4.27,4.27,0,0,1-1.32,3.12,3,3,0,0,1,.78.16,2.4,2.4,0,0,0,.38.12l.38.08a2.08,2.08,0,0,0,.3,0l.36.12a2.15,2.15,0,0,1,.74.26l.42.24a.6.6,0,0,1,.2.14l.12.12a2,2,0,0,0,.24.2,7.41,7.41,0,0,0,.94.62l.46.12a2.66,2.66,0,0,0,.56.1h.16l5.36-4.2-.56-.76-2.48,1.84-3.32-1.6v-4Zm-6.88-1.8,3.48,3.64c-.19.18-.41.39-.68.62a6,6,0,0,1-.76.54,2.07,2.07,0,0,1-.24.2,1.06,1.06,0,0,0-.18.14l-.1.08-.12.08a.31.31,0,0,0-.1.08.71.71,0,0,1-.14.1l-.6.48a1.31,1.31,0,0,1-.56.32ZM58.21,160c-.05-.06-.08-.1-.08-.12a.18.18,0,0,1-.2-.2.07.07,0,0,1-.08-.08,2.87,2.87,0,0,0-.32-.4l-.2-.6V147.28l1.12-1.36-.16-.4L55.41,143l-3.16,2.8,1.16,1.4v10l-2.8,2.56h-.08l-.16.2h-.08a.07.07,0,0,1-.08-.08h-.08v0a.07.07,0,0,0-.06,0l-.08,0s-.06-.06-.06-.08h0a3.19,3.19,0,0,1-.74-.88,2.27,2.27,0,0,1-.26-1.08L49,147.24l.36-.36a3.32,3.32,0,0,0,.8-1.36L47.21,143h-.32l-3.64,3.32.44.48.64-.4.76.8v12.08a5,5,0,0,0,.94,2,10,10,0,0,0,1.66,1.66h.08l0,0L48,163l5.44-4.56v0a.12.12,0,0,0,0,.08v.16a.12.12,0,0,0,0,.08v.08a4.59,4.59,0,0,0,2,4,.61.61,0,0,1,.24.12,1.67,1.67,0,0,0,.3.08.12.12,0,0,1,.1,0h.2l3.44-3.28-.56-.52ZM60,76.19c-.29-.18-.7-.12-.94-.4.18-.45.74-.25,1.11-.34a4.11,4.11,0,0,0-.21-.62c.08-.24.16-.47.25-.7a2.78,2.78,0,0,0,.91,0c-.24-.2-.5-.38-.74-.58-.78.66-1,1.78-2,2.22a10.15,10.15,0,0,0-.59-1.5L57.6,75a1.64,1.64,0,0,1,.55,1.17c-.17.19-.46.19-.7.26,0-.23-.05-.53-.07-.76-.25.2-.64.29-.75.61l.53.17a2.14,2.14,0,0,1-.28.39l-.5-.14-.15.73.4-.27.27.31.3-.65.83-.21-.06.56c.33-.33.66-.81,1.19-.75a2.28,2.28,0,0,1-1,1,5.08,5.08,0,0,1,.17.51,3.81,3.81,0,0,1-.52.61A2.62,2.62,0,0,0,59.51,77l-.22-.57Zm4.37-9.35c.61-.25,1-.84,1.68-1,.07.16.14.32.22.48a2,2,0,0,0,.17-1.63l-.27,0c0,.11,0,.34-.06.46A15.86,15.86,0,0,0,64.37,66.84Zm1.32-3.07-.44.13-.37-.79-.33.19-.18-.2-.52.08c-.08-.11-.17-.22-.25-.34-2.4.85-4.46,2.56-7,2.91l.5.66-.15.47c.11.23.21.48.3.73l.75-.24c.29.84,1.08.82,1.82.7-.54-.1-1.21-.1-1.5-.66l.72-.16.34.19a3.47,3.47,0,0,1,1-.92l.06.52c1.08-1.28,2.93-1.14,4.45-1.53,0,.12-.11.37-.14.5a2.12,2.12,0,0,0,1.17-2Zm-4.38.8c.14-.2.47,0,.31.22S61.15,64.76,61.31,64.57Zm1.24.94a1.19,1.19,0,0,1-1.43.1A1,1,0,0,1,62,65a1.73,1.73,0,0,1,.72-.35c0,.27,0,.54,0,.8Zm-2.72-9.67c-.13-1.44.79-2.77.52-4.2-.2.28-.39.56-.57.85A5,5,0,0,1,60,53,5.21,5.21,0,0,0,59.57,56a11.13,11.13,0,0,0-.43,1.14C59.38,56.69,59.59,56.26,59.83,55.84ZM69.6,72c-1.43-1.58-5.2,0-3,1.7,2.72-.45,12.43,4.2,9.71-1.51a5,5,0,0,0-.72,1.66,3.23,3.23,0,0,1-1.41.58c-.14-.82,1-.79,1-1.53a3.14,3.14,0,0,1,0-1.61C72.92,69.54,71.84,72.69,69.6,72Zm-8.47,9.77c-.06.29-.41.24-.63.3q-.06.82-.06,1.65c-.37,0-.77.06-.9.46l.24.41c-.5,1.68,1.41.47,1.45-.54l.27.54.09-.86.33-.12c0-.27.09-.54.13-.81-.69-.67-.48-1.69-.85-2.51A10.48,10.48,0,0,1,61.13,81.79Zm-37.4,32.4c22.81,26,69.81,26,92.59,0l-.08,0c-9.46-4-22-5-28.58-13.41.62-1.18,2.17-.47,3.23-.73A4.08,4.08,0,0,1,88.35,99a2.43,2.43,0,0,1,.82-2H87.72a2.55,2.55,0,0,1,.08-1,14.73,14.73,0,0,1,2.1-.16c0-.11,0-.32,0-.43a9.8,9.8,0,0,0-2.42.17,2.4,2.4,0,0,0-.16,1.19c-2-3.46.33-7.58,1.16-11.19,1,0,1.89,1,3,.18-.54-.3-1.2-.12-1.73-.44-.12-1.29.85-1.64,1.88-1.11a7.27,7.27,0,0,0,.89-3.06c-.24.84-1.5,3.08-2.22,1.49,1.9-2,.76-5,1.92-7.25,1.73.6.22,3.29.67,4.69,1.79-1.88-.09-4.3,1.15-6.36a3.93,3.93,0,0,1,.48-.06c.38-.65.91-1.29.65-2.06-1.36-1.29-2.23,1.37-3.62,1.12-.7-1-.35-1.86.94-1.85a6.13,6.13,0,0,1-.74-1.65l.53,0c-.1-.15-.2-.29-.29-.44l.27,0A5.36,5.36,0,0,1,91.58,67h.34c-.1-1.47,0-3,0-4.45l.35,0a2.57,2.57,0,0,1,.32-2.18A2.55,2.55,0,0,1,92.28,59l.42.05c-1.33-3.21-.55-7.18-2.67-10.19l.4,0a3.41,3.41,0,0,0-1-1.88l.32-.28a3,3,0,0,1-1.34-1.6L88.7,45l-.53-.09c-.28-.31-.6-1,0-1.15a1.84,1.84,0,0,1-.9-.37c0-.08.12-.25.17-.33l-.23-.21.51-.32-.85,0c0-.31,0-.62,0-.94l-.43.62-.24.09a3.47,3.47,0,0,0-.1-.85l.32,0a1.52,1.52,0,0,1-.63-.82c-.52-.15-.67-.68-.92-1.1,0,.09-.09.27-.13.36h-.45c0-.17,0-.33-.07-.49-.66,0-.94-.85-1.7-.77-.08-.17-.16-.34-.23-.51l-.43.17c-.08-.35-.16-.7-.23-1-.15.2-.29.4-.43.61l-.35-.23h-.46c-.08-.14-.16-.28-.23-.42h-.33l0-.31a2.47,2.47,0,0,1-.93.21c0-.26-.09-.52-.13-.78a3.5,3.5,0,0,1-.75.58l-.24-.41a.53.53,0,0,1-.4-.36l-.87.17a2.06,2.06,0,0,0,0-.26c-.2,0-.46,0-.59-.16h-.34c0-.2,0-.4,0-.59l-.81.48a1.28,1.28,0,0,0-.47-.18L74,35.08a2.18,2.18,0,0,1-.7.62c-.36-.46-1.09-.28-1.62-.43l-.22.22a3.45,3.45,0,0,1-.28-.26l-.27.41-.55.21c-.36-.15-.75-.26-1.1-.44L69.15,35c-.31.24-.61.5-.91.77l-.11-.28-.71.23-.5-.29a.47.47,0,0,1-.53.37c-.64.09-1.22.53-1.84.21l-.5.2c-.08-.17-.15-.35-.22-.52l-.21.59-.62.15-.17-.2c0,.11,0,.32,0,.43l-.74,0L62,37l-.64,0-.2-.19-.25.19a10,10,0,0,1-1.64,0c-.81.58-1,1.94-2,1.94,0,.16,0,.32,0,.48h-.55c0,.09,0,.25,0,.34a3.62,3.62,0,0,0-.81.58h-.57c0,.16-.07.32-.1.49l-.62-.38-.2.33a1.18,1.18,0,0,1-.64-.27c0,.22,0,.44,0,.66l-.37,0c-.06.23-.11.46-.16.7l-.61,0-.07.27-.47.2a1.45,1.45,0,0,1-.46.55c0,.15,0,.29,0,.44l-.49.21v.36c-.44.11-1,0-1.3.41a4.66,4.66,0,0,0-1,.17c-.1.43-.11.86-.18,1.29l-.4.07-.46.66c0,.16,0,.31,0,.46-.18.11-.41.15-.54.33s0,.48.07.72a2.7,2.7,0,0,0-.72.58c.27.21.29.57.38.88-.17.24-.26.54-.5.71a1.34,1.34,0,0,0,.75-.16v.38l.41-.23c0,.07,0,.22-.05.3a3.66,3.66,0,0,0-.86,1.17c.32-.18.62-.39,1-.57a1.55,1.55,0,0,1-.87,1.12,7.7,7.7,0,0,1-.47,1.64l-.55,0c.14.42.28.84.4,1.27-.34.46-.66.93-1,1.37l.74-.24a51.3,51.3,0,0,0-.61,7.61l.51.06a2,2,0,0,1,.13,2c1.25.8.34,2.54,1.06,3.27a5.1,5.1,0,0,0-.94,1l.48.35c0,.06,0,.18,0,.25l.41.07c.06.13.11.26.16.39.82.08,1.1,1.19,2,.6.2,1.31-.31,2.59-.06,3.88-.61-2.54-3.77-6.17-4.63-1.68a3.47,3.47,0,0,1,1.31-.22,17.69,17.69,0,0,1,0,5.24,3.54,3.54,0,0,1-.73-1,2.29,2.29,0,0,0,1.69,2.09c-.87,1.87,1.24,2.59,1.21,4.15a2.66,2.66,0,0,1,2.22-.38l-.55-.39c1.18-.25.54-1.58.75-2.45a18.72,18.72,0,0,1,1.13,3.54c-1.16.29-2,1.25-3.13,1.63a3.64,3.64,0,0,0,3.42-1.19h.43c1.48,3.57,1.92,9.32.41,12.68,0-.28-.07-.56-.1-.85l-.2-.15H49.79v.4H52c0,.22,0,.44,0,.67H49.22c-.08-.16-.15-.31-.22-.47l-.33.23c0,.19,0,.38-.05.58,1.31-.15,2.63,0,3.94-.09,0,.55.06,1.1.08,1.65-1-.07-2.08,0-3.12,0-.33-.26-.35-.72-.55-1.07-.43.62-.07,1.44.05,2.12l-.39.35a16.28,16.28,0,0,1,3.87-.51C50.11,112.13,32.4,109.26,23.73,114.19ZM88,106.58a7.77,7.77,0,0,1-3.64,3.13,2.05,2.05,0,0,1-.42-.36A2.82,2.82,0,0,1,82.3,111c-.24-.43.31-.84.45-1.24-.76.35-1.09,1.16-1.63,1.76a3.22,3.22,0,0,0-.32-.32c-.26.09-.49.21-.74.31l.55-1A18.34,18.34,0,0,0,79,111.65c-.13-.31.11-.54.28-.76a2.86,2.86,0,0,1-1.12.17C80.84,110.88,87.82,100.88,88,106.58Zm2.19-40.77c-.11,1.44-.77,2.88-.85,4.19a3.85,3.85,0,0,1,.88,2.34l-.23,0a7.13,7.13,0,0,0-.47-1.06,1.39,1.39,0,0,0-.47.2c.47-.59.24-2-.37-.8a1.78,1.78,0,0,0-.11-1.07l.33-.37-.34-.38c0-.3,0-.6,0-.9a3.79,3.79,0,0,1-.39-1.13h.24c0-.57,0-1.13,0-1.7h.09c0,.35,0,.71,0,1.07l.53.22c.64-1.13-1.24-3.12.33-3.7C89.61,63.76,89.39,64.9,90.14,65.81Zm-1.43-4c-.63,0-.53-.68-.32-1.06a11.55,11.55,0,0,1-1-2l.57,0c-2.06-2.31.3-2,.7.29,0,.5.09,1,0,1.5l1.25-.14A6.15,6.15,0,0,1,88.71,61.77ZM49.48,81.49l.44,0a1.05,1.05,0,0,1-1.5,1.23c-.09-.21-.18-.41-.26-.61a5.24,5.24,0,0,1-.76.45c-.56-2.65-2-5.82-.4-8.36A20.73,20.73,0,0,0,49.48,78a4,4,0,0,1,.35-1.45,6.67,6.67,0,0,0,.26,3c-.52-.31-.62-.91-.79-1.44l-.13,0a4.89,4.89,0,0,1-.6,1.65C49.74,79.56,49.58,80.67,49.48,81.49Zm.66-6.35a3.3,3.3,0,0,0,.6-.64l-.38-.13c-.35-1.59.35-2.72.76-4.18.24.39.84.63,1.12.16l-.65.07c-.14-.44.26-.73.51-1l-.5.1a5.16,5.16,0,0,1,.84-3.18l-.59.25c-.1-.69,1-1.4.27-1.91a5,5,0,0,0,.29-1.33c-.25.47-.33,1.08-.84,1.36a3.44,3.44,0,0,1,.71-2c-.48-.4-1.11-.54-1-1.29-.31,0-.63-.07-.95-.08a4.54,4.54,0,0,0,.22-1.9l.63-.07c0-.59,0-1.19,0-1.78a6.4,6.4,0,0,1-.59,1.24c-.26-.91-.25-1.87-.43-2.79.73-1.05.36-3.1,1.87-3.41-.44-.74.29-1.31.45-2-.12-.13-.35-.2-.37-.4.24-.36.52-.69.75-1.06l.42.35c.57-.59-.33-.95-.8-1.13l.28-.25c0-.37,0-.75,0-1.12l-.71.13a3.14,3.14,0,0,1,1.35-1.46c.32,1,.9,1.86.61,2.91l.48.21a1.8,1.8,0,0,1,.16-1.1,10.55,10.55,0,0,0,.59,1.22l.55-.16a1,1,0,0,0,1.34,0,9.75,9.75,0,0,0,1.21,0,1.19,1.19,0,0,0-1.4-.18c.11-.62.67-.74,1.21-.86-.43-.17-.85-.32-1-.82-.79-.11-1.16.37-1.57.95-1.11-.38-1-2.23-1.84-3.07a1.41,1.41,0,0,1-.68.2c-.08-.29.24-.41.4-.58a5.11,5.11,0,0,1-.37-.74,11.33,11.33,0,0,1,1-1l0-.11.11-.07c1.31-1.7,4-2.21,5.92-3.1a1.58,1.58,0,0,0,1.33.49l-.34-.31v0a1.25,1.25,0,0,1-.4-1.07c2.53-.05,5.94-2.47,8.1-1.49a1,1,0,0,1,1.07.21l.12,0c1.65-.74,4,.43,5.81.28,1.68,1.09,4,.86,5,3a.78.78,0,0,0,.06.58c0-.1,0-.32,0-.42l.24-.21a11.9,11.9,0,0,1-.28-1.18,1.57,1.57,0,0,1,1.14.79c1.3.32,1.79,1.53,2.4,2.59l.27.11,0-.06.44.15c0,.82.41,1.58.43,2.38.49.31,1.23.44,1.07,1.17a1.3,1.3,0,0,1,.66,1.06,1.93,1.93,0,0,1,.53-.07,1.15,1.15,0,0,1-.23.93c0,.12.11.24.16.35l.39-.22A8.79,8.79,0,0,1,89.51,52c-.69-.17-.36-1-.64-1.49-.05.35-.07.7-.1,1a4.77,4.77,0,0,1-.37-1l-.23.14a2,2,0,0,0-1.43-1.34c0-.33-.07-.65-.1-1-.34,0-.68-.08-1-.1l-.15-.34c-1.53-.2-1-2.27-1.29-3.36-.4.46,0,1.05-.26,1.55a2.23,2.23,0,0,1-1.16-.57,2.63,2.63,0,0,1,.53-1.68q-.29-.49-.54-1c-.1.74.35,1.93-.5,2.32-.36-1.1-.06-2.33-.57-3.4.06,1.42.09,2.83.2,4.25.77.57.61,1.63.79,2.46l.5-.53c.29.76.38,2.07,1.5,1.38.81.49.81,1.69,1.8,1.94l-.09.44.59.36-.22.41.41.55c-.17.67.76.78.78,1.4l-.66.3.46.46c-.13.58.32,1.19.26,1.67a1.56,1.56,0,0,1-1.21-1.46c-.06.2-.11.4-.17.6l-.39.18a1.19,1.19,0,0,1-.45,1.53c.1.34.13.71.22,1.05l.64-.36a4.31,4.31,0,0,0,.14,1c-.18.2-.13.48-.13.72l.7.23c-.42,1.29,1.32,2.34.76,3.83a1.44,1.44,0,0,1-.28-1l-.06,0c0-.22,0-.45,0-.67a6.1,6.1,0,0,1-.34-.54,10.16,10.16,0,0,1-3.53-2.61c-.29-.06-.52-.32-.79-.45l.15.18a12.18,12.18,0,0,1-1.19-.3,11.16,11.16,0,0,1,2.59,1.73,4.17,4.17,0,0,1-.58.24c-2.72-1.58-6.61-3.27-9.34-.9-.64,0-1.28,0-1.92,0l-.29.41a3.35,3.35,0,0,0-1,.73c.73,0,1.79.49,1.25,1.34l.41.26c0,.24,0,.48,0,.73l.59-.39a1.28,1.28,0,0,1,.72,1.29c3.48-3.81,8.22-2.7,10.74,1.48a5.76,5.76,0,0,0-.06-1.1c-1.41-.17-1.64-1.63-2.4-2.54.46-.45,1.24-.28,1.84-.34a2.94,2.94,0,0,0-.5.66c.1,1.24,1.42,1.71,1.59.22-.38.16-1.19.73-1.08-.08,1.19-1.72,3,.42,1.33,1.52.55.19.81-.38,1-.77a1.22,1.22,0,0,1,.5.4,5,5,0,0,1-.68,1.8,4.41,4.41,0,0,0,.78-.65,2.75,2.75,0,0,1-.2,1.53l.28.29,0,.51a4.4,4.4,0,0,1-1.31.53c.51.3,1.11,0,1.61.17a1.57,1.57,0,0,1-.33.92l.41.42-.79,0a7.12,7.12,0,0,1,.82.73,3.9,3.9,0,0,1-.18,1c0,.08.11.24.14.32l-.54.13c-.06.24-.12.47-.17.71l-.39-.38c-.07.21-.14.42-.22.64-.1-.11-.21-.21-.31-.31l-.3.13.28.45.4,0a5.39,5.39,0,0,1-.64.79,7.08,7.08,0,0,0-1.12.11l.42.1c.06.14.13.28.2.42l-.32.49a3.06,3.06,0,0,0,1.17-.18c0,.2,0,.41-.08.61.47-.45,1.09-.22,1.63-.46a18.44,18.44,0,0,1-.15,2l-.41.17a1.85,1.85,0,0,0,.1,1.35c.19-.27.35-.56.57-.82.4-.12.82-.16,1.23-.25.57.61.14,1.59.53,2.33-.61,1.3-.62,2.86-1.15,4.27a2.64,2.64,0,0,1-.29.15c-.3,2.29-1,5.63-3.54,6.37a5.74,5.74,0,0,1-.83,1.44l-.46,0c-.06.13-.11.26-.16.39-1,0-1,1.17-1.79,1.37l-.18.5-.33,0c-1.54,1.15-3.55,2.83-5.65,2.84-2.62.29-5.33,0-7.78.64C62.77,95.37,54.33,95,56.23,87.66c-.38-.13-.77-.22-1.16-.32a3.64,3.64,0,0,1,1.27-.09c0-.39-.39-.48-.72-.56a2.81,2.81,0,0,1,.86-.59l-.37-.29.52-.39a2.36,2.36,0,0,1-.58-.64c.27.1.55.42.83.15l-.57-.38.31-.31.52.42L56.9,84c.47-.48,1-.63,1.44,0v-.69l-.35,0c.06-.17.13-.33.2-.49a5.27,5.27,0,0,1-.82.66c-.22-.09-.34-.34-.51-.5a1,1,0,0,0,.49-1c-.19.31-.37.63-.54.95l-.47-.2-.25.17-.23-.09c0-.12,0-.25,0-.37l-.48.24c-.09-.32-.17-.65-.25-1l.45,0c0-.24,0-.49-.08-.73L56,81a1.68,1.68,0,0,0-.48-1.31.79.79,0,0,0-.11.82c-.07.23-.15.46-.22.68l-.89.14c.09-.23.19-.46.29-.69l-.49.17c0-.24.13-.39.3-.54a4.57,4.57,0,0,1-.46-1.58,3.62,3.62,0,0,0-.93,0l.08-.29a1.19,1.19,0,0,1,1.33.53l.25.13c0,.17.09.34.14.51.27-.3.24-.76.57-1a2,2,0,0,1-.52-.16l-.4.1c-.05-.18-.11-.36-.16-.53l-.49.11-.41-.21c-.23.13-.43.34-.69.36a3.86,3.86,0,0,0-.23-2.33c-.58.69.14,1.48-.13,2.22a2.7,2.7,0,0,1-.39-.8l-.4.11a2.62,2.62,0,0,1,.26-.82l-.36.07c0-.09,0-.27-.05-.36l-.34-.09a1.85,1.85,0,0,0-.81-.57Zm33.76-29c0,.31-.19.59-.55.55A1.53,1.53,0,0,1,83.9,46.18ZM55.49,90.63l-.58,0-.12-.53c.15-.2.31-.4.47-.59l.56.43-.39.24Zm-.8-3c.23.44-.6.83-1,.66A1.42,1.42,0,0,1,54.69,87.59Zm-1.2-.53.59.3c-.1.18-.2.36-.31.54C53.67,87.62,53.57,87.34,53.49,87.06ZM54,88.8a4.44,4.44,0,0,1,.27-.38l.46.28a3.57,3.57,0,0,1,.49-.38c0,.23-.11.46-.17.69C54.75,88.94,54.24,89.15,54,88.8Zm.56.93a4.11,4.11,0,0,1-.68-.57A.69.69,0,0,1,54.6,89.73Zm.49-2h.51c0,.1,0,.28,0,.38A.69.69,0,0,1,55.09,87.71Zm.37,1.53c-.25.21-.44-.19-.14-.29S55.75,89.14,55.46,89.24ZM55,83.58c.24-.1.36.29.1.33A.17.17,0,1,1,55,83.58ZM54.92,83c.17-.14.44.14.31.31S54.79,83.2,54.92,83Zm.65,2.15A3,3,0,0,1,55,84.6C55.45,84.29,55.59,84.86,55.57,85.18Zm.65-.73c-.42,0-.61-.38-.85-.64C55.73,83.9,56.11,84,56.22,84.45Zm-.76-1.27c.18-.15.36.18.2.3S55.3,83.3,55.46,83.18Zm.36-.14q.34.09.69.21c-.17.17-.33.33-.51.49Zm-2.26-3.55c-.13.17-.29.33-.44.5a5.35,5.35,0,0,1-.5-.45C52.72,79.24,53.49,79.16,53.56,79.49Zm-1,3.8a4.35,4.35,0,0,1-.27-.58A3.32,3.32,0,0,1,52.6,82c-.22,0-.52.22-.67-.07.28-.2.61-.38.7-.74a6.28,6.28,0,0,0-.75.52c-.37-.46-.23-1.11-.74-1.47a1.66,1.66,0,0,1,.4-.94,2.77,2.77,0,0,1-.65-.47,4.73,4.73,0,0,0-.45-2.4,1.2,1.2,0,0,1,.87.38A3.62,3.62,0,0,0,51.43,78l.32.09-.21.35a5.53,5.53,0,0,1,1,1.05c-.14.31-.26.62-.38.93.35,0,.68-.16,1-.2.07.2.12.4.17.6l.55.21-.32.23.25.29c0,.07-.11.23-.15.3.13.2.27.4.42.59l.53-.2c-.21-.25-.69-.45-.51-.84.52.36,1.4,1.22.32,1.46-.41.92-1.1.57-1.73.07.18.38.35.75.49,1.14a5.18,5.18,0,0,1-.65-.26A3.26,3.26,0,0,1,52.53,83.29Zm2.15,1.37c-.14-.42-.39-.93,0-1.31C54.72,83.78,54.91,84.25,54.68,84.66Zm-1.48.79.37-.12-.52-.26c0-.24,0-.48,0-.72l.59-.12c0-.22-.21-.49,0-.66a4.6,4.6,0,0,1,.4.58c-.14.17-.28.34-.41.52l.32,0c0,.15.09.29.13.44a5,5,0,0,1,.75-.23,2.47,2.47,0,0,1,.53,1.2l-.5.19a1,1,0,0,1,.55.69l-.6.1c-.2-.31-.37-.64-.57-.95-.15-.06-.24.09-.35.16.21.28.55.52.58.89-.44,0-.74-.47-1-.77l.29-.2Zm0,17.17.29-.16c-.39-2.83.27-5.51.12-8.27,2,2.26,3.17,5.16,5.48,7.1,2.83,2.23,7.13,3.49,8.71,6.73a19.6,19.6,0,0,1,4.79-.72l.12.42a3.34,3.34,0,0,1,.78-.11,4.47,4.47,0,0,1,.34.4l.5-.06c-.2.49-.69.71-1,1.06.64,0,1-.59,1.69-.6a2.7,2.7,0,0,1-.7.69,11.54,11.54,0,0,0-2.8,1.42q-.54-.15-1.08-.27c.24.18.47.36.7.56-.46,0-.91-.11-1.36-.15.22.21.44.41.67.6l-.22.24c.07.13.15.26.21.4-.16.15-.34.28-.49.43.06.11.14.23.21.34l-.61,0c0,.11,0,.22,0,.33l-.58.11a3,3,0,0,0,1.46.31l-.77.14c0,.08,0,.24,0,.32a4.26,4.26,0,0,1-3.48-.42c.38-.09.82-.09,1.1-.42-.86,0-1.68.25-2.42-.32l-.24-.57.7-.63-.93-.46.79-.34-.24-.33c0-.24,0-.49,0-.74a5.49,5.49,0,0,0-2.63-1.2c.73.41,1.61.74,1.77,1.66a12.12,12.12,0,0,0-1.14.57c.49.31,1.18.35,1.48.9l-.5.24c-.18.48-.43.95-1,.81-1.07,1.48-2.33-.47-3-1.34,0,2.63-2-1.38-3,.26-1.65-2.24-4.06-1.8-2.26-5.3-.45.27-.78.75-1.31.89-.37-.39,0-1-.07-1.46-.36,1-.19,2.23-.86,3.14C51.57,106.81,52.66,104.62,53.18,102.62ZM76.1,65.07a3.61,3.61,0,0,1,.64-.27l0,.58a7.19,7.19,0,0,1,1.92.73l.28-.24.29.22h.3c.08.19.16.39.25.58.09-.19.18-.37.28-.55l.51.71c0-.25.06-.49.1-.74.36.2.46.62.61,1l.34-.28a2.29,2.29,0,0,1,1.24.77l.33-.23c.78-.06,1.28.6,2,.85-.27-.66-1.09-1-1.12-1.73l.22-.21c0-.26-.11-.53-.18-.79l-.46-.32A3.72,3.72,0,0,1,82,64.74a1.9,1.9,0,0,1-.17-.56,1.72,1.72,0,0,1-.27.52c-1.75-.49-3.59-.65-5.36-1.1l.18.42c-.44.18-.88.35-1.31.54A2,2,0,0,0,76.1,65.07Zm3.31-.25c.13-.21.46,0,.31.22S79.25,65,79.41,64.82Zm1.38.12,0,.71a1.26,1.26,0,0,1-1.45,0A11.2,11.2,0,0,1,80.79,64.94Zm-25,.76c1.18-.31,1.7-1.38,2.41-2.26,2.16-2.89,5.9-1.63,8.35.13l.21-.85a1.62,1.62,0,0,1,1.26.35v-.5l.27,0-.35-.54a1.2,1.2,0,0,1,1.15.38l.39-.32a2.21,2.21,0,0,1-1-.58l.45-.08c0-.16-.08-.32-.11-.48l.65,0c-.1-.16-.19-.32-.29-.47.46,0,.93-.09,1.39-.16-.91-.33-1.89-.43-2.79-.81,0-.12,0-.36,0-.47-1.16.5-2.13-.11-3.25-.3.34-.38.86-.2,1.31-.17-1.13-.56-2.83-.12-4.09,0a1.83,1.83,0,0,1,.9.5c-.51,0-1,0-1.54,0,2.55.4.42.94-.92.73l.42.67c-.45.23-.9,0-1.33-.14l-.47.36-.09.32-.64,0c0,.13.06.26.1.39h-.48c0,.12,0,.24,0,.36l-.55.09.7.36-.59.08.76.44a1,1,0,0,1-.83.49c.08.14.17.27.24.41a11.43,11.43,0,0,0-1.2,1.11l-.23-.22-.54.25c0-.15,0-.45.05-.6-.29.1-.58.19-.86.3C55.12,64.87,55.77,65,55.77,65.7Zm6.78,3.19c-.38.13-.77.24-1.17.34l.54-.48-.25-.12c.71-.23,1.25-1,2-.92-.31.2-.63.37-.95.55a3.56,3.56,0,0,0,1.23-.4c-.13.2-.27.4-.4.61.84-.3,1.27-1.2,2.19-1.42,0-.31.07-.63.13-.93a2.21,2.21,0,0,1-1.81,1.53l-.27-.37a18.35,18.35,0,0,1-3.74,1.49,2.29,2.29,0,0,0-.09.28c-.74.16-1.26-.35-1.83-.72,0,.14,0,.29,0,.43s-.31,0-.46,0l-.06.19a2.18,2.18,0,0,1,1.54.25c-.29.12-.58.25-.86.39A12.71,12.71,0,0,0,60.86,69a3.86,3.86,0,0,1-1.18.72,10.41,10.41,0,0,1,2.53-.44,4.87,4.87,0,0,1-1.12.61c0,.1,0,.21,0,.32l-.65.29a6.85,6.85,0,0,0,1-.13c-.07-.82.92-.87,1.49-1.13,0-.26,0-.52,0-.77l-.4.07C62.56,68.68,62.56,68.79,62.55,68.89Zm19.82.28L82.29,69c.54-.35,1.22-.34,1.77-.66a4.91,4.91,0,0,0-.55-.38l-.71.19L82.53,68a2.83,2.83,0,0,1-1.89.44,9.63,9.63,0,0,0,1.2,0l-.27.19a8.44,8.44,0,0,1,1.11-.24c-.32.61-1,.69-1.65.77a4,4,0,0,1,1.08.18c-1.34.4-2.67-.26-3.94-.63l.43.43A9.27,9.27,0,0,1,82,70.3c-.88.15-1.67-.35-2.52-.4,1,.57,2.94,1.12,3.56-.08a1.71,1.71,0,0,1-1.7-.14,11.33,11.33,0,0,1,3.29,0,4.12,4.12,0,0,0,.28-.31A3.84,3.84,0,0,1,82.37,69.17ZM65.45,74.3a1.06,1.06,0,0,0-.88-.52c-.53,1.49.86,2,2,1.16A2,2,0,0,1,65.45,74.3Zm12.23,7-.84.49,0-.41c-.23.16-.46.31-.7.45-.06-.24-.12-.48-.17-.72-.15.12-.3.25-.46.36a1.25,1.25,0,0,1-.44-.32,12.36,12.36,0,0,0-6-.07l-.68-.48c-.06.22-.1.45-.15.68-.32,0-.63-.06-1-.08a7.2,7.2,0,0,0-2.52,1.72l-.68,0c.09.2.18.4.28.6h-.54c0,.18,0,.37,0,.56l-.79.12c0,.22,0,.45,0,.67,1.39.43,2-1.51,3.28-1.16l.29-.31c3.87-1.19,8-.78,11.87.2a4.28,4.28,0,0,1,.63-.34L79.7,83a3.5,3.5,0,0,1-2-.91C77.67,81.86,77.67,81.59,77.68,81.32Zm.11-12.22.82.89c0-.15.09-.3.13-.45ZM67.45,28.42a.46.46,0,0,0,.42.28H68l1.76-.35h3.63a.46.46,0,0,0,.45-.36l2-9.15a.22.22,0,0,0,0-.08.38.38,0,0,0,0-.18l-2-5.21a.46.46,0,0,0-.43-.3H70.55l-.09-.14a.46.46,0,0,0-.48-.21l-1.79.36h0L65,13.7a.47.47,0,0,0-.36.38l-.93,5.5v0a.5.5,0,0,0,0,.24ZM73,14l1.82,4.78-1.5,6.9.13-7.78h0a.45.45,0,0,0-.07-.25L71.13,14Zm-6.32,4.15,1.22-.25-.25-1.27a.46.46,0,0,1,.36-.54.47.47,0,0,1,.55.36l.25,1.27,1.23-.24a.46.46,0,0,1,.54.36.47.47,0,0,1-.36.55L69,18.62l.46,2.3a.47.47,0,0,1-.36.55H69a.48.48,0,0,1-.46-.38l-.46-2.3-1.22.25h-.09a.47.47,0,0,1-.46-.37A.46.46,0,0,1,66.72,18.14Z"/></g></g></svg>