<svg xmlns="http://www.w3.org/2000/svg" xmlns:xlink="http://www.w3.org/1999/xlink" width="154" height="84" viewBox="0 0 154 84"><defs><clipPath id="b"><rect width="154" height="84"/></clipPath></defs><g id="a" clip-path="url(#b)"><g transform="translate(-0.009 0.026)"><path d="M8.55,39.28s6.33,1.25,3-1.92c0,0,7.58,2.92,3.92-1.41,0,0,8.08,3.16,2-4.67,0,0,5.66,4.33,1.83-.5,0,0,3,3.75,2.42,0,0,0,2.91,4.67,3-2.42,0,0,3.75,4.34,4.33-.58a4.74,4.74,0,0,0,5.58-3.5S40.05,27,39.38,20c0,0,1.5,2.17,3.75,1.25,0,0,1,1.17,1.84.08,0,0,1.91.92,2.41.09,0,0,1.34,1.91,3.42-1.09,0,0,1.58,2.59,2.92.09,0,0,1.41,2.25,3.16-.42,0,0,.5,2.42,1.67,1,0,0,2.08,1.33,3.08-.17,0,0,4.5,2.75,10.59-8.16,0,0-3.84-1.25-5.59,1.33,0,0-.75-3.33-3.08-.58,0,0-.67-3.76-2.67-1.09,0,0,.25-1.83-2.33.09,0,0,.42-3.42-3.25-.5,0,0-3.75-7.67-3.58-.5,0,0-4.5-9-11.92-3.06,0,0-4-4.78-6.58-.78,0,0-2.42-6.83-1.75,4,0,0-4.92-12.33-5.09-.33,0,0-2.08-1.08-1.16,4.67,0,0-4.59-9.42-12.42-3.34S6.13,24,7.72,25.61c0,0-1.92-2-3.59,1.09-1.19,2.21,1.59,4.45,3.26,5.55-1.77-1-4.53-2.21-.51,2.61,0,0-5.75-3-2.33,2.09,0,0-4-1.59.33,2.33,0,0-4.94-.58-2,5,0,0-3.32-1.67-2.82,5.08,0,0,2.17,1,6.25-3.5S13.14,42.58,8.55,39.28Zm59-13.92c-.92-5.33-3.92-.52-3.92-.52-10.91-3.94-6.41,2.52-6.41,2.52C47.47,19.7,43.05,32,43.05,32c-6.08-2.84-1.17,6.91-1.17,6.91-11.75-11.91,0,11.59,0,11.59C28.88,25,32.05,45,32.05,45c-8.58-13.47-8.92,2-8.92,2-.66-8.75-4.5-4.17-4.5-4.17S8.55,43.28,9.72,49C12,60,19.8,58.45,19.8,58.45c3.67,4.83,4.08.66,4.08.66,8.25,6.59,10.5-.83,10.5-.83a5.15,5.15,0,0,0,5.09,2.42,4.48,4.48,0,0,0,3.66-3.84c.59,1.34,2.84,1.42,4.09.34s.41-4.17.41-4.17c1.92,2.67,2.5,2.33,5.42.67s.58-5.09.58-5.09c6.42,5.59,2.34-3,2.34-3,8.41,5.17,2.83-4.16,2.83-4.16C65.88,48.53,63,40,63,40c4.13,2.78,5.47-9.3,4.55-14.64Zm9,2.16a.67.67,0,0,0,.35,0c.19-.07.23-.27.1-.61A5.22,5.22,0,0,1,77.3,23a12.77,12.77,0,0,1,4.15-5,6.14,6.14,0,0,1,1.65-.88,5.79,5.79,0,0,1,3.45-.35A2,2,0,0,1,88,18a3,3,0,0,1,.13.66,8.67,8.67,0,0,1-.86,4.07,32.55,32.55,0,0,1-4,6.87l-.07.06a.109.109,0,0,1-.1-.1,1,1,0,0,1,0-.14.2.2,0,0,0,0-.09V25.14c0-2.05.06-3.1,0-3.14a.83.83,0,0,0-.52-.39h0a1.39,1.39,0,0,0-1-.2c-.15.08-.26.28-.36.61q-.88,2.84-.62,9.08a60.283,60.283,0,0,0,.72,7,32.3,32.3,0,0,0,1.29,5.31c.16.43.33.84.51,1.22A2.09,2.09,0,0,0,84.73,46a.92.92,0,0,0,.35,0,.35.35,0,0,0,.17-.14.41.41,0,0,0,.1-.21.39.39,0,0,0,0-.21v-.11a3.65,3.65,0,0,1-.26-.55,14.289,14.289,0,0,1-.66-2.82q-.7-3.79-1-7.34a1.09,1.09,0,0,1,.06-.63l.5.59A19.35,19.35,0,0,0,90,39.29a4.9,4.9,0,0,0,4.08.51,1.88,1.88,0,0,0,1.27-1.07.43.43,0,0,0,0-.25c-.06-.15-.18-.19-.37-.13l-.21.11a3.76,3.76,0,0,1-3.17-.29,17.7,17.7,0,0,1-7-5.7l-.14-.2a.41.41,0,0,1,.15-.47,6,6,0,0,0,.8-.87,32,32,0,0,0,4.34-7.17,9.46,9.46,0,0,0,.75-3.49,5,5,0,0,0-.3-1.9,5.581,5.581,0,0,0-.43-.93,4.38,4.38,0,0,0-3.2-2.15,8.47,8.47,0,0,0-4.1.47,14,14,0,0,0-6.5,5.4,7.76,7.76,0,0,0-1.32,4.59,2.55,2.55,0,0,0,.13.81,1.733,1.733,0,0,0,1.81.96Zm15.14-4.91a.82.82,0,0,0,.55.12c.13,0,.22-.17.28-.38A8.27,8.27,0,0,1,93,20.81a.43.43,0,0,0,.06-.37.45.45,0,0,0-.32-.27c-.48-.32-.81-.44-1-.38a.32.32,0,0,0-.19.17A3.66,3.66,0,0,0,91,21.85v.12a1.19,1.19,0,0,0,.73.64Zm61-16.34a.64.64,0,0,0-.56-.13,16.76,16.76,0,0,0-1.87,3,6.519,6.519,0,0,1-.65,1.1.115.115,0,0,1-.1-.09,12.169,12.169,0,0,1-.27-2.87,16.459,16.459,0,0,1,.13-2.57,1.64,1.64,0,0,0,0-.68,1.21,1.21,0,0,0-1-.72.53.53,0,0,0-.39,0c-.22.08-.41.37-.55.86a2.47,2.47,0,0,0-.18.61,5.4,5.4,0,0,1-.09.58A13.448,13.448,0,0,0,147.02,7,13.51,13.51,0,0,1,146,11.79a2.2,2.2,0,0,1-.64,1,5.889,5.889,0,0,1-.35-.77,11.45,11.45,0,0,1-.32-2.76,10.459,10.459,0,0,0-.23-2A1.79,1.79,0,0,0,143,6.08a.53.53,0,0,0-.35,0,.59.59,0,0,0-.29.26,7.28,7.28,0,0,0-.22,4.87l.16.45a4.76,4.76,0,0,0,3.23,3,1.08,1.08,0,0,0,1.44-.47l.51-.77a1.94,1.94,0,0,1,0,1.45c-2.08,4.58-2.89,7.49-2.43,8.76a2.46,2.46,0,0,0,1.36,1.39,1.76,1.76,0,0,0,1.44.18,1.8,1.8,0,0,0,.75-.56,8.27,8.27,0,0,0,1.63-5.3,35.7,35.7,0,0,0-.24-5.27,2.86,2.86,0,0,1,.32-1.68q.81-1.66,2.73-5.1a.86.86,0,0,0,.2-.67.89.89,0,0,0-.47-.35Zm-4.6,12.84a11.891,11.891,0,0,1-.58,2.93,2.65,2.65,0,0,1-1.24,1.67v-.06a4,4,0,0,1,0-1.83,21.571,21.571,0,0,1,.7-2.8,18.769,18.769,0,0,1,1-2.63,10.3,10.3,0,0,1,.2,2.72ZM90.29,30.58c.26,1,.42,1.53.49,1.72a4.11,4.11,0,0,0,2.32,2.64,1.61,1.61,0,0,0,1.23.13,3.07,3.07,0,0,0,1.44-1.83c.46-1.2.87-2.42,1.26-3.64.14,1,.29,1.92.47,2.86a4.27,4.27,0,0,0,.18.67,1.42,1.42,0,0,0,1.16.73.63.63,0,0,0,.38,0,.58.58,0,0,0,.32-.42,2.39,2.39,0,0,0,0-.6,1.77,1.77,0,0,1,.09-.64,9.349,9.349,0,0,1,1,.25,1.76,1.76,0,0,0,1.32-.06,1.5,1.5,0,0,0,.52-.32q3-2.27,2.41-8.45a5.59,5.59,0,0,0-.32-1.35,9.079,9.079,0,0,0-.48-.88,1.938,1.938,0,0,0-2.43-.91c-.87.36-1.55,1.4-2.32,3.22a5.521,5.521,0,0,1-.34.64q0-.46.32-9.81a17,17,0,0,0,0-2.37,1.42,1.42,0,0,0-.08-.41,1.09,1.09,0,0,0-.65-.57,2.56,2.56,0,0,0-1.2-.23c-.13.06-.25.26-.37.57a28.51,28.51,0,0,0-.62,7.05,69.138,69.138,0,0,0,.22,7.68.85.85,0,0,0-.1.19l-.4,1.19q-1.59,5.37-2.44,5.7c-.15.05-.27,0-.35-.26a20,20,0,0,1-.63-6.53A1.15,1.15,0,0,0,92.6,26,1.42,1.42,0,0,0,91,25a.54.54,0,0,0-.27.23,2.84,2.84,0,0,0-.44,1.05,11.3,11.3,0,0,0,0,4.3Zm11.12-7.72c.21-.42.38-.65.52-.7s.34,0,.45.29a3.41,3.41,0,0,1,.19,1.23,13.15,13.15,0,0,1-1,5.64,2.56,2.56,0,0,1-1.19,1.22.69.69,0,0,1-.47,0c-.15-.05-.24-.12-.26-.19a.69.69,0,0,1,0-.41.1.1,0,0,0,0-.09,15.84,15.84,0,0,1,1.76-6.99ZM140.92,8.51a.89.89,0,0,0-1.1-.37,1.3,1.3,0,0,0-.42.25,15.149,15.149,0,0,0-2.47,3.66,9.21,9.21,0,0,0-.19-2.2,1.63,1.63,0,0,0-1.46-1.13h-.18a.54.54,0,0,0-.31.28,3,3,0,0,0-.44,1.53c0,.71,0,1.45,0,2.2a10.34,10.34,0,0,0-.41,2.48c-.19,2.13-.46,3.26-.82,3.39s-.74-.41-1.21-1.6a19.9,19.9,0,0,1-.72-3.31,35.55,35.55,0,0,1-.35-7.48,40,40,0,0,1,.46-4.55.84.84,0,0,0,0-.5A2.33,2.33,0,0,0,129.9,0a.44.44,0,0,0-.3,0c-.28.1-.5.62-.65,1.54a48.178,48.178,0,0,0-.19,10.82,2.35,2.35,0,0,1,0,.59,2.09,2.09,0,0,0-2.24-.46,3.33,3.33,0,0,0-1.22,1,7.65,7.65,0,0,0-1.6,5.42q-1.26,4.94-2.73,5.48c-.25.09-.5-.24-.77-1a15.59,15.59,0,0,1-.73-3.09q-.47-7.45-.41-10.3c.08-1.91.16-3.23.24-3.95a.85.85,0,0,0,0-.57,1.77,1.77,0,0,0-.44-.58,1.68,1.68,0,0,0-.56-.4.59.59,0,0,0-.37,0c-.58.32-.93,1.9-1,4.74a66.132,66.132,0,0,0,.24,10.18h0c-1,3.64-1.82,5.79-2.56,6.44a15,15,0,0,1-.38-6.21,1.3,1.3,0,0,0,0-.69c-.1-.28-.43-.52-1-.7a.86.86,0,0,0-.58,0c-.17.06-.34.31-.5.75a5.44,5.44,0,0,1-.71,1.31l-1.09-.47a2.81,2.81,0,0,0-1.88-.09,2.67,2.67,0,0,0-1.49,1.72s0,.05,0,.06a9.78,9.78,0,0,0-.59,4.11,4.43,4.43,0,0,0,.22,1.32,2.9,2.9,0,0,0,1.77,1.66c.25.1.51.2.78.29a1,1,0,0,0,.66.05c.54-.2,1.13-1.58,1.76-4.14a.63.63,0,0,1,.19-.45l.32.9a3.6,3.6,0,0,0,2.42,2.38,1.21,1.21,0,0,0,.85.05,1.53,1.53,0,0,0,.83-1,45.762,45.762,0,0,0,1.55-4.4,1.63,1.63,0,0,0,.13.48,5.42,5.42,0,0,0,2.3,3,2.13,2.13,0,0,0,1.78.25c1-.36,1.9-1.78,2.67-4.23a4.59,4.59,0,0,0,2,1.49,1.35,1.35,0,0,0,1,.07q1.59-1.35,2.37-5a1.33,1.33,0,0,1,.25-.73c1.09,2.39,2.29,3.35,3.58,2.88a2.375,2.375,0,0,0,1.27-1.75,2.69,2.69,0,0,0,.76,1.09c.68.48,1.15.67,1.42.57a.57.57,0,0,0,.32-.34,1.59,1.59,0,0,0,.15-1q-.09-6.6,2.93-9.82c.31-.28.42-.52.35-.73ZM109.22,26.2l-.09-.22a5.08,5.08,0,0,1-.25-2.27,3.25,3.25,0,0,1,.51-1.67,1.82,1.82,0,0,1,.64-.56.91.91,0,0,1,.82.15,40,40,0,0,1-1.63,4.57Zm19.5-11.35c-.57,3.2-1.33,5.41-2.3,6.63a10.37,10.37,0,0,1,1.08-6.93,1.53,1.53,0,0,1,.61-.51.45.45,0,0,1,.62.2,1.37,1.37,0,0,1-.01.61Zm-1.24,30.5a.87.87,0,0,0-1.09-.37,1.3,1.3,0,0,0-.42.25,15.15,15.15,0,0,0-2.47,3.66,9.21,9.21,0,0,0-.19-2.2,1.63,1.63,0,0,0-1.46-1.13h-.18a.54.54,0,0,0-.31.28,3,3,0,0,0-.44,1.53c0,.65,0,1.33,0,2a.65.65,0,0,0-.15.1,7.74,7.74,0,0,1-2.1,2h-.09c-.17.06-.3,0-.38-.27a7.069,7.069,0,0,0-.38-1.66,4.35,4.35,0,0,0-.67-1.28,4.57,4.57,0,0,0-1-.92,1.37,1.37,0,0,0-1.24-.24,1.56,1.56,0,0,0-.74.68A7.62,7.62,0,0,0,113,50.23a11.2,11.2,0,0,0-.34,2.41,5.6,5.6,0,0,0-.41.51,10.608,10.608,0,0,1-.67.85,2.05,2.05,0,0,1-.66.39,1.39,1.39,0,0,1-1.61-.6,5.83,5.83,0,0,1-.85-1.54l-.28-1a1.19,1.19,0,0,0-.69-.77,1,1,0,0,0-.73,0,.8.8,0,0,0-.53.93,5.69,5.69,0,0,0,.33,1.25,2.3,2.3,0,0,1,.16,1,22.23,22.23,0,0,1-.55,5.21c-.14.54-.32.85-.53.92s-.63-.44-1.06-1.63a10.76,10.76,0,0,1-.63-3.08,1.9,1.9,0,0,0-.09-.42,1.94,1.94,0,0,0-1.29-1,.72.72,0,0,0-.6-.1q-.44.15-.42,1.14a24.4,24.4,0,0,1-.55,7.6c-.18.64-.38,1-.63,1.09s-.44-.34-.76-1.23A7.46,7.46,0,0,1,99.33,61a20,20,0,0,1-.56-4,8.891,8.891,0,0,0-.06-1.68c-.07-.21-.43-.43-1.06-.64a2,2,0,0,0-1.11-.18.47.47,0,0,0-.26.26,2.52,2.52,0,0,0-.42,1.33,13.28,13.28,0,0,0,.1,3c-.06.2-.12.43-.18.7q-1.38,6.16-3,6.77c-.24.09-.5-.23-.76-1a15.659,15.659,0,0,1-.73-3.08c-.61-5.18-.78-8.48-.53-9.89,0-.14.26-.32.66-.55a18.3,18.3,0,0,0,3.78-1.92.82.82,0,0,0,.2-.6.62.62,0,0,0-.28-.31.94.94,0,0,0-.5-.17,1.08,1.08,0,0,0-.52.06c-1.25.44-2.3.87-3.18,1.27l.18-2.17a.93.93,0,0,0,0-.57,1.66,1.66,0,0,0-.44-.57,1.87,1.87,0,0,0-.56-.41.66.66,0,0,0-.37,0c-.47.17-.88,1.59-1.23,4.27a1.27,1.27,0,0,1-.55,1c-1.73.62-2.54,1.17-2.44,1.64l.08.23c.22.6.52.83.92.69l1.79-.71a43.518,43.518,0,0,0,.48,7.6h0c-.14.44-.29.83-.44,1.18q-1.53,5-3.2,5.62a.91.91,0,0,1-1-.17,1.61,1.61,0,0,1-.47-.69c-.18-.51-.22-.83-.13-1l.18-.12A5,5,0,0,0,86,61.61a2.27,2.27,0,0,0-.14-.75,1.93,1.93,0,0,0-1.18-1.17,1.52,1.52,0,0,0-1,0,2.61,2.61,0,0,0-1.31,1.4,9.09,9.09,0,0,0-.62,7.14,4.1,4.1,0,0,0,1.54,2.11,2.18,2.18,0,0,0,2,.31q1.56-.56,2.86-3.49c.5-1.2.9-2.2,1.21-3,.08.28.15.57.24.85a5.42,5.42,0,0,0,2.3,3,2.17,2.17,0,0,0,1.78.25c1.25-.45,2.31-2.53,3.19-6.18v.1a5,5,0,0,0,2.35,2.63,2.48,2.48,0,0,0,1.37.53,3.351,3.351,0,0,0,.45-.1c.41-.14.8-.66,1.16-1.53a2.63,2.63,0,0,0,.23-.72h0a14.771,14.771,0,0,0,.35-2.13,1.51,1.51,0,0,1,.16-.7A6,6,0,0,0,105,61.58a1.53,1.53,0,0,0,1.24.16,1.62,1.62,0,0,0,.86-.79,5.75,5.75,0,0,0,.7-2l.41-3.84a14.493,14.493,0,0,0,1.45.76,2.27,2.27,0,0,0,1.84.16,3.19,3.19,0,0,0,1.26-1c.08.44.17.87.29,1.3a4.49,4.49,0,0,0,2.1,2.47,1.3,1.3,0,0,0,1.13.2h.08a1.75,1.75,0,0,0,.71-.61,4.45,4.45,0,0,0,.79-1.71,12.261,12.261,0,0,0,.43-2.61.59.59,0,0,1,.42-.7,8,8,0,0,0,1.6-1.12,8.459,8.459,0,0,0,.68-.65,35,35,0,0,0,.44,3.66,3.1,3.1,0,0,0,.92,1.49q1,.72,1.41.57a.61.61,0,0,0,.33-.34,1.52,1.52,0,0,0,.14-1q-.08-6.6,2.94-9.82c.3-.28.42-.52.34-.73Zm-43,16a3,3,0,0,1-1,3.16,8.28,8.28,0,0,1,1-3.2ZM116.4,54.6a9.93,9.93,0,0,1-.6,2.13,1.08,1.08,0,0,1-.32.37,9.48,9.48,0,0,1-.43-4.4,1.38,1.38,0,0,1,.61.29c.48.32.74.54.78.67a2.21,2.21,0,0,1-.04.94Zm-.8-3.47a1.812,1.812,0,0,1,.52-1.65,7.56,7.56,0,0,1,.4,2.37,1.29,1.29,0,0,1-.92-.72Zm-38.31-.31-.11-.31c-.08-.22-.35-.3-.81-.21a1.8,1.8,0,0,0-.51.08c-.23.08-.34.19-.35.32a1.61,1.61,0,0,0,0,.46q.34,4.05,1.92,13.75c.86,4.88,1.25,7.65,1.15,8.32l-.49-.39q-3.7-4.35-8.1-14.43a6.55,6.55,0,0,0-1.14-2.25A2.07,2.07,0,0,0,67.77,56h0a1.23,1.23,0,0,0-.51.08c-.43.16-.51,1.07-.23,2.73q3,21.56,2.69,22.79a2.66,2.66,0,0,0,.08,1c.12.34.68.51,1.65.52a2.76,2.76,0,0,0,.82-.13l.2-.07c.2-.14.26-.41.19-.8q-.84-4.26-1.39-8.81T69.9,64.45l.1-.06c.45.77.93,1.62,1.43,2.54a36.34,36.34,0,0,0,5.21,8,3.75,3.75,0,0,0,3.86,1,1,1,0,0,0,.61-1,30.1,30.1,0,0,0-.72-5.38q-1.78-9.75-3.1-18.73Zm61.23-7.49a.78.78,0,0,0-.5,0,42.2,42.2,0,0,0-2.16,4.12,5.65,5.65,0,0,1-1.41,1.82l-.42.18a1.33,1.33,0,0,1-.88,0,1.2,1.2,0,0,1-.82-.79,1.48,1.48,0,0,1,.37-1.44c1-1.19,1.79-3.39,2.51-6.58a1,1,0,0,0,0-.62,2.23,2.23,0,0,0-.94-.49h-.13a.84.84,0,0,0-.45,0,.68.68,0,0,0-.39.43l-.48,1.32a30.508,30.508,0,0,1-2.14,4.85.49.49,0,0,1-.14-.21l-.06-.17A83.86,83.86,0,0,1,131,32.91a1.67,1.67,0,0,0,0-.76,1.835,1.835,0,0,0-1-.48.93.93,0,0,0-.53,0q-.87.48-1.19,7.12a58.94,58.94,0,0,0,1,16,1.8,1.8,0,0,0,.11.5,1.32,1.32,0,0,0,1,.87,1.05,1.05,0,0,0,.59,0c.22-.17.25-.67.1-1.51-.2-2.09-.3-3.73-.31-4.92a.47.47,0,0,1,.32.08,1.28,1.28,0,0,1,.22.17l.15.14a7.08,7.08,0,0,0,2.34,1,2.51,2.51,0,0,0,1.49,0,2.69,2.69,0,0,0,1.5-1.5l2.35-5.05a1.1,1.1,0,0,0,.13-.81,1,1,0,0,0-.75-.43Z" fill="#b24ca1"/></g></g></svg>