<svg xmlns="http://www.w3.org/2000/svg" xmlns:xlink="http://www.w3.org/1999/xlink" width="202" height="107.49" viewBox="0 0 202 107.49"><defs><linearGradient id="linear-gradient" x1="73.89" y1="55.05" x2="128.89" y2="55.05" gradientUnits="userSpaceOnUse"><stop offset="0" stop-color="#e9eced"/><stop offset="1" stop-color="#d3d3d7"/></linearGradient><linearGradient id="linear-gradient-2" x1="101.89" y1="69.05" x2="109.89" y2="69.05" gradientUnits="userSpaceOnUse"><stop offset="0" stop-color="#555e70"/><stop offset="1" stop-color="#d3d5d8"/></linearGradient><linearGradient id="linear-gradient-3" x1="105.89" y1="69.05" x2="94.89" y2="69.05" xlink:href="#linear-gradient-2"/><linearGradient id="linear-gradient-4" x1="92.89" y1="74.05" x2="98.89" y2="74.05" xlink:href="#linear-gradient-2"/><linearGradient id="linear-gradient-5" x1="83.89" y1="77.05" x2="96.89" y2="77.05" xlink:href="#linear-gradient-2"/><linearGradient id="linear-gradient-6" x1="74.89" y1="71.55" x2="84.89" y2="71.55" xlink:href="#linear-gradient-2"/><linearGradient id="linear-gradient-7" x1="69.89" y1="71.55" x2="78.89" y2="71.55" xlink:href="#linear-gradient-2"/><linearGradient id="linear-gradient-8" x1="89.89" y1="70.05" x2="80.89" y2="70.05" xlink:href="#linear-gradient-2"/><linearGradient id="linear-gradient-9" x1="79.89" y1="58.55" x2="69.89" y2="58.55" xlink:href="#linear-gradient-2"/><linearGradient id="linear-gradient-10" x1="120.89" y1="57.55" x2="110.89" y2="57.55" xlink:href="#linear-gradient-2"/><linearGradient id="linear-gradient-11" x1="125.39" y1="43.05" x2="125.39" y2="57.05" xlink:href="#linear-gradient-2"/><linearGradient id="linear-gradient-12" x1="116.89" y1="54.05" x2="125.89" y2="54.05" xlink:href="#linear-gradient-2"/><linearGradient id="linear-gradient-13" x1="117.89" y1="38.05" x2="128.89" y2="38.05" xlink:href="#linear-gradient-2"/><linearGradient id="linear-gradient-14" x1="121.89" y1="43.55" x2="117.89" y2="43.55" xlink:href="#linear-gradient-2"/><linearGradient id="linear-gradient-15" x1="108.89" y1="30.05" x2="114.89" y2="30.05" xlink:href="#linear-gradient-2"/><linearGradient id="linear-gradient-16" x1="88.58" y1="40.1" x2="109.08" y2="60.93" gradientUnits="userSpaceOnUse"><stop offset="0" stop-color="#fefefe"/><stop offset="0.34" stop-color="#c8c3c2"/><stop offset="0.67" stop-color="#eaedee"/><stop offset="1" stop-color="#f1f2f3"/></linearGradient><linearGradient id="linear-gradient-17" x1="105.89" y1="67.55" x2="117.89" y2="67.55" xlink:href="#linear-gradient-2"/><linearGradient id="linear-gradient-18" x1="82.82" y1="57.78" x2="109.6" y2="39.56" gradientTransform="translate(44.56 -46.12) rotate(34.57)" gradientUnits="userSpaceOnUse"><stop offset="0" stop-color="#928f8e"/><stop offset="0.12" stop-color="#979596"/><stop offset="0.39" stop-color="#595e71"/><stop offset="0.6" stop-color="#8f9295"/><stop offset="0.78" stop-color="#fffff1"/><stop offset="1" stop-color="#bdb7b1"/></linearGradient><linearGradient id="linear-gradient-19" x1="84.58" y1="55.87" x2="105.58" y2="39.7" gradientTransform="translate(43.81 -45.73) rotate(34.57)" gradientUnits="userSpaceOnUse"><stop offset="0" stop-color="#726f80"/><stop offset="0.38" stop-color="#8a91b0"/><stop offset="1" stop-color="#b3bfd6"/></linearGradient><linearGradient id="linear-gradient-20" x1="86.56" y1="52.34" x2="102.34" y2="40.67" gradientTransform="translate(43.07 -45.33) rotate(34.57)" gradientUnits="userSpaceOnUse"><stop offset="0" stop-color="#746d75"/><stop offset="0.48" stop-color="#fff"/><stop offset="0.87" stop-color="#6e6571"/></linearGradient><linearGradient id="linear-gradient-21" x1="90.8" y1="50.92" x2="98.96" y2="44.92" xlink:href="#linear-gradient-19"/><linearGradient id="linear-gradient-22" x1="90.59" y1="36.92" x2="95.59" y2="34.92" gradientUnits="userSpaceOnUse"><stop offset="0" stop-color="#485e00"/><stop offset="0.59" stop-color="#e5f095"/><stop offset="1" stop-color="#e0ec92"/></linearGradient><linearGradient id="linear-gradient-23" x1="86.65" y1="28.97" x2="112.99" y2="0.63" xlink:href="#linear-gradient-22"/><linearGradient id="linear-gradient-24" x1="86.42" y1="28.49" x2="47.98" y2="22.49" xlink:href="#linear-gradient-22"/><linearGradient id="linear-gradient-25" x1="87.66" y1="29.82" x2="115.88" y2="1.59" gradientUnits="userSpaceOnUse"><stop offset="0" stop-color="#485e00"/><stop offset="1" stop-color="#dfec90"/></linearGradient><linearGradient id="linear-gradient-26" x1="86.63" y1="33.25" x2="47.97" y2="26.58" gradientUnits="userSpaceOnUse"><stop offset="0" stop-color="#4e5f09"/><stop offset="1" stop-color="#e1ed98"/></linearGradient><linearGradient id="linear-gradient-27" x1="87.54" y1="30.54" x2="79.2" y2="6.21" gradientUnits="userSpaceOnUse"><stop offset="0" stop-color="#485e00"/><stop offset="1" stop-color="#aecb5c"/></linearGradient></defs><g id="Layer_2" data-name="Layer 2"><g id="logos"><polygon points="128.89 49.05 125.89 57.05 120.89 57.05 114.89 64.05 117.89 67.05 109.89 74.05 105.89 70.05 98.89 74.05 96.89 80.05 87.89 80.05 89.89 74.05 84.89 72.05 78.89 77.05 73.89 72.05 80.89 67.05 79.89 61.05 73.89 62.05 76.89 53.05 83.89 52.05 87.89 47.05 84.89 42.05 92.89 36.05 95.89 39.05 103.89 36.05 104.89 31.05 114.89 30.05 112.89 36.05 118.89 38.05 124.89 34.05 128.89 38.05 121.89 44.05 121.89 49.05 128.89 49.05" fill="url(#linear-gradient)"/><polygon points="101.89 64.05 105.89 70.05 109.89 74.05 105.89 68.05 101.89 64.05" fill="url(#linear-gradient-2)"/><polygon points="98.89 74.05 105.89 70.05 101.89 64.05 94.89 68.05 98.89 74.05" fill="url(#linear-gradient-3)"/><polygon points="96.89 80.05 92.89 74.05 94.89 68.05 98.89 74.05 96.89 80.05" fill="url(#linear-gradient-4)"/><polygon points="87.89 80.05 83.89 74.05 92.89 74.05 96.89 80.05 87.89 80.05" fill="url(#linear-gradient-5)"/><polygon points="78.89 77.05 74.89 71.05 80.89 66.05 84.89 72.05 78.89 77.05" fill="url(#linear-gradient-6)"/><polygon points="69.89 66.05 73.89 72.05 78.89 77.05 74.89 71.05 69.89 66.05" fill="url(#linear-gradient-7)"/><polygon points="80.89 66.05 84.89 72.05 89.89 74.05 85.89 68.05 80.89 66.05" fill="url(#linear-gradient-8)"/><polygon points="69.89 56.05 73.89 62.05 79.89 61.05 75.89 55.05 69.89 56.05" fill="url(#linear-gradient-9)"/><polygon points="120.89 57.05 116.89 51.05 110.89 58.05 114.89 64.05 120.89 57.05" fill="url(#linear-gradient-10)"/><polygon points="128.89 49.05 124.89 43.05 121.89 51.05 125.89 57.05 128.89 49.05" fill="url(#linear-gradient-11)"/><polygon points="125.89 57.05 121.89 51.05 116.89 51.05 120.89 57.05 125.89 57.05" fill="url(#linear-gradient-12)"/><polygon points="124.89 32.05 128.89 38.05 121.89 44.05 117.89 38.05 124.89 32.05" fill="url(#linear-gradient-13)"/><polygon points="117.89 43.05 121.89 49.05 121.89 44.05 117.89 38.05 117.89 43.05" fill="url(#linear-gradient-14)"/><polygon points="110.89 24.05 114.89 30.05 112.89 36.05 108.89 30.05 110.89 24.05" fill="url(#linear-gradient-15)"/><polygon points="84.23 73.8 86.2 67.9 80.84 65.76 74.9 70.71 70.27 66.08 77.16 61.16 76.09 54.76 70.26 55.73 73.08 47.27 80.02 46.28 84.19 41.07 81.22 36.11 88.86 30.38 91.83 33.34 100.11 30.23 101.1 25.28 110.53 24.34 108.57 30.21 114.93 32.33 120.86 28.37 124.52 32.03 117.64 37.93 117.64 43.3 124.53 43.3 121.72 50.8 116.77 50.8 110.55 58.06 113.52 61.04 105.9 67.71 101.93 63.74 94.68 67.88 92.71 73.8 84.23 73.8" fill="url(#linear-gradient-16)"/><path d="M110.17,24.62l-1.76,5.27-.15.47.47.16,6,2,.23.08.21-.14,5.65-3.77L124.15,32l-6.59,5.65-.17.15v5.73h6.78l-2.63,7h-4.88l-.15.17-6,7-.3.35.33.33L113.16,61l-7.25,6.34-3.67-3.66-.27-.27-.33.18-7,4-.17.1-.06.18-1.88,5.66h-8l1.78-5.34.15-.45-.44-.18-5-2-.27-.11-.23.19-5.65,4.71-4.26-4.26,6.52-4.65.25-.19-.05-.3-1-6-.08-.5-.49.09-5.18.86,2.64-7.92,6.69-1,.2,0,.12-.16,4-5,.22-.27-.18-.3-2.77-4.61,7.29-5.47,2.7,2.69.22.23.3-.11,8-3,.26-.1.06-.27.93-4.64,8.86-.89m.72-.57-10,1-1,5-8,3-3-3-8,6,3,5-4,5-7,1-3,9,6-1,1,6-7,5,5,5,6-5,5,2-2,6h9l2-6,7-4,4,4,8-7-3-3,6-7h5l3-8h-7v-5l7-6-4-4-6,4-6-2,2-6Z" fill="#e4e3e7"/><polygon points="117.89 67.05 113.89 61.05 105.89 68.05 109.89 74.05 117.89 67.05" fill="url(#linear-gradient-17)"/><ellipse cx="96.39" cy="48.55" rx="16.09" ry="10.37" transform="matrix(0.82, -0.57, 0.57, 0.82, -10.53, 63.26)" fill="url(#linear-gradient-18)"/><ellipse cx="95.39" cy="47.55" rx="13.87" ry="8.94" transform="translate(-10.14 62.51) rotate(-34.57)" fill="url(#linear-gradient-19)"/><ellipse cx="94.39" cy="46.55" rx="9.97" ry="6.42" transform="translate(-9.75 61.77) rotate(-34.57)" fill="url(#linear-gradient-20)"/><ellipse cx="95.39" cy="47.55" rx="5.89" ry="3.8" transform="translate(-10.14 62.51) rotate(-34.57)" fill="url(#linear-gradient-21)"/><path d="M96.89,47.05s-1.32-11-11.16-21l-.84,1s7,7,8,20C92.89,47.05,93.89,49.05,96.89,47.05Z" fill="url(#linear-gradient-22)"/><path d="M114.89.05s-36,11-28,29C86.89,29.05,95.89,43.05,114.89.05Z" fill="url(#linear-gradient-23)"/><path d="M47.89,23.05s35-14,39,6C86.89,29.05,92.89,47.05,47.89,23.05Z" fill="url(#linear-gradient-24)"/><path d="M86.89,28.05a12.88,12.88,0,0,1-1.15-4.71,12.5,12.5,0,0,0,1.15,5.71s9,14,28-29h0C96.25,41.61,86.89,28.05,86.89,28.05Z" fill="url(#linear-gradient-25)"/><path d="M47.89,23.05h0c37.17,19.82,39.54,11,39.24,7.32C86.8,34.27,81,40.51,47.89,23.05Z" fill="url(#linear-gradient-26)"/><path d="M104.79,6.12l.1-.07Zm0,0A57.23,57.23,0,0,0,91.57,18.06h0a22.35,22.35,0,0,1,4.54-8.19c-1.71,1.88-5.7,6.58-5.49,9.49l0-.06c-3.36,4.81-3.76,8.22-3.79,9.35h0a15,15,0,0,0-6.65-4.74l0,0c-2.61-4.15-9.38-3.86-9.38-3.86,5.94.85,7.2,2.65,7.44,3.18-8.68-2.63-19.44-1.18-19.44-1.18,10-1,17.21,1,22,3.23a15.88,15.88,0,0,0-10,1.77c7-2,11.52-1,11.56-1a24.38,24.38,0,0,1,5,3.53l.43.43a21.22,21.22,0,0,1,2.31-7.81,30.67,30.67,0,0,0,8.69-5.19,28.15,28.15,0,0,1-8,4,38.07,38.07,0,0,1,4.26-6c.74-.07,3.54-.58,7.79-4a25.17,25.17,0,0,1-7.55,3.7A57.07,57.07,0,0,1,104.79,6.12ZM96.26,9.71q.3-.33.63-.66S96.65,9.29,96.26,9.71Z" opacity="0.5" fill="url(#linear-gradient-27)"/><path d="M2,107.49l-2-2v-4H6v1H18v-3H4l-4-4v-10H22l2,2v4H18v-1H6v5l2-2H20l4,4v10Z" fill="#aeb4be"/><path d="M34,107.49v-9l-8-8v-5h5l7,7,7-7h5v5l-8,8v7l-2,2Z" fill="#aeb4be"/><path d="M54,107.49l-2-2v-20h6l7,7,7-7h6v20l-2,2H70v-8l2-2v-2l-7,7-7-7v2l2,2v8Z" fill="#aeb4be"/><path d="M80,107.49v-22h20l4,4v6l-1,1,1,1v8l-2,2H84l6-6h8l-2-2H86l2,2-6,6Zm18-14-2-2H86l2,2Z" fill="#aeb4be"/><path d="M108,107.49l-2-2v-20h6l2,2v20Z" fill="#aeb4be"/><path d="M116,107.49v-20l2-2h22v20l-2,2Zm18-6v-10H122v10Z" fill="#aeb4be"/><path d="M150,107.49v-17h-2v1h-6v-4l2-2h20l2,2v4h-6v-1h-2v15l-2,2Z" fill="#aeb4be"/><path d="M170,107.49l-2-2v-20h6l2,2v20Z" fill="#aeb4be"/><path d="M178,107.49v-22l8,8v8h8l2-2h6v6l-2,2Zm18-14-2-2h-8l-6-6h20l2,2v6Z" fill="#aeb4be"/><g opacity="0.2"><rect y="101.49" width="6" height="1"/><polygon points="8 93.49 6 95.49 6 96.49 8 94.49 20 94.49 24 98.49 24 97.49 20 93.49 8 93.49"/><rect x="6" y="102.49" width="12" height="1"/><polygon points="58 98.49 60 100.49 60 99.49 58 97.49 58 98.49"/><polygon points="0 85.49 0 86.49 22 86.49 24 88.49 24 87.49 22 85.49 0 85.49"/><polygon points="88 94.49 98 94.49 97 93.49 88 93.49 87 92.49 86 92.49 88 94.49"/><rect x="122" y="101.49" width="12" height="1"/><polygon points="186 93.49 178 85.49 178 86.49 186 94.49 186 93.49"/><polygon points="87 100.49 86 100.49 87.5 101.99 88 101.49 87 100.49"/><polygon points="98 102.49 97 101.49 90 101.49 84 107.49 85 107.49 90 102.49 98 102.49"/><polygon points="38 92.49 31 85.49 26 85.49 26 86.49 31 86.49 38 93.49 45 86.49 50 86.49 50 85.49 45 85.49 38 92.49"/><polygon points="116 87.49 116 88.49 118 86.49 140 86.49 140 85.49 118 85.49 116 87.49"/><polygon points="144 85.49 142 87.49 142 88.49 144 86.49 164 86.49 166 88.49 166 87.49 164 85.49 144 85.49"/><polygon points="168 85.49 168 86.49 174 86.49 176 88.49 176 87.49 174 85.49 168 85.49"/><polygon points="194 101.49 186 101.49 186 102.49 194 102.49 196 100.49 202 100.49 202 99.49 196 99.49 194 101.49"/><polygon points="200 85.49 180 85.49 181 86.49 200 86.49 202 88.49 202 87.49 200 85.49"/><polygon points="106 85.49 106 86.49 112 86.49 114 88.49 114 87.49 112 85.49 106 85.49"/><polygon points="65 92.49 58 85.49 52 85.49 52 86.49 58 86.49 65 93.49 72 86.49 78 86.49 78 85.49 72 85.49 65 92.49"/><polygon points="103 97.49 104 98.49 104 97.49 103.5 96.99 103 97.49"/><polygon points="72 98.49 72 97.49 70 99.49 70 100.49 72 98.49"/><polygon points="80 85.49 80 86.49 100 86.49 104 90.49 104 89.49 100 85.49 80 85.49"/></g></g></g></svg>