<svg xmlns="http://www.w3.org/2000/svg" xmlns:xlink="http://www.w3.org/1999/xlink" width="265.53" height="118.87" viewBox="0 0 265.53 118.87"><defs><linearGradient id="linear-gradient" x1="102.69" y1="40.5" x2="162.69" y2="40.5" gradientUnits="userSpaceOnUse"><stop offset="0" stop-color="#f05921"/><stop offset="1" stop-color="#f16938"/></linearGradient></defs><g id="Layer_2" data-name="Layer 2"><g id="logos"><path d="M102.69,61l14,9V11l-14,10Zm20-54V74l10,7,10-7V7l-10-7Zm26,4V70l14-9V21Z" fill="url(#linear-gradient)"/><polygon points="116.69 70 102.69 61 116.69 52 116.69 70" fill="#c24020"/><polygon points="148.69 70 162.69 61 148.69 52 148.69 70" fill="#c24020"/><polygon points="132.69 81 122.69 74 132.69 67 142.69 74 132.69 81" fill="#c24020"/><polygon points="132.69 56 122.69 49 132.69 42 142.69 49 132.69 56" fill="#c24020"/><polygon points="132.69 0 132.69 32 122.69 39 122.69 7 132.69 0" fill="#d64725"/><polygon points="142.69 39 132.69 32 132.69 0 142.69 7 142.69 39" fill="#f37b53"/><path d="M0,108.33H18.36c1,0,2,0,2-1.19v-5.78c0-1.19-1-1.19-2-1.19H8.16c-4.08,0-8.16,0-8.16-4.59V93.37c0-4.59,4.08-4.59,8.16-4.59H23.8v2.89H7.14c-1,0-2,0-2,1.19v3.23c0,1.19,1,1.19,2,1.19h10.2c4.08,0,8.16,0,8.16,4.59v4.76c0,4.59-4.08,4.59-8.16,4.59H0Z" fill="#f16939"/><path d="M33.32,94.9l6.12,12.24L45.56,94.9h4.76l-10.2,20.4c-1,2-1.87,3.57-5.1,3.57H30.6v-2.55h2.72c1.53,0,1.7-.34,2.21-1.36l1.53-3.06-8.5-17Z" fill="#f16939"/><path d="M53,108.67H66.3c.85,0,1.7,0,1.7-1v-3.06c0-1-.85-1-1.7-1H59.84c-3.4,0-6.8,0-6.8-3.91v-.85c0-3.91,3.4-3.91,6.8-3.91H71.4v2.55H59.5c-.85,0-1.7,0-1.7,1V100c0,1,.85,1,1.7,1H66c3.4,0,6.8,0,6.8,3.91v2.38c0,3.91-3.4,3.91-6.8,3.91H53Z" fill="#f16939"/><path d="M76.84,98.81c0-3.91,3.4-3.91,6.8-3.91H95.2v2.55H83.3c-.85,0-1.7,0-1.7,1v9.18c0,1,.85,1,1.7,1H95.2v2.55H83.64c-3.4,0-6.8,0-6.8-3.91Z" fill="#f16939"/><path d="M99.28,98.81c0-3.91,3.4-3.91,6.8-3.91h6.12c3.4,0,6.8,0,6.8,3.91v8.5c0,3.91-3.4,3.91-6.8,3.91h-6.12c-3.4,0-6.8,0-6.8-3.91Zm6.46,9.86h6.8c.85,0,1.7,0,1.7-1V98.47c0-1-.85-1-1.7-1h-6.8c-.85,0-1.7,0-1.7,1v9.18C104,108.67,104.89,108.67,105.74,108.67Z" fill="#f16939"/><path d="M123.08,98.81c0-3.91,3.4-3.91,6.8-3.91h4.76v2.55h-5.1c-.85,0-1.7,0-1.7,1v12.75h-4.76Z" fill="#f16939"/><path d="M138.72,98.81c0-3.91,3.4-3.91,6.8-3.91h6.12c3.4,0,6.8,0,6.8,3.91v4.76h-15v4.08c0,1,.85,1,1.7,1h12.58v2.55H145.52c-3.4,0-6.8,0-6.8-3.91Zm15,2.21V98.47c0-1-.85-1-1.7-1h-6.8c-.85,0-1.7,0-1.7,1V101Z" fill="#f16939"/><path d="M176.46,88.78h6.8l8.67,17.34,8.67-17.34h6.79v22.44h-5.1V94.56L194,111.22h-4.08l-8.33-16.66v16.66h-5.1Z" fill="#f16939"/><path d="M212.16,88.78H236v2.89h-18.7v5.61h16.66v2.89H217.26v11h-5.1Z" fill="#f16939"/><path d="M240,93.37c0-4.59,4.08-4.59,8.16-4.59h15.63v2.89H247.18c-1,0-2,0-2,1.19v14.28c0,1.19,1,1.19,2,1.19H258.4c1,0,2,0,2-1.19v-7h-5.1V97.28h10.2v9.35c0,4.59-4.07,4.59-8.15,4.59H248.2c-4.08,0-8.16,0-8.16-4.59Z" fill="#f16939"/></g></g></svg>