<svg xmlns="http://www.w3.org/2000/svg" width="308" height="107.04" viewBox="0 0 308 107.04"><g id="Layer_2" data-name="Layer 2"><g id="logos"><polygon points="0 60.04 47 60.04 47 107.04 0 107.04 17 84.04 0 60.04" fill="#ef9a94"/><polygon points="26 99.04 47 107.04 47 92.04 26 99.04" fill="#e4594e"/><polygon points="308 60.04 261 60.04 261 107.04 308 107.04 291 84.04 308 60.04" fill="#ef9a94"/><polygon points="282 99.04 261 107.04 261 92.04 282 99.04" fill="#e4594e"/><rect x="26" y="53.04" width="256" height="46" fill="#ea7f75"/><path d="M43.25,70.27H43v.41h.26Zm7.39,9.29h.26V79h-.26Zm-6.77-9.44H43.6v.56h.27Zm.59-2.31H44.2v.56h.26Zm.32,2.92h-.27v.42h.27Zm-.62-3.25-.51,0,.45.46Zm-.88,3.82h.27v-.57h-.27Zm.14-2.21-.3.31.36.2Zm6.84,12.62c.5.08.16-.93,0-1a.62.62,0,0,0,.23-.45s-.1.18-.3.38l-.31-.3a2.57,2.57,0,0,1-.38.56c.28,0,.46,0,.53-.11.11.09-.09.3-.09.4s.59,0,.47.15a4.19,4.19,0,0,1-1,.13,4.6,4.6,0,0,1-1.21,1.24c-.06.21-.1.39-.13.54,0-1-.85.48-.92.61-.17-.18-.21-.32-.1-.43a16.56,16.56,0,0,1-1.81.61s.2.34,0,.43c-.24-.33-.36-.49-.35-.49a.09.09,0,0,0-.06,0,4.46,4.46,0,0,1-.8-.13.45.45,0,0,1-.11.28c-.62-.55-1.09-1-1.42-1.2-.27-1.71-.44-2.81-.53-3.28-.47.29-.19-.42-.5-.42-.69-.06-2.83,1.94-2.67,2.69.22,2.33,4.54,3.65,6.51,3.29.19,0,1.34-.66,1.53-.62.36.26.85,0,1.26,0,.11-.06.26-.53.4-.56.12.81,1-.1,2.24-1A6.48,6.48,0,0,0,50.26,81.71ZM42.64,71.5h-.27v.41h.27Zm8,6.83h.26v-.41h-.26Zm-7.39-7.45H43v1.33h.26Zm-.31-.15h-.27v.72h.27Zm2.12-4.81-.15-.15-.38.36.15.17Zm-2.32,6.64.2-.42-.22-.06-.2.38Zm.18-2.19-.15-.17-.38.38.15.17Zm7.83,5.36-.19-.45-.22.1.18.35ZM50.41,79l-.22.08.18.36h.22Zm.06-4.67a.27.27,0,0,1,.17-.23.79.79,0,0,1,.15.31,1.34,1.34,0,0,0-.13-.44C50.53,73.94,50.47,74.06,50.47,74.3Zm-4.86-.65.38-.38-.17-.15-.36.37Zm.63-7.5a.83.83,0,0,1-.6-.27c.15-.13.2-.53.62-.43-.09.09-.11.16-.07.2a4.13,4.13,0,0,1,.3-.31.42.42,0,0,0,.36.13c-.08-.18-.48-.59-.57-.77a8.64,8.64,0,0,0-.77.62s.37.16.21.33c-.15-.18-.37.14-.36.28a.41.41,0,0,1,.28.12l-.3.32C45.85,66.37,46.15,66.29,46.24,66.15Zm-1.31,7.59-.2-.45-.22.1.19.35ZM50,80.28l.24.08.26-.75h-.23Zm.67-4.2.4.2.08-.24-.4-.18ZM47.4,64.66A20.26,20.26,0,0,1,50,64.42l.3-.31c.33.19,7.14,2,7.49,2,1.46-.06,3.64-2.16,2.77-3.69-.77.87-3.81-.73-4.62-.76-.28-.05-1,.29-1.21.08,0-.1.13-.24-.08-.23a4.81,4.81,0,0,0-2.84.53c-.89-.71-3.57.83-3.73,1.78,0,0-.16-.11-.39-.32-.1,0-.33.19-.71.56a.5.5,0,0,1,.31.14c0,.05-.46.23-.44.35a.8.8,0,0,0,.51-.29Q47.55,64.51,47.4,64.66ZM51,63.84h.25v.4H51Zm-.79-1c.66,0,.7.46.21.87.14-.15.12-.31,0-.49-.27.28-.48.42-.61.42.3-.27.52-.48.68-.65A.26.26,0,0,0,50.16,62.81Zm-.33,1.07-.2.41-.22-.1.2-.4Zm-.57-.35h.27v.41h-.27Zm-.73-.3h.23l-.2.6-.21-.09Zm2.79,12.58a1.86,1.86,0,0,1,.36.58v-.63A.4.4,0,0,1,51.32,75.81Zm-.33.73.4.2.1-.21-.42-.2Zm-7.36-4.9.4.19.1-.22-.41-.2Zm1.15,1.18v-.41h-.27v.41Zm-.12-.58-.38-.45-.15.39ZM44.46,71v-.4H44.2V71Zm1.41,1.94V71.69l-.34,1.15ZM45,66.71a1.87,1.87,0,0,1-.21.9,1.79,1.79,0,0,0,.71-.77C45.33,66.92,45,66.71,45,66.71Zm-.56,6.58L44,72.92a.47.47,0,0,1-.15.38,1.63,1.63,0,0,1-.18-.53v.48l.33.29S44,73.29,44.4,73.29Zm.73.3h.26V73h-.26ZM44,68.74a1.07,1.07,0,0,0,.42.88,1.69,1.69,0,0,1-.07-.91A.35.35,0,0,1,44,68.74Zm-.56,3.5.31-.23-.31-.32Zm11.27-4.6c-.24,0-.32.1-.23.3l-.3-.3A6.89,6.89,0,0,0,51.66,70l.46.37-.15.2-.45-.37c-.45.65-.66,1-.6,1-.41,0-.22.72.28,0l.07.78a5.9,5.9,0,0,0,.45-.63c0,.13.36.5.48.48V73s-.92-.13-1,0a7.64,7.64,0,0,0,.45-.94c-.08-.09-.19-.07-.34,0l0,.38a2.09,2.09,0,0,0-.47.52c.12.08,1,.08,1.07.28l-.25.25a3.51,3.51,0,0,1-.49,0c.11.23.59.73.29,1a.64.64,0,0,1,.45.12.72.72,0,0,1-.5.23,7,7,0,0,1-.37-.91,2.78,2.78,0,0,1,.05,1.21s0-.14.15-.15l.47.45c0,.07-.16-.58,0-.62A2.46,2.46,0,0,1,52,77.29c.22-.22.41-.25.56-.08a6.37,6.37,0,0,0-.9,1.44c.38-.14.65-.24.82-.28.06.13,0,.29-.17.46-.28-.52-.7.23-.74.45-.34-.33-.22-1-.24-1.41.37-.24.36-.49.45-.85-.06,0-.65-.2-.71-.18a2.83,2.83,0,0,0-.58,1.3c.15-.4.34-.59.56-.57V80c.28-.23.87-.5.9.08-.4.17-.71.28-.92.35.41,0,.62.12.62.35-.45.17-.47.78-.57,1.84,0,.11.68-2.77,1.2-2.62a5.15,5.15,0,0,1-.6,2.16c1.1-1.16,2.64-3.1,1.74-4.73A18.19,18.19,0,0,1,52.3,79.9a1.24,1.24,0,0,1,.33-1.27c.07-.12-.24-.62-.15-.73.22.25.69.2.5-.28-.39.16-.64.18-.75.07a3.58,3.58,0,0,0,.68-.87,3.31,3.31,0,0,1,.32.4.62.62,0,0,1,.15-.55,1.52,1.52,0,0,1,.15.55s.56-.25.55,0c-.48.31-.25,1.2-.27,1.45.78-.68.74-3.91,1.18-4.55a1.05,1.05,0,0,0-.7.18c.39-.19.12.49,0,.55-.19-.35-1-.44-1-1a10.34,10.34,0,0,1,1.15-.73c.09.09.09.36.18.44.22-1.85.51-1.91.05-3a.41.41,0,0,0,.17-.39c-.29.14-1.1-.18-1.1-.64a4.32,4.32,0,0,0,1.4.3c-.29-.65.52-1.6,0-2.26ZM52,79.78l-.37-.38.15-.15.39.38ZM53,78.65l.35-.18.08.21-.43.19Zm0,.33c.23.23.35.38.35.45a.44.44,0,0,1-.35-.15l-.35.3A.91.91,0,0,1,53.08,79Zm0-10.31.17.15-.55.55-.15-.17Zm-.68,1.08.38.38-.17.15-.36-.38ZM52,75l.17-.16.53.55-.17.15Zm.39-2.22v-.22l.34-.18.1.22ZM52.33,76v-.41h.25V76Zm.23.39v-.24l.37-.18.08.22Zm.38-.88c-.12.12-.18.21-.18.28s.13-.61.12-.67a.52.52,0,0,0,.35.22A.47.47,0,0,0,52.94,75.55Zm1.14-.17a3,3,0,0,1,0,1c-.23,0-.35.1-.35.31l-.23-1C53.94,75.37,54,74.46,54.08,75.38Zm-.74-.86a.64.64,0,0,1,.25-.1.79.79,0,0,1-.2.41c-.12-.14-.22-.21-.31-.21A1,1,0,0,0,53.34,74.52Zm0-2.54c-.53.48-.5-.79-1-.22v-.68a.46.46,0,0,0,.8.23,3.45,3.45,0,0,1,.36.57S53.36,71.91,53.3,72Zm1.26.06.16.15-.55.55L54,72.57ZM54,71.88v.26h-.41v-.26Zm.38-2.73h-.56v-.26h.56Zm-2.85.73-.13.2.08.08.14-.2Zm4.94,10a10.68,10.68,0,0,0,.88,3.3v-7A10.24,10.24,0,0,0,56.51,79.9Zm1.6-.54h-.34V80h.34Zm.76,2.39h-.33v.5h.33Zm20.71,1.33h.3v-.64h-.3ZM79.4,75a.73.73,0,0,0,.37-.56c-.2.2-.36.24-.48.13a2.77,2.77,0,0,1,.26-1.64,9.7,9.7,0,0,1,.37,1.23c.45-1.17.89-2.4,1.31-3.67H79.87Q78,74,75.2,74.83c-.17-1.24,1-3.38-.18-4.4-3.26-.49-5.19,4.56-2.59,6.43a31.07,31.07,0,0,1-2.26,2.6v1.27C67,82,66.43,80.55,67.87,78c1.22-4.65,1.7-8.37-3.39-6.46a1.24,1.24,0,0,0,.4-.45c-1.09-.33-4.21,1.07-4.83,1.94a2.85,2.85,0,0,1,.46.68,18.47,18.47,0,0,1-1.61,1.23.75.75,0,0,1-.16-.55q-.48.47-.48.72h.66l.35-.37c.17.52.16.57.61.73,0-.13.12-.31.35-.53,1.5,1,.26,1-.48,1.38.17.12.18.46,0,.46-.16-.3-.29-.53-.4-.71.06.14-.07.44-.06.53a.46.46,0,0,1-.17-.38,3.2,3.2,0,0,1-.57,1.11.62.62,0,0,1-.18-.46c-.65.61-.13,2,0,2.75a.34.34,0,0,1,.2-.28.8.8,0,0,1,.13.55l.64-.55a2.32,2.32,0,0,1,.84.63,4.52,4.52,0,0,0-.76,1.16c.36.17.81.41,1.34.72-.13.12-.36.12-.48.26,0-.16-.78,0-.41,0,.13.14.07.33-.17.56.1-.84-.63,0-1-.18v.71a1.06,1.06,0,0,1,.49.19c0-.5.08-.75.26-.75,0,.53,0,.85-.16,1s-1,.06-1.2.07c2.63,2.82,5.29,1.45,8.3-1.93,2,1.43,5.83.53,5.23-2,1.23-1.35,2.84-3.76,4.84-3.86-2,3.08-4.4,12.17,2.88,8.27V81.74C76.83,81,79.44,76.52,79.4,75Zm-.16-2.57h.3v.47h-.3ZM59.05,79.5h-.33v-.68h.33Zm.57-.75H59.3v-.48h.32Zm-.3-1.21-.18-.2.46-.43.2.18Zm1.06,6h-.31v-.5h.31Zm4.75-10.49c-.55.67-.85,1-.62,1.57a17,17,0,0,0,.24,2.49A5,5,0,0,1,64,76c-.3.33-.39,2,.44,1.62a1.88,1.88,0,0,1,.14.49c0-.19-.11-.29-.34-.29-.4.83.25,1.5,1.21,2.86-3.39,5.19-6-.28-4.15-5.13a.77.77,0,0,0-.43-.2c.87-1,3-4.14,5.13-3.37C66,72.07,65.69,72.41,65.13,73.06Zm.21,4.78h-.28l-.23-.63.28-.09Zm8.83-4.9a.56.56,0,0,1-.41,0l-.42.35v-.68a1.13,1.13,0,0,0,.77-.2c.27.27.41.44.41.5Zm16.07,7.25h-.3v.49h.3Zm6.82.7C88.47,87.5,102.62,66.23,92.5,71a.41.41,0,0,1,.3.15c-.16.18-1,.74-1.18.28,0,.1-.2.59-.18.68a8.62,8.62,0,0,0,.94-.52c.3.09.49.75.7,0,.23.21.45,1.09,0,1.23a.85.85,0,0,1-.31-.51,2,2,0,0,0-.27.5c.13-.14.3-.11.5.08-.85.79-2.48,4.33-1.84,5.44,0-.11.06-.19.2-.26a.68.68,0,0,1,.08.4c-.18.13-.74,0-.87,0,0,.08-.19.55-.18.64a2.5,2.5,0,0,1,.5.45c-.64.28-.48.8-.48,1.31a4.92,4.92,0,0,1,.83,0c-.2-.21-.18-.32,0-.32l.31.3a3.18,3.18,0,0,1-.79,1.29l-.35-.26a.65.65,0,0,1-.17.61,2.79,2.79,0,0,1-.18-.88,8.31,8.31,0,0,0,0,2.09c.11-.09.24-.41.35-.51a1,1,0,0,1-.06,1c.12,0,1.23.6,1.54.54,0-.26,0-.43.1-.49a2,2,0,0,0,.8.44,1,1,0,0,1-.35.22c1.94.33,7-3.5,6.22-5.74A7.21,7.21,0,0,1,97.06,80.89Zm-6-.53-.23-.1.22-.45.25.09Zm.65-3.47-.16-.18.59-.6.19.17Zm.6-2.16v-.66c.25,0,.54.23.85.7C93.21,74.74,92.93,74.73,92.3,74.73Zm.8-.69c-.09-.12-.55-.17-.64-.29.07,0,.78-.19.85-.18A1,1,0,0,0,93.1,74Zm-3.69.33h.3l.18-1.16h-.3Zm1.76-1.46-.2.44s-.25-.37-.12-.49c-.57.51-.84.9-.79,1.18a1.58,1.58,0,0,1,1.11-.54Zm1.31-1-.41.42.16.19.43-.44Zm-5.13,3.37c.08-1.79,1-3.58,1.4-5.06-1.1.32-2.41.63-3.92.94-.82,1.81-2.9,7-2.51,8.69a6.82,6.82,0,0,1-2.67,1.9,1.87,1.87,0,0,1,.45.82s.06-.16.18-.17a.7.7,0,0,1,.14.52L81,82.4c.42.43.92-.06,1.34-.5v3c2.29-.5,3.56-.8,3.82-.9-.68-7.38,2.54-6,3.1-10.28A12.56,12.56,0,0,1,87.35,75.28Zm-6.59,7.27h-.3V81.9h.3Zm10.87-9.84-.41-.63-.23.16.41.62Zm28.82-10.94-.11,0,.07.11ZM115.05,69l-.23.1.2.38h.23Zm-.5,2.54a8.73,8.73,0,0,0,1.12,1c-.3-.37-.1-1.72-.6-2.08C115.36,70.88,114.73,71.35,114.55,71.53ZM106,72.84l-.5.38.15.23.5-.39Zm22.74-5.06a2,2,0,1,0,.48-3.91A2,2,0,0,0,128.73,67.78Zm6.69,10.12c.3-1.16.48-1.48.34-2.12a8.23,8.23,0,0,1,.69-1.18c-2,.66.83-1.29.76-1.51a19.67,19.67,0,0,1,2.47-.08c0-.08.2-.84.19-.92l-.59.37c-.06,0-.31-.43-.34-.43a.5.5,0,0,1-.65-.14,8.5,8.5,0,0,1,1.84-1.08c-.74-.12-2-.54-2.54.12l-.31-.28c1-1.17,1.65-4.07,2.22-5.78h-.88l-3.72.83c-.84,2.3-1.47,4.06-1.87,5.26H131c.49.56.06,1.81,0,2.43a2.31,2.31,0,0,1,1.21.16c-.05.63-.51,1.9-.13,2.51.84-.73,1.25-1.15,1.79-.86-.43.19-1.83,1.84-2.66,1.46v1.28c.53,0,.8.09.8.26a1.92,1.92,0,0,0-1,.92c-.13-.12-.19-.67-.19-.67a7.13,7.13,0,0,1-.29,1.53c.16.09.53-.27.76,0a19.66,19.66,0,0,1-2.54,2c-2.38-2.86-.64-2.69.78-8.48a.53.53,0,0,1-.33-.14c.88-.38.83-2.45,1.13-2.88-.45.23-3.88.4-3.88,1a1.23,1.23,0,0,1-.2-.35c0,.41-.11.61-.34.61a.31.31,0,0,1,.27.18,5,5,0,0,0-1.41,3.26.54.54,0,0,1,.35.13c-.83.87-1.3,2.39-1.4,4.55-1.1.83-3.52,2.71-4.54,2.77a1.85,1.85,0,0,0-1.81.25c-2.62-.16-5.28-2.45-6.56-4.1v-.63a15.79,15.79,0,0,1-.53-2,2.33,2.33,0,0,1-1,.17c-.16-.21-.06-.87.15-.52a6.12,6.12,0,0,1,.73,0c0-1.07.5-4,.3-5.1-.16.12-.92.09-1.07.38-.17-.38-.31-.67-.41-.84.27,0,.75.33,1,.35a2.82,2.82,0,0,0-.46-.54.76.76,0,0,1,.7.22c.09-.4.17-.51.73-.5.23-.63.4-1.09.53-1.39-.43-.21-.76-.36-1-.45a1.37,1.37,0,0,1,1.13,0c-.26-.39-.34-.62-.24-.7a4,4,0,0,0,.52.31c.25-1,1.1-3.32,2-3.62-.25-.46-.28-.83-.08-1.09l.41.65a5.94,5.94,0,0,1,2.46-2.11,8.65,8.65,0,0,0,1.91-.33A8.58,8.58,0,0,1,120.48,64c.28,0,.42.07.42.2-.43.32-.41.79-.47,1.25.54-.17.94,1.17,1.28,1.36-.34-.06-1.11-.14-1.25-.35s.16-.42.1-.51c-.07.19-.53.68-.48,1-2,2.7-1.9,2.75-3.52,4.12a3.59,3.59,0,0,0,.55-1.17,1.74,1.74,0,0,1-1.41-.14c.44.88-1.11,0-1.1-.19,0,.09-.21.53-.19.62a.68.68,0,0,1,.46.11q-.3.3-.33.24l-.1.64c.29-.43.52-.75.71-1a3.81,3.81,0,0,0,.7.25.85.85,0,0,0-.13.55c.16,0,.66-.18.63.18a4.92,4.92,0,0,0-.65.62s.59-.17.65,0l-.33.8a.41.41,0,0,0,.81-.07c.32.21.4.4.25.57,2.81-.32,3.74-.58,5.92-3.74a5.36,5.36,0,0,1,.55-1.94l-.1,0c.57-1.63.24-2,.19-3.43a.7.7,0,0,1-.47-.1c.65-.35-.67-1.46-.66-1.84-.21-.12-.58.61-.58.61a2.36,2.36,0,0,0,.43.09,1.34,1.34,0,0,1-1.31.36,22.21,22.21,0,0,1,2.12,1.25c-.14,0-.32.36-.45.26l-.86-.08s1.54.55,1.63.56a3.71,3.71,0,0,0-.25.65c-.19,0-.41-.41-.55-.45a4,4,0,0,1,.31.52,2,2,0,0,0-.58.58c-.5-.79-.4-1.41-1.21-1.73l.1-.4c.19,0,.56,0,.72-.05a8.55,8.55,0,0,1-1.63-1.16c.24-.25.28-.49.11-.7l.1,0a1.15,1.15,0,0,0-.2-.41l-.16.36-.23-.1.2-.42.12,0a1,1,0,0,1-.19-1c.17.57.54,1,1.08.71-.1.51.15.74.61.72-.15-.15.18-.42.27-.55a7.86,7.86,0,0,0-2.92-1.53c-.44.53-.77.07-1.55.09a.43.43,0,0,1,.32.16c-.25.25-.37.37-.37.38s.48-.2.53-.06l-.28.41c-.73.19-.61-.61-.91-.81a1,1,0,0,1-1,0c-.06.12-.2.18-.43.18-.06.51-.62.72-1.16.63-.49.22-.48.22-.54.5-1.38-.56-4.23,3.24-5.13,4.07a6,6,0,0,0-.91,1.54c.32.21,1.46.38,1.78.62a9.6,9.6,0,0,1-1,.26c-1.67-1.13-1.83.92-2.82,4.62a1.15,1.15,0,0,1,.66-.73c-.18.81.55.23.6.76-.23.84-.13.92-.53.88l.15-.66c-3.64,3.86,1.16,12.44,6,11.7,3.65,1.11,8.29-.42,11.14-3.14.1,7,6.83,2.16,8.2-1,.32,0,.82,0,.87.15V81c-.42,0-.5-.12-.23-.36-.66.31-1,.59-1,.86.69.35,0,.51,0,1a1.2,1.2,0,0,1-.8-.4c0,.16.88,1.52.8,1.86.12,0,1-.23,1.2,0-.28.29-.53.43-.14.45C134.05,81.68,134.92,80.69,135.42,77.9Zm3.12-7.2.21.18-.73.66-.18-.19Zm-2.74,1.84c.34-.46.62-.34.63.27-.11,0-.89.18-1,.16S135.57,72.82,135.8,72.54Zm-7.05.34a3.24,3.24,0,0,0,.44.08,1.09,1.09,0,0,0-.21.48l-.65-.63A2.41,2.41,0,0,1,128.75,72.88Zm-9.07-5.3H120v.59h-.29ZM119.14,69a2.32,2.32,0,0,1,.59-.17c0,.07-.19.27-.59.62Zm.31,1.16V70l.55-.18.08.23Zm.68.58a.33.33,0,0,0-.38-.38,3.46,3.46,0,0,1,.6-.08C120.44,70.39,120.37,70.55,120.13,70.78Zm.14-1.14a1.06,1.06,0,0,1,.34-1.75,2,2,0,0,0,.29,1.53A1.79,1.79,0,0,1,120.27,69.64Zm1.29-2.11.38-.2.1.23-.48.2Zm.25,1.71-.15-.24,1.06-.79.15.23Zm.68-2.84.25.08-.22.43-.23-.1Zm-.38.45.1.21-.48.22V67Zm-.93-1.78.73.73-.18.17-.72-.73Zm-1.45-3.87.24.09-.22.43-.21-.1Zm-3.61-.61h.28v.6h-.28Zm-.93.6.23.1-.37.74-.23-.08Zm-1.28.66.21.46h-.25l-.2-.38Zm-1.13.78.46.1c-.27.29-.45.36-.51.23A.18.18,0,0,0,112.78,62.63Zm-1.11,3.59h-.29l.2-.75h.29Zm.48-.8.38-.2.08.23-.46.2Zm-.78-2.09a3.53,3.53,0,0,0,.74.58c-.48,0-.73.05-.74.15Zm-1.2,6.34-.23-.1.22-.42.23.09Zm.25-6h.28v.59h-.28Zm-.26,1.64.23.13-.55.83-.22-.15Zm-.54,1.61h.29v.91h-.29Zm-.79,2.52.4.42-.17.15-.4-.4Zm17.74,2.18,1.23.48-.1.25-1.13-.48Zm4.94,8.13H131v-.33h.54Zm1.71-4,.8.25-.11.27-.69-.24Zm-1.34,5.68.27-.48.29.08-.26.52Zm.78,2-.46-.05q0-.51.54-.51c0,.11.26.37.24.48A.33.33,0,0,1,132.66,83.51Zm.43-6.49a1.12,1.12,0,0,0-.71-.25q.54-.51.75-.51A.46.46,0,0,1,133.09,77Zm.95-.11-.18-.27.81-.65.2.25Zm10.19-1.83h.33v-.71h-.33Zm7.2,8.37v-.68l4.07-11.89c-7.3-.76-5.05,8.79-10.23,11.7.32.17,1.4.88,1.55.15-.23,0-.28-.53-.1-.66l.4.4c.22-.43.45-.64.68-.63.24,2.29-2.33,4.41-3.89,5a17.77,17.77,0,0,1,2.53,0c-.09.67-.22.5.38.77-.66.2-2.38,4-2.51,4.1.19,0,.48.26.28.43-.06-.11-.58-.12-.58-.28a1.68,1.68,0,0,1,0,.48c-.07-.87-1.63,0-.23,0a9.06,9.06,0,0,1-.19,1c3.24-.1,6.58-4.87,7.16-7.94,2.24-1.41,7-3,6.67-5.94Q154,82.85,151.43,83.45Zm-1.32-2.91-.27-.11.25-.5.26.1Zm-6.53-3.1c0,3.9-.06.78.9-.35a1,1,0,0,1-.52-.22s.24.84,0,.95Zm-.51,15.82h.33v-.51h-.33Zm1.49-20.05h-.33v.53h.33ZM142.17,91c0-.67.81-2.66.73-3.47-2,1.34-3,4.91,0,5.78V92A1,1,0,0,1,142.17,91ZM144,73.17c.19-.32.16-.44,0-.81a1.33,1.33,0,0,1,1.23.81.58.58,0,0,1,.18-.38,2.1,2.1,0,0,1,.29.46c-.52.17-.74.94-.95,1.45a.48.48,0,0,1,.68,0c.78-1.85,1.31-3.13,1.61-3.85C145.39,70.92,141.68,70.84,144,73.17Zm.81-1.71h.33V72h-.33ZM144,76.63h.7c0-.1.18-.64.17-.74a.71.71,0,0,1-.87,0Zm.27-.77h.33v-.53h-.33Zm-1.53,8.9V71.45c-1.14,2.74-2.95,6-3,8.86-1.43,1.47-4.1,2.74-4.6.07l-2,4.1c1.45,1.7,5.11-1,6.68-2.47a3.67,3.67,0,0,0,1.52,2.75Zm.86-.09c.55.15,2.09-1.17,2.28-1.37-.28,0-1.5.22-1.71.23q0,.48-.27.48a2.71,2.71,0,0,1-.25-.38,4.31,4.31,0,0,1-.36,1.11A.8.8,0,0,0,143.56,84.67Zm29.81-13.14a8.11,8.11,0,0,0,1.12,1c-.3-.37-.1-1.72-.6-2.08C174.18,70.88,173.55,71.35,173.37,71.53Zm-8.56,1.31-.5.38.15.23.5-.39ZM173.87,69l-.23.1.2.38h.23Zm5.4-7.22-.11,0,.07.11Zm5.31,12.9c-.36.31-.89.19-.73-.47.15-.14.32-.12.51.07,0-.54-.23-2.45-.21-3-.56,2.53-1.75,6.66-1.58,8.57-1.09.85-3.53,2.73-4.56,2.8a1.85,1.85,0,0,0-1.81.25c-2.62-.16-5.28-2.45-6.56-4.1v-.63a15.79,15.79,0,0,1-.53-2,2.33,2.33,0,0,1-1,.17c-.16-.21-.06-.87.15-.52a6.12,6.12,0,0,1,.73,0,41,41,0,0,0,.3-5.1c-.16.12-.92.09-1.07.38-.17-.38-.31-.67-.41-.84.27,0,.75.33,1,.35a2.82,2.82,0,0,0-.46-.54.73.73,0,0,1,.69.22c.1-.4.18-.51.73-.5.24-.63.41-1.09.54-1.39-.44-.21-.76-.36-1-.45a1.37,1.37,0,0,1,1.13,0c-.26-.39-.34-.62-.24-.7a3.43,3.43,0,0,0,.52.31c.25-1,1.1-3.32,2-3.62-.25-.46-.28-.83-.08-1.09l.41.65a5.94,5.94,0,0,1,2.46-2.11,8.75,8.75,0,0,0,1.91-.33A8.58,8.58,0,0,1,179.3,64c.28,0,.42.07.42.2-.43.32-.41.79-.47,1.25.54-.17.94,1.17,1.28,1.36-.34-.06-1.11-.14-1.25-.35s.16-.42.1-.51c-.07.19-.53.68-.48,1-2,2.7-1.9,2.75-3.52,4.12a3.59,3.59,0,0,0,.55-1.17,1.74,1.74,0,0,1-1.41-.14c.44.88-1.12,0-1.1-.19,0,.09-.21.53-.2.62a.69.69,0,0,1,.47.11q-.3.3-.33.24l-.1.64c.29-.43.52-.75.71-1a3.57,3.57,0,0,0,.7.25.85.85,0,0,0-.13.55c.16,0,.66-.18.63.18a4.26,4.26,0,0,0-.65.62s.59-.17.65,0l-.34.8a.42.42,0,0,0,.82-.07c.32.21.4.4.25.57,2.81-.32,3.74-.58,5.92-3.74a5.36,5.36,0,0,1,.55-1.94l-.1,0c.57-1.63.24-2,.19-3.43a.7.7,0,0,1-.47-.1c.65-.35-.67-1.46-.66-1.84-.21-.12-.32.15-.58.61a.93.93,0,0,0-.55-.1,8,8,0,0,0,1,.19,1.34,1.34,0,0,1-1.31.36A22.21,22.21,0,0,1,182,64.21c-.14,0-.32.36-.45.26l-.86-.08a7.17,7.17,0,0,1,1.63.56,3.71,3.71,0,0,0-.25.65c-.19,0-.41-.41-.55-.45a4,4,0,0,1,.31.52,2,2,0,0,0-.58.58c-.51-.79-.41-1.41-1.21-1.73l.1-.4c.19,0,.56,0,.71-.05a8.83,8.83,0,0,1-1.62-1.16c.24-.25.28-.49.11-.7l.1,0a1.15,1.15,0,0,0-.2-.41l-.16.36-.23-.1.2-.42.12,0a1,1,0,0,1-.19-1c.16.57.54,1,1.08.71-.1.51.15.74.61.72-.15-.15.18-.42.27-.55A7.86,7.86,0,0,0,178,60.07c-.44.53-.78.07-1.55.09a.43.43,0,0,1,.32.16c-.25.25-.37.37-.37.38s.48-.2.53-.06l-.28.41c-.73.19-.61-.61-.91-.81a1,1,0,0,1-1,0c-.06.12-.2.18-.43.18-.06.51-.62.72-1.16.63-.49.22-.49.22-.54.5-1.38-.56-4.23,3.24-5.13,4.07a6,6,0,0,0-.91,1.54c.32.21,1.45.38,1.78.62a10.23,10.23,0,0,1-1,.26c-1.67-1.13-1.83.92-2.82,4.62a1.15,1.15,0,0,1,.66-.73c-.18.81.55.23.6.76-.23.84-.13.92-.53.88l.15-.66c-3.64,3.86,1.16,12.44,6,11.7,3.71,1.13,8.59-.49,11.36-3.38.24,1.46,1.18,3.24,2.38,3.48C185.18,83.42,184.49,76.14,184.58,74.67Zm-6.08-7.09h.29v.59h-.29ZM178,69a2.22,2.22,0,0,1,.59-.17c0,.07-.2.27-.59.62Zm.31,1.16V70l.55-.18.08.23Zm.68.58a.33.33,0,0,0-.38-.38,3.46,3.46,0,0,1,.6-.08C179.26,70.39,179.18,70.55,179,70.78Zm.13-1.14a1.06,1.06,0,0,1,.35-1.75,2,2,0,0,0,.29,1.53A1.76,1.76,0,0,1,179.08,69.64Zm1.3-2.11.38-.2.1.23-.48.2Zm.25,1.71-.15-.24,1.06-.79.15.23Zm.68-2.84.25.08-.22.43-.23-.1Zm-.38.45.1.21-.48.22V67ZM180,65.07l.73.73-.18.17-.72-.73Zm-1.45-3.87.24.09-.22.43-.22-.1Zm-3.62-.61h.29v.6h-.29Zm-.93.6.24.1-.37.74-.23-.08Zm-1.27.66.21.46h-.25l-.2-.38Zm-1.13.78.46.1c-.27.29-.45.36-.51.23A.18.18,0,0,0,171.6,62.63Zm-1.11,3.59h-.29l.2-.75h.28Zm.48-.8.38-.2.08.23-.46.2Zm-.78-2.09a3.29,3.29,0,0,0,.74.58c-.48,0-.73.05-.74.15ZM169,69.67l-.23-.1.21-.42.24.09Zm.25-6h.28v.59h-.28ZM169,65.32l.24.13-.55.83-.22-.15Zm-.53,1.61h.29v.91h-.29Zm-.79,2.52.39.42-.16.15-.4-.4Zm16.16,9.67a1.22,1.22,0,0,1-.51-.27s.39-.64.55-.6A3.64,3.64,0,0,0,183.81,79.12Zm9.53.21V76.21a9.1,9.1,0,0,0-.86,4c-2.94,2.79-5.18,3.14-6.19-1-.21-2.08,1.7-3.1,2-4.76.21,0,.31.13.31.38a3.64,3.64,0,0,0,.47-1.34c.19,0,.28.13.28.4,2.23-2.35,7.25-14.4.87-12.22-4.57,1.17-5.86,8-5.33,11.57,0-.14.52-.42.53-.47.1.45-.24.69-.57.88-.19,2.12.67,9.08.72,11.24,2.19.52,5.33-1.5,7.24-3.18a6.36,6.36,0,0,0,.54,1.49v-2c.35-.45.21-.73.15-2A1.49,1.49,0,0,1,193.34,79.33Zm-4.66-10.66A24.32,24.32,0,0,1,191,63.08a1.39,1.39,0,0,1,.88.38c.24,3.6-1.23,6.84-4.43,10.79Q188.19,70.46,188.68,68.67Zm-1.61,6.13.43-.23.1.26-.53.25Zm-1.53,1.73-.27-.12.25-.48.27.1Zm.46-1.12h.34l.21.88h-.33Zm8.05,4h-.33V80h.33Zm.77,2.39h-.34v.5h.34ZM211.1,77.9c.3-1.16.48-1.48.35-2.12a7.47,7.47,0,0,1,.68-1.18c-1.95.66.83-1.29.76-1.51a19.83,19.83,0,0,1,2.48-.08c0-.08.19-.84.18-.92l-.58.37c-.07,0-.32-.43-.35-.43a.5.5,0,0,1-.65-.14,8.74,8.74,0,0,1,1.84-1.08c-.73-.12-2-.54-2.54.12l-.31-.28c1-1.17,1.66-4.07,2.22-5.78h-.88l-3.72.83c-.84,2.3-1.46,4.06-1.87,5.26h-2c.48.56.05,1.81,0,2.43a2.29,2.29,0,0,1,1.21.16c-.05.63-.5,1.9-.13,2.51.84-.73,1.25-1.15,1.79-.86-.43.19-1.83,1.84-2.65,1.46v1.28c.53,0,.79.09.79.26a1.92,1.92,0,0,0-1,.92.94.94,0,0,1-.18-.67,3.54,3.54,0,0,1-.3,1.53c.16.09.54-.28.77,0-1.06,1.68-5.27,1.75-3.67-.76,1.6-4.31,2.82-10-2.89-7.68a1.36,1.36,0,0,0,.4-.45c-1.1-.33-4.21,1.07-4.83,1.94a3.21,3.21,0,0,1,.46.68,20.16,20.16,0,0,1-1.61,1.23.75.75,0,0,1-.17-.55q-.48.47-.48.72h.67l.34-.37c.18.52.17.57.62.73,0-.13.12-.31.35-.53,1.49,1,.26,1-.48,1.38.16.12.18.46,0,.46-.16-.3-.29-.53-.4-.71.05.14-.08.44-.07.53a.45.45,0,0,1-.16-.38,3.2,3.2,0,0,1-.57,1.11.62.62,0,0,1-.18-.46c-.65.61-.13,2,0,2.75a.32.32,0,0,1,.2-.28.8.8,0,0,1,.13.55l.63-.55a2.28,2.28,0,0,1,.85.63,4.6,4.6,0,0,0-.77,1.16q.56.25,1.35.72c-.13.12-.36.12-.48.26-.05-.16-.79,0-.42,0,.14.14.08.33-.16.56.1-.84-.63,0-1-.18v.71a1,1,0,0,1,.48.19q0-.75.27-.75c0,.53,0,.85-.17,1s-1,.06-1.19.07c2.62,2.82,5.29,1.45,8.3-1.93,2,1.24,4.59.84,5.35-1.29.33,0,.77,0,.84.15V81q-.63,0-.24-.36c-.66.31-1,.59-1,.86.69.35,0,.51,0,1a1.16,1.16,0,0,1-.79-.4c0,.16.87,1.52.79,1.86.13,0,1-.23,1.2,0-.28.29-.52.43-.13.45C209.73,81.68,210.61,80.69,211.1,77.9Zm3.12-7.2.22.18-.73.66-.19-.19Zm-2.74,1.84c.35-.46.63-.34.63.27-.11,0-.88.18-1,.16ZM195,79.5h-.33v-.68H195Zm.56-.75h-.31v-.48h.31Zm-.3-1.21-.18-.2.47-.43.2.18Zm1.07,6H196v-.5h.32Zm4.75-10.49c-.56.67-.85,1-.62,1.57a16.27,16.27,0,0,0,.23,2.49A5,5,0,0,1,200,76c-.31.33-.39,2,.44,1.62a3.26,3.26,0,0,1,.14.49c0-.19-.12-.29-.35-.29-.4.83.26,1.5,1.21,2.86-3.38,5.19-5.94-.28-4.15-5.13a.75.75,0,0,0-.43-.2c.87-1,3-4.14,5.13-3.37C201.94,72.07,201.64,72.41,201.08,73.06Zm.21,4.78H201l-.23-.63.28-.09Zm5.91,1.92h-.55v-.33h.55Zm1.71-4,.8.25-.12.27-.68-.24Zm-1,1.74,0,0c0-.39-.14-.46-.41-.2,0-.11.48-.35.45-.47C208,77.33,207.94,77.54,207.94,77.55Zm-.38,3.94.27-.48.3.08-.27.52Zm.78,2-.46-.05c0-.34.18-.51.55-.51,0,.11.25.37.23.48A.32.32,0,0,1,208.34,83.51Zm.44-6.49a1.12,1.12,0,0,0-.72-.25q.56-.51.75-.51A.47.47,0,0,1,208.78,77Zm.94-.11-.18-.27.81-.65.2.25Zm14.61-7.61-.29-.1-.23.5.27.12Zm11.53-1.52a2,2,0,1,0,.48-3.91A2,2,0,0,0,235.86,67.78Zm11.6,4.93-.41-.63-.23.16.41.62Zm-4.28,2.57c.08-1.79,1-3.58,1.4-5.06-1.1.32-2.41.63-3.92.94-.93,2-2.94,7.09-2.51,9.06A19.07,19.07,0,0,1,235.9,82c-2.39-2.86-.64-2.69.78-8.48a.55.55,0,0,1-.34-.14c.88-.38.83-2.45,1.13-2.88-.45.23-3.87.4-3.88,1a1.58,1.58,0,0,1-.2-.35c0,.41-.11.61-.33.61a.29.29,0,0,1,.26.18,5.08,5.08,0,0,0-1.41,3.26.54.54,0,0,1,.35.13c-.89.94-1.36,2.64-1.42,5.08-7.49,6.36-.8-4.88-1.43-7.29l.2-.28c0-2.73-3.28-2.56-4.77-1.28l1.89,2.52-.28.29c-.75-1-1.54-3-2.85-2a1.69,1.69,0,0,0,1.11.08l.31.28-.48.48c.1-.72-.84-.21-1.08-.53-.06,0-.41-.93.09-1.11-.12-.18-.35-.48-.19-.65,0,.16.58.31.62.38l1.61-2.42a.64.64,0,0,1-.38-.15c1.78-1.3,3.83-6.51,1.34-7.92-2.15.43-6.08,1.75-6.87,4.1.1.13.66.25.76.38l-.28.3a1.61,1.61,0,0,0-.61-.2,6.56,6.56,0,0,1-1.38,2.81c.28,0,.8.17.78.46a7.1,7.1,0,0,1-1-.18.9.9,0,0,1-.22.45,17.58,17.58,0,0,0,1.33,1.53c-.1.14-.38.13-.48.28a6.06,6.06,0,0,0-1.05-.3,1.12,1.12,0,0,0,.32-.85,4.39,4.39,0,0,1-.88,1.25l.48.38c-.38-.33.34-.26.58-.32,0,0,0,0,.08.12-.84.45-.6,1.08-.66,1.81l.38-.38c.13.11-.06.55.1.66a7,7,0,0,0-.85.68,2.91,2.91,0,0,1-.31-.48.79.79,0,0,0,.3-.56.34.34,0,0,1-.2.28c-.57-.65.12-1.1.23-1.71-.58.3-1,3-1.26,3.37.06,0,.14.17.21.51-.48.57-.67,3.3-.55,4.12.25-.2.54-1.14.8-1.33.08,0,.14.36.3.35-.31,1.13-.43,1-1.08,1.28a2.2,2.2,0,0,0-.2.69c-1.43,1.46-4.09,2.72-4.59.06l-2,4.1c1.42,1.68,5-.87,6.56-2.35.07.74.22,2.45.2,2.91a27.91,27.91,0,0,0,3.69-1c.06-1.4.07-2.8.16-4.2h0c.29-1.5,0-3.59,1.35-4,0-.08-.13-.62,0-.71.74,1.1,4.57-3.92,5.07-1.24-.29.35-.57-.26-.72-.27,0,.18.35.6.25.75h-.26a10.91,10.91,0,0,1-.78,2.44.57.57,0,0,1,.36.16,1.19,1.19,0,0,1-.51.19c-1.25,2.69-2.72,9.39,2.55,7.67v-.62q0,.48-.36.48c-.49-.92-1.64-7.44-1.15-8.6a9.82,9.82,0,0,1,.52,2.78.69.69,0,0,1,.18-.49l.3.3a3.29,3.29,0,0,0-.08,2.86,1.1,1.1,0,0,1,.49-1.08c0,.48-.37,2.15-.36,2.59,0,.79.9.81.75,1.61A12.82,12.82,0,0,0,230.89,82c.52,5.49,5.1,2.47,7.26-.13v3c2.29-.5,3.56-.8,3.82-.9-.68-7.38,2.54-6,3.1-10.28A12.56,12.56,0,0,1,243.18,75.28Zm-7.29-2.4a2.78,2.78,0,0,0,.44.08,1,1,0,0,0-.22.48l-.65-.63A2.61,2.61,0,0,1,235.89,72.88ZM216.72,74l.47.49a.81.81,0,0,0-.28.57C217,74.79,216.51,74.2,216.72,74Zm0,3.66h.33v.52h-.33Zm.3,1v-.28l.45-.23.1.28Zm0-4.53c.32,0,.48-.09.48-.2,0,.11.47.33.43.45Zm4.74-7.34v.92c-.07,0-.82-.41-.89-.39v-.71A.54.54,0,0,0,221.75,66.76Zm-.48,1.73v.7h-.33v-.7Zm-1-3.85c-.13-.39,1.16-.52,1.1-.57v1.51C221,65.35,220.24,65.05,220.24,64.64ZM219,68.09s.67.43.64.55c-.19-.66-.15-1-.47-.78.22-.55.38-1,.47-1.31a.76.76,0,0,0,.21.58c.12,0,.5-.38.62-.35a.53.53,0,0,1-.19.43c.35.34.52.57.52.67l-.42-.37c-.1.08,0,.38.27.91a.53.53,0,0,1-.43-.16,7.37,7.37,0,0,1-.82,1.53A12.14,12.14,0,0,0,219,68.09Zm1.35,2c0,.24.22.35.51.35a1.07,1.07,0,0,1-.51.28Zm-1.64.88v.73a.5.5,0,0,0-.52-.44A1.14,1.14,0,0,1,218.67,71Zm-.5,1.15c.42.07.87-.39,1.36-1.36A12.59,12.59,0,0,1,218.42,73Zm1.44,1.68a.91.91,0,0,1-.5-.24c0-.13.51-.3.5-.41Zm-.11-1.12-.27-.11.23-.48.29.08Zm.43-.61h-.33v-.71h.33Zm1.44,2.57h-.71V74.3h.71Zm-.45-1c-.12,0-.71.28-.86.09.3-.11.29-.48,0-.5.31-.53.56-.94.74-1.23,0-.16-.51-.35-.56-.56a2.67,2.67,0,0,1,1-.6c-.31-.59-.56-1-.76-1.35a3.59,3.59,0,0,1,.85.73,4,4,0,0,0,.28-.48c-.11-.11-.29-.08-.53.09a.39.39,0,0,1,.59-.37,18.55,18.55,0,0,1,3.62-6.67h.87c.9,1.74-1.23,4.26-1.31,5.82-.18.06-.44,2.91-.83,1.41a.55.55,0,0,0-.2.39.64.64,0,0,0-.2-.39C223,70.88,221.65,73.33,220.92,73.6Zm1.25-.35-.27-.11.24-.5.28.1Zm.78-.74L222.5,72l.18-.2.49.49ZM224.66,78l-.28-.12.23-.63h.28Zm.75-2.67-.27-.12.25-.48.27.08Zm.63.15h-.33V75H226Zm2.92-2h.33V74H229Zm-.15.77h.28l-.61,1.89-.28-.1Zm-.7,2,.2.19-.48.48-.18-.22Zm-.43.8.27.08-.44.9-.26-.12Zm-.81,2.21.43-.88.26.1-.43.88Zm6.83-7.62,1.23.48-.1.25-1.13-.48ZM247,72.91a.86.86,0,0,1-.2.44c-.21-.21-.25-.37-.12-.49-.57.51-.84.9-.79,1.18A1.58,1.58,0,0,1,247,73.5Zm1.31-1-.41.42.16.19.43-.44Zm-2.24,8.28h-.3v.49h.3Zm-.83-5.82h.3l.18-1.16h-.3Zm22.21,7.12q-1.54,1.24-2.28,1.14c-.11-2.18,2-10,2.61-12.25-1.32.25-3.18,2.18-4.61.77-5.18-2.49-10.52,4.42-9.87,9.36-9.41,7.85,5.26-14.35-5-9.51a.43.43,0,0,1,.3.15c-.16.18-1,.74-1.18.28,0,.1-.2.59-.19.68a7.91,7.91,0,0,0,1-.52c.3.09.49.75.7,0,.22.21.45,1.09,0,1.23a.85.85,0,0,1-.31-.51,2,2,0,0,0-.27.5c.13-.14.3-.11.5.08-.85.79-2.48,4.33-1.84,5.44,0-.11.06-.19.2-.26a.68.68,0,0,1,.08.4c-.18.13-.74,0-.87,0,0,.08-.19.55-.18.64a2.5,2.5,0,0,1,.5.45c-.65.28-.48.8-.48,1.31a4.92,4.92,0,0,1,.83,0c-.2-.21-.18-.32,0-.32l.31.3a3.18,3.18,0,0,1-.79,1.29l-.35-.26c.15.14.1.35-.17.61a1.46,1.46,0,0,1-.18-.88,8.44,8.44,0,0,0,0,2.09c.11-.09.24-.41.35-.51a1,1,0,0,1-.06,1c.12,0,1.23.6,1.54.54,0-.26,0-.43.1-.49a2,2,0,0,0,.8.44,1,1,0,0,1-.35.22c1.31.3,3.92-1.55,5.2-2.94,1.22,4.38,5.3,2.72,7.76-.71a1.41,1.41,0,0,0,.43.61c-.65.27-.51,2.45-1.16,2.67-4.85.69-10.43,7.55-3.82,8.79,2.55-.48,5-1.1,3.67-4.19h.13a18.1,18.1,0,0,0,.57,1.91,23.91,23.91,0,0,0,3.73-6.77,28.55,28.55,0,0,0,4.9-3.07V79.65Zm-20.57-1.13-.23-.1.22-.45.25.09Zm.65-3.47-.17-.18.6-.6.18.17Zm.6-2.16v-.66c.25,0,.54.23.84.7C249,74.74,248.76,74.73,248.13,74.73Zm.79-.69c-.08-.12-.54-.17-.63-.29.07,0,.78-.19.85-.18A1.08,1.08,0,0,0,248.92,74Zm11.34,12.7c-1.86,8.22-7.87,5.34-4,1.36a2.67,2.67,0,0,1-.23-.85c.17,1.34,3.43-1.18,3.62-1.49a.83.83,0,0,0,.61.2Zm2.95-12c-.18-.26-.21,0-.14.48-1,1.75-1.31,6.5-4.11,6.35C253.35,80.21,262.5,65.29,263.21,74.73Z" fill="#fff"/><path d="M134.67.71c3.11-1.64,11.89,1.11,22.11.56s14.66-2.6,17.89.09,8.33,40.79,11.55,43,17.11-2.67,19.56,0S199,54.93,187.22,56s-27.22,3.56-39,5.45-26.33,5-34.78-.45S100.11,48.38,101,44.6s16.11.89,19.78-2.11S126,16.71,128.22,10.6,132.56,1.82,134.67.71Z" fill="#a7d5a8"/><path d="M124.44,31.17c-.79,4.37-1.7,8.21-2.81,10.2,21.66,8.42,54.72,2.37,63.28.58a82,82,0,0,1-2.27-8.57C144.38,39.64,129.25,34,124.44,31.17Z" fill="#ea7f75"/></g></g></svg>