<svg xmlns="http://www.w3.org/2000/svg" xmlns:xlink="http://www.w3.org/1999/xlink" width="165.41" height="103.39" viewBox="0 0 165.41 103.39"><defs><linearGradient id="linear-gradient" x1="83.04" x2="83.04" y2="79.13" gradientUnits="userSpaceOnUse"><stop offset="0.15" stop-color="#f5e75e"/><stop offset="0.75" stop-color="#c68f2f"/><stop offset="0.9" stop-color="#f5e775"/></linearGradient><linearGradient id="linear-gradient-2" x1="83.04" y1="79.13" x2="83.04" gradientUnits="userSpaceOnUse"><stop offset="0" stop-color="#c68f2f"/><stop offset="0.5" stop-color="#f4e657"/><stop offset="1" stop-color="#cd9e37"/></linearGradient></defs><g id="Layer_2" data-name="Layer 2"><g id="logos"><path d="M103.65,65.75V49.55H91.76V62.18c-1-.17-2-.31-3-.43V0H75.9V62c-1,.14-2,.3-3,.5V21.8H61V66.37A51.89,51.89,0,0,0,44.19,79.13a114.54,114.54,0,0,1,77.7,0A51.71,51.71,0,0,0,103.65,65.75Z" fill="url(#linear-gradient)"/><path d="M103.65,65.75V49.55H91.76V62.18c-1-.17-2-.31-3-.43V0H75.9V62c-1,.14-2,.3-3,.5V21.8H61V66.37A51.89,51.89,0,0,0,44.19,79.13a114.54,114.54,0,0,1,77.7,0A51.71,51.71,0,0,0,103.65,65.75ZM83,71.35A114.59,114.59,0,0,0,47.66,76.9a50.52,50.52,0,0,1,13.8-9.63L62,67V22.79h9.91V63.66l1.19-.24c1-.19,1.93-.35,2.91-.49l.86-.12V1H87.8V62.64l.88.1c.93.1,1.88.24,2.91.41l1.16.2V50.54h9.91V66.4l.59.26A50.7,50.7,0,0,1,118.41,76.9,114.48,114.48,0,0,0,83,71.35Z" fill="url(#linear-gradient-2)"/><path d="M6.84,103.19h-3V91.54H0V89.05H10.68v2.49H6.84Z" fill="#aa8224"/><path d="M18.87,91.34a3,3,0,0,0-2.62,1.27,5.92,5.92,0,0,0-.93,3.55q0,4.73,3.55,4.73a11.39,11.39,0,0,0,3.61-.74v2.51a9.92,9.92,0,0,1-3.89.73,5.92,5.92,0,0,1-4.72-1.88,7.91,7.91,0,0,1-1.64-5.37,8.89,8.89,0,0,1,.8-3.87,5.88,5.88,0,0,1,2.31-2.54,6.86,6.86,0,0,1,3.53-.89,9.46,9.46,0,0,1,4.14,1l-1,2.44a16.68,16.68,0,0,0-1.59-.66A4.71,4.71,0,0,0,18.87,91.34Z" fill="#aa8224"/><path d="M30.64,103.19V89.05h3v14.14Z" fill="#aa8224"/><path d="M49.75,103.19H45.94l-6.16-10.7h-.09c.13,1.89.19,3.24.19,4.05v6.65H37.2V89.05H41l6.15,10.59h.06c-.09-1.84-.14-3.14-.14-3.9V89.05h2.7Z" fill="#aa8224"/><path d="M61.38,89.05h3L59.6,103.19H56.33l-4.8-14.14h3l2.66,8.41c.15.5.3,1.08.46,1.74a14,14,0,0,1,.29,1.38,28,28,0,0,1,.73-3.12Z" fill="#aa8224"/><path d="M74.34,103.19H66.19V89.05h8.15V91.5H69.19v3.11H74v2.46H69.19v3.65h5.15Z" fill="#aa8224"/><path d="M85.64,99.26a3.65,3.65,0,0,1-1.38,3,6,6,0,0,1-3.83,1.11,9.13,9.13,0,0,1-4-.85V99.75a17.77,17.77,0,0,0,2.42.9,7.38,7.38,0,0,0,1.82.26,2.57,2.57,0,0,0,1.51-.38,1.29,1.29,0,0,0,.53-1.12,1.27,1.27,0,0,0-.23-.74,2.65,2.65,0,0,0-.69-.62,17.79,17.79,0,0,0-1.83-1A9,9,0,0,1,78,95.92a4.37,4.37,0,0,1-1-1.31,3.72,3.72,0,0,1-.39-1.74,3.65,3.65,0,0,1,1.28-3,5.24,5.24,0,0,1,3.51-1.08,8.53,8.53,0,0,1,2.11.26,14.64,14.64,0,0,1,2.09.74l-1,2.33a15.3,15.3,0,0,0-1.88-.65,6.12,6.12,0,0,0-1.45-.18,1.9,1.9,0,0,0-1.31.4,1.31,1.31,0,0,0-.45,1,1.27,1.27,0,0,0,.18.69,2,2,0,0,0,.58.57,17.59,17.59,0,0,0,1.91,1,7.51,7.51,0,0,1,2.72,1.9A3.68,3.68,0,0,1,85.64,99.26Z" fill="#aa8224"/><path d="M93.66,103.19h-3V91.54H86.82V89.05H97.5v2.49H93.66Z" fill="#aa8224"/><path d="M105.67,103.19l-3.4-11.1h-.09c.12,2.26.18,3.77.18,4.52v6.58H99.68V89.05h4.09l3.34,10.81h.06l3.55-10.81h4.09v14.14H112V96.5c0-.32,0-.68,0-1.1s0-1.51.13-3.29h-.09l-3.65,11.08Z" fill="#aa8224"/><path d="M126.52,103.19h-8.15V89.05h8.15V91.5h-5.15v3.11h4.79v2.46h-4.79v3.65h5.15Z" fill="#aa8224"/><path d="M142,103.19h-3.81l-6.16-10.7H132q.18,2.83.18,4.05v6.65h-2.68V89.05h3.78l6.15,10.59h.06c-.09-1.84-.14-3.14-.14-3.9V89.05H142Z" fill="#aa8224"/><path d="M151,103.19h-3V91.54H144.2V89.05h10.68v2.49H151Z" fill="#aa8224"/><path d="M165.41,99.26a3.65,3.65,0,0,1-1.38,3,6,6,0,0,1-3.84,1.11,9.08,9.08,0,0,1-4-.85V99.75a17.77,17.77,0,0,0,2.42.9,7.38,7.38,0,0,0,1.82.26,2.59,2.59,0,0,0,1.51-.38,1.29,1.29,0,0,0,.53-1.12,1.27,1.27,0,0,0-.23-.74,2.65,2.65,0,0,0-.69-.62,17.79,17.79,0,0,0-1.83-1,9.11,9.11,0,0,1-1.95-1.17,4.49,4.49,0,0,1-1-1.31,3.72,3.72,0,0,1-.39-1.74,3.67,3.67,0,0,1,1.27-3,5.29,5.29,0,0,1,3.52-1.08,8.53,8.53,0,0,1,2.11.26,15.09,15.09,0,0,1,2.09.74l-1,2.33a15.24,15.24,0,0,0-1.87-.65,6.14,6.14,0,0,0-1.46-.18,1.89,1.89,0,0,0-1.3.4,1.31,1.31,0,0,0-.46,1,1.19,1.19,0,0,0,.19.69,2,2,0,0,0,.58.57,17.08,17.08,0,0,0,1.9,1,7.42,7.42,0,0,1,2.72,1.9A3.69,3.69,0,0,1,165.41,99.26Z" fill="#aa8224"/></g></g></svg>