<svg xmlns="http://www.w3.org/2000/svg" xmlns:xlink="http://www.w3.org/1999/xlink" width="192.75" height="80.33" viewBox="0 0 192.75 80.33"><defs><linearGradient id="linear-gradient" x1="40" x2="40" y2="80" gradientUnits="userSpaceOnUse"><stop offset="0" stop-color="#dcc496"/><stop offset="1" stop-color="#b87b2e"/></linearGradient><linearGradient id="linear-gradient-2" x1="51.5" x2="51.5" y2="80" gradientUnits="userSpaceOnUse"><stop offset="0" stop-color="#819aa7"/><stop offset="1" stop-color="#234452"/></linearGradient></defs><g id="Layer_2" data-name="Layer 2"><g id="logos"><path d="M56,33c0,4,24,10,24,10V16.79C75.36,23.42,56,28.6,56,33ZM75,0H67s9.8,4.2,13,10.26V5A5,5,0,0,0,75,0ZM62,8c0-4-7-8-7-8H5A5,5,0,0,0,0,5V75a5,5,0,0,0,5,5H20s8-4,8-15c0-14-12-19-12-30C16,17,62,17,62,8Z" fill="url(#linear-gradient)"/><path d="M40,34c0-9,33-13,33-24C73,5,62,0,62,0H58S69,5,69,9c0,9-39,14-39,25,0,8,21,16,21,32,0,9-3,14-3,14H69C75,50,40,44,40,34Z" fill="url(#linear-gradient-2)"/><path d="M120.21,64.33H113a4.32,4.32,0,0,0-2.84,1.1,4.38,4.38,0,0,0-1.56,2.64l-1.49,8.53a3.45,3.45,0,0,0-.05.64,3,3,0,0,0,.88,2.21,3,3,0,0,0,2.24.88h7.2a4.31,4.31,0,0,0,2.84-1.09,4.38,4.38,0,0,0,1.56-2.64l1.49-8.53a3.52,3.52,0,0,0,0-.64,3,3,0,0,0-.88-2.22A3,3,0,0,0,120.21,64.33Zm-3,11.2H112.1l1.12-6.4h5.08ZM96.91,71l-2.7-6.7h-4.8l-2.82,16h4.79l1.16-6.73,2.7,6.73,5-6.67-1.15,6.67h4.79l2.83-16H102Zm28.72-1.9h4.93l-2,11.2h4.79l2-11.2h4.94l.86-4.8H126.48Zm66.24,0,.88-4.8H181.81a4.3,4.3,0,0,0-2.84,1.1,4.38,4.38,0,0,0-1.56,2.64l-.42,2.4a3.52,3.52,0,0,0-.06.66,3,3,0,0,0,.88,2.19,3.06,3.06,0,0,0,2.27.88h6.14L186,75.53h-9.85l-.88,4.8h10.94A4.29,4.29,0,0,0,189,79.24a4.38,4.38,0,0,0,1.56-2.64l.42-2.4a3.47,3.47,0,0,0,.06-.64,3,3,0,0,0-.88-2.21,3.07,3.07,0,0,0-2.27-.88h-6.14l.24-1.34Zm-20-4.8H160.91l-2.83,16h4.79L164,74.2H169L168,80.33h4.8l1.1-6.13a2.17,2.17,0,0,0,0-.26,2.74,2.74,0,0,0-.72-1.61,3.48,3.48,0,0,0,1.36-1.86l.43-2.4a4.72,4.72,0,0,0,.05-.64,3,3,0,0,0-.88-2.22A3.06,3.06,0,0,0,171.84,64.33Zm-2.15,6.14h-5.08l.24-1.34h5.08Zm-15.08-6.14h-7.2a4.3,4.3,0,0,0-2.84,1.1A4.38,4.38,0,0,0,143,68.07l-1.49,8.53a3.45,3.45,0,0,0-.05.64,3,3,0,0,0,.88,2.21,3,3,0,0,0,2.24.88h7.2a4.31,4.31,0,0,0,2.84-1.09,4.38,4.38,0,0,0,1.56-2.64l1.49-8.53a4.72,4.72,0,0,0,0-.64,3,3,0,0,0-.88-2.22A3,3,0,0,0,154.61,64.33Zm-3,11.2H146.5l1.12-6.4h5.08Zm3.75-22.2h36.45v-16H158.89V16h32.89V0H155.33a12,12,0,0,0-8.8,3.64,12,12,0,0,0-3.64,8.8V40.89a12.43,12.43,0,0,0,12.44,12.44Zm-49.33,0h16V16h16.44V0H89.56V16H106Z" fill="#274856"/></g></g></svg>