<svg xmlns="http://www.w3.org/2000/svg" xmlns:xlink="http://www.w3.org/1999/xlink" width="305.56" height="70" viewBox="0 0 305.56 70"><defs><linearGradient id="linear-gradient" x1="33.5" x2="33.5" y2="70" gradientUnits="userSpaceOnUse"><stop offset="0" stop-color="#fff"/><stop offset="1" stop-color="#cbd9e2"/></linearGradient><linearGradient id="linear-gradient-2" x1="44.14" x2="44.14" y2="70" gradientUnits="userSpaceOnUse"><stop offset="0" stop-color="#7e95b3"/><stop offset="1" stop-color="#090909"/></linearGradient></defs><g id="Layer_2" data-name="Layer 2"><g id="logos"><rect width="67" height="70" rx="3" fill="url(#linear-gradient)"/><path d="M54,0V8H13V0H3A3,3,0,0,0,0,3V67a3,3,0,0,0,3,3H13V62H54v8H64a3,3,0,0,0,3-3V3a3,3,0,0,0-3-3ZM9,65H4a1,1,0,0,1-1-1V61a1,1,0,0,1,1-1H9a1,1,0,0,1,1,1v3A1,1,0,0,1,9,65ZM9,54H4a1,1,0,0,1-1-1V50a1,1,0,0,1,1-1H9a1,1,0,0,1,1,1v3A1,1,0,0,1,9,54ZM9,43H4a1,1,0,0,1-1-1V39a1,1,0,0,1,1-1H9a1,1,0,0,1,1,1v3A1,1,0,0,1,9,43ZM9,32H4a1,1,0,0,1-1-1V28a1,1,0,0,1,1-1H9a1,1,0,0,1,1,1v3A1,1,0,0,1,9,32ZM9,21H4a1,1,0,0,1-1-1V17a1,1,0,0,1,1-1H9a1,1,0,0,1,1,1v3A1,1,0,0,1,9,21ZM9,10H4A1,1,0,0,1,3,9V6A1,1,0,0,1,4,5H9a1,1,0,0,1,1,1V9A1,1,0,0,1,9,10ZM54,57H13V13H54Zm9,8H58a1,1,0,0,1-1-1V61a1,1,0,0,1,1-1h5a1,1,0,0,1,1,1v3A1,1,0,0,1,63,65Zm0-11H58a1,1,0,0,1-1-1V50a1,1,0,0,1,1-1h5a1,1,0,0,1,1,1v3A1,1,0,0,1,63,54Zm0-11H58a1,1,0,0,1-1-1V39a1,1,0,0,1,1-1h5a1,1,0,0,1,1,1v3A1,1,0,0,1,63,43Zm0-11H58a1,1,0,0,1-1-1V28a1,1,0,0,1,1-1h5a1,1,0,0,1,1,1v3A1,1,0,0,1,63,32Zm0-11H58a1,1,0,0,1-1-1V17a1,1,0,0,1,1-1h5a1,1,0,0,1,1,1v3A1,1,0,0,1,63,21Zm0-11H58a1,1,0,0,1-1-1V6a1,1,0,0,1,1-1h5a1,1,0,0,1,1,1V9A1,1,0,0,1,63,10Z" fill="#090909"/><path d="M64,0H54V8H36.71l-1.42,5H54V57H22.71l-1.42,5H54v8H64a3,3,0,0,0,3-3V3A3,3,0,0,0,64,0Zm0,64a1,1,0,0,1-1,1H58a1,1,0,0,1-1-1V61a1,1,0,0,1,1-1h5a1,1,0,0,1,1,1Zm0-11a1,1,0,0,1-1,1H58a1,1,0,0,1-1-1V50a1,1,0,0,1,1-1h5a1,1,0,0,1,1,1Zm0-11a1,1,0,0,1-1,1H58a1,1,0,0,1-1-1V39a1,1,0,0,1,1-1h5a1,1,0,0,1,1,1Zm0-11a1,1,0,0,1-1,1H58a1,1,0,0,1-1-1V28a1,1,0,0,1,1-1h5a1,1,0,0,1,1,1Zm0-11a1,1,0,0,1-1,1H58a1,1,0,0,1-1-1V17a1,1,0,0,1,1-1h5a1,1,0,0,1,1,1ZM64,9a1,1,0,0,1-1,1H58a1,1,0,0,1-1-1V6a1,1,0,0,1,1-1h5a1,1,0,0,1,1,1Z" fill="url(#linear-gradient-2)"/><path d="M52.06,34.94h-2a16.61,16.61,0,0,0-15.95-16V17H33v1.92a16.6,16.6,0,0,0-16.08,16H15.06v1.12h1.86A16.6,16.6,0,0,0,33,52.08V54h1.13V52.08a16.61,16.61,0,0,0,15.95-16h2Zm-3.09,0H46A12.5,12.5,0,0,0,34.13,23V20A15.47,15.47,0,0,1,49,34.94Zm-4,1.12A11.48,11.48,0,0,1,34.13,47V45H33v2A11.48,11.48,0,0,1,22,36.06h2V34.94H22A11.48,11.48,0,0,1,33,24v2h1.13V24A11.48,11.48,0,0,1,45,34.94H43.06v1.12ZM33,20v3A12.48,12.48,0,0,0,21,34.94H18A15.47,15.47,0,0,1,33,20Zm-15,16h3A12.48,12.48,0,0,0,33,48v3A15.47,15.47,0,0,1,18,36.06ZM34.13,51V48A12.5,12.5,0,0,0,46,36.06h3A15.47,15.47,0,0,1,34.13,51Z" fill="#555"/><path d="M34.13,20v3A12.43,12.43,0,0,1,42.8,27.2l2.13-2.13A15.45,15.45,0,0,0,34.13,20Z" fill="#62aefb"/><polygon points="38 27 31 27 31 34 36 34 36 42 33 42 33 38 31 38 31 44 38 44 38 33 33 33 33 28 38 28 38 27" fill="#090909"/><path d="M89.47,4.83V26.58H87.06V4.83H79.81V2.41H96.72V4.83Z" fill="#408ce2"/><path d="M92.68,15.31q0-5.64,5.64-5.64H104q5.64,0,5.64,5.64v5.63q0,5.64-5.64,5.64H98.32q-5.64,0-5.64-5.64Zm5.64-3.23q-3.22,0-3.22,3.23v5.63q0,3.22,3.22,3.23H104q3.23,0,3.22-3.23V15.31q0-3.22-3.22-3.23Z" fill="#408ce2"/><path d="M120.07,9.67h6.45v2.41h-6.45q-5.64,0-5.64,5.64v8.86H112V17.72Q112,9.66,120.07,9.67Z" fill="#408ce2"/><path d="M137.8,12.08h-6.45v14.5h-2.42V9.67h8.87q8.05,0,8,8v8.86h-2.41V17.72Q143.44,12.08,137.8,12.08Z" fill="#408ce2"/><path d="M167.61,24.17c2.14,0,3.22-1.08,3.22-3.23h2.42q0,5.64-5.64,5.64H162q-5.64,0-5.64-5.64V8.05q0-5.64,5.64-5.64h5.64q5.64,0,5.64,5.64h-2.42c0-2.14-1.08-3.22-3.22-3.22H162c-2.15,0-3.23,1.08-3.23,3.22V20.94q0,3.22,3.23,3.23Z" fill="#408ce2"/><path d="M176.87,7.65A1.43,1.43,0,0,1,175.26,6a1.61,1.61,0,1,1,3.22,0A1.42,1.42,0,0,1,176.87,7.65Zm-1.21,18.93V9.67h2.42V26.58Z" fill="#408ce2"/><path d="M185.33,20.94c0,2.15,1.08,3.23,3.22,3.23h1.62v2.41h-1.62q-5.64,0-5.64-5.64V12.08H180.5V9.67h2.41v-4h2.42v4h4v2.41h-4Z" fill="#408ce2"/><path d="M192.58,9.67H195V20.94q0,3.22,3.22,3.23h5.64q3.22,0,3.22-3.23V9.67h2.42V28.2q0,5.64-5.64,5.64H192.58V31.42h11.28c2.15,0,3.22-1.08,3.22-3.22V25.91a6.81,6.81,0,0,1-3.22.67h-5.64q-5.64,0-5.64-5.64Z" fill="#408ce2"/><path d="M242.13,2.41V26.58h-2.42V8.39l-7.34,18.19h-2.61L222.39,8.39V26.58H220V2.41h2.61l8.47,21,8.46-21Z" fill="#408ce2"/><path d="M255.42,24.17q3.22,0,3.23-3.23h2.41q0,5.64-5.64,5.64h-5.63q-5.65,0-5.65-5.64V15.31q0-5.64,5.65-5.64h5.63q5.64,0,5.64,4.83,0,3.51-2.44,4l-12,2.74q.13,2.89,3.21,2.9Zm-5.63-12.09q-3.22,0-3.23,3.23v3.46L258,16.14a.84.84,0,0,0,.66-.83q0-3.22-3.23-3.23Z" fill="#408ce2"/><path d="M268.31,26.58q-5.64,0-5.64-5.64V15.31q0-5.64,5.64-5.64h8.87V2.41h2.41V20.94q0,5.64-5.64,5.64Zm-3.22-5.64c0,2.15,1.08,3.23,3.22,3.23H274q3.23,0,3.23-3.23V12.08h-8.87c-2.14,0-3.22,1.08-3.22,3.23Z" fill="#408ce2"/><path d="M283.22,7.65A1.42,1.42,0,0,1,281.61,6a1.61,1.61,0,1,1,3.22,0A1.43,1.43,0,0,1,283.22,7.65ZM282,26.58V9.67h2.42V26.58Z" fill="#408ce2"/><path d="M292.48,12.08c-2.14,0-3.22,1.08-3.22,3.23h-2.42q0-5.64,5.64-5.64h5.64q5.64,0,5.64,5.64v5.63q0,5.64-5.64,5.64h-5.64q-5.64,0-5.64-4.83,0-3.51,2.45-4l12-2.74c-.1-1.93-1.16-2.9-3.21-2.9Zm5.64,12.09q3.22,0,3.23-3.23V17.48l-11.43,2.63a.84.84,0,0,0-.66.83c0,2.15,1.08,3.23,3.22,3.23Z" fill="#408ce2"/><path d="M82.91,57.8v8.78H80V37.29H93.65q6.84,0,6.83,6.83V51q0,6.84-6.83,6.84Zm0-17.58V54.87H93.65c2.6,0,3.9-1.31,3.9-3.91V44.12q0-3.9-3.9-3.9Z" fill="#408ce2"/><path d="M113.18,46.08H121V49h-7.81q-6.84,0-6.84,6.83V66.58h-2.93V55.84Q103.41,46.08,113.18,46.08Z" fill="#408ce2"/><path d="M123.92,52.91q0-6.82,6.84-6.83h6.83q6.84,0,6.84,6.83v6.84q0,6.84-6.84,6.83h-6.83q-6.84,0-6.84-6.83Zm6.84-3.9q-3.91,0-3.91,3.9v6.84q0,3.9,3.91,3.9h6.83q3.91,0,3.91-3.9V52.91q0-3.9-3.91-3.9Z" fill="#408ce2"/><path d="M154.2,66.58q-6.84,0-6.84-6.83V52.91q0-6.82,6.84-6.83h10.74V37.29h2.93V59.75q0,6.84-6.84,6.83Zm-3.91-6.83q0,3.9,3.91,3.9H161q3.91,0,3.91-3.9V49H154.2q-3.91,0-3.91,3.9Z" fill="#408ce2"/><path d="M170.8,46.08h2.93V59.75q0,3.9,3.9,3.9h6.84c2.6,0,3.91-1.3,3.91-3.9V46.08h2.92V59.75q0,6.84-6.83,6.83h-6.84q-6.82,0-6.83-6.83Z" fill="#408ce2"/><path d="M207.91,63.65q3.9,0,3.9-3.9h2.93q0,6.84-6.83,6.83h-6.84q-6.84,0-6.84-6.83V52.91q0-6.82,6.84-6.83h6.84q6.83,0,6.83,6.83h-2.93q0-3.9-3.9-3.9h-6.84c-2.6,0-3.91,1.3-3.91,3.9v6.84c0,2.6,1.31,3.9,3.91,3.9Z" fill="#408ce2"/><path d="M223.53,59.75q0,3.9,3.91,3.9h1.95v2.93h-1.95q-6.84,0-6.84-6.83V49h-2.93V46.08h2.93V41.19h2.93v4.89h4.88V49h-4.88Z" fill="#408ce2"/><path d="M233.79,43.64a1.73,1.73,0,0,1-2-2,2,2,0,0,1,3.91,0A1.73,1.73,0,0,1,233.79,43.64Zm-1.47,22.94V46.08h2.93v20.5Z" fill="#408ce2"/><path d="M238.18,52.91q0-6.82,6.84-6.83h6.83q6.84,0,6.84,6.83v6.84q0,6.84-6.84,6.83H245q-6.84,0-6.84-6.83ZM245,49q-3.92,0-3.91,3.9v6.84q0,3.9,3.91,3.9h6.83q3.92,0,3.91-3.9V52.91q0-3.9-3.91-3.9Z" fill="#408ce2"/><path d="M272.36,49h-7.81V66.58h-2.93V46.08h10.74q9.76,0,9.77,9.76V66.58H279.2V55.84Q279.2,49,272.36,49Z" fill="#408ce2"/><path d="M285.05,66.58V63.65H299.7c2,0,2.93-1,2.93-2.92a2.58,2.58,0,0,0-2.93-2.93h-8.79c-3.9,0-5.86-2-5.86-5.86s2-5.86,5.86-5.86h14.65V49H290.91A2.59,2.59,0,0,0,288,51.94a2.59,2.59,0,0,0,2.93,2.93h8.79q5.87,0,5.86,5.86t-5.86,5.85Z" fill="#408ce2"/></g></g></svg>