<svg xmlns="http://www.w3.org/2000/svg" width="337.81" height="71.54" viewBox="0 0 337.81 71.54"><g id="Layer_2" data-name="Layer 2"><g id="logos"><path d="M27.71,33.07c-.13-.21-1-.19-1.2-.2l-.1.1C26.43,33.91,30.48,33.79,27.71,33.07Zm-4.6,10.2a3,3,0,0,0-1.2.4,2.41,2.41,0,0,0,1.4-.3C23.31,43.3,23.24,43.27,23.11,43.27Zm.8-.2c0-.16-.55-.1-.5,0C23.38,43.43,24,43.52,23.91,43.07Zm-1.1,1.5.1.1a1.45,1.45,0,0,0,1-.5C23.67,43.94,22.84,44.23,22.81,44.57Zm.1-8.7c0,.33.49.78.8.5,0-.31-.42-.54-.7-.5Zm6.2.1c-.07.28.59.47.6.1C29.76,35.89,29.08,35.38,29.11,36Zm-8.2-.9a1.16,1.16,0,0,0-1-.4C19.78,35.24,20.76,35.5,20.91,35.07Zm-5.8-1c0,.46.9.78,1.1.5C16.28,34,15.37,34.09,15.11,34.07Zm1.5.4.1.2h.6C17.37,34.18,16.76,34.17,16.61,34.47Zm3,24.5c-.2.2-.3.33-.3.4,1,.11,2.9-2.06,2.8-3C21.22,56.77,20.62,58.48,19.61,59Zm5.1-16.7q-.6,0-.6.3c.2.82,1,.3,1.1-.3.25-.47,1.46-.53,1.3-1.3C26.21,41.06,24.77,41.9,24.71,42.27Zm30.5-30-.1-.2c-3.78-.23-4.46,3-7.45,4.2-.74.09-1,.4-.75.9-.3.56-2.65,1.47-2.8,1.9.48.33,1-.13,1.5-.2s.61.81.1.8c-.32-.38-2.54-.28-2.6.4.07,0,.1,0,.1.1.61-.12,2.81-.35,2.8.6-.36,0-.82-.39-1.2-.4-.44.47-1.52.05-1.7.7.53.6,1.24-.13,1.6-.4h.1a3.41,3.41,0,0,0,3.7.8l-1-.2c-.13-.62,1.33-.48,1.2-1.2-.13,0-.2,0-.2.1-.41,0-1.51.39-1.6-.2.52-.48,1.94-.24,2.6-.4-.13-.31-1.43.07-1.4-.4s.65-.29.8-.3c.78,0,1.34.82,2,.2.16-.68.55-.2.6-.7-.93,0-1.94.14-2.9.1-.47-.78.69-.73,1.1-.7-1.71-1,1.54-.94,1.8-1.6h-1c0-.62.69-.13.9-.6s.55-.58,1.3-.65c2.09-.56-.29-.65-1.1-.35.62-.88,2.71-.39,3.4-1.3l-.1-.1h-1.2c.86-.35,2.9-.51,3.7-1C56.65,11.83,56,12.34,55.21,12.27Zm-43,21.5c-.05.58.53.49.5,0S12.17,33.32,12.21,33.77Zm17.6,19.9.1-.1a6.25,6.25,0,0,0-3.1,2.9A15.55,15.55,0,0,0,29.81,53.67Zm-9,2.5c0,.15-.11,0-.1.2-.8.86-1.89,2.52-2.8,3.3a.28.28,0,0,0-.1.2C18.73,59.57,21.25,57.22,20.81,56.17ZM17.31,59v.2l.1.1C20.25,57.53,19.93,55.57,17.31,59Zm-.6,1.5c.29.31.81-.19.8-.5A.78.78,0,0,0,16.71,60.47Zm3.7-13.3-.1-.1c-.23,0-.72.22-.7.5C19.81,47.57,20.43,47.47,20.41,47.17Zm-4.1-28.5c.4-.2,2-.22,2.2-.7l-.1-.1c-1.08,0-2.52.77-3.6.9-.78.6-2.91,1.21-3.6,1.9a5.24,5.24,0,0,0,2.6-.9h.3l-.7.9v.1C14.68,20.62,14.88,18.85,16.31,18.67Zm4.3,12.4v.1C21.7,31.88,21.73,30.62,20.61,31.07Zm.2.8c.37.18.47.44.8.1l-.3-.1Zm-.6-1.5c.35.54,1.37.27,1.9.1C21.87,30.25,20.16,29.55,20.21,30.37Zm26.6-17.1c-.21-.09-1.29-.81-1.5-.9.11-2.27,1.4-6.36-1.4-8-.83-.25-.37-1-.8-1.3-1.36-.46-2.3,1.64-3,2.5-6.65,2.33-5.67,10-13.7,10.4-7.15.62-8.65-3.48-16-1-.18-1.28-1-2.83-2.5-2.6-3.37-.1-4.48,3.43-4.3,6.2.8,2.61,4.41,4.27,6.6,5.2a5,5,0,0,1-.8,2.4,42.31,42.31,0,0,1-4.6.3C2.88,27,.7,29.11,2.31,31H4c.9-.27,2.57-.73,1.7.7.83,6.44,23.39,4.62,14.9,9.4a13.69,13.69,0,0,0-3.6,5.7l-.4.4c0,.11-.43.59-.4.7-.59,2-3.94.7-1.5,2.9C8.85,61.06.13,46,8.81,49c1.16-.29-.37-1.29-.3-1.8,1.45-.84,1.84-3.28-.1-3.7-1-.3-1.41,1.45-.2.7-1.64,3.28-8.45,2-8.1,8.9a11.39,11.39,0,0,0,.9,4.4c0,.79-1.13.87-1,1.8-.12,1.4,2.65,3,3.4,1.5,0-.18-.15-.22-.3-.2s-.28.12-.4.2l-.1-.1a1,1,0,0,1,1.1-.9c.88.63,2.51.74,3.5,1.1,2.4,1,4.72,1.75,7.4,1.3-.62,3.88,5.44,3.9,4,.3-.58.12-.28,1.53-.9,1.5a.68.68,0,0,1-.7-.8c.48-2.49,5.17-3,7.2-4.1,1.26,4.68,2.43,12.81,9.3,12,2,.36,6.5.12,5-3-1.28-2.1-1.29.64-2.65.55-2.55-.08-2.5-3.37-2.4-5.2.48-2.32,3-4.4,4.1-6.4.15,0,.65-1,.6-1.1l.1-.1c.28-.1.41.33.2.4a7.43,7.43,0,0,1,.5,1.6c2.83,3.49,8,4.35,12.1,5.2,1.59.26,2.66,3.77.4,3.6l.4-.6v-.2c-2.05-.27-1.55,2.1.2,2,3,.35,5.93-6.48,3.4-8.4-1.29-.91.13-2.48-.2-3.8-1.67,3-4.5-.94-4.3-3.1-.11-1.49,1.36-2.11,1.7-3.4.14-.09.09-1.53.4-1.5.29.75,2.16,1.69,2.2.3,0-1-1.37-1.59-1.2-2.8,1.11-4.3,2.26-18.7-1.2-21.8-.13-.58,1-1.31,1.2-1.8a10.84,10.84,0,0,0,1.2-1.9c1.3-1.15,1.45-2.74,2.3-4.1l2.7-3.3C63.06,6.61,48.33,11.45,46.81,13.27Zm-42.4,4.3C3.91,15.46,7.66,11,9,14.17c-.63,2.61-1.92,5-.7,7.8C6.77,21.09,4.37,19.72,4.41,17.57Zm7.6,6.7c.38,1.2,0,3.4-1.8,2.2C10.35,25.62,10.78,23.84,12,24.27Zm-6.1,5.6C0,31.59,3.37,26.48,7,27c1.64.06,5.94.51,7.4,1.3a16,16,0,0,0,.6,3.2C12.21,31.3,9,29.92,5.91,29.87Zm21.4.6a7.63,7.63,0,0,0-3-.3c4.54,1,8.74,5.67.7,2.9-2.79-.37-7.58-.82-8.1-4.4,0-.1,0-.41.1-.4.12.19,11.07.73,10.3,1.4l-.4.4C26.88,30.38,27.34,30.16,27.31,30.47Zm-10.6-3.2c.39-1,2,.09,2.85-.2.88.15,1.64-.95,2.45-.6C22.08,28.11,17.19,28.17,16.71,27.27Zm.4-2.2c-.09-.6,3.31-.26,3.6-.4,2.06-.45,2.36-2.07,2.5-3.8C26,24.76,17,28.59,17.11,25.07Zm1.3,7.1c0,.17.12,0,.1.3-2.92.38-3.34-2.7-3.3-4.9,0-2.76,1.27-5.9,3.7-7.3v.2C16.15,23.94,14.36,29.07,18.41,32.17Zm-5-7.9v-.1l1.8-.3C14.9,25,14,25.31,13.41,24.27Zm.8,3.1a3.89,3.89,0,0,1-1.6-.4c0-.59-.13-1.38.2-1.9C14.18,24.79,14.81,26.42,14.21,27.37Zm-.8,4.5c.06.62-1.08.45-1,0C12.32,31.54,13.46,31.39,13.41,31.87Zm-2,0c-.11.52-.92,0-.8-.4S11.51,31.33,11.41,31.87Zm-1.9-.2c-.53,0-1.35,0-1.3-.8C8.79,30.9,9.52,30.94,9.51,31.67ZM56,14.17a.83.83,0,0,0,.7.3c-.14,0-.16.11-.3.1-.41.76-3.68,1.32-.8,1.5.18,1.11-1.39.67-1.4,1.5,0,.33,1-.05.9.4.19.75-1.48,1-1.5,1.5,1,1.11-2,1.51-2.3,2.2,0,.13.13.2.4.2-.88.61-2.2.15-3,.9l.1.1h1.9c-1,.83-2.48-.15-3.5.2.38,1,3.25.24,3.4,1.5a9.8,9.8,0,0,0-4.1-.5c-.26.38.05.57.4.5a1.88,1.88,0,0,1-.8.1V24a.28.28,0,0,0-.2-.1c-2.39-1.58-5.33-.57-1.2,1,.08.34-.83.28-1,.3.32,0,.42-.15.4-.4-.35-.23-1.42-.25-1.6.1.11.51.48,0,.4,1,1.21.33,2.06-1.57,3.05-.15,2.83,3.24,3,7.54,2.45,11.55l.1.1c1.06-1,.44-5.2.6-6.5.15-1.49-1.27-3-1.6-4.3,2,1.22,4.18,7.93,3.4,10.1a6.58,6.58,0,0,0,1.2,2.6c.43-.51,0-1.61-.2-2.2.66-.53.52-1.1,0-1.7a15.34,15.34,0,0,1-.6-2c-.56-.75-.42-2-.8-2.8-.17-1.08-1-2-1.1-3.1.89.71,1.33,2.83,1.9,3.8h.1l.1-.1c.09-1.51-1.16-3.18-1.8-4.5,0-.65-.51-.84-1-.6-.07-1.85,1.1-.12,1.4.6.21.26,1.29,2.54,1.5,2.8,0,.16.39,2.25.9,2.1s-.31-.54-.2-.9a2.38,2.38,0,0,1,.1-.8c-.17-1.9-2.44-4.56-.3-5.6.07,0,.1,0,.1-.1.86.12.71.95.4,1.5l.1.1c-1.2,1.55,1.52,2.25,1.4,3.7l-.4-.4h-.2a7.28,7.28,0,0,0,.5,2.5v2.8a3.63,3.63,0,0,0-.8-.9c-.15,0-.05.3-.2.4,0,.84.65,1.16.6,2,0,.54-.88.88-.3,1.4,1.94,3.24-2.45,8,1.4,10.6-2,.36-2.26-3.56-2.5-4.8l-.1-.1c-1.79,1.37.09,4-.45,5.9,0,.34-.53,2.2-.75,1-.23-1.4-.77,1.13-.9,1.2-.27,2.35,1.91,7.3,4.7,5.9-1,2.68-4,.42-4.2-1.6-.85-1.26-.68-3.38-1.6-4.5-.17,1.81.61,3.34.8,5.1-2.32-1.74-1.37-5.61-.7-8a4.83,4.83,0,0,0,.6-3c0-.95,1.35-1.59,1.2-2.7-1.19-.07-.62,1.35-1.4,1.8a3.41,3.41,0,0,1,.3-2.5c0-.1.43-.7.4-.8.16,0,.17-.32.3-.4v-.1c-.12,0-.1-.12-.1-.2-.51-.24-.74,1.57-1.15.85.06-.15-.13-.16-.25-.15,0,1.66-.36,3.72-.3,5.4h.1l.3-.3c-.64,3.47-2.75,7.53.1,10.5,1.17.27,1.61,1.53,2.5,2.2a3.94,3.94,0,0,1,4,3.6c-.53-.08-2.58-3-2.5-1.5,1,1,2,2.33,1.5,3.8-.56-2.42-2.82-3.4-4.1-5.4,0-.13-.13-.2-.4-.2.27,1.66,3.72,4.47,4.3,6.1-.27.33-.74,1.79-1.4,1.7.13-.07.14-.49.3-.5.69-3.13-2.53-4.36-3.9-6.5-.71-.85-.45-2.26-1.5-2.6-.14,2.08,1.72,3.51,2.7,5.1-4.21-.17-3.46-5.92-4.4-8.4-.43,2.41-.26,5.56,1.5,7.5v.1c-2.32-.37-2.39-3.73-2.7-5.6l-.2-.2a5.06,5.06,0,0,0,1.1,5.3V61c-1.95-.61-3.93-2.21-4-4.4-.73-1.37-.74,1.78-.4,2.3-.9,0-.32-1.85-.55-2.25-.09-.25.41-.91.35-1.25-1-.34-.75,2-.8,2.6l-.1.1c-.32,0,0-2.07-.4-2-.3.32,0,1.12-.3,1.4-1.12-.79-.69-2.89,0-3.8.64.59,0,1.39.1,2.1a2.87,2.87,0,0,0,.7-2.1c.26,0,.13.08.3.1.43-1.4.59-3.93,1.1-5.4.21-1.31.06-3.07,1.55-3.65.47.07.48-.57.65-.85.18-.45,2.1-1.55,1.3-2-.69.18-.61,1.34-1.7.8.32-1,2.16-1.16,2.5-2.5-.79-.23-1.28,1.3-1.9,1,.2-.18,0-.42.2-.6v-.1c-.13,0-.38-.11-.5-.1,1.72-.89-1.73-1.74-.3-2.1,1.45.94.55-.54,1.7-.5,0,.71-.63.9-.5,1.6.31-.34,1.15-1,1.5-1.4h.1a1.28,1.28,0,0,1-.4.9v.3c.21.06.64-.5.8-.5,1.6-2.17,2.13-6.37.4-8.5-.43,1.09-.7,2-1.9,2.4.54.27,1.27-.09,1.9,0,.76,1.52-1.92.77-2.1,1.6l.1.1h1.2c.21.65.46.3,1,.2.93,3.87-2.21,2.41-4.5,1.8-.12-.13-.48-.27-.6-.4-.33,0-.6.09-.5.4.22.92,1.81.3,2.1,1.2-1.39.18-2.87-.64-4-1.3-.62-.38-.66.42,0,.7.61.77,2.32.55,2.8,1.4h-.2c1.22,2.25.59,2.31-.8.4a4.51,4.51,0,0,1-1-.7,2.48,2.48,0,0,0-1.3-.7c-.63-.17-1.4-1.25-2.1-1.2-.52.24,0,1.49.6,1.4.13,0,.18-.07.15-.2,0-.36.42-.21.35.2,1.12.88,3.35,1.34,3.3,3l-.4-.4c-.43.75.14,2.8.9,1v.5c-.06.07-.54.65-.6.7.74.16,1.28-.72,1.6-1.2,1.06,1.14-1.55,2.16-1.6,3,.85.08,1-1.08,1.9-1a3.1,3.1,0,0,1-1.7,2.3c-1.17,1.88-.33,5.44-1.79,7.29,0-.84.51-1.52.39-2.39.08-.45.22-4.11-.4-2.8l-.1,3.4C38.62,52.8,37.64,55,36.21,57h.3l.5-.4c-.1.46-1.31,1.63-1.6,2S34,61.1,33.31,61c.39-1.2,2.16-2.52,2.4-3.7-4.86,2-5.66,13.87,1.2,11.7,4.15-.8-6.89,6.37-5.4-6.8a7.73,7.73,0,0,0,1,8.3c-2.37-.25-2.42-4.23-2.6-6-.09-3.73,5.39-6.19,6.6-9.5.38-.84,1.89-1.59,1.4-2.6a10.41,10.41,0,0,1-2.7,3.1c.7,1.13-3,3.73-3.6,4.8l-.2-.3c-1.52,1.05-1.66,3.17-2.1,5h-.1a8.39,8.39,0,0,1,.9-5.2c.09-.89-.68,0-.8.3-.72-.8.37-2.14.8-2.9V57h-.4c-.16.15-.42.39-.4.6-1.34.94-.71,2.46-.4,3.7a9.1,9.1,0,0,0,.9,7.6l-.1.1c0-.17-.33-.06-.3-.2-1.72-1.28-1.84-3.9-1.5-5.8-.54-.09-.65,1.18-.8,1.4-.27-1.82.66-3.15.9-4.7A8.31,8.31,0,0,0,26,63h-.1c.08-.56-.32-2.08.6-2.1-.36-2.1,1.13-2.66,1.7-4.5l-.1-.2c-.76.07-1,1.23-1.5,1.6-.06.26-.89,1.88-1,2.1-.57-.52-.1-2.82.3-3.3,2.82-2.77,2.09-8.17,0-1.3-.07,0-.1,0-.1.1a6.44,6.44,0,0,1,.2-1.9l-.1-.3c-.28.11-.14.24-.3.4-.52,1-.39,3.48-1.4,4.1v-1.1l-.1-.1c-1.49,2.93-6.92,3.32-8.3,6.3-1.17-.8,1.31-2.68,1-3.8-1.18.59-2.33,2.67-3.8,2.4l2.7-2.8v-.1c-.07-.07-.1-.07-.1,0-1.56.86-3.48,3.53-5.4,2.2,1.44-1.34,3.67-1.41,4.9-3v-.2a44.62,44.62,0,0,0-5.4,2.9,26.84,26.84,0,0,0-3.8-.6c.61-.61,2.24-.23,2.7-1.1.07-.25-4.59.33-4.7.3l.8-.8a2.8,2.8,0,0,0-2.9,2c-1.45.1-.84-1.5,0-2a5.85,5.85,0,0,0,1.6-1.1c.8-.43-.23-.72-.55-.25-2.49.84-2-5.55-1.1-7,.94-3.16,6-2.45,7.15-5,.6,1.22-1.27,1.44-1.1,2.7-7.37,1.13-2.68,8,2.6,8.2.33,0-.13-.42.2-.4a6.18,6.18,0,0,0,6.2-3.1c-1.7,1.12-3.36,3.28-5.6,2.3.93,0,3.62-1.72,4.5-2,.09-.31,1-.64,1-1l-.1-.1c-.24.36-.67.25-1,.4-.55.33-.37.69-1,.7.21-1.14,2-1.37,2.9-1.8-.15,0-.38,0-.5-.1a3.17,3.17,0,0,0-1.4.4c.17-1.43,3.53-.63,3.7-2.4h-.1a4.6,4.6,0,0,1-1.5.8c.26-.42,1.35-1.34,1.5-1.8-2.06.49-1.39,2.79-4.4,2.2,1.17-.19,2.29-1.56,3-2.4,1.14-.86,3.76-1.71,4.7-2.8a31.62,31.62,0,0,0-4.5,2.1c-.14,0-.16.11-.3.1.07-1.24,2.2-1.1,2.5-2.1-.49,0-.84.1-1.3.1.44-1.23,2-1.76,2.8-2.8a3.09,3.09,0,0,1-1.2.2c.71-1.76,3.62-1.51,3.9-3.55.07-.37.23-.55.5-.55.14,1-.36,1.45-.5,2.3h.1l.9-1h.2c.08.65-.73,1-.7,1.6.76,0,1.78-1.39,1.05-2-.2-.09-.4-.56-.15-.65.73.45,1.68,1.42,2.4,1.9.62.82.2,2.39.9,3.1.54-1.06-.07-2.32-.1-3.4.4,0,.91.83,1.2,1.1,0,.11.29.39.4.5h.2c0-.58-.33-.52-.3-1.1,1,.46.78,2.52.8,3.4,1.32.32-.64,2.32-.3,3.5.33,0,.5-.22.5-.65.15-1.43,1.22-2.26,1-3.75-.44-.38-.36-1-.8-1.4h.4c.06-.77-.74-1.24-.7-2,1.31-.12,1.43,5.38,2.3,3.8.17-.79-1-2.46-.1-2.8,1.8,8,2.1,1.47-.2-1.2v-.1l.1.1c1.36.62,1.68,2.32,2,3.6.08.33.16,2.4.6,1.7a14.38,14.38,0,0,0-.5-4.3c1.16.53,1.27,2.51,2.2,3.1,1.16,0,.87-1.77.9-2.5l.1-.1h.1c-.09,1.88-.1,3.49,1.8,1.3.58-.45.46-2.82-.6-2.8a15.3,15.3,0,0,1-.1,2.8c-.58-.21-.5-3.5-1.5-2.6,0,.24-.24.2-.4.2-.24-.35-1.54-1.85-1.7-.7.74,1.14,1.92,2,1.7,3.5a10.74,10.74,0,0,0-3.4-3.8c-1.11.45-2.35-2-2.6-1,1,2.23-2.3-.73-2.7-1.3h-.1c0,.42.33.58.3,1-.73,0-1-.92-1.7-1.1l-.1.1c-.09.83,1.19,1.26,1.1,2.1-.06,1.07-2.44.15-2.5-.6.68,0,1.22.65,1.9.6l.1-.1v-.1l-.1-.1a13.14,13.14,0,0,1-1-1.3c-.1-.08-.7-.92-.8-1v-.2a2.13,2.13,0,0,1-.3,1.2c-.43-.12-.59-2-1.4-1.4s-.9-.64-1.5-.6v.2c.43.54,1.61,1.62,2,2.2-.67-.2-3-1-3.3-1.7.55-.53-.24-.94-.7-.7-.29,1.7,1,1.48,1.8,2.4-2-.5-3.46-2.35-5.8-2,0,.78,1.8.72,2,1.4-1.21.09-2.68-1.12-3.7-1.6l-.2.2c0,.35.58.18.5.7a27.42,27.42,0,0,1-6.1-2,.83.83,0,0,0,.3.5c-1.21-.36-3.46-1.79-3.6-3.2,2.33,1.08,14,1.74,16.7,2,2.78,1,10.4,3.28,6.1-2.1-.4-.31-.26-1.26-.5-1.7a8.85,8.85,0,0,0-3-2.6c-.68-.33-2.71-.23-2.6-1.5.59-3.35,3,.32,4-.7-.78-1.09-2-1.1-3.2-1,.73-1.56-.19-5.12-2.3-3.5,2.68,2.48-2.15,4.85-3.9,3-.11-.64,1.08-2.05,1.6-1.3,0,.5,1.36.43,1.7.5l.1-.1a17.84,17.84,0,0,0-2.3-1.1c-.06-.57.76-.63.7-1.2-1.09-1.49-2.47,1.54-3.8,1.5,1.11.45-.41,1.66-1.2,1.4-.09.14-.92.16-1,.3-9.16-1-.24-4.26,3.2-5.8l-.1-.1c-2.38.18-4.93,1.94-6.9,3.2l-.5.1v-.1h.1l3.2-2.1c.2-.3,1.37-.34,1.3-.9-1.73-.31-3.27,2.26-5,2.6a16.64,16.64,0,0,1,2.4-2c-.9-.18-1.81,1.27-2.5,1.3l-.1-.1c-.25-1,2.19-1.4,2.5-2l-.1-.1c-1-.18-1.54,1.09-2.4,1,.46-1,2-1.5,2.9-2-.28,0-.77.07-1-.2,2.84-2.28,8.37-.26,11.4.4,9.14,1.45,10.82-2.14,15.3-8.8.19-.06.62-.49.8-.5a43,43,0,0,0,4.2-2.5h.5c0,.61-.6,1.13-.7,1.7.72.07.78-1,1.5-.9.62.79-1.44,1-1.3,1.7h.2l.8-.5h.2c-.63.84-1.52.87-2.2,1.6,1,.55,2.44-1.81,3.5-1.6-1.8,2.07-5,2.63-6.9,4.2,1.07,0,1.78-1.12,2.9-1.1.86-.54,2.23-.95,2.9-1.7,1.07-.53,1,.16.2.6,1.16-.27.73,1.39.8,2,0,.41-.61,1-.8,1.3v.1c-.47.37-1.15.17-1.7.3-.35-.67-1.53.11-2.4.35-1.12.5-2.3.56-3.3.95-.73.42-4.69.33-4,1.5,4.3-.53,9.47-2.88,13.6-1.5-.52.14-1.54-.09-1.9.4a1.82,1.82,0,0,0,1.1.2l.1.1c-.23.79-3.56.08-4.1.7.56.46,2.08-.07,2.6.4h-.2a21.31,21.31,0,0,1-4.8.8c-1.54.6-.58,1.51.4.2.43.1.53.58,1.2.5,0,.82-1.79.61-1.6,1.7-.08.51.54.8.8.5-.06-.56-.05-1.23.6-1.4,4.7-.85,7.82-4.77,11.8-6.5,2.12-.5,3.93-.14,6-1.1.37-.13,1.1-.45,1.15.1C58.64,12.3,57.57,13.06,56,14.17Zm-29.8,18.2c0-.2-3.9-1.11-4-1.2C22.17,32.19,25.84,33.24,26.21,32.37Zm-2.4-2.5c-.56-.19-1.74-.7-2.2-.2A2.9,2.9,0,0,0,23.81,29.87ZM4.91,17.77c0,.53-.13,1,.3,1.4.59-1.24.12-2.53,1-3.7C5.05,14.45,4.84,17.2,4.91,17.77Zm2.8-2.3c-.14,0-.12.14-.3.1-.83.51-1,1.83-1,2.7,0,1.71,1.57,1.43.7-.2C7.08,17.08,8,16.33,7.71,15.47ZM38.21,13a10.23,10.23,0,0,1,3.7-1.3l.2-.2c-1,0-1.8.21-2.8.2.15-.43,1.62-.83,1.7-1.2-.63.07-3.13,1.4-3,2.3C38,12.92,38.06,13,38.21,13Zm-9.7,43.1c.22.88-.68,1.3-.7,2.1h.3c.07-.25.44-.52.5-.8.12-.71,1.36-1.37,1.5-2A3.63,3.63,0,0,0,28.51,56.07Zm13.7-46-.1-.1a1.14,1.14,0,0,0-.8.4C41.58,10.33,42.3,10.52,42.21,10.07Zm-27.1,10.4a5,5,0,0,0,1.9-1.1c.41-.21,1.27-.45,1.7-.7C17.65,18.7,15,18.84,15.11,20.47ZM13.71,23c.36.05,1.73-.66,1.7-1.1C15,21.87,13.61,22.35,13.71,23Zm29.8-12.2c-.12,0-1.44.1-1.4.4.7-.1,1.46.67,2,.1C43.71,11.21,43.84,10.79,43.51,10.77Zm.4-.9a.85.85,0,0,0-.4-.1,1.67,1.67,0,0,0-.9.2C43,9.93,43.55,10.07,43.91,9.87Zm.2,4.5a1.27,1.27,0,0,0-1,0l.1.1C43.37,14.46,44,14.51,44.11,14.37Zm-20.4,16.7c1.72,0,3.4,1.77,5,1.6C27.69,32,24.77,30.45,23.71,31.07Zm-.6,25.2c-.25.7-1,1.29-1.3,1.9,1.38-.27,2.89-3,2.5-4.3C23.43,54.44,23.72,55.44,23.11,56.27Zm16.2-22.5c0,.71,1.27.43,1.7.5l.1-.1v-.1c-.18-.27-.82-.14-1-.3Zm-2.1.2c-.12.68,1.81.89,2.1.9C39.46,34.36,37.37,34,37.21,34Zm7,10.5h.5c.44,1-2.15,3.18-1,3,.36-.16.56-1,1-1-.27.92-1.21,1.76-1.6,2.6,0,.17,0,.47.2.4a12.74,12.74,0,0,0,2-3.6C45.39,45.32,45.13,42.66,44.21,44.47Zm-2,10.1c0,.06,0,.86,0,.9,1,1.4.56,4,2.6,4.5a7.33,7.33,0,0,1-1.1-6.2c-.7-.08-.47.94-.8,1.2l-.2-.2c-.33-2.44,1.24-3.87,2-6A8.1,8.1,0,0,0,42.21,54.57Zm2.6-14a1.58,1.58,0,0,0,1-.8v-.3A1.06,1.06,0,0,0,44.81,40.57Zm-11.9-7.7c.8-.13-.14-.74-.3-1,.29-1.1-.83-1.2-1.2-2h-.1c-.64-.4-1.12-.56-1.7-1h-.2c-.07.68,1.16.91,1.5,1.2l-.2.2v.1a8.4,8.4,0,0,0,1.1.8c-.09.29-.5.08-.5.4,1,1.82,1.45,4.59,3.8,5.5.15,0,.09-.21.1-.3A5.73,5.73,0,0,1,32.91,32.87Zm4.4-4.5c-.1-.28-.89-.29-1.1-.3-.1.65.53.64,1,.6Zm-2.4,6.7a.27.27,0,0,0-.3.3c.24.61,2,2.71,2.8,2.1h-.1C36.71,36.55,35.37,36.18,34.91,35.07Zm17.1-.8c0,.36-.07,1,.5,1C53,35.05,52.49,34.14,52,34.27Zm-5.9,1.8c-.38-.19-1.6-1.24-1.9-.6C48,39,47.41,33.45,46.11,36.07Zm6.5-19a5.46,5.46,0,0,0-2,.5C50.92,17.51,52.6,17.73,52.61,17.07Zm-4.1,29.4v-.2a14.86,14.86,0,0,0-.8,2.1C48.39,48.47,48.49,46.78,48.51,46.47Zm3.1-30.4c.07.4.91.14,1-.1A2.7,2.7,0,0,0,51.61,16.07Zm1,25a.86.86,0,0,0-.3.6C52.55,43,53.19,41.46,52.61,41.07ZM32,36.37c0,.38.27.29.5.3C32.54,36.41,32.15,36.38,32,36.37Zm17.3,1.9c-.89,2.94.1,1.53,1.1.1.74.53.08,2.36.9,2.7.54-.54,0-3.91-1.4-3.4a7.86,7.86,0,0,1,.4-2.9,10.17,10.17,0,0,0-.7-3.9c0,1.16.12,2.44.1,3.6C49.83,34.71,48.24,38.88,49.31,38.27Zm.7,10c-.23.65-.72,1.2-.7,1.9.5.5.33-1,.6-1.1s.48-.21.6-.2c.56-.52.34-2.23.4-2.9C50.69,46,50.08,48.12,50,48.27ZM36,29.17c.39.07.58-.46.2-.5a5.69,5.69,0,0,1-3.7-1.9v.8c-.87-.21-1.93-2.14-2.6-2.7,0-.2-.07-.3-.2-.3v-.1c1.22.79,2.66,2.27,4,.8-.2-.06-1.63.13-1.7-.1a11.64,11.64,0,0,1-2.3-1.5,4,4,0,0,0-1.7-.9c0,.08-.05.31.1.3.23.63,1.4,2,1.6,2.5C31.42,27.2,33.35,29.49,36,29.17Zm-2.5-10.5a14.66,14.66,0,0,0,2.6.1l-.1.3.1.1c.18,0,1.29-.07,1.3-.4-.24-.45-.87-.43-1.3-.4-.75-.05-1.65.13-2.4.1Zm3.4,25.4-.3.3a11.1,11.1,0,0,0-.4,2.1C37.14,46.36,36.83,44.68,36.91,44.07Zm-.8,7.8c0,.79,1.22-.16,1.2-.5C37,51.36,36.25,51.57,36.11,51.87Zm2-4.2a11.1,11.1,0,0,1-2.1,2.7v.1l.1.1a.28.28,0,0,0,.2-.1C37,50.41,39.69,46.93,38.11,47.67Zm-.5,3.2c0,.91,1-.6.7-.8C38,49.63,37.58,50.62,37.61,50.87Zm-5.35-4.25c-.39.72-.74,2.84-1.85,2.35a13.89,13.89,0,0,0-2,4c.59,0,.39-.33.7-.7a.28.28,0,0,1,.1-.2c0-.15.11,0,.1-.2.17-.41,2.59-1.25,2.4-2h-.1l-1.2.8h-.2c.53-1.53,2.62-2.28,2.5-4.1C32.69,46,32.41,46.05,32.26,46.62Zm4.55-2.85.1.1C37.6,43.83,36.86,43,36.81,43.77Zm1.2,1.1c-.47.29-.2,1.28-.5,1.7-.2.67-.93,1-.9,1.7C37.81,48.06,38.34,45.85,38,44.87Zm-4-22.2c-.21-1.51-.93-1.4-1.2,0,.09-.49-.67-1.3-.8-.4A1,1,0,0,0,34,22.67Zm-6.4,4c0,.38.86.58.9.2S27.65,26.29,27.61,26.67Zm.5,26.9c-.1.11-.33.32-.4.3V54c.23.24.49,0,.65-.2.83-.87,2.73-1.47,3.15-2.7-.75,0-1.62,1.22-2.2,1.6C29.27,52.61,28,53.49,28.11,53.57ZM27.91,26c-.5-.47-1.51-1-2.2-.5.1.59,1.62.57,2,.6A.28.28,0,0,1,27.91,26Zm5-7.7a8.29,8.29,0,0,0,2.5-.5l-.1-.1C34.63,17.73,33.21,17.45,32.91,18.27ZM31.71,20c-.76,0-2.17.58-2.3-.6a2,2,0,0,1,2.4-.8c.25.07.34-.6.5-.6.13-.28,1.08-.27,1-.6-1.54-.32-6.81.89-4.2,3.1l-.8.8C30.15,21.3,30.15,20.74,31.71,20Zm-.9,3c.63.74,1.26,1.61,2.4,1.5,1.25.38,2-2,3.1-1.1h1v-.1c-.09-.13-.85-.33-.8-.6.92-.21,2.52,1.35,3,.2-1-1.19-3.21-1.28-4.6-1.8.08-.43,1-.23,1.2-.4a11.41,11.41,0,0,0-3.5,0l-.1-.1c.17,0,.4-.38.6-.3-1.7-.29-1.5,1.2-3,1.3-.43.13-2,0-2,.6S30.68,22.68,30.81,23Zm3.9-.7c-.12,1.8-3.2,2.09-3.1,0C31.44,20.7,34.58,21.11,34.71,22.27Zm-4.2,13.6a.59.59,0,0,0,.6.6C31.78,36.31,30.69,35.19,30.51,35.87Zm273-22.2h1.9c.23-1.22-2.93,0-3.6.2l-.1.1.2.2C302.19,14.05,304.11,14.53,303.51,13.67Zm-5.2,44.2a9.93,9.93,0,0,1-3.2,2v-.2c.38-.42,1-.72,1-1.4-1.78.87-4.12,3.36-6.4,3.2a7,7,0,0,0-2.6-.7v.1c2.15,2.32,11.69-.81,12.5-3.6C299.55,55.78,298.62,57.52,298.31,57.87Zm3-6.2c-.09-.78.27-2.09-.4-2.6V51c-.23-.1-.72-.64-.7-.9-.27-.27-.47-.4-.6-.4C299.45,50.13,300.93,53.44,301.31,51.67Zm-8.8,8.6-.1-.1c-1.14-.08-2.48.86-3.7.6C289.69,61.51,291.49,60.77,292.51,60.27Zm6.1-18.9c-.43.37-.3,1-.6,1.4l-.5-.9c-.47.4.56,3.43,1.2,1.9A13.49,13.49,0,0,0,298.61,41.37Zm.55,13.55c.27-.57.27-.65.15-1.05-.89.35-1,2.09-1.8,2.5h-.1a3.37,3.37,0,0,0-.1-1c-.15,0-.31,0-.3.2C296.8,58.94,298.54,56.54,299.16,54.92Zm.75-15.05c0-.07,0-.1.1-.1.06-.33-1.27-2-1.7-1.9C298.09,38.27,299.59,39.85,299.91,39.87Zm.9,15.5-.2-.1c0-.37.11-1.28-.4-1.4-.41,3.85,1.7,2.17,1.6-.4v-.3C301.08,53.23,301.18,54.89,300.81,55.37Zm3-4c-.25-.13-.38-1.1-.7-1.1-.62,2.11,1.58,1.87,1.9.2C304.69,49.71,304,51.19,303.81,51.37Zm.6-10.3-.3-.3c-.19-.05-.21.12-.2.3-.07,1.27,1.1,1,1.1-.1C305,40.45,304.59,41,304.41,41.07Zm-5.8-14c-.51-.18-2.25-.26-2.6.3C296,27.91,298.41,27.2,298.61,27.07Zm-1.1-2.1c.19-.43-1.39-.16-1.4.1l.2.3C296.65,25.35,297.37,25.44,297.51,25Zm-2.4-1.6c-.21,0-1.15.09-1.1.5S295.13,23.73,295.11,23.37Zm11.1,30.8c-.31-.26,0-2.56-.6-2.7-.17,1.14-.6,2.75.4,3.6.65.28,1-1.35,1-1.7C306.62,53.33,306.35,53.92,306.21,54.17Zm-9.9-28.7a1.56,1.56,0,0,0-1.4.6C295.16,26.36,296.37,26,296.31,25.47Zm1.1-2.4v-.3c-.33,0-.93,0-1.1.2a.35.35,0,0,0,.1.3C296.68,23.2,297.35,23.46,297.41,23.07Zm-.2-1.7c-.18-.16-.63-.1-.6.1h.6Zm-3.9,7.4a5.57,5.57,0,0,0,2.6-1.1C295.21,27.69,293.3,27.64,293.31,28.77Zm3.4,8.1c-1.09.58-.32,2.28-.7,3.2-2.93-4.51,1.06,5.69.9-.5A9.52,9.52,0,0,0,296.71,36.87Zm-2.9,0c-.62-1.25,1.26-2.15,1.3-3.2-.22-1.18-2.16,1.78-2,2.1-.42,2.25,1.57,2.22,2.2.5C294.88,35.33,294.28,36.63,293.81,36.87ZM297,34c-1.37.69-1,4.48.1,1.8a.69.69,0,0,0-.5.2C296.43,35.28,297.43,34.6,297,34Zm-2.7,3.7c-.5,0-.3.93-.6,1.1-.3-.28-.4-.77-.8-1-.26.61,1.09,3.32,1.6,1.9C294.42,39.51,294.72,37.58,294.31,37.67Zm9.8,10.3a1.88,1.88,0,0,0-.8-1.6h-.2c.06.87.74,2.43-.3,2.9a22.47,22.47,0,0,0-.9-2.1h-.1a3.18,3.18,0,0,0,1,2.5C303.78,49.8,304.1,48.67,304.11,48Zm16.9,4.1c0-.24,0-.83-.4-.8l-.1.1c0,1.05-1.06.08-1,.9C320,53,321.1,53.31,321,52.07Zm1-5.6.1-.1v-.1a17.64,17.64,0,0,1-3.6-2C318.45,46.14,320.58,46.54,322,46.47Zm-8.3-7.1a3.37,3.37,0,0,0-.4.7c-.05.44,1.19,1,1.3.5A1.65,1.65,0,0,0,313.71,39.37Zm2.55,12.7c0,.18-.19.21-.35.2s-.31-.26-.3-.4c-.24.19-.07,1.24.3,1.3h1v-.1l.1-.1c0-.14.11-.16.1-.3C317.17,52.31,316.55,51.46,316.26,52.07Zm-.25-2.6c.24-.08,1.3.24,1.2-.3C317.29,48.61,315.12,48.88,316,49.47Zm-.1-6.6c-.07.32,1.27,2,1.5,1.2C317.49,43.59,316.27,42.84,315.91,42.87Zm4.65,11.65c.1.63-.62.29-.85,0-.24.11,0,.45.05.7.17.5,1.18.24,1.55.3l.1-.1c0-.19,0-.26.1-.4C321.69,54.48,320.69,53.68,320.56,54.52Zm5.85,1.35c-.14,0-.27-.11-.4-.1.64,1.21,2.32,2.59,3.8,2.1C328.87,57.36,327,57.06,326.41,55.87Zm6.5-6.2c3.6,3.27,0,8.81-4.45,6.1-1.87-.79-3-4.75-3.95-6.3,3.36.26,1.67-.77.3-2.2-.27-1.52-1.9-2-3.1-2.7.58-1.48-.3-2.75-1.3-3.8a8.52,8.52,0,0,0,1.5-.9v-.1c-.07,0-.1,0-.1-.1a.28.28,0,0,1-.1-.2c-2-1-3.47-2.54-5.4-3.6l.7-1c0-1-2-.81-2.7-.9-1.72-.13-5.22-2.51-1.4-2.85,4.69-.18,10.51,1.1,13-4.05a29.18,29.18,0,0,1,2.9-1c3.6-2.5-.62-2.13-2.6-1.9-2.7.16-5.25-1.15-7.9-1.1,3.45-4.48,3.93-4.6,7.7-.6,5.18-2.72-.52-8.32-3.9-9.9a11.76,11.76,0,0,1-4-2.2c-3.46-1.44-8.85-.34-12.4.3-.9-4.54-7.36-6.46-10.6-8.9-.85-.55-3.18-3.3-3.1-.6-.37,2.5.62,5.05,1.7,7.3l-.5-.3-6.8-3.6c-1.05-.67-2.58-2.44-3.6-3.2-2.42-.63-.16,5.07.2,6.4,1.21,4.53.38,10.29,4.5,13.5.1.19,1.53.92,1.5,1.2l-2.1,4.6c-2.32,3.15-1.43,3.41,2,2.8-.94,2.58.13,6.74.7,9.3.48,2,1.23.31,1.7-.7.83,1.78,1.69,4.14.6,6-1.57,2.79,1,1.87,2.3.45.06,1.22.59,1.84,1.9,1.6.25.2.37.49.6.7,0,1.2-1,5.35,1.3,3.1-.45,5.6-6.68,5.16-3.8,7.3v.1c-5.51,2.39-6.7,1.72-10.8-2-1.54,1.11.59,3.61,1.6,4.75,3.25,4.34,8.95,3.49,13,.85.36,4.23,5.15-3.66,5.3-5.4.07,1.29.27,6.69,2.5,4.4h.1a11,11,0,0,1-.3,5.9c-.73,1.81,1.71,2.25,2.5.8.25,1.54-1.42,2.74-1.6,4.1,2,1.86,5.11-2.23,5.6-4.1,2.7,1.1,1.67-4.07,2-5.3h.2c2.19,1.88,3.21.18,1.6-1.8,0-.21-1.07-4.79-1-5h.1c.37.18,1.72,1.29,2.1,1.5.14.3.58.44.8.7.16,0,.85.75.9.9.93.88,2.6,3.22,3.2.7,1.33.65,5.49,4.36,5.1.9,1.92.56,3.45,1.41,5.5.8.62,0,3.37-.54,2-1.4-.23,0-.43-.29-.6-.3,1.17-1.53,3.71-3.2,3.8-5.3S335,48.82,332.91,49.67ZM329,24.77c-5,2.92-11.31.85-16.8,1.2-1.37-.14-3,.54-4.4.6a16,16,0,0,1,5.1-1.2l.4-.3V25c-2-.18-4.06.59-6,.8a3.37,3.37,0,0,0,.7-.4c1.69-.68,8.23-1.3,10.1-1.6C321.79,24.06,325.24,25.72,329,24.77Zm-7,2.5c-.77.32-8.29.17-9.3.2-1.09.31-3.35,1.41-4.5,1.3-.85-1,1.05-1.76,2-1.85C312.64,26.31,319.44,27.17,322,27.27Zm-2.6-14.9c1.16.41,2.31.51,2.8,1.5-.6,2.08-2.65,1.94-4.4,1.9-1.08.09-2.79,1.26-3.2-.3-.15,0-.09-.22-.1-.3a.28.28,0,0,1-.1-.2C314.87,14.59,318.79,12.69,319.41,12.37Zm-26.5-9.2c.88,1.14,1.81,2.65,3.5,2.4-1.14-1.32-3.82-2.12-3.5-4.3a72.6,72.6,0,0,0,8.6,5.3c5.18,4.3,2.64,4.63-2.5,3.9,0,.15.11,0,.1.2a8.17,8.17,0,0,1,1.3.6c-1,.19-3.12,1-3.7-.1-1-1.46-2.79-3.11-3-5,.84,0,1.17.92,1.9,1.5,1.38,1.57,3.18,1,4.8.5.08.11.37.09.56.13-1.58-.81-3.8.53-5.16-1.33a4.57,4.57,0,0,1,1.1-.1C295.44,6.13,292.45,5.48,292.91,3.17Zm39.6,55.2v.1l1.5.9c-2.52,1-7.15.52-8.3-2.3-.08-.37-.89-2.94-1-3.2a.12.12,0,0,0-.2,0v1.2c-.47-.29-.55-.63-1.2-.6.42,1,2.07,2.44,2.2,3.6-.43-.26-1-1.06-1.6-1,0,.1,0,.32.1.3.31.5,2.4,2.25,2.3,2.9-1.76-.67-3.84-2.89-5.4-3.9-.8.55,1,1.94.1,2.5-1.13-.64-4.75-7.59-3.4-3.1l-.1.1c-1.91-1-3-3.89-4.8-4.9.84,3.32,2.42,7.26,3.1,10.8-1.37-.44-2.47-2.46-3.3-3.5h-.2c0,.18-.1.73.1.8.25,1.24,2.38,8.79-.65,6.6-3.09-4.84-1.16-1.51-2.25,1.6.67.11.79-1.37,1.1-1.6a2.05,2.05,0,0,1,.5,1.1c-.09,1.59-2,2.86-3.1,3.7h-.2c1.1-2,1.9-4.53,1.1-6.7-.42.38-2.06,4.41-2.5,2.8a11.28,11.28,0,0,0-.4-8.9h-.1c-.22,0-.82,2.14-.9,2.3-1.16-1.76-.21-5.22-1.5-6.7-1.25,2.92-2.14,6.21-4.6,8.5-.55-1.91,3.82-3.89,1.7-5.3a.28.28,0,0,1-.1.2v.9c-4.16,6.08-14.5,7.16-16.9-.9.26,0,.35.27.5.4,2.8,4.38,8.81,2.88,12.3.1.26-.3-.1-.38-.35-.25a1.87,1.87,0,0,1-1.35-.15c.46-1,2.42-1.46,2.8-2.65.74-1.58,3.26-7.48-.5-3.95.07-1.21.72-2.41.4-3.7,1.19-2.67.6-2.53-.9-.4a2.67,2.67,0,0,1,.05-1.6c.35-.75.07-2.27-.7-1-.33.72-.13,1.9-.35,2.6-1.08-.74.49-6.34-1.3-5.4-.11,1.43-.25,3.37-1.4,4.3,2.91-4.14-4.21-9.41.5-12,1-1.66-.89.1-1.4.1.19-1.31,2.12-2.53,2.9-3.5.13-.34.13-.76-.4-.7-6.51,5-2.07,5.87-4.2,9.9l-.1-.1a33.43,33.43,0,0,0-.7-5.3c.2-.18,1.4-1.62,1.6-1.8,0-.16.27-.19.2-.4-.79,0-.85.45-1.5.9-.25-2.44,2.23-3.42,3.5-5-.36-1.35-2.51,1.61-3.2,1.8.07-1.05,3.4-3.52.3-2.3.12-.67,4.56-4.19,1.45-2.65-4.09,2.15-.27,4.6-4.95,5.65.84-2.21,2.4-4.71,3.2-7,1.51.33,7.38-.07,5.9-2.3-.9.15-1.48,1.53-2.5,1.45-1.53.14-4.17-.17-5.4-1.15a6.23,6.23,0,0,0,2.3.3c.67-.95-3.9-.76-4.4-2.7.71-.24,1.7,1.48,2.2.7-1.28-1.28-3.62-2.14-3.2-4.6,0,.14.32.16.3.3,1.14-.29-1.2-1.66-.5-2.3a2.39,2.39,0,0,0,1.4.3c-.27-.54-1.63-.83-1.5-1.6.9-.16,1.33,1.18,2.2,1.1-.65-1.29-2.75-2-2.7-3.8a.63.63,0,0,1,.6.4c.91.52,2,2.17,3.1,2.3-2-2.43-5.64-4.41-5-8.3,4.6,4.74,13.07,5.27,14.6,12.7.25.4,1.22,1.61,1.6.7-1.32-.89-.18-1.42.5-1.9,0-.3-1.52-.37-1.6-.5l.1-.1c.32,0,2.6.11,2.8-.2-.28-.83-2.32-.13-2.9-.5.29,0,1.7.13,1.7-.3-.34,0-1.16-.1-1.5-.1,4.74-.61,14.2-2.53,18.9-1.45,1.86.88.59,1.15-.6.55l-.1.1a1.74,1.74,0,0,0,.7.7c.08.45-.94.37-1.1,0-.14,0-.27.11-.4.1.07.21.61.72.1.8-2.32,1.6-4.82.3-7.3.2l-.1.1v.1c.42.29,1.7.39,2.1.8-1.08,0-2.44.34-3.3-.4-.53,1.33-2.36.28-2.7,1.6s-1.81.88-2.6,1.3c.23,1.17,2.7.63,3.3-.4a.45.45,0,0,0,.5-.1c-.79,6,9.61,3.61,6.4-1.4.73,0,.95-.14,1.7-.1a1.9,1.9,0,0,1,.6,1.4h-.1a6.38,6.38,0,0,0-1-1.2H313c-.13.87.85,1.27.8,2.1-1.29,2.55-3.3,3.86-6.2,3.4-.11.74,2,.33,2.1.8-1.75,1.81-5,1.84-7.2,2.8-.31,1.92,9.4-3,10.45-4.3,1.85-3.59,4.46-3.66,8.15-3.5.69-.69,1.36-1.43,2-2.2,2.16.35,5.63,6.1,2.9,7,0-.1-.43-.7-.4-.8-1.07-1.74-3.71-2.2-5.5-1.5-1.69,1-1.81,3.2-3.9,3.7-3.5,1.52-10.32-.12-11,4.9.55,3.85,5.46,1.67,7.7.8,2.89,0,8.65.37,11.2-1.1-1.64,4.23-8.42,2.53-12.4,3,1.71-2.08-2.89,1.08-3.9.45-2.05.13-1.28,3,.1,3.45l.2-.1c-.18-1.56-1.73-2,.8-2.5,0,.55-.23,3.34.8,2.5a3.2,3.2,0,0,1,.1-2.3c1.55,3,3.08,2.58,6.1,3.1-1.66,1.45-3.88-.34-5.5-1l-.1.1c-.06.22.5.54.5.7a16.8,16.8,0,0,1,1.6,1.3c0,.07,0,.1.1.1l.1.1c-.66,0-2.5-1.09-2.9-.4,5.53,2.25,4-1.7,10.7,4-1,.43-8.39-4.31-3.9-.6-1.76-.61-3.18-1.35-5.1-1.3,0,.2.13.3.4.3a14.13,14.13,0,0,0,2.7.8c.92.65,2.18.58,3.2.9,1.24.74,3.49,2.28,3.3,3.8-1.16-.9-2.39-2.22-3.8-2.7a1.09,1.09,0,0,0,.5.8V42c-.76.06-1.48-.63-2.2-.6,1.71,1.17,4.24,1.39,5.4,3.5.31.53,2.42.87,2.4,1.6a.74.74,0,0,0,.3.7c-.05.11.65.59.6.7l.8.8c-.8.08-1.56-.82-2.4-.7v.2c1.56,1.89,2.17,4.57,3.65,6.55,2.84,5.37,12.63.84,7.95-4.45C339.21,51.6,335.58,56.94,332.51,58.37Zm-23.6-41.5c-.25-2,2.67-2.09,2.4.2-.33,4.13-7.59,1.6-3.6-1.3C306.42,22.05,313.79,16.13,308.91,16.87Zm-2.2,19.3c-.15-.29-.33-.9-.8-.8.1,1,1.53,1.69,1.4.2C307,35.58,307,36,306.71,36.17Zm14.9,13.2c-.14.76,1.06,1,1.1.3S321.65,48.62,321.61,49.37Zm-10,11c-.14-.09-1.4-2.44-1.4-1.1a2.9,2.9,0,0,1,.8,2.6c.13,1.32.9-.24.7-.7A3.13,3.13,0,0,0,311.61,60.37Zm-2.4-2.2c0-.72-.92-1.14-1.1-1.8-.33-.14.17-1.32-.3-1.3C306.35,55.42,308.49,59.38,309.21,58.17Zm-.9,3.3c-.28-.45.21-2-.4-2.3-.46.61-.46,3.19.6,3.3.25-.28,1.06-.8,1-1.3C309.13,60.75,308.74,61.63,308.31,61.47Zm.3-17c0-.24-.33-1.06-.7-1v1l-.1.1a.83.83,0,0,0-.5-.3C307.1,45.14,308.64,45.2,308.61,44.47Zm3.3,14.8.1-.1a7.78,7.78,0,0,0-1.1-2.8C310.3,56.38,311.37,59.51,311.91,59.27Zm.1-19.4c-.07.37.51.4.6.2S312,39.42,312,39.87Zm4.2,5.4c.07-.33-.46-.55-.6-.3C315.53,45.4,316.13,45.7,316.21,45.27Zm-2.5-3.3h-.1c0,.38.53.6.8.6C314.41,42.17,314.18,42,313.71,42Zm-3.2,8c-.67-.94-.28-1.88-.1-2.9-2.65.88,0,4.17,1.7,4.5.06-.71-.76-.89-.7-1.6C312.17,47.58,311,48.43,310.51,50Zm-2.4-12.5a.53.53,0,0,0-.6-.6l-.2.1C307.29,37.25,307.9,37.48,308.11,37.47Zm-.6,9.1c-.11.69.4,2.77,1.4,2.2a13.87,13.87,0,0,0-1.1-2.3C307.63,46.43,307.65,46.55,307.51,46.57ZM288.11,10c.08-.36-1.08-.92-1.3-.9C286.81,9.39,287.82,10.42,288.11,10Zm15.5,17.4a2.22,2.22,0,0,1-.1-.5c-.18-.66,1.74-1,.5-1.3C302,25.37,303.15,29.4,303.61,27.37ZM294,12.77c-2.25-1.08-4.11-3-5.95-4.7-.61-.4-1.15-1.48-1.55-.9l.4.5v.1h-.5a41.54,41.54,0,0,0,4.8,4v.1a3,3,0,0,1-1.5-.6c.06-.11-1.3-.84-1.3-.9h-.3c.26,1,2,1.51,2.8,2,0,.07,0,.1.1.1a.28.28,0,0,0,.2.1c0,.08.36.46.5.6v.1a4.53,4.53,0,0,1-1.5-.7,2.26,2.26,0,0,1-1.1-.6c-.06.06-1.14-.75-1.2-.7-2.41-.68,3.49,3.17,4.2,3-.52.54-1.41-.38-2.1,0,.53-.95-1-.86-1.4-1.2-.22-.5-1.89-1.16-1.4-.2.91,1.38,2.69,1.9,4.1,2.6,0,.29-.49.4-.7.4-.47-.58-4.4-2.68-3.1-.9a22.44,22.44,0,0,0,3.5,2v.1h-.7c-.21-.27-1.29-.53-1.5-.8-.29,0-.73,0-.9.2.08.5,1.6.72,1.6,1.2-2.57,2.07,2,1,3.2,1,2.64.21,1-.58.1-1.6-.1,0-.11-.19-.1-.3.2-.17,2,0,1.9-.7C292.75,14.61,295.34,13.65,294,12.77Zm-3.3,17.7c.18,0,1.26-.66,1.2-.9v-.1C291.65,29.62,290.63,30,290.71,30.47Zm5.4-2.1c-1.43.79-1.15,3.87.6,2.1v-.1l-.2-.2C294.7,31.42,297,28.28,296.11,28.37Zm3.5,19.4c.58,0,.47-1.1.5-1.4C299,46,298.8,47.31,299.61,47.77Zm2.3-15.8c.75.81,1.6-.79,2.3-.8,1.6.63-1,2.27-.1,2.9.14-.14.58-.72.8-.8a2.54,2.54,0,0,1,.5-.7l.2.2c0,.24.32,1,.3,1.2.21,0,.41.17.6,0-.14-.91-.29-2.36-1.1-2.9-.08-.26-1-.64-1.1-.9-.41-.41-.89-1-.5-1.6-.07-.56-1.13-.29-1,.3-.06.7.86,1,.8,1.7C303.83,31.47,302,31.45,301.91,32Zm-.2,12.9v-2.2c-.62-.31-.5,2-.7,2.1-.16-.5-.4-1.67-1.2-1.6v.3C300.28,44.51,301.16,47.82,301.71,44.87Zm5.3-24c0-.27-.17-.4-.5-.4h-.2C306.38,20.74,306.61,20.87,307,20.87Zm-8.5-11.1c.05-.29-2.07-.79-2.1-1-.46-.35-1.26-1.32-1.8-1.3C294.77,8.79,297.44,10.43,298.51,9.77Zm-1.9.7c.48.65,1.49.58,2.2.6l.1-.1C298.46,10.34,297.24,10.51,296.61,10.47Zm22.5,3.3a1.24,1.24,0,0,0-.9.4C318.57,14.19,319.16,14.16,319.11,13.77Zm-34-7.9v.3c.36.34.59.77,1.2.7l.1-.1C286.48,6.14,285.52,5.88,285.11,5.87Zm33.6,8.7-.1.1v.1c.39.31,2.39.37,2.4-.6.06-.54-1.07-.8-1.4-.8v.2l.7.6v.1C319.92,14.64,319.19,14.43,318.71,14.57Zm-19.1,13.8c-.17-.58-.94.27-1.3.3C296.4,28.88,299.81,29.79,299.61,28.37ZM285.31,7a.62.62,0,0,0,.7.7v-.2l-.5-.5ZM306,20.27c.06-.31-.5-.44-.5-.1S306,20.61,306,20.27Zm-7.5,11.2a4,4,0,0,0-2.4.9C296.61,32.36,298.49,32.29,298.51,31.47Zm3.6-21.4L302,10c-1-.08-2-.67-3-.6C299.34,10.1,301.65,10.8,302.11,10.07Zm2.2,8.7c.07,0,.1,0,.1-.1C304.42,18.15,303.79,18.78,304.31,18.77Zm.4,3.5c-.22-.34-.59-.2-1,0C303.73,22.6,304.58,22.47,304.71,22.27Zm-3.7-.4a.18.18,0,0,0,.2.2c.23.24,1.85-.06,1.8-.6C302.51,21.5,301.35,21.31,301,21.87Zm-.1-4c-.1.59,1.57.85,1.7.4v-.1l-.1-.1-1.5-.3Zm.8,3c.07-.48-1.69,0-1.2.3l.1.1C300.94,21.23,301.7,21.4,301.71,20.87Zm1.5-2.1c-1.07-.24-2.45.67-3.6.8C299.8,21.06,303,19.65,303.21,18.77Zm-2.3,7.2c-.2,0-2,.3-1.4.8C299.9,26.79,301,26.54,300.91,26Zm1.6-11.4c-.15-.22-1.53-.07-1.6.3C301,14.85,302.55,14.88,302.51,14.57Zm-1.6,2.2a2.06,2.06,0,0,0,.6-1.2C300.85,15.38,299.72,16.68,300.91,16.77Zm1.6,17.05a2.31,2.31,0,0,0,.4-.85l-.1-.1-.2.2c-.14,0-.87.61-.8.8h-.1c-.14-.25-.41-.84-.8-.8C300.84,34,301.8,35.24,302.51,33.82Zm-1.9-1.65c0-.38-.64-.93-1-.9,0,.45,1.08,1.08.1,1.2-.21.26-1.29.64-1.5.9-.13,0-.2.1-.2.3C298.56,33.67,300.74,33.1,300.61,32.17Zm.2,3.8a.33.33,0,0,0-.2-.3,3.45,3.45,0,0,0-.9,1.4c-.17-.55-.15-1.66-.8-1.8C298.94,37.46,299.88,39.27,300.81,36Zm-3.1-5.8c1,.6,2.87-.16,3.7-.9v-.1a2.15,2.15,0,0,0-1.15.2C299.42,29.79,298.27,29.55,297.71,30.17Zm2-7.5.2.2c.32,0,1.17.13,1.2-.4H300Zm2.7,4.5a.28.28,0,0,0-.1-.2,1.82,1.82,0,0,0-1.4.6C301,28,302.43,27.61,302.41,27.17Zm.4,2.7.1-.2C300.23,30.27,300.27,33.71,302.81,29.87Zm-.2-6.6a9.28,9.28,0,0,0-2.4.6C300.8,23.81,302.44,24.14,302.61,23.27Zm-.1,15.9a2.1,2.1,0,0,0,.7-1.5c.09-.38.08-.57-.4-.5-.08.31,0,1.13-.3,1.2C301.84,36.76,301.41,39,302.51,39.17ZM177,54c-1.5-.2-.45-1.78.28-2.28,4.25-1.46,9.16,1,13.16-1.52,3.5-2.79-.35-10,2.72-13a4.48,4.48,0,0,1-2.86-1.52c-2.52-4-3.74,1.71-6.22,2.56,0-.08-.13-.52-.12-.6a3.7,3.7,0,0,0-1.84-1.8v.6a2.51,2.51,0,0,1,1.08,2.24c-1.08.15-2.21-2.26-3.2-2.84,0-.08-.12-.25-.12-.32s0-.17,0-.16.26-.11.28-.16c.6-.18,1,.65,1.52.64,0,0,.24-.11.28-.16a17.45,17.45,0,0,0-1.36-1.36c0-.06-.26-.11-.28-.16h-.16l-2.4,2.4v-2h-2.56V28.07c-1.45.45-2.88,1.51-4.4,1.88-1.78.3.38,4.74-1.48,4.68-.52.36-1.27-.11-1.84,0,0,0-.24.11-.28.16,0,.52-.13,1.26-.15,1.79a7.84,7.84,0,0,1-3.17-2.87v-.16A12.54,12.54,0,0,1,168,30.39c.19-.72-1.14-.9-1.48-1.36-.94-.64-1.45-1.82-2.28-2.56-.89.89-1.66,2.5-3,2.89a9,9,0,0,0,0-1.29l-.16-.16c-2,1.31-2.88-1.72-3.48-3-4.35,1.72-8.62,4.34-12.88,6.36,0,.11,0,.26,0,.36.47,0,.92-.44,1.4-.36a73.75,73.75,0,0,1-.28,16.8c-2.63,1.49-2.19-2.52-2.44-4.08.52-6.08-2-16.46,5.48-18.92-15.92.83-16.27,29.2-.32,29.24,0,0,.11.3.16.28,4.78.94,10.67-2.17,12.27-6.87-.5,3.93.15,4.45,3.21,6.71,1.57-1.45,3.82-2.72,4.56-4.6-4.07,2.56-2.84-10.73-1.26-12h2.34c-.46,4.36,1.6,10.31-1.88,13.68v.36c1.91-1.75,3.75.84,5.12,2.2h.16c1.41-1.55,2.76-3.2,4.24-4.68v-.24c-3.8,3-2.25-4.5-2.4-6.66.07-1.5.12-3.31.12-4.74-.07-.35,1.51-.08,1.64-.16-.31.35-1.19,1-1.24,1.52h.48l.92-.76c.6-.07,1.29.82,1.64,1.2.2,1.07.23,11.55-.82,11.34-3.62,1.13-2.84,6.62.54,7.54,4.66,1.52,9.83-2.45,14.36-1,.37,1.31-1.45,2.45-2.28,2.88-3.33,1.19-8.4,1.79-11.32-.6l-.32.12c3.78,4,15.49,3,14.74-4C191,48.46,182.28,54.66,177,54Zm12.08-3.8a.14.14,0,0,1-.16.16c-.1.14-.6.21-.8.2,0-.25-.05-.93.2-1.08,0,0,.16-.07.16,0l.6.6Zm1.08-.68c0,.05,0,.08,0,.08-.79,1-2-1.15-1.76-2h.28l1.48,1.52C190.23,49.15,190.18,49.46,190.19,49.51Zm.72-1a.75.75,0,0,1-.36.32c-.76-.78-2.68-1.95-1.88-3.2h.12C189.45,46.54,191.13,47.31,190.91,48.55Zm.32-1.2h-.16l-2.4-2.44v-1.2h.12c1,.86,2.22,1.75,2.6,3C191.36,46.83,191.31,47,191.23,47.35Zm.16-2c-.08.08-.13.12-.16.12-.93-1.07-2.88-2.13-2.68-3.8l.4,0a23.15,23.15,0,0,1,2.44,2.72Zm-.1-1.92c-1-.9-2.93-2.19-2.62-3.68,0-.11,0-.16.12-.16,1,1.13,2.88,2.18,2.72,3.88Zm-3.38-7.92s.22-.26.28-.32h.32c.85,1.31,3.53,2.47,2.88,4.24-1.28-.8-2.39-2.41-3.48-3.48A.61.61,0,0,1,187.91,35.55Zm-.32.76a35.73,35.73,0,0,1,3.8,4.08v.92c-.08.08-.13.12-.16.12-1.32-1.44-3.56-3.07-4.24-4.84A.6.6,0,0,1,187.59,36.31ZM183.67,43c0-1.81.17-4.36,2.28-4.84l1,1.08c-.49,3.57.91,8.67-1,11.64C182.06,52.62,184.18,44.58,183.67,43ZM163.79,28.27s.13-.24.12-.28c.52-.65,1,.56,1.36.88l1.36,1.36c-.76,1.31-2.3-1.2-2.84-1.64C163.76,28.46,163.72,28.43,163.79,28.27Zm-.86.84.26-.24h.28c.34.52,3.32,2.56,1.2,2.72a20.17,20.17,0,0,1-2-2.28Zm-6.78-2.84c.91-1.23,1.67.83,2.12,1.48.13,1,2.81,1.14,1.68,2.12-.37.56-3.54-3.23-3.8-3.32Zm-1.36.72c.87-1.13,2,1,2.72,1.4a22,22,0,0,1,1.68,1.8v.16a.44.44,0,0,1-.32.12c-1.29.47-3.33-2.62-4.08-3.32Zm-4.08,2c1-1.06,1.59.47,1.36,1.36h-.32l-1-1.08Zm-1.36.6c.08-.07.51-.24.6-.32.4-.14,1.83,1.65,2.12,1.84v1.48C152,32.41,149,29.84,149.35,29.59Zm-.92.88c0-1.61,4.44,2.94,3.64,3.8l-.16.16L148.43,31Zm.32,1.4c.37.66,4.53,3.59,3,4.36-1.17-1.28-3.4-2.46-3.52-4.36Zm-.48,13v-1h.32l2,2c.06,0,.11.26.16.28v.16c-.16.22-.69.15-.92.16Zm.76,2c-.95.66-.76-.52-.76-1.08.43,0,.69.52.92.8C149.2,46.67,149.2,46.84,149,46.83Zm-.76-3.92V41.83h.32c.2.27,5,4.57,2.56,4Zm3.48,1.36h-.12c-.45-.8-4.24-3.25-3.2-4.4h.16C149.57,41.14,152.47,42.38,151.75,44.27Zm.1-2-.1.08h-.12l-3.2-3.2c-.11-.65-.31-.89,0-1.36C149,38.25,152.68,41,151.85,42.23Zm-3.26-6.44,3.32,3.32v1.2h-.16L148.43,37v-1.2Zm-.16-.76V33.79c1.09.68,3.8,2.86,3.5,4.26,0,.15,0,.25,0,.3l-.28-.16Zm-4.84-7.4c.27-.24.84-.33.92.12a7.43,7.43,0,0,1-.6.76l-.48-.6A.51.51,0,0,1,143.59,27.63Zm-1,1.2a1.51,1.51,0,0,1,.44-.6c.68.13,1.08,1.37.36,1.68l-.8-.8C142.49,29.12,142.51,28.8,142.55,28.83Zm.76,1.64v.92l-.16.16c-.62-.16-1.54-1-1.52-1.68C142,28.69,142.91,30.18,143.31,30.47Zm-2.28.32c0-.23.31-.14.44-.16.7.79,2.2,1.64,1.52,2.88-.76-.57-2-1.41-2.12-2.4A1,1,0,0,1,141,30.79Zm-.76,1.52c.21-1.45,2.19,1.56,2.56,1.68.32.37.09.61,0,1.2h-.28l-2.28-2.28A1.22,1.22,0,0,1,140.27,32.31ZM139.79,34a3,3,0,0,0,.16-.48c.53,0,3.85,3,2.6,3.64l-2.76-2.72Zm-.38,1.52c0-1.66,2.82,2.21,3.14,2.24a1.58,1.58,0,0,1,0,1.36C142,38.69,139.1,36.33,139.41,35.51Zm-.34,1.8c0-.09.13-.39.12-.48s.11-.13.16-.12c.91.89,4.28,3.13,3,4.36C142,40.6,138.85,37.94,139.07,37.31ZM139,38.75c0-.24.08-.25.24-.24,1.35,1.33,3.61,2.66,3.64,4.68h-.28C142.17,42.55,138.34,39.71,139,38.75Zm3.72,5.2a2.68,2.68,0,0,1,.36,1.52c-1.35-1-3.42-2.66-4.12-4.24C138.7,39.08,142.35,44,142.67,44Zm-3.6-1.36c1.5,1.5,4.21,2.8,4.08,5.16a43.5,43.5,0,0,1-3.8-3.64A1.85,1.85,0,0,1,139.07,42.59ZM145,52.43A8.46,8.46,0,0,1,141,48.51c.17-.09,3.73,3.6,3.92,3.76Zm1.52.6c-2.11-2.44-6.19-4.66-6.84-7.84,3.13,1.76,4.53,5.55,7.16,7.84Zm8.32,0c-3.61,1.73-8.7,0-10.12-3.76a25.22,25.22,0,0,1,5.12-2c.64-.29,1.77-.48,2.44-.76,0-.06.12-.11.16-.16.5-6,.19-11.87.44-18l.16-.16c.73,1.37,2.62,2.46,2.56,4.08C155.18,39.05,155.74,46.5,154.79,53Zm1.2-.6c0,.06-.24,0-.28,0,.2-6.72.08-13.82.44-20.52l.16-.16a5,5,0,0,0,4.3-1.44c1.24.74,2.7,1.78,3,3.28-.8.68-1.58,1.42-2.34,2.16-.5.61-1.69,1.12-1.74,1.92C163.44,40.19,160.35,51.06,156,52.43Zm5.68-16c.2-.11.65-.93.88-.44,1,1.22,3.94,3,3.2,4.68h-.16c-1-1-2.09-2.21-3.08-3.24A3.69,3.69,0,0,1,161.67,36.43Zm1.2,8.16c1,1.2,3,2.18,2.88,3.92h-.48C164.48,47.43,162,46,162.87,44.59Zm0-2c.83.62,3,2.4,2.82,3.56-.08.37,0,.37-.26.36C164.86,45.75,161.91,43.88,162.87,42.63Zm2.72,2a3.18,3.18,0,0,1-.32-.16c-.74-1.09-3.05-2.26-2.24-3.76a29,29,0,0,1,2.72,2.84C165.69,43.65,165.9,44.64,165.59,44.59ZM163,38.67h.16c.76.71,1.88,2,2.56,2.72v1.08l-.16.16C165.05,41.86,162,39.8,163,38.67Zm1,13.48a4.9,4.9,0,0,1-1.28-1.08v-.44a6.56,6.56,0,0,1,1.36,1.48A.1.1,0,0,1,164,52.15Zm1.16.28c-1-1.11-2.77-2.08-2.56-3.76h.28a33.89,33.89,0,0,1,2.88,3c0,.12.2.3.16.44A.82.82,0,0,1,165.15,52.43Zm1.64-1.8c0,.36,0,1-.44,1-1.24-1.52-3.73-2.85-3.72-5h.4C164.24,47.89,165.55,49.47,166.79,50.63Zm-.6-12.24c0,.07-.09.27-.16.28s-.29.07-.28,0c-.28-.57-4.69-3.65-2.28-3.76a38.8,38.8,0,0,1,2.72,2.88Zm7.24-8.72a1.43,1.43,0,0,1,.28-.32c1-.28.95.91,1,1.6-.55,0-.94-.75-1.24-1.12a.1.1,0,0,0,0-.08A.1.1,0,0,1,173.43,29.67Zm-1.52.6a.92.92,0,0,1,.92-.32c.86.79,2.18,1.6,2,2.92-.64.24-2.52-2.14-3-2.44Zm-.16.92.16-.16a26.32,26.32,0,0,1,2.72,2.56c0,.28,0,.82-.16,1,0,0-.17.07-.16,0a16,16,0,0,1-2.56-2.4ZM171.47,35c.51-.72,2.77,2.43,3.16,2.56v1.08l-.16.12c-1-1.11-2.94-2.27-3.48-3.6A1.36,1.36,0,0,1,171.47,35Zm.28,11a1.24,1.24,0,0,1-.28-.48,1.35,1.35,0,0,1,0-.72c.13-1.26,2.54,2,2.84,2.08a1.33,1.33,0,0,1,0,1.36s-.08,0-.12,0v0Zm2.44.28c-.89-1.19-2.88-1.9-2.72-3.6h.44c1,1.17,3,1.82,2.6,3.6Zm0-2c-.73-.78-3.09-2.26-2.64-3.6h.36c.91,1,2.9,2,2.64,3.6Zm.12-1.8a33.23,33.23,0,0,1-2.72-2.72c-.29-2.42,1.37.15,2.18.66a2.08,2.08,0,0,1,.78,2.06Zm.16-2h-.16a22.54,22.54,0,0,1-2.72-2.72c-.51-3,2.48,1.44,3,1.64C174.61,39.72,174.72,40.38,174.47,40.55Zm-5.28-4a.46.46,0,0,0-.16.08c-.18,0-.23,0-.44-.16,0-.16-.34-.75,0-.76l.76.76A.46.46,0,0,1,169.19,36.55Zm1,.08c-.35-.42-1.32-1-1.56-1.52h1.44l1.36,1.36-.16.16-.48,0C170.74,36.68,170.31,36.63,170.23,36.63ZM174,52c-.83-1.11-3.44-2.15-2.56-3.8,1,.88,2.76,2.11,3.32,3.36C174.6,51.78,174.34,52.12,174,52Zm1.12-1.9a2.89,2.89,0,0,0,.4.38c0,.19,0,.23-.16.44,0,0-.34,0-.32,0-.16.14-3.4-3.3-3.6-3.44V46.43h.28A17.33,17.33,0,0,1,175.15,50.13Zm.24-13.66c-1.55.8-2.47-1.46-3.64-2.28V33c.63.09,3.13,2.95,3.64,3.36Zm.76,0c-2-1.59-.68-1.33,1-1.4v.32h-.28c0,.39.51.69.44,1.08C177,36.76,176.5,36.6,176.15,36.47Zm5.56,14.2c-.46,0-1.31-.09-1.52-.6.06-.14-.15-1.13.16-1.08l1.36,1.36Zm.76-.16c-1-1-2.45-1.95-2.12-3.48h.16c.77.85,2.6,2.14,2.4,3.48Zm-2-5.44c1,.9,2.53,2,2.32,3.56-.93-.26-1.77-1.75-2.48-2.36C180.41,46.13,180.19,45,180.51,45.07Zm2.4,1a1.36,1.36,0,0,1-.16.48h-.12l-2.12-2.12V43.11h.12a19.75,19.75,0,0,1,2.28,2.4Zm-.2-1.62-.24,0c-.55-.53-1.44-1.6-2-2.12-.37-3,1.58.53,2.24.92.26.2.16,1,.2,1.24Zm.36-2.14a1,1,0,0,1-.16.32h-.16a25.12,25.12,0,0,1-2.12-2.28,8.54,8.54,0,0,1-.12-.92c-.06,0,0-.24,0-.32.87.21,2.05,1.8,2.6,2.44Zm-4.24-6c.09-.12.42-.58.6-.44.08,0,.25.12.32.12,1.07,1.2,2.55,2.5,3.48,3.8v.76s-.11.24-.16.28c-1.51-1-2.91-2.95-4.24-4.24Zm-.6,20.88a2.08,2.08,0,0,1-1.8-2.16l1.8,1.84Zm1,.12-2.72-2.72c1.74-.32,3,1.28,3.64,2.56C180.07,57.49,179.48,57.3,179.27,57.31Zm2.1-.16c-.86-.12-4-3-1.46-2.56a21.68,21.68,0,0,1,2,2.12s.08.5.08.52A5.75,5.75,0,0,1,181.37,57.15Zm-.74-2.4v-.32a1.91,1.91,0,0,1,.92-.16c.38.48,1.92,1.64,2,2.28C182.31,57.37,181.41,55.4,180.63,54.75Zm12.12.44a9.8,9.8,0,0,1-1.84-1.8c0-.06-.26-.11-.28-.16l-.16,0v.12c.47.64,1.22,1.28,1.64,2,0,0,0,0,.08.16a5,5,0,0,1-1.28-.16l-2.24-2.28c-.15,0-.31-.22-.48-.12.1.74,3.46,2.74.76,2.4l-2.28-2.28h-.08c.07.82,1.29,1.55,1.76,2.28-.86,1.29-2.57-1.48-3.16-1.84h-.32l1.68,2v.28c-.21.29-.56.19-.92.16l-2.12-2.12h-.16c.28.73,1.26,1.41,1.68,2.12v.28c-1.37.66-2.07-1.42-3-2.08,3-1.3,9-3,10.76.88Zm90.48-13.72s.31-.41.28-.48,0,0,0,0l-.46,0c-1-.33-3.11-1.06-3.18-2.18.45-1.43,2.76-2.61,2.72-3.92a.1.1,0,0,1-.08,0c-2.18,1.28-4.36-.16-5.68-2h-.16c-1.45,3.67-4.74,4.28-8.32,4-.31.19-.05.61,0,.88a3.54,3.54,0,0,1,.16,1.42A51.24,51.24,0,0,0,266,34h-.16c-2.55,1.66-5.94,1.95-8.92,1.84l-.16.12c-.31,2.74.84,11.85-1,14-1.71-.47-.7-9.29-.95-10.46,0-1.06,1.19-1.69,1.4-2.64-1.82,0-3-1.86-4.28-3h-.32c-1.49,1.44-3.23,3.37-4.84,4.68h-.16c-.1-2.12-1.9-3.27-3.32-4.68-2,.73-3.21,3.53-5.12,4.68H238a5.8,5.8,0,0,1-.32-2,10,10,0,0,0-3.48-2.72c-1,.68-1.71,2-2.63,2.8-1.71-.05-2.93-1.68-3.85-2.92v-.16a12.54,12.54,0,0,1,4.08-3.16c.19-.72-1.14-.9-1.48-1.36-.94-.64-1.45-1.82-2.28-2.56-.9.9-1.67,2.51-3,2.89a9,9,0,0,0,.1-2.49c-1.48,5.05-9.18-2.66-12.84-2.44-5.65-1.19-11.36,3.37-10.88,9.24l.16.16c1.79-7.86,10.15-2.66,15-.92v.16l-.16.16c-2.51.47-5.09,1.9-7.64,1.88-.34-1.68,1.29-3,2.8-3.24v-.36c-10.5.94-14,15.73-5.28,21.52,7.07,4.51,18,1.28,18.6-7.88.13,4.76-1.53,6.24,3.16,9.24,1.51-1,2.64-2.4,4-3.52,5.18,3.93,1.85,5.49,6.74-.72-1.63-2.49-.83-7.65-.76-10.44l1.8-1.8c.49,0,1,.74,1.36,1-.35,3.29,1.57,8.77-1.2,11.2,1.24,1.08,2.88,2.32,3.64,4,1.41-.9,2.31-3.22,4.36-4-.06-.08-.82-.52-.88-.6a.14.14,0,0,1-.16-.16c-1.13-1-.41-8-.6-9.36a7.88,7.88,0,0,1,1.64-1.8c3.15.8.85,9.61,1.68,12.4,2.52,4.46,3.59,3.19,6.37.12,2.44,0,4.37,2.19,6.15,3.64h.32c1.67-2.34,3.57-4.62,5.44-6.8a.1.1,0,0,1,0-.08c0-.13-.16-.16-.32-.24-2.84,2.83-2.11,3.09-5.6.76-.5-.64-.33-2.4-.26-3.24,1.68-1.5,4.69-2.39,6.74-3.49.1,1.46.07,3.27-1.2,4.25v.16c1.63-.89,3.55.22,4.68,1.48-.38,2.1-3.3,3.52-4.08,5.44,2.56-2.26,4.29-.86,6.52.92h.12a11,11,0,0,1,8.48-3.92C282.85,47.06,281.9,43.87,283.23,41.47Zm-48.68,1.44h.16a17.7,17.7,0,0,1,2.56,2.56c.47,2.84-2.14-1.12-2.72-1.36Zm-.08-2c.79.21,3.18,2.45,2.72,3.34a1.18,1.18,0,0,1-.08.3C236.08,43.53,234.22,42.6,234.47,40.91Zm2.64,1.58c-1-.71-3.21-2.21-2.56-3.66,1,.77,2.85,2.22,2.72,3.68Zm-2.4,2.38c.62.75,3.06,2.47,2.6,3.68-1.21-.74-3-2.09-2.84-3.68ZM234,35.19c0-.1.24-.27.28-.32h.48c.65.77,2.9,2.4,2.48,3.64H237l-3-3C233.89,35.48,233.91,35.16,234,35.19Zm-5.12,1.24c.37.37.86,1,1.2,1.36,0,.2.09.78-.16.88,0,0-.29.07-.28,0-.28-.57-4.69-3.65-2.28-3.76Zm-1.2-8.16s.13-.24.12-.28c.52-.65,1,.56,1.36.88l1.36,1.36c-.76,1.31-2.3-1.2-2.84-1.64C227.6,28.46,227.56,28.43,227.63,28.27Zm-.86.84.26-.24h.28c.34.52,3.32,2.56,1.2,2.72a20.17,20.17,0,0,1-2-2.28Zm-4,.48c.21-.42,1.18-.06,1.36.32l-.6.6C223.51,30.42,222.6,29.69,222.79,29.59Zm-3.32-1.68s0,.05.1.08c1.08.58,4,2,3.22,3.28-.07,0-.24.14-.32.12a19.26,19.26,0,0,1-3.16-3.32c-.05,0,0-.12,0-.16ZM216,26.43c2.55.61,4.07,3.41,5.88,5.12v.16c0,.05-.24.11-.28.16H221a49,49,0,0,1-5-5.4Zm4.08,5.28-.16.16a4.41,4.41,0,0,1-1.08-.16,65.53,65.53,0,0,1-5.72-6.2C216.07,26.05,217.87,29.79,220.07,31.71ZM204.71,28s-.05.06-.08.06-.65.2-.84.2a.54.54,0,0,1,1-.36Zm1.6-.38a2.92,2.92,0,0,1-.92.16c-1.34-1.24.3-1.7.92-.32Zm1.8,0c-.86.11-1.63-.65-2.12-1.24v-.32a.87.87,0,0,1,.76-.32c.4.44,1,1.05,1.36,1.52Zm2.44.56c-1.07.09-2.53-1.81-3.2-2.44.41-1.7,3.07,1.85,3.48,2.44Zm3.32,1.28c-2-.33-3.94-2.74-4.84-4.32,1.19-.91,3.79,3.3,4.84,4.08Zm2.18,1.18a2.14,2.14,0,0,0-.38-.18c-1.68-1.8-3.42-3.41-5-5.44a3.36,3.36,0,0,1,1.36.12c1.88,2,3.85,4,5.6,6.08A3.81,3.81,0,0,1,216.05,30.69Zm-.66,3.3c1-.59,1.33.49.88,1.2h-.16a3.8,3.8,0,0,1-.88-1.08C215.31,34,215.36,34,215.39,34Zm-1.52.44c.14-.2.55-.16.76-.16.71.86,2.4,1.79,1.64,3h-.16a24.71,24.71,0,0,1-2.4-2.72A.14.14,0,0,1,213.87,34.43Zm-1.08.28h.32c1.08,1.1,2.08,2.2,3.16,3.36v1.28c-1.2-1-3.28-2.76-3.64-4.32A2.39,2.39,0,0,1,212.79,34.71Zm0,1.84c1,1.34,4.22,3.14,3.32,4.84-1.17-1.54-3.63-2.72-3.52-4.84Zm-.16,2a40,40,0,0,1,3.48,3.64v1.2c-1.12-1-3.35-2.69-3.62-4.26C212.49,38.92,212.62,38.68,212.63,38.51Zm3.48,5.76v1.2H216c-1.14-1.51-3.58-2.63-3.48-4.68,0,0,0-.08.12-.16A40,40,0,0,1,216.11,44.27Zm-3.6-1.68c.69,1,4,3.18,3.6,4.52a.44.44,0,0,1-.12.32c-1.23-1.08-3.62-2.73-3.5-4.54C212.5,42.74,212.51,42.64,212.51,42.59Zm-.1,2.36c.06-.13.06-.26.18-.28a15,15,0,0,1,2.68,3.08h-1.12C213.45,47,212.12,46.17,212.41,45Zm.1,1.88s.29.11.28.16c.72.63,1.31,1.26-.16,1.2-.08-.08-.12-.13-.12-.16-.22-.16-.18-1-.2-1.24Zm-1.8-11.24c-.68,2.76,1.65,14-2,13.64a29.56,29.56,0,0,1-.28-13C208.88,35.67,210.06,35.66,210.71,35.59Zm-3.3-1.74c.32-.74,1.21-.23.7.42C208,34.74,207.17,34.2,207.41,33.85Zm-1.1,1c.78-1.26,1.83.59,1.2,1.36C207.48,36.13,206.09,35,206.31,34.87Zm-.48.6H206c.75.76,1.83,1.51,1.2,2.6-.46-.63-1.71-1.34-1.74-2.1A1.51,1.51,0,0,1,205.83,35.47Zm-1,1.68a1,1,0,0,1,.28-.44c2.93,1.83,2.78,5.17-.28.88Zm-.32.92c1,1,2.62,2.08,2.64,3.64-.08,0-.31,0-.36,0-.9-.75-2.49-2-2.56-3.16A1,1,0,0,1,204.47,38.07Zm-.76,2.12a3,3,0,0,0,.16-.48h.32c1,1.33,3,2.41,2.84,4.28l-.28,0c-.95-.92-2.11-2.37-3-3.32Zm0,1.36,0,0s.13,0,.12,0c1.23,1.47,3.53,2.71,3.32,4.84-1.2-1.22-3.29-2.7-3.6-4.4C203.58,41.92,203.71,41.61,203.71,41.55Zm-.2,2c1.73,1.34,4.14,3.47,4.48,5.8-.11,0-.16-.05-.16-.08-1.34-1.23-2.66-2.77-3.9-4.12C203.45,44.74,203.54,44,203.51,43.51Zm4.32,8.76c-.71-.66-1.68-1.13-1.84-2.12a26.17,26.17,0,0,1,2,2.12Zm3.62,1.82c-2.3-.41-7.18-5.63-7.42-8.18,2.62,2.6,5.1,5.43,7.56,8.16Zm7.7-13.18c-.3,4,.09,8.52-.6,12.4-2.25,2.18-8.89-.45-9.24-3.32a14,14,0,0,1,2.6-.88c1.48-.64,3.46-.56,4.84-1.24.6-3-.72-13,1-14.52.44-.09,1.05-.28,1.36.16Zm5.76,2.76a.26.26,0,0,0-.48,0c-.13,3.52-1.52,7.13-4.6,9.08-.09,0-.16-.13-.24-.16.27-6.23-.11-13,.6-19.08a6.2,6.2,0,0,0,4.57-3,3.19,3.19,0,0,0,.43.19c.92.78,2.06,1.64,2.28,2.88-.8.68-1.58,1.42-2.34,2.16-.5.61-1.69,1.12-1.74,1.92C225.68,38,224.73,42.19,224.91,43.67Zm.6-7.24c.2-.11.65-.93.88-.44,1,1.22,3.94,3,3.2,4.68h-.16c-1-1-2.09-2.21-3.08-3.24A3.69,3.69,0,0,1,225.51,36.43Zm1.2,8.16c1,1.2,3,2.18,2.88,3.92h-.48C228.32,47.43,225.86,46,226.71,44.59Zm0-2c.83.62,3,2.4,2.82,3.56-.08.37,0,.37-.26.36C228.7,45.75,225.75,43.88,226.71,42.63Zm2.72,2a3.18,3.18,0,0,1-.32-.16c-.74-1.09-3.05-2.26-2.24-3.76a29,29,0,0,1,2.72,2.84C229.53,43.65,229.74,44.64,229.43,44.59Zm-2.56-5.92H227c.76.71,1.88,2,2.56,2.72v1.08l-.16.16C228.89,41.86,225.84,39.8,226.87,38.67Zm1,13.48a4.9,4.9,0,0,1-1.28-1.08v-.44a6.56,6.56,0,0,1,1.36,1.48A.1.1,0,0,1,227.83,52.15Zm1.16.28c-1-1.11-2.77-2.08-2.56-3.76h.28a33.89,33.89,0,0,1,2.88,3c0,.12.2.3.16.44A.82.82,0,0,1,229,52.43Zm1.64-1.2a.65.65,0,0,1-.44.44c-1.24-1.52-3.73-2.85-3.72-5h.4c1.21,1.18,2.52,2.76,3.76,3.92Zm2.24-2.88c-.07.83-.92,1.26-1.52,1.68t-.12.12c-2.07-1.8-1.51-10.3.13-12.39C234.08,38.43,232.44,46,232.87,48.35Zm.16-11.8v-.32a.63.63,0,0,1,.76-.28c.55.76,4,3.33,3.52,4.52H237a38.83,38.83,0,0,1-3.24-3.16C233.52,37.07,233.2,36.73,233,36.55ZM237,51.23c-.68,1.42-2.3-1.39-2.88-1.68.24-.29.36-1,.76-.6C234.82,49.06,237.22,51.09,237,51.23Zm.92-1.2v.12c-.07.06-.38.42-.44.48h-.32L234.55,48V46.67Zm4.24-14.4c.7-1.44,4.08,2.42,3.76,3.48h-.44l-3.32-3.32Zm2.64,6.94c-.5-.8-2.27-2-2-3.14h.36c.46.56,4.24,3.6,1.84,3.64a2.41,2.41,0,0,1,.76,2h-.32c-1.09-1.08-2.78-2-2.64-3.68.78.14,1.43,1.09,2,1.56A.59.59,0,0,0,244.75,42.57Zm-1.88.74a.5.5,0,0,0,.16,0c1.12,1,2.9,2.1,2.8,3.8h-.24l-2.72-2.72Zm-1.22-6.12a2.75,2.75,0,0,1-.3-.36c-.09-.46.14-.69.6-.6l3.8,3.8V41a.5.5,0,0,1-.24.16A46.08,46.08,0,0,1,241.65,37.19Zm3.18,14.64c-.08.18-.28.17-.44.16l-2-2v-.48c.12-.17.2-.51.48-.44l2.28,2.28A3.94,3.94,0,0,1,244.83,51.83Zm1.2-1.36a1.59,1.59,0,0,1-.52.48c-1.13-1-2.86-2-2.8-3.68H243C243,47.42,246.27,50.27,246,50.47Zm-3.16-4.08V45.27l.16,0c1.28,1.18,3.09,2.5,3.16,4.4ZM251.47,35l.16-.16a26,26,0,0,1,3,2.44v.44a1,1,0,0,1-.32.32l-2.88-2.88Zm2.28,10.44-2.4-2.4V41.71a39.16,39.16,0,0,1,2.72,2.84C254,44.79,254.26,45.63,253.75,45.47Zm.16.76v1.2h-.16l-2.4-2.4V43.79h.12Zm0-2.72c-.46-.32-3.7-2.82-2.28-3.48C252.07,40.67,254.93,42.6,253.91,43.51Zm-3.42-7.58a1.4,1.4,0,0,1,.54-.46l3,2.88v1.08l-.16.16a39.41,39.41,0,0,1-3.48-3.48A.38.38,0,0,1,250.49,35.93Zm-.82.9c.12-1.35,4,3.54,4.24,3.48a1.62,1.62,0,0,1,0,1.24,8.65,8.65,0,0,1-2.88-3.2C250.62,37.94,250.08,37.24,249.67,36.83ZM253.47,52l-.16.12s-.34,0-.32,0c-.51-.38-1.58-1.14-1.64-1.8-.12-.1.1-.25.16-.32s.13,0,.12,0l1.84,1.8Zm1-.92c-.51,1.38-2.36-1.59-3-2-.07-.33-.34-1,0-1.2a23.93,23.93,0,0,1,3,3Zm.32-.6c-.35-.67-4.51-3.56-3.36-4.56a15.07,15.07,0,0,1,2.38,2.28c.1.16.13.9.22,1.08s.91.79.88,1a.22.22,0,0,1,0,.16Zm9.36-15c.12-.21.68-.15.88-.16a7.13,7.13,0,0,1,2.6,3.8h-.16C267.48,38.94,263.74,35.68,264.19,35.47Zm-4.5.92a1.54,1.54,0,0,1,1.3,2.12c-.66-.5-1.8-1.31-1.84-2.2A4.54,4.54,0,0,1,259.69,36.39Zm-1.26.76a.14.14,0,0,1,.16-.16c1,.85,2.72,2,2.52,3.48h-.28C260.38,39.81,257.93,38.17,258.43,37.15Zm2.68,5.28h-.28l-2.4-2.4a2.18,2.18,0,0,1,0-.68c0-.23-.05-.38.18-.4C259.52,40,261.31,40.8,261.11,42.43Zm-2.4-1.36c.46.71,3.2,2.39,2.28,3.48-1.06-.85-2.66-2-2.72-3.48ZM261,45.31v1.2c-1-.88-2.78-1.95-2.64-3.48h.36Zm-.16,6.2c-.93-.7-1.86-1.22-2.72-2-.2-2.09,2.37,1.49,2.88,2Zm2.6.44a.6.6,0,0,1-.76.48c-1.41-1.39-2.95-2.88-4.24-4.4v-.92h.28l4.72,4.72Zm-1.52-3.16c.66.53,2.68,1.27,2.28,2.28-.08,0-.25.27-.32.28a.1.1,0,0,1-.08,0,54.84,54.84,0,0,1-5.36-5.32V45h.16a.78.78,0,0,0,.28.16A22.72,22.72,0,0,1,261,47.43,1.51,1.51,0,0,0,261.91,48.79Zm0-5.28a27.88,27.88,0,0,1,0-6.52,18.14,18.14,0,0,1,2.72,5.28C264.46,42.32,262.06,43.68,261.91,43.51Zm4.84-2.12c-.59.48-.81-.76-1.08-1.08V40l1.24,1.2Zm-3.2-5.32a24.58,24.58,0,0,1,4.72,4.56C266.52,41.56,264.21,37.39,263.55,36.07Zm16.64,4.8c.67.75,2.19,1.55,1.8,2.72-.17.55-3.7-2.83-3.44-3.2,0,0,.13-.24.12-.28C279.15,39.58,279.85,40.63,280.19,40.87Zm-3.64-6.68H277A7.83,7.83,0,0,0,281,36c.12,1.32-1.13.21-1.52-.16H279l.92.92a.61.61,0,0,1,0,.44c-.92.53-3.5-1.83-3.48-2.72C276.41,34.43,276.55,34.26,276.55,34.19Zm1.36,2.88c-.73.06-2.14-.7-2.26-1.44C276,34.45,277.53,36.93,277.91,37.07Zm-3.76,1.84c0-.48.1-1.21.16-1.68,1.52.5,2.92,1.59,4.68,1.36v.32c-1,1.42-2.08,2.65-3.16,3.92C273.84,42.84,274.12,40.34,274.15,38.91Zm.6,4.8c0,.2,0,.5-.16.64h-.44A30.32,30.32,0,0,1,270.51,41V39.91a17.11,17.11,0,0,1,3.12,2.68Zm-1.82-6.56a.81.81,0,0,1,.46-.08c.53.6-.48.88-.6.16A.43.43,0,0,1,272.93,37.15Zm-1.82.4c.26-.31.64-.18,1.08-.16l1.2,1.2v1.08c-.05,0-.12,0-.16,0s-.24-.13-.28-.12c-.55-.5-1.32-1.16-1.84-1.68Zm-.6.6c1.23.42,3.14,2,3,3.48h-.24a25.67,25.67,0,0,1-2.72-2.6c0-.06-.13-.37-.12-.44S270.42,38.36,270.51,38.15Zm1.36,6.2L270.51,43V41.87c.82.25,1.32,1.1,2,1.56a.14.14,0,0,1,.16.16c.36.36,1.57,1,1.2,1.64,0,.06-.23.26-.28.32C272.92,45.45,272.45,44.62,271.87,44.35Zm1.72,6.2c-.08,0-.3,0-.36,0-.6-.14-2.3-.53-1.36-1.36h.48l1.36,1.36A.16.16,0,0,1,273.59,50.55Zm2.52.6c-1,.89-2.39-1.65-3.16-2.12v-.16h1.36l2,2A.45.45,0,0,1,276.11,51.15Zm1.46-2.06a3.51,3.51,0,0,1-.1.54c-1.57-.5-3-1.75-4.84-1.52a12.5,12.5,0,0,1,3.48-4.4,2.28,2.28,0,0,1,1.2.64s.08,0,.16.12A39.54,39.54,0,0,1,277.57,49.09Zm.06-7.34c0-.27.28-.58.44-.76,1.27,1.2,4,2.68,4.08,4.56l-.16.16h-.12c-.93-1-2.23-1.89-3.2-2.88Zm4.52,4.84v1.08h-.28c-.93-1.05-2.76-1.77-2.6-3.32.05,0,.1-.16.16-.16A11.65,11.65,0,0,1,282.15,46.59Zm-1.64,2.56a.75.75,0,0,1-1.08-1h.16l.92.92Zm1.8-.28c-.05.27-.87.13-1,.16a12,12,0,0,1-2-2c0-.12,0-.84,0-1,1.22.39,2.16,1.75,3.08,2.6Zm-.16-6.8a2.7,2.7,0,0,1-1-1.08h.16c.06.09.82.39.88.48.26,0,.15.47.2.64ZM127.21,40.93A5.9,5.9,0,0,1,129,37.47c-2.36,1-3.3-2.29-5-3.16-.12,0-5.19,5.45-5.28,5a12.1,12.1,0,0,0-.28-2.56c-1.17-.55-2.09-2.48-3.36-2.56-.67.8-1.79,2-2.56,2.72-1.34.1-1.9-1.59-2.4-2.56-1.51.1-5.3,6.54-4.72,2.12a17.62,17.62,0,0,0-4-2.44c-1.18,1.19-2.27,2.54-3.44,3.76-2-.66-3.39-2.66-4.84-4.08h-.16c-1.77,2.86-5.29,3.63-8.44,3.64l-.16.16c0,5.39,1,11.94-4.44,15.28-.09,0-.16-.13-.24-.16.27-6.23-.11-13,.6-19.08a5.65,5.65,0,0,0,5-6.64c-1.48,5.05-9.18-2.66-12.84-2.44C66.7,23.24,61,27.8,61.47,33.67l.16.16c1.79-7.86,10.15-2.66,15-.92v.16l-.16.16c-2.51.47-5.09,1.9-7.64,1.88-.34-1.68,1.29-3,2.8-3.24v-.36c-10.5.94-14,15.73-5.28,21.52,6.24,3.86,16.07,2.24,18.11-5.59a3.66,3.66,0,0,1-1.51,3.31.29.29,0,0,0,.16.32c2.43-1.72,4.79,1.85,6.48,3.32a9,9,0,0,1,8.16-3.64l.32-.28c.09-.32-.28-11.8.32-11.64a5.19,5.19,0,0,1,.4-.53c.49.48,1.29.49,1.3,1.31-.3,4,1.1,9-2.06,11.9.06.07.32,0,.32,0,2.53-2.78,5.09,2.21,7.56,3,1.12-2.51,3.68-4.61,4.68-7,0,0-.28.09-.32.08a24.18,24.18,0,0,1-1.8,2,6.29,6.29,0,0,1-3-2c.23-1.06-.72-8.86.92-9.2.71-.19.81.72,1.38,1.1a2.58,2.58,0,0,0,3.9-.06s.11-.13.16-.12c.12-.15.39-.49.58-.7,2.23,1,.87,7.7,1.22,9.58a3,3,0,0,1-.76,1.84c-.22.16-1.17.38-1.08.76.42.45,1.21.79,1.68,1.2,4.13,5.49,2.25-.05,6.8-1.2-2.47-1.15-1.53-5.38-1.68-7.72-.43-1.76,1.6-6.32,3.2-3.64.13,3.29.2,8.62.16,12,.29,1.44,2.85,2.77,4.2,3L129,51.07c-.46-.53-1.76-1.51-1.8-2.28v-7.4S127.17,41.18,127.21,40.93ZM82.79,29.59c.21-.42,1.18-.06,1.36.32l-.6.6C83.51,30.42,82.6,29.69,82.79,29.59Zm-3.32-1.68s0,.05.1.08c1.08.58,4,2,3.22,3.28-.07,0-.24.14-.32.12a19.26,19.26,0,0,1-3.16-3.32s0-.12,0-.16ZM76,26.43c2.55.61,4.07,3.41,5.88,5.12v.16c0,.05-.24.11-.28.16H81a49,49,0,0,1-5-5.4Zm4.08,5.28-.16.16a4.41,4.41,0,0,1-1.08-.16,65.53,65.53,0,0,1-5.72-6.2C76.07,26.05,77.87,29.79,80.07,31.71ZM64.71,28s0,.06-.08.06-.65.2-.84.2a.54.54,0,0,1,1-.36Zm1.6-.38a2.92,2.92,0,0,1-.92.16c-1.34-1.24.3-1.7.92-.32Zm1.8,0c-.86.11-1.63-.65-2.12-1.24v-.32a.87.87,0,0,1,.76-.32c.4.44,1,1.05,1.36,1.52Zm2.44.56c-1.07.09-2.53-1.81-3.2-2.44.41-1.7,3.07,1.85,3.48,2.44Zm3.32,1.28c-2-.33-3.94-2.74-4.84-4.32,1.19-.91,3.79,3.3,4.84,4.08Zm2.18,1.18a2.14,2.14,0,0,0-.38-.18c-1.68-1.8-3.42-3.41-5-5.44a3.36,3.36,0,0,1,1.36.12c1.88,2,3.85,4,5.6,6.08A3.81,3.81,0,0,1,76.05,30.69ZM75.39,34c1-.59,1.33.49.88,1.2h-.16a3.8,3.8,0,0,1-.88-1.08C75.31,34,75.36,34,75.39,34Zm-1.52.44c.14-.2.55-.16.76-.16.71.86,2.4,1.79,1.64,3h-.16a24.71,24.71,0,0,1-2.4-2.72A.14.14,0,0,1,73.87,34.43Zm-1.08.28h.32c1.08,1.1,2.08,2.2,3.16,3.36v1.28c-1.2-1-3.28-2.76-3.64-4.32A2.39,2.39,0,0,1,72.79,34.71Zm0,1.84c1,1.34,4.22,3.14,3.32,4.84-1.17-1.54-3.63-2.72-3.52-4.84Zm-.16,2a40,40,0,0,1,3.48,3.64v1.2c-1.12-1-3.35-2.69-3.62-4.26C72.49,38.92,72.62,38.68,72.63,38.51Zm3.48,5.76v1.2H76c-1.14-1.51-3.58-2.63-3.48-4.68,0,0,0-.08.12-.16A40,40,0,0,1,76.11,44.27Zm-3.6-1.68c.69,1,4,3.18,3.6,4.52a.44.44,0,0,1-.12.32c-1.23-1.08-3.62-2.73-3.5-4.54C72.5,42.74,72.51,42.64,72.51,42.59ZM72.41,45c.06-.13.06-.26.18-.28a15,15,0,0,1,2.68,3.08H74.15C73.45,47,72.12,46.17,72.41,45Zm.1,1.88s.29.11.28.16c.72.63,1.31,1.26-.16,1.2-.08-.08-.12-.13-.12-.16-.22-.16-.18-1-.2-1.24Zm-1.8-11.24c-.68,2.76,1.65,14-2,13.64a29.56,29.56,0,0,1-.28-13C68.88,35.67,70.06,35.66,70.71,35.59Zm-3.3-1.74c.32-.74,1.21-.23.7.42C68,34.74,67.17,34.2,67.41,33.85Zm-1.1,1c.78-1.26,1.83.59,1.2,1.36C67.48,36.13,66.09,35,66.31,34.87Zm-.48.6H66c.75.76,1.83,1.51,1.2,2.6-.46-.63-1.71-1.34-1.74-2.1A1.51,1.51,0,0,1,65.83,35.47Zm-1,1.68a1,1,0,0,1,.28-.44c2.93,1.83,2.78,5.17-.28.88Zm-.32.92c1,1,2.62,2.08,2.64,3.64-.08,0-.31,0-.36,0-.9-.75-2.49-2-2.56-3.16A1,1,0,0,1,64.47,38.07Zm-.76,2.12a3,3,0,0,0,.16-.48h.32c1,1.33,3,2.41,2.84,4.28l-.28,0c-1-.92-2.11-2.37-3-3.32Zm0,1.36,0,0s.13,0,.12,0c1.23,1.47,3.53,2.71,3.32,4.84-1.2-1.22-3.29-2.7-3.6-4.4C63.58,41.92,63.71,41.61,63.71,41.55Zm-.2,2c1.73,1.34,4.14,3.47,4.48,5.8-.11,0-.16-.05-.16-.08-1.34-1.23-2.66-2.77-3.9-4.12C63.45,44.74,63.54,44,63.51,43.51Zm4.32,8.76c-.71-.66-1.68-1.13-1.84-2.12a26.17,26.17,0,0,1,2,2.12Zm3.62,1.82c-2.3-.41-7.18-5.63-7.42-8.18,2.62,2.6,5.1,5.43,7.56,8.16Zm7.7-13.18c-.3,4,.09,8.52-.6,12.4-2.25,2.18-8.89-.45-9.24-3.32a14,14,0,0,1,2.6-.88c1.48-.64,3.46-.56,4.84-1.24.6-3-.72-13,1-14.52.44-.09,1-.28,1.36.16ZM92.87,35c1.61.8,3,2.53,4.56,3.48v1.08l-.16.12-4.4-4.36Zm-5.28,2.72.16-.16a4,4,0,0,1,.76-.12c.08.08.13.12.16.12a3.67,3.67,0,0,1,.2,1.44c-.54.07-.94-.84-1.28-1.12Zm-1.36.32c.1-.3.52-.18.76-.16l1.8,2v1.2h-.12l-2.44-2.4Zm.16,1.36,2.4,2.4v1.24h-.12c-1-1.15-2.69-1.92-2.6-3.48C86.06,39.4,86.26,39.43,86.39,39.43Zm0,2L89,44a2.83,2.83,0,0,1,0,.92l-.16.16h-.12a36.27,36.27,0,0,1-2.6-2.72C86.08,42.09,86,41.26,86.39,41.39ZM89,47.15h-.24a18.39,18.39,0,0,1-2.56-2.6v-1.2h.16C87,44.14,89.48,45.89,89,47.15ZM90.79,52c-.09.08-.41.44-.48.44a3.94,3.94,0,0,1-.44-.32s-.28-.3-.32-.28c-.94-1.09-4.09-2.84-3.16-4.4,1.53,1.2,3,3,4.4,4.4Zm.88-.64c-.46,1.06-4.65-4.14-5-4.2a2.05,2.05,0,0,1-.44-1.84c1.78,1.79,4.52,3.7,5.6,5.92C91.75,51.31,91.7,51.35,91.67,51.35Zm1.2-1.48c-1-.44-1.94-1.62-3-2.12,0-2.94-1-7.24.16-9.68a28.45,28.45,0,0,1,2.72,2.56l.12.6Zm1.36-9.68c-.36-.89-4.92-3.15-3.16-3.8.38,0,.9.56,1.2.76l.16-.16-.76-.88c.26-2.1,6.18,4.6,5.76,5-.05.07-.1.43-.16.48h-.16c-1.44-1.3-3-2.85-4.36-4.24.69,1.91,3.38,3.34,4.52,5.12v1.24a8.92,8.92,0,0,1-2.88-3.2S94.28,40.18,94.23,40.19Zm3,5.44h-.16l-2.56-2.56V41.83h.16l2.72,2.72v.76A.61.61,0,0,1,97.27,45.63Zm.16,1.8a1,1,0,0,1-.16.32L94.55,45V43.79h.16C95.72,44.82,97.54,45.85,97.43,47.43ZM95.63,50l-1.08-1V47.87A4.86,4.86,0,0,1,96.71,50Zm1.8-.44a.14.14,0,0,1-.16.16L94.55,47V45.91h.32C95.46,46.67,97.89,48.36,97.43,49.55ZM102,35.07c1.33.56,3.13,1.12,2.72,2.88L102,35.23Zm-1.24.6a3.54,3.54,0,0,1,.32-.44s.29-.07.28,0c.64.83,4.13,3.34,3.56,4.68h-.2l-4-4Zm.76,2.56c-.41-.42-2.11-1-1.64-1.64.33-1.5,4.16,3.59,4.52,3.6a2.32,2.32,0,0,1,.6,1.68c-1.16-.09-1.67-1.71-2.72-2.12V40c.82,1.11,3.07,2.19,2.44,3.8h-.16c-.61-.78-3.35-2.67-2.72-3.92.52-.14.09-.64,0-.92-.05,0-.11-.58-.16-.6S101.51,38.28,101.47,38.23Zm3,7.56-2.72-2.72v-1.2H102l2.72,2.72v1Zm.16.92v1.2A21.77,21.77,0,0,1,101.79,45v-1.2H102A14.25,14.25,0,0,1,104.67,46.71Zm1.58,5.8-.1.08c-1.06-.34-5.71-3.63-4.2-4.68C102,48.07,106.68,52.38,106.25,52.51Zm-.54-3.72a9.23,9.23,0,0,1,2.12,1.36v.32l-.32.32h-.16a12.15,12.15,0,0,1-1.8-2Zm1.52,2.44a.43.43,0,0,0-.08.14c-.08.22-.44.44-.52.62-.69-1-5.5-4.61-5-6.08C103.77,47.05,105.44,49.57,107.23,51.23Zm3.48-11.92H110c-.28-.52-3.13-2.29-1.36-2.72.74.62,2.08,1.62,2.24,2.56C110.84,39.2,110.7,39.26,110.71,39.31Zm1-.84c0,.14-.45.06-.54.08-.29-.57-3.26-2.36-1.68-3a24.94,24.94,0,0,1,2.24,2.12,1.45,1.45,0,0,0-.48.8Zm6.1,5-2.44-2.4c-.47-2.74,1.87.77,2.44,1C118,42.59,118.1,43.16,117.79,43.51Zm.12.76v1l-.12.16-2.44-2.4V42h.32Zm-2.56-.44c1,.85,2.8,2.12,2.76,3.6h-.32L115.35,45Zm1.28-7.6c.41.23,1.24.76,1.28,1.24-.55.07-1.06-.8-1.36-1.2A.1.1,0,0,0,116.63,36.23Zm-2.2-.56.32-.32h.16c.42.74,4,3.12,3,4.24h-.12C117.66,39.21,113.71,36.17,114.43,35.67Zm-.76.72H114l3.92,4v1.2h-.12c-1.23-1.15-2.27-2.2-3.36-3.32C114.18,37.76,112.86,36.91,113.67,36.39ZM117,52.15c-.49.63-1.94-1.53-2.28-1.68a.71.71,0,0,1,.16-.6s0-.08.12-.16h.32c0,.12,2.17,2,2,2.12A1.65,1.65,0,0,0,117,52.15Zm1.2-1.24c-.61,1.23-2.38-1.54-2.88-1.8V47.87c1.12.53,2,1.92,2.88,2.76ZM115.35,47V45.87c1.4.91,2.82,2.23,2.88,4A24.48,24.48,0,0,1,115.35,47Zm8.48-11.64h.28c.88.95,2.32,2,2.88,3.16h-.28l-3-3A.14.14,0,0,1,123.83,35.35Zm-1.08,1c.21-.18.48-.6.76-.44.31.69,4.15,3.1,2.88,4.08-1.21-.5-2.76-2.52-3.64-3.48ZM126.07,46c-.52-.7-3.26-2.63-2.24-3.64,1,1,2.83,2,2.72,3.64Zm.32.88v1.36l-2.72-2.72V44.11ZM123.63,41c.05-.16-.07-.66.2-.64l2.56,2.56V44C125.37,43.36,123.89,42.17,123.63,41ZM122,37a.29.29,0,0,1,.32-.16c.89,1.18,5,3.64,3.92,5.12a10.2,10.2,0,0,1-2.88-3.16C123,38.27,122.1,37.7,122,37Zm4.24,16c-.88.52-2.82-1.65-2.68-2.72h.28C124.15,50.55,126.52,52.47,126.23,53Zm.94-1.16c-.32,1.57-3.11-2.4-3.5-2.48a1.27,1.27,0,0,1,0-1.2l.28.16,3.2,3.16A.62.62,0,0,1,127.17,51.87Zm.18-1.32a6,6,0,0,0,.56.52v.16l-.16.16h-.16c-.39-.77-5-4-3.92-5.16h.16l2.56,2.56A2.69,2.69,0,0,0,127.35,50.55Z" fill="#333"/></g></g></svg>