<svg xmlns="http://www.w3.org/2000/svg" xmlns:xlink="http://www.w3.org/1999/xlink" width="314.33" height="60" viewBox="0 0 314.33 60"><defs><linearGradient id="linear-gradient" x1="73.16" y1="1.97" x2="112.16" y2="47.22" gradientUnits="userSpaceOnUse"><stop offset="0" stop-color="#1d1d37"/><stop offset="1" stop-color="#80859c"/></linearGradient><linearGradient id="linear-gradient-2" x1="91.15" y1="-1.79" x2="124.9" y2="24.21" gradientUnits="userSpaceOnUse"><stop offset="0" stop-color="#f56b18"/><stop offset="1" stop-color="#f6841d"/></linearGradient><linearGradient id="linear-gradient-3" x1="120.16" y1="26.26" x2="95.16" y2="9.01" gradientUnits="userSpaceOnUse"><stop offset="0" stop-color="#fce788"/><stop offset="1" stop-color="#f68137"/></linearGradient><linearGradient id="linear-gradient-4" x1="126.77" y1="16.68" x2="101.77" y2="-0.57" xlink:href="#linear-gradient-3"/><linearGradient id="linear-gradient-5" x1="104.24" y1="45.83" x2="78.74" y2="21.83" gradientUnits="userSpaceOnUse"><stop offset="0" stop-color="#adafd3"/><stop offset="1" stop-color="#282942"/></linearGradient><linearGradient id="linear-gradient-6" x1="122.88" y1="26.03" x2="97.38" y2="2.03" xlink:href="#linear-gradient-5"/></defs><g id="Layer_2" data-name="Layer 2"><g id="logos"><path d="M126.54,30.57l-.41-1.21C113.24,35.93,90.53,23.87,83.47.1L81.28,0c-6.62-.27-11.46,4-9.91,9.67L83.49,53.74c1.79,6.54,8.8,8.1,14.74,4l26.41-18.25C126.94,37.89,127.71,33.94,126.54,30.57ZM123,20.4l-1-2.94c-7.2,1.81-17.6-5.57-21.17-16.64L97.15.67C101.5,14.4,114.46,23.06,123,20.4Z" fill="url(#linear-gradient)"/><path d="M124.06,23.36c-10,3.73-25.81-6.16-31-22.86L88.53.31c6.09,20,25.14,31.06,36.56,26Zm-8.19-9.82c2.6-.41,3.66-3.3,2.57-6.45s-4-5.71-6.72-5.82c-3-.12-4.64,2.71-3.43,6.38S113,14,115.87,13.54Z" fill="url(#linear-gradient-2)"/><path d="M112.8,22.82c-8-3.05-16.27-11.16-19.74-22.32L88.53.31c4,13.12,13.55,22.39,22.88,25.8C111.91,25,112.37,23.94,112.8,22.82Z" fill="url(#linear-gradient-3)"/><path d="M108.29,7.65c1.14,3.48,4.3,6,7,5.94A50.63,50.63,0,0,0,116.08,5c0-.55,0-1.09,0-1.63a6.87,6.87,0,0,0-4.32-2.1C108.74,1.15,107.08,4,108.29,7.65Z" fill="url(#linear-gradient-4)"/><path d="M109.64,29.54C99,25.75,88,15.34,83.47.1L81.28,0c-6.62-.27-11.46,4-9.91,9.67L83,52.05A50.14,50.14,0,0,0,109.64,29.54Z" fill="url(#linear-gradient-5)"/><path d="M113.89,19.68c.3-1,.57-2,.81-3C109,14.34,103.31,8.46,100.85.82L97.15.67C100.11,10,107.05,17,113.89,19.68Z" fill="url(#linear-gradient-6)"/><path d="M0,23.9H3.68V19.26h6.81V40.74H6.07V44H19V40.74H14.54V19.26H21.3V23.9H25V16H0ZM64.83,11.48H57.56v3.13h3.36V40.88H57.56V44H68.19V40.88H64.83Zm-12.62,0H44.94v3.13H48.3V40.88H44.94V44H55.56V40.88H52.21ZM34.47,23.81c-5.89,0-9.38,4.28-9.38,10.4s3.45,10.3,10,10.3a13.67,13.67,0,0,0,7-1.84V39.54a13.43,13.43,0,0,1-6.49,1.89c-4.05,0-6.26-2.25-6.63-6.12H43.12a11.67,11.67,0,0,0,.09-1.75C43.21,28.59,40.64,23.81,34.47,23.81ZM29,32.46c.37-3.17,2.12-5.71,5.48-5.71,3.59,0,4.83,2.9,5,5.71Zm141.41-4.28V24.32h-7.13v3.13h3.31V40.88h-3.31V44h11V40.88h-3.72V30.16a9.85,9.85,0,0,1,6.62-2.39h.69v-4h-.46A8.07,8.07,0,0,0,170.45,28.18Zm-21.93,4.33h6.53v7.26a19.8,19.8,0,0,1-7,1.34c-7,0-11.13-4.14-11.13-11s4.14-11.23,11.22-11.23A23.22,23.22,0,0,1,154.91,20V24.5h3.77V17.74a25.94,25.94,0,0,0-10.62-2.3c-9.71,0-15.14,6.07-15.14,14.72,0,8.88,5.75,14.4,15.09,14.4a23.12,23.12,0,0,0,10.81-2.67V32.51h2.58V29.29H148.52Zm143.74-21H285v3.13h3.36V40.88H285V44h10.63V40.88h-3.36ZM273.34,16h-12.7v3.27h4.14V40.74h-4.14V44H273.8V40.74h-5v-7h4.51c6.76,0,11.18-3.45,11.18-8.88S280.1,16,273.34,16Zm.09,14.49h-4.6V19.26h4.6c5,0,7,2.48,7,5.61S278.4,30.48,273.43,30.48Zm40.9.83V25.14a21.65,21.65,0,0,0-6.95-1.33c-6.17,0-10.26,3.77-10.26,10.4s3.86,10.3,10.17,10.3a13.79,13.79,0,0,0,6.94-1.79V39.54a13.22,13.22,0,0,1-6.39,1.89c-4.37,0-6.67-2.94-6.67-7.36s2.16-7.22,6.58-7.22a11.51,11.51,0,0,1,3.22.5v4Zm-75.63-7.5a8.49,8.49,0,0,0-6.53,3V24.32h-7v3.13h3.36V50h-3.36v3.13h11.23V50h-4V42.4a8.64,8.64,0,0,0,5.8,2.11c5.7,0,9.11-4.41,9.11-10.44S244.08,23.81,238.7,23.81Zm-1.42,17.62a6.79,6.79,0,0,1-4.88-1.93V29.33a7.26,7.26,0,0,1,5.24-2.44c4,0,5.66,3.41,5.66,7.27C243.3,38.39,241.32,41.43,237.28,41.43ZM189.46,23.81c-6.16,0-10,4.1-10,10.35s3.87,10.35,10,10.35,10-4,10-10.35S195.63,23.81,189.46,23.81Zm0,17.67c-3.91,0-6-3-6-7.32s2.07-7.31,6-7.31,6,3,6,7.31S193.37,41.48,189.46,41.48Zm32-17.16H214v3.13h3.59V38.53c-1.75,1.47-4,2.81-6.31,2.81s-3.08-1.34-3.08-3.5V24.32H200.9v3.13h3.36V38.26c0,4.14,2.26,6.25,5.8,6.25a11.52,11.52,0,0,0,7.59-3.22V44h7.18V40.88h-3.32Z" fill="#4d4f67"/></g></g></svg>