<svg xmlns="http://www.w3.org/2000/svg" xmlns:xlink="http://www.w3.org/1999/xlink" width="246.51" height="50.82" viewBox="0 0 246.51 50.82"><defs><linearGradient id="linear-gradient" x1="21.29" y1="0.91" x2="28.54" y2="50.66" gradientUnits="userSpaceOnUse"><stop offset="0" stop-color="#920b19"/><stop offset="0.4" stop-color="#e01528"/><stop offset="0.65" stop-color="#e96975"/><stop offset="0.68" stop-color="#a50f1d"/><stop offset="1" stop-color="#e01f32"/></linearGradient></defs><g id="Layer_2" data-name="Layer 2"><g id="logos"><path d="M48.84,30.4l-7.92-4.58,7.92-4.57a2,2,0,0,0,.73-2.73l-6-10.39a2,2,0,0,0-2.73-.73L32.92,12V2.82a2,2,0,0,0-2-2h-12a2,2,0,0,0-2,2V12L9,7.4a2,2,0,0,0-2.73.73l-6,10.39A2,2,0,0,0,1,21.25l7.92,4.57L1,30.4a2,2,0,0,0-.73,2.73l6,10.39A2,2,0,0,0,9,44.25l7.92-4.57v9.14a2,2,0,0,0,2,2h12a2,2,0,0,0,2-2V39.68l7.92,4.57a2,2,0,0,0,2.73-.73l6-10.39A2,2,0,0,0,48.84,30.4Z" fill="url(#linear-gradient)"/><path d="M23,42.45H22c-.25,0-.2-.1-.2-.34s.3-.15.45-.15a3.66,3.66,0,0,0,.73-.1Zm2.31-30.36A2.28,2.28,0,0,0,26.59,10a2.2,2.2,0,0,0-2.21-2.21,2.27,2.27,0,0,0-2.2,2.26,2.11,2.11,0,0,0,1.32,2l.15,6.62a7.89,7.89,0,0,0,1.47.69ZM28.21,26.9a3.85,3.85,0,0,0-.79-4.85c-1.27-1-2.89-1.23-4.26-2a2.47,2.47,0,0,1-1.33-1.92,2.27,2.27,0,0,1,.05-.83,2.37,2.37,0,0,1,.2-.54c.05-.1.19-.24.19-.34V14.2a4.3,4.3,0,0,0-2.15,4.86c.44,2,2.2,2.84,3.87,3.53A5.57,5.57,0,0,1,26.54,24a2.09,2.09,0,0,1-.19,2.35c-.2.25-.1.84-.1,1.18l-.05,1.23A5.15,5.15,0,0,0,28.21,26.9Zm-.88,10.4a5.07,5.07,0,0,0-2.85-2.4c-1-.49-2.35-.93-2.65-2.21a2.52,2.52,0,0,1,.3-1.81c.05-.1.44-.4.44-.49V28.28a4.28,4.28,0,0,0-2.5,4.07,3.94,3.94,0,0,0,.88,2.3A5.88,5.88,0,0,0,23,36c1.42.63,3.19,1.07,3.43,2.89a1.38,1.38,0,0,1,0,.64,1.45,1.45,0,0,1-.14.59c-.05.14-.25.39-.25.49v1.12A3.75,3.75,0,0,0,27.33,37.3Zm-2.51-13-1.12-.44c.05,1.57.09,9.17.14,9.22a6.82,6.82,0,0,0,.94.44L25,24.4ZM24,43.82h.54c0-1,.15-5.44.1-5.54a2.42,2.42,0,0,0-.74-.44Zm6.23-26.63c-.39.54-1.47.3-2.4-.44a3,3,0,0,1-.59-.59,6.88,6.88,0,0,0-.89-.39c-.19,0-.14,0-.14-.2l.05-2.06a6.17,6.17,0,0,1,2.3,1h0c.2.1.39.25.64.4C30.17,15.67,30.66,16.7,30.27,17.19Zm-1-.19c.1-.2-.93-.79-1-.54S29.09,17.19,29.24,17Zm.59-.74c.19-.15-.54-1.08-.74-.93S29.68,16.46,29.83,16.26Z" fill="#fff"/><path d="M115.66,21.86l.45.06V19.74c0-.36,0-.73,0-1.1v-1.1c0-.45,0-.9,0-1.35s0-.89,0-1.34,0-.9,0-1.35,0-.89,0-1.34a5.4,5.4,0,0,0-1.35-3.94,5.08,5.08,0,0,0-3.8-1.37,5.49,5.49,0,0,0-2.88.7A6.94,6.94,0,0,0,106,9.86a1.58,1.58,0,0,1,0-.26V9.44c0-.19,0-.39,0-.59s0-.41,0-.63,0-.39,0-.59,0-.4,0-.59l-.29,0-.22,0H104.4l-.38,0-.45,0c.06.85.1,1.7.11,2.54s0,1.7,0,2.55v1.25c0,.85,0,1.68,0,2.49s0,1.54-.06,2.18,0,1.05,0,1.42,0,.72-.07,1a5.12,5.12,0,0,1,0,.69,7.19,7.19,0,0,0-.08.72l.44-.06a1.72,1.72,0,0,1,.39,0h1.15a1.11,1.11,0,0,1,.29,0l.38.06c0-.26,0-.52,0-.8s0-.55,0-.83,0-.52,0-.8,0-.56,0-.83V17.58c0-.35,0-.7,0-1.07V14.37a12.55,12.55,0,0,1,.69-4.11c.43-1.23,1.58-1.84,3.44-1.84,1.49,0,2.45.48,2.89,1.45a8.73,8.73,0,0,1,.75,3.19v.83c0,.43,0,.87,0,1.33s0,.92,0,1.39c0,1-.08,2.05-.13,3s-.09,1.74-.16,2.29l.66-.08.46,0h.77A1.45,1.45,0,0,1,115.66,21.86ZM141.23,1.25c.24,0,.46,0,.69,0a6,6,0,0,1,.69.1,8.62,8.62,0,0,1,2.33.88A8.2,8.2,0,0,1,147,3.81l.22-.07c0-.19.06-.41.12-.65a6.93,6.93,0,0,1,.2-.75l.15-.53a4.86,4.86,0,0,1,.17-.5,12.2,12.2,0,0,0-3-1A17.88,17.88,0,0,0,141.29,0q-5.65,0-8.94,3a10.78,10.78,0,0,0-3.28,8.32,10.62,10.62,0,0,0,3.07,8.06q3.08,3,8.42,2.95a13.84,13.84,0,0,0,3.71-.5,10.31,10.31,0,0,0,3.11-1.39l.44-1.89-.16-.09a11.81,11.81,0,0,1-3.29,2,10.19,10.19,0,0,1-3.65.65,7.67,7.67,0,0,1-6.13-2.67,10.64,10.64,0,0,1-2.29-7.15q0-4.77,2.37-7.43A8.34,8.34,0,0,1,141.23,1.25ZM152.81.1a1.54,1.54,0,0,0-1.13.46,1.55,1.55,0,0,0-.47,1.14,1.55,1.55,0,0,0,.47,1.13,1.61,1.61,0,0,0,2.27,0,1.54,1.54,0,0,0,.46-1.13,1.57,1.57,0,0,0-1.6-1.6ZM99.7,9.31l.22.15.26.17.22-.16a2.13,2.13,0,0,1,0-.3V8.9c0-.13,0-.29,0-.47a3.23,3.23,0,0,1,.08-.53c0-.17.05-.32.07-.46a2.59,2.59,0,0,1,.09-.4l-.24-.11-.2-.08-.23,0H99.7a2.94,2.94,0,0,0-2,.7,11.19,11.19,0,0,0-1.45,1.6.05.05,0,0,1,0,.05.05.05,0,0,0,0,.05l-.36.44-.37.45a1.25,1.25,0,0,0,0-.21.71.71,0,0,1,0-.14V9.6c0-.21,0-.43,0-.64s0-.43,0-.64,0-.43,0-.64,0-.43,0-.64l-.24,0h-.17a1.34,1.34,0,0,1-.35,0h-.55a4.21,4.21,0,0,1-.62,0L92.94,7v.35l.13,3.3q0,.57,0,1.53v4.47c0,.61,0,1.1,0,1.49l-.13,3.45v.29l.82-.08.56,0h.48a1.17,1.17,0,0,1,.32,0l.38.06c0-.4,0-.82,0-1.23s0-.83,0-1.23,0-.85,0-1.27,0-.82,0-1.23l0-2.82a7.09,7.09,0,0,1,.81-3.8,2.69,2.69,0,0,1,2.42-1.25,2.38,2.38,0,0,1,.56.05A2.28,2.28,0,0,1,99.7,9.31Zm53.24-2.17h-.7l-.39,0-.48,0a4.57,4.57,0,0,1,0,.46c0,.14,0,.29.05.44,0,.32,0,.68.05,1.1s0,1.05,0,1.9l0,3.56-.07,3.58V19.2c0,.53,0,.94-.05,1.22s0,.53,0,.76a1.45,1.45,0,0,1,0,.37l-.06.37.4-.06a1.37,1.37,0,0,1,.34,0h1l.46,0c.16,0,.37,0,.62.08,0-.21,0-.42,0-.61a4.63,4.63,0,0,0,0-.54c0-.34,0-.71,0-1.09s0-.92,0-1.6V16.46c0-.48,0-.94,0-1.39s0-1.14,0-1.77,0-1.38,0-2.26,0-1.32,0-1.73,0-.78.06-1.12c0-.17,0-.34.06-.53s.05-.38.07-.62l-.87.08Zm4.8,1.28-.06.19.51,0,.51,0h1a1.68,1.68,0,0,1,0,.29.8.8,0,0,0,0,.23v1c0,.68,0,1.37,0,2.05s0,1.36-.07,2-.07,1.36-.09,2,0,1.37,0,2.05a4.11,4.11,0,0,0,1,2.91,3.48,3.48,0,0,0,2.71,1.06,6.25,6.25,0,0,0,1.21-.14c.45-.1.94-.22,1.47-.37V21c-.19.07-.35.11-.48.15l-.35.08-.3,0h-.34a1.94,1.94,0,0,1-1.89-1,9.24,9.24,0,0,1-.51-3.73V11.2c0-.43,0-.77,0-1s0-.47,0-.64V9.15a2.64,2.64,0,0,1,0-.29,2.58,2.58,0,0,0,0-.32h3.42a1.38,1.38,0,0,1-.08-.25,1.05,1.05,0,0,0-.05-.19V7.84a.89.89,0,0,1,0-.19c0-.09.06-.2.1-.35l-3.46.06c0-.36,0-.72,0-1.07s.06-.7.08-1,.08-.72.1-1.07,0-.7,0-1V3s0,0,0,0V2.88l-2.72,1c.06.54.11,1.08.14,1.62s0,1.09,0,1.65v.19h-2.11a2.18,2.18,0,0,0,.06.22.69.69,0,0,1,0,.2v.48A.61.61,0,0,1,157.74,8.42ZM63.39,2.08c.5,0,1-.05,1.52-.1,0,.18,0,.33,0,.47s0,.27,0,.4,0,.49,0,.78V5.57l0,4.06,0,4.45q0,3.17-.09,5a22.69,22.69,0,0,1-.23,2.83l.4-.06a1.37,1.37,0,0,1,.34,0H67a1.73,1.73,0,0,1,.37,0l.47.06c0-.17,0-.34-.08-.5a1.85,1.85,0,0,1,0-.46c0-.32-.07-.68-.08-1.07s0-1,0-1.68l0-4.32V5.47c0-.3,0-.59,0-.88s0-.58,0-.88,0-.56,0-.86V2c.49,0,1,.08,1.46.1l1.46.06,1.87.08c.63,0,1.25.1,1.87.18,0-.08,0-.16,0-.22a.73.73,0,0,0,0-.2,2.09,2.09,0,0,0,0-.25,2.73,2.73,0,0,1,0-.32V1.14a1,1,0,0,1,0-.24c0-.09,0-.17.07-.24a2.9,2.9,0,0,1,.09-.28c-.66,0-1.33.08-2,.1l-2,.06c-.68,0-1.36,0-2,0h-2L62,.54c-.85,0-1.59,0-2.21,0s-1.11,0-1.47-.09h-.1L58,.38c0,.18,0,.31.06.42s0,.21.07.32V1.5a2.33,2.33,0,0,1,0,.29,1.93,1.93,0,0,0,0,.23.64.64,0,0,0-.05.17c0,.06,0,.13,0,.21.64-.08,1.29-.14,1.94-.18l1.93-.08ZM174.54,21.47l.19.42c-.17.42-.36.88-.59,1.36s-.46,1-.72,1.45-.47.85-.7,1.27-.48.81-.74,1.2c-.13.23-.26.45-.4.65l-.4.6.19,0,.2,0,.38,0,.38,0h.39l.29.05a3.64,3.64,0,0,1,.38.05,5.33,5.33,0,0,1,.32-1.11l.45-1.1.24-.5.21-.46L176,22.08l1.5-3.33,1.44-3.13,1.44-3.17.31-.69q.13-.33.3-.69l.95-2c.3-.67.64-1.34,1-2l-.36.06a1.06,1.06,0,0,1-.31,0h-.83l-.27,0-.31,0q-1,2.91-2.11,5.79t-2.43,5.67l-.1.19H176c-.08-.19-.17-.39-.25-.59s-.18-.41-.26-.63c-.77-1.7-1.5-3.42-2.21-5.15S171.94,8.83,171.41,7l-.4,0-.34,0h-.86l-.6,0c-.2,0-.46,0-.78-.08.06.11.11.19.14.26a.24.24,0,0,1,.05.12q1.57,3.49,3.06,7T174.54,21.47Zm-85.34-7a7.88,7.88,0,0,0-2-5.63,7,7,0,0,0-5.33-2.11,8,8,0,0,0-5.79,2.11,7.37,7.37,0,0,0-2.21,5.57,7.9,7.9,0,0,0,2,5.68,7.13,7.13,0,0,0,5.4,2.13A7.81,7.81,0,0,0,87,20,7.45,7.45,0,0,0,89.2,14.46ZM85,19.31a4.3,4.3,0,0,1-3.68,1.94A4.05,4.05,0,0,1,78,19.44a7.7,7.7,0,0,1-1.33-4.66v-.11a.09.09,0,0,1,0-.08V14.4a8.17,8.17,0,0,1,1.47-4.94,4.48,4.48,0,0,1,3.74-1.75,3.84,3.84,0,0,1,3.3,1.78,8,8,0,0,1,1.25,4.69A8.66,8.66,0,0,1,85,19.31Zm27,29.9h-.16a1,1,0,0,1-1.09-.66,13.83,13.83,0,0,1-.23-3.31c0-.45,0-.89,0-1.33s0-.88.06-1.33,0-.85,0-1.29,0-.88,0-1.33a4.79,4.79,0,0,0-1.36-3.66,5.28,5.28,0,0,0-3.82-1.3,7.19,7.19,0,0,0-2.66.5,13.11,13.11,0,0,0-2.4,1.26v1.76h.32a4,4,0,0,1,1.62-1.65,4.82,4.82,0,0,1,2.35-.59,3.36,3.36,0,0,1,2.59,1,4,4,0,0,1,1,2.8v.19a2,2,0,0,1,0,.34c0,.12,0,.26-.06.43a5.11,5.11,0,0,1-1.76.78c-.66.16-1.35.3-2,.4,0,0,0,0,0,0h-.07a15.53,15.53,0,0,0-3.61,1.07c-1.09.48-1.63,1.59-1.63,3.34a3.5,3.5,0,0,0,1.18,2.85,5,5,0,0,0,3.3,1A5.74,5.74,0,0,0,106,50a7.14,7.14,0,0,0,2.21-1.67,2.13,2.13,0,0,0,.67,1.44,2.39,2.39,0,0,0,1.57.45h.19a5.15,5.15,0,0,0,.85-.13,5.46,5.46,0,0,0,1-.32v-.64l-.25,0Zm-3.73-5.65c0,.4,0,.78,0,1.17s0,.77,0,1.17,0,.78,0,1.16a5.06,5.06,0,0,1-1.47,1.48,4.32,4.32,0,0,1-1.86.67.63.63,0,0,1-.19,0h-.19a2.71,2.71,0,0,1-2.07-.82,3,3,0,0,1-.78-2.16,2.75,2.75,0,0,1,.56-1.9,5,5,0,0,1,2.38-1.1,6.55,6.55,0,0,1,.67-.18l.77-.18.58-.14.57-.14.55-.13a5.67,5.67,0,0,1,.57-.1C108.3,42.78,108.3,43.17,108.29,43.56ZM78.58,28.76l-.32,0h-.77a1.66,1.66,0,0,1-.32,0l-.27-.05a2.54,2.54,0,0,1-.34-.05c0,.47.08.95.11,1.43s0,.95,0,1.42,0,.95,0,1.43v4.94l-.49,0h-.47c-.4,0-.83,0-1.26,0H65c-.28,0-.53,0-.74,0h-.3l-.34,0c0-.17,0-.31-.05-.43s0-.23,0-.34V35.8c0-1.45.06-2.84.12-4.16s.15-2.31.26-3a1.29,1.29,0,0,1-.24.05l-.21,0-.51.05H61.82a1.24,1.24,0,0,1-.27,0h-.38a.28.28,0,0,0-.15-.05l-.27-.05c0,.56.09,1.27.13,2.13s.08,1.76.13,2.67c0,.54,0,1.07,0,1.59s0,1,0,1.45v4.58c0,1.54,0,3.07-.1,4.59s-.12,3-.25,4.53l.4-.05a2.57,2.57,0,0,0,.4,0h1.18l.48,0c.17,0,.39,0,.64.08l-.06-.5a3.67,3.67,0,0,1,0-.46c0-.3-.05-.62-.07-1s0-.83,0-1.45,0-1.16,0-1.75,0-1.17,0-1.77V39.77l0-.48h.16a.17.17,0,0,0,.1,0h.76a6.51,6.51,0,0,0,.77,0h1.54c.45,0,.94,0,1.49,0h1.77l3.23,0h.84c.27,0,.55,0,.83,0h.8l.83,0a2.73,2.73,0,0,0,0,.32,1.77,1.77,0,0,1,0,.22v1.83q0,.63,0,1.47l-.1,3.55-.19,3.2,0,.32.48-.06a3.58,3.58,0,0,1,.48,0H79a.85.85,0,0,0,.24,0l.31.05c0-.21-.05-.41-.07-.59a4.84,4.84,0,0,1,0-.53c0-.32,0-.67-.06-1s0-.88,0-1.52L79.28,43V39.61c0-.56,0-1.11,0-1.67s0-1.1,0-1.66l.07-3.52.16-3.62,0-.48-.56.07Zm11.9,6.4a7.07,7.07,0,0,0-5.36,2.06,7.78,7.78,0,0,0-2,5.59,7.9,7.9,0,0,0,2,5.74,7.28,7.28,0,0,0,5.53,2.07,8.62,8.62,0,0,0,2.63-.39,10.39,10.39,0,0,0,2.4-1.12l.19-.13.19-.12.26-1.6-.2-.07a6.7,6.7,0,0,1-2.22,1.65,6.35,6.35,0,0,1-2.64.56,5,5,0,0,1-4-1.65,6.7,6.7,0,0,1-1.44-4.56v-.06a.33.33,0,0,1,0-.1v-.25l.42,0,1.94,0,1.74,0h1.63l3.23,0c.75,0,1.41,0,2,.08a3.73,3.73,0,0,0,0-.42v-.51a7,7,0,0,0-1.66-5A6.25,6.25,0,0,0,90.48,35.16Zm3.65,6.34H94l-1.1.06-1.11,0H89.5l-.68,0H87.39l-1.45,0a6.58,6.58,0,0,1,1.37-3.92,3.91,3.91,0,0,1,3.14-1.46,3,3,0,0,1,2.85,1.38,8.57,8.57,0,0,1,1,3,3.4,3.4,0,0,0,0,.45,3.37,3.37,0,0,1,0,.44A.64.64,0,0,1,94.13,41.5Zm150.71-4.6a6.23,6.23,0,0,0-4.73-1.74,7.07,7.07,0,0,0-5.36,2.06,7.78,7.78,0,0,0-2,5.59,7.94,7.94,0,0,0,2,5.74,7.32,7.32,0,0,0,5.54,2.07,8.51,8.51,0,0,0,2.62-.39,10.39,10.39,0,0,0,2.4-1.12l.2-.13.19-.12.25-1.6-.19-.07a6.7,6.7,0,0,1-2.22,1.65,6.35,6.35,0,0,1-2.64.56,5,5,0,0,1-4-1.65,6.7,6.7,0,0,1-1.44-4.56v-.06a.33.33,0,0,1,0-.1v-.25l.42,0,1.93,0,1.75,0h1.63l3.23,0c.75,0,1.41,0,2,.08a3.73,3.73,0,0,0,0-.42v-.51A6.91,6.91,0,0,0,244.84,36.9Zm-1.08,4.6h-.13l-1.11.06-1.1,0h-2.29l-.69,0H237l-1.46,0a6.65,6.65,0,0,1,1.38-3.92,3.91,3.91,0,0,1,3.14-1.46,3,3,0,0,1,2.84,1.38,8.38,8.38,0,0,1,1,3,3.4,3.4,0,0,0,0,.45,3.37,3.37,0,0,1,0,.44A.64.64,0,0,1,243.76,41.5Zm-126.3,7.29c0-.34,0-.7,0-1.07s0-.86,0-1.46l0-3.93c0-1.09,0-2,0-2.63s0-1.09,0-1.31c0-.64,0-1.31,0-2s0-1.46,0-2.22l.06-3.88v-.67a3.12,3.12,0,0,1,0-.54v-.72a5.68,5.68,0,0,1,0-.59c0-.17,0-.34,0-.5s0-.35,0-.56l-.33.05-.28.05a1.66,1.66,0,0,1-.32,0h-.41l-.55,0h-.38l-.21-.05-.27-.05v.13a.12.12,0,0,0,0,.09V27c0,.32,0,.74,0,1.26s0,1.16.05,1.91l0,3.93,0,4.39,0,3.9c0,.64,0,1.29,0,2s0,1.32,0,2-.05,1.32-.08,2-.08,1.3-.15,1.92l.5-.06a2.85,2.85,0,0,1,.4,0h.7l.53,0,.75.08q0-.42-.06-.75C117.5,49.22,117.48,49,117.46,48.79Zm96-13.37h-.7l-.39-.05-.48,0c0,.17,0,.33.05.46s0,.29,0,.44c0,.32,0,.68.05,1.1s0,1,0,1.9l0,3.56L212,46.36v1.12c0,.53,0,.94,0,1.22s0,.53-.05.76a2.13,2.13,0,0,1,0,.37l-.06.37.4-.06a2.11,2.11,0,0,1,.33,0h1l.47,0c.16,0,.37,0,.62.08,0-.21,0-.42,0-.61a4.63,4.63,0,0,0,0-.54c0-.34,0-.71,0-1.09s0-.92,0-1.6V44.74c0-.48,0-.94,0-1.39s0-1.14,0-1.77,0-1.38,0-2.26,0-1.32,0-1.73.05-.78.07-1.12c0-.17,0-.34.06-.53s0-.38.07-.62l-.87.08Zm-4.16-.07-.24,0-.24,0-.26,0-.25,0h-.08l-.08,0h-.18l-.17,0a17,17,0,0,1-.8,2.8c-.39,1-.8,2.1-1.25,3.18-.09.2-.17.38-.26.56s-.16.37-.22.56c-.38.86-.76,1.7-1.12,2.52s-.67,1.57-.93,2.25H203c-.28-.62-.59-1.31-.93-2.09s-.69-1.6-1.05-2.45q-.14-.32-.27-.66c-.1-.22-.19-.44-.28-.65-.42-1.09-.83-2.14-1.21-3.16a28,28,0,0,1-.9-2.67l0-.06a.25.25,0,0,0,0-.07.13.13,0,0,1,0-.06l-.24,0h-.24l-.47,0-.49,0-.39,0-.35,0H196l-.12,0h-.26l-.26,0,.1.14a.2.2,0,0,1,0,.08l.39.84c.21.47.5,1.12.86,1.95l1.31,3,1.38,3.42c.12.3.25.6.37.91s.22.62.33.91a2.33,2.33,0,0,1,.11.28,1.38,1.38,0,0,1,.08.27c.22.51.42,1,.63,1.55s.41,1,.62,1.52l.11-.05h.08a1.37,1.37,0,0,1,.31,0h1a.53.53,0,0,1,.16,0l.2.06c.49-1.45,1-2.89,1.63-4.32s1.2-2.86,1.82-4.29l1.47-3.29c.32-.71.59-1.29.82-1.75s.38-.79.46-1a.1.1,0,0,0,.07-.06,1.38,1.38,0,0,0,.06-.16l-.24,0ZM228.75,49a5.75,5.75,0,0,1-2.34.46,5.19,5.19,0,0,1-4.17-1.92,7.38,7.38,0,0,1-1.62-4.93,7,7,0,0,1,1.55-4.72,5.21,5.21,0,0,1,4.11-1.77h.32l.32,0a4.7,4.7,0,0,1,1.8.82A4.08,4.08,0,0,1,230,38.42h.32l.67-2.08a8.9,8.9,0,0,0-.87-.44l-.8-.36a11.09,11.09,0,0,0-1.47-.33,10.42,10.42,0,0,0-1.66-.11,8.68,8.68,0,0,0-6.07,2.09,7.23,7.23,0,0,0-2.28,5.59A7.64,7.64,0,0,0,220,48.5a7.89,7.89,0,0,0,5.79,2.12,9.71,9.71,0,0,0,2.85-.4A7,7,0,0,0,231,49l.09-1.41-.25-.06A6.79,6.79,0,0,1,228.75,49ZM213.29,28.38a1.52,1.52,0,0,0-1.13.46,1.61,1.61,0,0,0,0,2.27,1.53,1.53,0,0,0,1.13.47,1.6,1.6,0,1,0,0-3.2Zm-19.48,6.75-.23,0h-.25a2.94,2.94,0,0,0-2,.7,11.19,11.19,0,0,0-1.45,1.6.05.05,0,0,1,0,.05.05.05,0,0,0,0,0l-.36.44-.37.45a1.25,1.25,0,0,0,0-.21.71.71,0,0,1,0-.14v-.16c0-.21,0-.43,0-.64s0-.43,0-.64,0-.43.05-.64,0-.43,0-.64l-.24,0h-.17a1.34,1.34,0,0,1-.35,0h-.55a4.21,4.21,0,0,1-.62,0l-.63-.06v.35l.13,3.3q0,.57,0,1.53V45c0,.61,0,1.1,0,1.49l-.13,3.45v.29l.82-.08.56,0h.48a1.75,1.75,0,0,1,.32,0l.38.06c0-.4,0-.82,0-1.23s0-.83-.05-1.23,0-.85,0-1.27,0-.82,0-1.23l0-2.82a7.09,7.09,0,0,1,.81-3.8,2.69,2.69,0,0,1,2.42-1.25,2.38,2.38,0,0,1,.56.05,2.28,2.28,0,0,1,.5.17l.22.15.26.17.22-.16a2.13,2.13,0,0,1,0-.3v-.27c0-.13,0-.29,0-.47a3.23,3.23,0,0,1,.08-.53c0-.17,0-.32.07-.46a2.59,2.59,0,0,1,.09-.4l-.24-.11ZM127.63,49.5l-.3,0H127a1.93,1.93,0,0,1-1.89-1,9.24,9.24,0,0,1-.51-3.73V39.48c0-.43,0-.77,0-1s0-.47,0-.64v-.39a2.64,2.64,0,0,1,0-.29,2.92,2.92,0,0,0,0-.32h3.43a1.38,1.38,0,0,1-.08-.25,1.05,1.05,0,0,0,0-.19v-.26a.89.89,0,0,1,0-.19c0-.09.06-.2.1-.35l-3.46.06c0-.36,0-.72,0-1.07s.06-.7.08-1,.08-.72.1-1.07,0-.7,0-1v-.1s0,0,0-.05v-.11l-2.72,1c.06.54.11,1.08.14,1.62s0,1.09,0,1.65v.19h-2.11a2.18,2.18,0,0,0,.06.22.69.69,0,0,1,0,.2v.48a.61.61,0,0,1,0,.16l-.06.19.51,0,.51,0h1a1.11,1.11,0,0,1,0,.29.8.8,0,0,0,0,.23v1c0,.69,0,1.37,0,2s-.05,1.36-.07,2-.07,1.36-.09,2,0,1.37,0,2a4.11,4.11,0,0,0,1,2.91,3.47,3.47,0,0,0,2.7,1.06,6.26,6.26,0,0,0,1.22-.14c.45-.1.94-.22,1.47-.37v-.74c-.19.07-.35.11-.48.15Zm10.18-14.37a5.52,5.52,0,0,0-2.92.78,5.6,5.6,0,0,0-2,2.19l-.16-.06a.55.55,0,0,0,0-.16v-.1c0-.68,0-1.36,0-2s0-1.35,0-2,0-1.33.05-2,0-1.35,0-2c0-.43,0-.77,0-1s0-.53.05-.79,0-.35.07-.54,0-.4.06-.64l-.35.06a1.06,1.06,0,0,1-.29,0,1.87,1.87,0,0,1-.34,0h-.78a1.29,1.29,0,0,1-.29,0,1.22,1.22,0,0,1-.32,0l-.38-.06c0,.21,0,.41.05.58s0,.33,0,.48c0,.34,0,.71.05,1.12s0,1,0,1.72l0,4,0,3.81v4.35c0,1.69,0,3.14-.08,4.36s-.09,2.25-.18,3.1l.34-.05a2.52,2.52,0,0,0,.37,0h1l.4,0,.56.08c0-.23,0-.46,0-.67s0-.42,0-.61,0-.57,0-.88,0-.71,0-1.2l0-3.3v-.32a24.68,24.68,0,0,1,.11-2.68,5.76,5.76,0,0,1,.43-1.6,1,1,0,0,0,.05-.12l0-.11a3.51,3.51,0,0,1,1.41-1.45,3.93,3.93,0,0,1,2-.56,3.76,3.76,0,0,1,2,.56,2.93,2.93,0,0,1,1.26,1.45.22.22,0,0,1,.05.08.36.36,0,0,1,0,.11,5.74,5.74,0,0,1,.32,1.54c0,.58.06,1.47.06,2.69,0,.43,0,.88,0,1.36s0,1,0,1.45c0,.79-.06,1.57-.1,2.34s-.1,1.41-.16,1.92l.29-.05a1.11,1.11,0,0,0,.25,0h1.6a1.19,1.19,0,0,0,.26,0l.29.05c0-.21,0-.43-.05-.66s0-.45,0-.68,0-.44,0-.68v-.67c0-.47,0-.94,0-1.41s0-.93.05-1.4V44c0-.59,0-1.19,0-1.77s0-1.17,0-1.75a5.44,5.44,0,0,0-1.36-3.92A5,5,0,0,0,137.81,35.13ZM165.89,40a17.74,17.74,0,0,0-3.41-1.94l-.21-.08-.21-.08a19.49,19.49,0,0,1-3.15-1.71,3.28,3.28,0,0,1-1.39-2.93,3.55,3.55,0,0,1,1.12-2.67,3.87,3.87,0,0,1,2.78-1.07,4.15,4.15,0,0,1,2.45.78,4,4,0,0,1,1.52,2.07h.32a1.46,1.46,0,0,0,0-.2.92.92,0,0,0,0-.16c.09-.34.19-.68.31-1s.28-.76.49-1.23c-.27-.19-.55-.37-.81-.53a6.52,6.52,0,0,0-.79-.4,6.32,6.32,0,0,0-1.47-.44,9.24,9.24,0,0,0-1.66-.13,7.26,7.26,0,0,0-4.91,1.63A5.35,5.35,0,0,0,155,34.14,4.53,4.53,0,0,0,156.57,38,15.63,15.63,0,0,0,160,40l.29.13.29.13a15.77,15.77,0,0,1,3.06,1.63A3.28,3.28,0,0,1,165,44.73a4.41,4.41,0,0,1-1.26,3.21,4.19,4.19,0,0,1-3.15,1.3,5.63,5.63,0,0,1-3.06-.9,5.17,5.17,0,0,1-2.06-2.3h-.32a5.5,5.5,0,0,1-.18,1.17c-.09.37-.2.75-.3,1.13,0,.09,0,.18-.08.28a2.76,2.76,0,0,0-.08.27,7.47,7.47,0,0,0,2.45,1.29,9.4,9.4,0,0,0,2.89.44,7.74,7.74,0,0,0,5.46-2,6.6,6.6,0,0,0,2.16-5A4.15,4.15,0,0,0,165.89,40Zm11.37-4.85a7.07,7.07,0,0,0-5.36,2.06,7.78,7.78,0,0,0-2,5.59,7.9,7.9,0,0,0,2,5.74,7.3,7.3,0,0,0,5.53,2.07,8.58,8.58,0,0,0,2.63-.39,10.39,10.39,0,0,0,2.4-1.12l.19-.13.19-.12.26-1.6-.19-.07a6.84,6.84,0,0,1-2.23,1.65,6.35,6.35,0,0,1-2.64.56,5,5,0,0,1-4-1.65,6.7,6.7,0,0,1-1.44-4.56v-.06a.22.22,0,0,1,0-.1v-.25l.41,0,1.94,0,1.74,0h1.63l3.24,0c.74,0,1.4,0,2,.08a3.73,3.73,0,0,0,0-.42v-.51a6.91,6.91,0,0,0-1.66-5A6.25,6.25,0,0,0,177.26,35.16Zm3.65,6.34h-.13l-1.1.06-1.11,0h-2.28l-.69,0h-1.43l-1.45,0a6.58,6.58,0,0,1,1.37-3.92,3.91,3.91,0,0,1,3.14-1.46,3,3,0,0,1,2.85,1.38,8.57,8.57,0,0,1,1,3,3.4,3.4,0,0,0,0,.45,3.37,3.37,0,0,1,0,.44A.64.64,0,0,1,180.91,41.5Z" fill="#888"/></g></g></svg>