<svg xmlns="http://www.w3.org/2000/svg" xmlns:xlink="http://www.w3.org/1999/xlink" width="174.48" height="122.27" viewBox="0 0 174.48 122.27"><defs><linearGradient id="linear-gradient" x1="66" y1="60" x2="66" gradientUnits="userSpaceOnUse"><stop offset="0" stop-color="#ababab"/><stop offset="0.27" stop-color="#aeadae"/><stop offset="0.48" stop-color="#b8b3b8"/><stop offset="0.67" stop-color="#c8bcc9"/><stop offset="0.7" stop-color="#cbbecc"/></linearGradient><linearGradient id="linear-gradient-2" x1="51" y1="38.37" x2="51" y2="21.96" gradientUnits="userSpaceOnUse"><stop offset="0" stop-color="#ababab" stop-opacity="0"/><stop offset="0.5" stop-color="#777" stop-opacity="0.5"/><stop offset="1" stop-color="#ababab" stop-opacity="0"/></linearGradient><linearGradient id="linear-gradient-3" x1="61.07" y1="46.28" x2="49.82" y2="35.03" gradientUnits="userSpaceOnUse"><stop offset="0" stop-color="#ababab" stop-opacity="0"/><stop offset="0.49" stop-color="#555"/><stop offset="1" stop-color="#ababab" stop-opacity="0"/></linearGradient><linearGradient id="linear-gradient-4" x1="70.45" y1="46.76" x2="82.58" y2="34.64" xlink:href="#linear-gradient-3"/><linearGradient id="linear-gradient-5" x1="55.33" y1="15" x2="76.36" y2="15" gradientUnits="userSpaceOnUse"><stop offset="0" stop-color="#fff" stop-opacity="0"/><stop offset="0.5" stop-color="#fff"/><stop offset="1" stop-color="#fff" stop-opacity="0"/></linearGradient><linearGradient id="linear-gradient-6" x1="49.41" y1="25.38" x2="61.09" y2="13.69" gradientUnits="userSpaceOnUse"><stop offset="0" stop-color="#ababab" stop-opacity="0"/><stop offset="0.49" stop-color="#bdbeb8"/><stop offset="1" stop-color="#ababab" stop-opacity="0"/></linearGradient><linearGradient id="linear-gradient-7" x1="66.33" y1="18" x2="66.33" y2="42" gradientUnits="userSpaceOnUse"><stop offset="0" stop-color="#fff"/><stop offset="1" stop-color="#ccc"/></linearGradient><linearGradient id="linear-gradient-8" x1="66.33" y1="41" x2="66.33" y2="19" xlink:href="#linear-gradient-7"/><linearGradient id="linear-gradient-9" x1="66.33" y1="20" x2="66.33" y2="40" xlink:href="#linear-gradient-7"/><linearGradient id="linear-gradient-10" x1="66.33" y1="38" x2="66.33" y2="22" gradientUnits="userSpaceOnUse"><stop offset="0" stop-color="#ccc"/><stop offset="1" stop-color="#aaa"/></linearGradient><linearGradient id="linear-gradient-11" x1="108" y1="60" x2="108" gradientUnits="userSpaceOnUse"><stop offset="0" stop-color="#111"/><stop offset="0.08" stop-color="#151515"/><stop offset="0.17" stop-color="#222"/><stop offset="0.26" stop-color="#363636"/><stop offset="0.35" stop-color="#535353"/><stop offset="0.43" stop-color="#787878"/><stop offset="0.5" stop-color="#999"/><stop offset="0.54" stop-color="#797979"/><stop offset="0.59" stop-color="#595959"/><stop offset="0.64" stop-color="#3e3e3e"/><stop offset="0.7" stop-color="#2a2a2a"/><stop offset="0.77" stop-color="#1c1c1c"/><stop offset="0.85" stop-color="#141414"/><stop offset="0.99" stop-color="#111"/></linearGradient><linearGradient id="linear-gradient-12" x1="108.33" y1="18" x2="108.33" y2="42" gradientUnits="userSpaceOnUse"><stop offset="0" stop-color="#e2b6ec"/><stop offset="1" stop-color="#ba91c5"/></linearGradient></defs><g id="Layer_2" data-name="Layer 2"><g id="logos"><circle cx="66" cy="30" r="30" fill="url(#linear-gradient)"/><path d="M22.6,71.48H12.68V97H10.56V71.48H0l.64-1.76h22.6Z"/><path d="M44.2,97a29.54,29.54,0,0,1-4.84.4,15.39,15.39,0,0,1-5.78-1.06A14.17,14.17,0,0,1,29,93.38a13.32,13.32,0,0,1-3-4.42,14,14,0,0,1-1.1-5.56A13.62,13.62,0,0,1,26,77.68a13.85,13.85,0,0,1,3.16-4.44,14.34,14.34,0,0,1,4.58-2.86,14.63,14.63,0,0,1,5.4-1,25.88,25.88,0,0,1,4.74.44,20.9,20.9,0,0,1,4.86,1.6l-1,1.92a21.44,21.44,0,0,0-3.92-1.46A19.06,19.06,0,0,0,39,71.32a12.1,12.1,0,0,0-4.74.92A11.49,11.49,0,0,0,28,78.6a13.36,13.36,0,0,0,0,9.64,11.12,11.12,0,0,0,6.38,6.28,13.25,13.25,0,0,0,4.92.88A22.58,22.58,0,0,0,43.64,95a18.77,18.77,0,0,0,4.68-1.66l.72,2A15.78,15.78,0,0,1,44.2,97Z"/><path d="M87.08,96.68V74.24H87L76.68,88.4,66.36,74.32h-.08V96.68l-2.12.76V68.88l1.24.88L76.68,85,88,69.72l1.2-.88v28.6Z"/><path d="M115.68,96.84V92a8.66,8.66,0,0,1-1.82,2.36,10.84,10.84,0,0,1-2.4,1.66,11.66,11.66,0,0,1-2.7,1,12.44,12.44,0,0,1-2.72.32,12.11,12.11,0,0,1-4.34-.76,9.68,9.68,0,0,1-3.54-2.3,10.82,10.82,0,0,1-2.4-3.84,15,15,0,0,1-.88-5.38V69.32l2.12.52V85a13.46,13.46,0,0,0,.72,4.64,9,9,0,0,0,2,3.24,7.71,7.71,0,0,0,2.88,1.9,9.81,9.81,0,0,0,3.48.62,10.66,10.66,0,0,0,3.44-.58A8.43,8.43,0,0,0,112.56,93a9.45,9.45,0,0,0,2.2-3.3,12.88,12.88,0,0,0,.84-4.94V69.84l2.12-.52V97.48Z"/><path d="M137.58,92.94a6.94,6.94,0,0,1-1.9,2.48,8.13,8.13,0,0,1-2.8,1.46,12,12,0,0,1-3.44.48,12.63,12.63,0,0,1-7-2.4l.8-1.92a16.59,16.59,0,0,0,3.28,1.84,7.68,7.68,0,0,0,2.8.52,9.86,9.86,0,0,0,2.4-.3,6.44,6.44,0,0,0,2.16-1,4.93,4.93,0,0,0,1.54-1.8,6.15,6.15,0,0,0,.58-2.8,4.17,4.17,0,0,0-.6-2.32,5.47,5.47,0,0,0-1.58-1.56,10.4,10.4,0,0,0-2.22-1.08l-2.56-.9c-.88-.31-1.74-.63-2.56-1a9.32,9.32,0,0,1-2.22-1.3,5.87,5.87,0,0,1-1.58-1.94,6.12,6.12,0,0,1-.6-2.84,6.51,6.51,0,0,1,.62-2.84,7.23,7.23,0,0,1,1.68-2.3,7.75,7.75,0,0,1,2.48-1.54,8.28,8.28,0,0,1,3.06-.56,13.11,13.11,0,0,1,6.32,1.72l-.84,1.84a16.62,16.62,0,0,0-2.88-1.26,8.44,8.44,0,0,0-2.4-.34,6.21,6.21,0,0,0-2.28.4,5.75,5.75,0,0,0-1.82,1.1,5,5,0,0,0-1.22,1.64,4.7,4.7,0,0,0-.44,2.06,3.79,3.79,0,0,0,1,2.86A8.23,8.23,0,0,0,128,81.06a28.59,28.59,0,0,0,3.36,1.18,17.32,17.32,0,0,1,3.36,1.34,7.71,7.71,0,0,1,2.56,2.18,5.93,5.93,0,0,1,1,3.64A8.4,8.4,0,0,1,137.58,92.94Z"/><path d="M143.12,97V70l2.12-.8V97Z"/><path d="M169.64,97a29.54,29.54,0,0,1-4.84.4A15.39,15.39,0,0,1,159,96.3a14.06,14.06,0,0,1-4.6-2.92,13.17,13.17,0,0,1-3-4.42,13.83,13.83,0,0,1-1.1-5.56,13.7,13.7,0,0,1,4.34-10.16,14.23,14.23,0,0,1,4.58-2.86,14.63,14.63,0,0,1,5.4-1,25.88,25.88,0,0,1,4.74.44,20.9,20.9,0,0,1,4.86,1.6l-1,1.92a21.72,21.72,0,0,0-3.92-1.46,19.12,19.12,0,0,0-4.84-.54,12.1,12.1,0,0,0-4.74.92A11.39,11.39,0,0,0,156,74.78a11.56,11.56,0,0,0-2.5,3.82,13.36,13.36,0,0,0,0,9.64,11.12,11.12,0,0,0,6.38,6.28,13.25,13.25,0,0,0,4.92.88,22.58,22.58,0,0,0,4.32-.42,18.77,18.77,0,0,0,4.68-1.66l.72,2A15.87,15.87,0,0,1,169.64,97Z"/><path d="M5,102.53l-2,2-2-2,2-2ZM2.1,122V108.71l1.44-.6V122Z" fill="#9c61ac"/><path d="M24.21,122v-7.68a5.06,5.06,0,0,0-1.08-3.49,3.63,3.63,0,0,0-2.88-1.22,10.57,10.57,0,0,0-2.55.28,6.33,6.33,0,0,0-1.86.8V122H14.4V108.53l1.44.75v-.06a8.9,8.9,0,0,1,2.15-.69,12.69,12.69,0,0,1,2.47-.24,5.19,5.19,0,0,1,3.77,1.38,5.47,5.47,0,0,1,1.42,4.11V122Z" fill="#9c61ac"/><path d="M46.38,121.43c-.72.2-1.38.39-2,.57a7,7,0,0,1-2,.27,6.7,6.7,0,0,1-4.84-2A7,7,0,0,1,36.11,118a7.28,7.28,0,0,1-.53-2.78,7.52,7.52,0,0,1,.51-2.79,6.58,6.58,0,0,1,1.43-2.22,6.42,6.42,0,0,1,2.16-1.45,6.86,6.86,0,0,1,2.71-.53,8.8,8.8,0,0,1,2.19.25,6.64,6.64,0,0,1,1.8.83v-7.8l1.44-.45V122Zm0-10.5a6.36,6.36,0,0,0-2-1,7.76,7.76,0,0,0-2-.25,5.7,5.7,0,0,0-2.14.4,5.4,5.4,0,0,0-1.7,1.14,5.17,5.17,0,0,0-1.11,1.76,6.17,6.17,0,0,0-.39,2.22,6.28,6.28,0,0,0,.41,2.28,5.41,5.41,0,0,0,1.15,1.83,5.47,5.47,0,0,0,1.76,1.23,5.39,5.39,0,0,0,2.23.45,5.31,5.31,0,0,0,2-.33,16.11,16.11,0,0,0,1.75-.84Z" fill="#9c61ac"/><path d="M68.07,121.31a3.23,3.23,0,0,1-.85.37c-.35.11-.73.21-1.14.31s-.84.15-1.28.21a11.4,11.4,0,0,1-1.29.07,6.92,6.92,0,0,1-1.84-.28,5.89,5.89,0,0,1-1.82-.92,4.91,4.91,0,0,1-1.38-1.66,5.48,5.48,0,0,1-.54-2.54v-8.34h1.44v8.31a3.73,3.73,0,0,0,1.4,3,4.19,4.19,0,0,0,1.36.74,4.9,4.9,0,0,0,1.5.24c.54,0,1,0,1.43-.06a6,6,0,0,0,1.12-.21,4.73,4.73,0,0,0,.95-.39,8.16,8.16,0,0,0,.88-.57v-11.1h1.44v13.71Z" fill="#9c61ac"/><path d="M88.82,119.88a3.86,3.86,0,0,1-1.19,1.29,5.13,5.13,0,0,1-1.74.79,8.27,8.27,0,0,1-2.07.25A10,10,0,0,1,79.14,121l.57-1.17a22.09,22.09,0,0,0,2.33.81,7.35,7.35,0,0,0,2,.27,5,5,0,0,0,1.39-.19,4.2,4.2,0,0,0,1.21-.56,3.2,3.2,0,0,0,.85-.87,2.11,2.11,0,0,0,.33-1.17,1.45,1.45,0,0,0-.64-1.27,5.72,5.72,0,0,0-1.63-.72,21.17,21.17,0,0,0-2.11-.5,11.15,11.15,0,0,1-2.12-.61,4.79,4.79,0,0,1-1.61-1.1,2.62,2.62,0,0,1-.65-1.89,2.86,2.86,0,0,1,.41-1.47,4,4,0,0,1,1.13-1.21,5.61,5.61,0,0,1,1.66-.83,6.52,6.52,0,0,1,2-.3,11.5,11.5,0,0,1,2.13.22,7.07,7.07,0,0,1,2,.74l-.66,1.17a5.87,5.87,0,0,0-1.81-.66,10.81,10.81,0,0,0-1.79-.15,4.74,4.74,0,0,0-1.35.19,4.83,4.83,0,0,0-1.17.53,2.82,2.82,0,0,0-.81.76,1.6,1.6,0,0,0-.3.92,1.53,1.53,0,0,0,.64,1.35,5.24,5.24,0,0,0,1.63.73,19.81,19.81,0,0,0,2.11.5,11.48,11.48,0,0,1,2.11.6,4.39,4.39,0,0,1,1.63,1.1,2.74,2.74,0,0,1,.64,1.93A3.44,3.44,0,0,1,88.82,119.88Z" fill="#9c61ac"/><path d="M104.4,122.06a6.08,6.08,0,0,1-1.44.21,4.4,4.4,0,0,1-1.13-.16,2.9,2.9,0,0,1-1-.52,2.41,2.41,0,0,1-.72-.88,2.93,2.93,0,0,1-.27-1.32V109.7H97.29v-1.17h2.55v-3.69l1.44-.78v4.47h3.78v1.17h-3.78v8c0,.58,0,1.08,0,1.49a2.18,2.18,0,0,0,.23,1,1.19,1.19,0,0,0,.59.56,3,3,0,0,0,1.16.18,3.49,3.49,0,0,0,.9-.1,7,7,0,0,0,1-.38l.57,1.14A6.1,6.1,0,0,1,104.4,122.06Z" fill="#9c61ac"/><path d="M121.83,110.18a3.62,3.62,0,0,0-.85-.4,3.35,3.35,0,0,0-1.07-.14,5,5,0,0,0-2.07.49,3.83,3.83,0,0,0-1.77,1.91v10h-1.44V108.83l1.44.84h.06a6.33,6.33,0,0,1,1.71-1.06,5.2,5.2,0,0,1,2.19-.47,6.34,6.34,0,0,1,1.59.15,3.87,3.87,0,0,1,1,.45Z" fill="#9c61ac"/><path d="M134.31,102.53l-2,2-2-2,2-2ZM131.46,122V108.71l1.44-.6V122Z" fill="#9c61ac"/><path d="M151.42,108.65a5.8,5.8,0,0,1,1.92,1.18,6,6,0,0,1,1.38,2,7.38,7.38,0,0,1,.53,2.91H144.63a5.36,5.36,0,0,0,.24,2.41,5.58,5.58,0,0,0,1.14,1.95,5.36,5.36,0,0,0,1.8,1.31,5.21,5.21,0,0,0,2.19.48,6.3,6.3,0,0,0,2.19-.38,8.8,8.8,0,0,0,2.1-1.15l.72,1.08a8.31,8.31,0,0,1-5.19,1.8,6.64,6.64,0,0,1-2.7-.54,6.52,6.52,0,0,1-2.13-1.48,6.63,6.63,0,0,1-1.4-2.27,8.14,8.14,0,0,1-.49-2.88,7.82,7.82,0,0,1,.46-2.73,6.62,6.62,0,0,1,1.29-2.17,5.73,5.73,0,0,1,2-1.43,6,6,0,0,1,2.48-.51A6.17,6.17,0,0,1,151.42,108.65Zm-2.14,1a4.19,4.19,0,0,0-2.88,1.06,5.22,5.22,0,0,0-1.59,2.93h8.73Q152.76,109.61,149.28,109.61Z" fill="#9c61ac"/><path d="M173.9,119.88a3.86,3.86,0,0,1-1.19,1.29A5.13,5.13,0,0,1,171,122a8.27,8.27,0,0,1-2.07.25,10,10,0,0,1-4.68-1.23l.57-1.17a22.82,22.82,0,0,0,2.32.81,7.48,7.48,0,0,0,2,.27,5,5,0,0,0,1.39-.19,4.14,4.14,0,0,0,1.2-.56,3.09,3.09,0,0,0,.86-.87,2.11,2.11,0,0,0,.33-1.17,1.44,1.44,0,0,0-.65-1.27,5.53,5.53,0,0,0-1.62-.72,21.17,21.17,0,0,0-2.11-.5,11.15,11.15,0,0,1-2.12-.61,4.74,4.74,0,0,1-1.62-1.1,2.66,2.66,0,0,1-.64-1.89,2.86,2.86,0,0,1,.41-1.47,3.92,3.92,0,0,1,1.13-1.21,5.56,5.56,0,0,1,1.65-.83,6.59,6.59,0,0,1,2-.3,11.5,11.5,0,0,1,2.13.22,7.07,7.07,0,0,1,2,.74l-.66,1.17a5.83,5.83,0,0,0-1.82-.66,10.6,10.6,0,0,0-1.78-.15,4.74,4.74,0,0,0-1.35.19,4.83,4.83,0,0,0-1.17.53,2.82,2.82,0,0,0-.81.76,1.6,1.6,0,0,0-.3.92,1.53,1.53,0,0,0,.64,1.35,5.24,5.24,0,0,0,1.63.73,19.81,19.81,0,0,0,2.11.5,11.48,11.48,0,0,1,2.11.6,4.39,4.39,0,0,1,1.63,1.1,2.79,2.79,0,0,1,.64,1.93A3.54,3.54,0,0,1,173.9,119.88Z" fill="#9c61ac"/><path d="M44.79,8.79a30,30,0,0,0,0,42.42L66,30Z" fill="url(#linear-gradient-2)"/><path d="M36,30A30,30,0,0,0,66,60V30Z" fill="url(#linear-gradient-3)"/><path d="M66,60A30,30,0,0,0,96,30H66Z" fill="url(#linear-gradient-4)"/><path d="M87.21,8.79a30,30,0,0,0-42.42,0L66,30Z" fill="url(#linear-gradient-5)"/><path d="M66,0A30,30,0,0,0,36,30H66Z" fill="url(#linear-gradient-6)"/><circle cx="66.33" cy="30" r="12" fill="url(#linear-gradient-7)"/><circle cx="66.33" cy="30" r="11" fill="url(#linear-gradient-8)"/><circle cx="66.33" cy="30" r="10" fill="url(#linear-gradient-9)"/><circle cx="66.33" cy="30" r="8" fill="url(#linear-gradient-10)"/><circle cx="66.33" cy="30" r="4" fill="#fff"/><circle cx="108" cy="30" r="30" fill="url(#linear-gradient-11)"/><circle cx="108.33" cy="30" r="12" fill="url(#linear-gradient-12)"/><circle cx="108.33" cy="30" r="2" fill="#fff"/></g></g></svg>