<svg xmlns="http://www.w3.org/2000/svg" width="95.53" height="117.57" viewBox="0 0 95.53 117.57"><g id="Layer_2" data-name="Layer 2"><g id="logos"><path d="M.71,81.26H29.32l.59,10.53H28.2a25.17,25.17,0,0,0-.88-4.42,5.88,5.88,0,0,0-1.53-2.6,5.27,5.27,0,0,0-2.55-1.24,20.42,20.42,0,0,0-3.93-.31h-2v31.56h5.38v2H7.2v-2h5.37V83.22H10.72c-1.06,0-2,0-2.81.12a8.47,8.47,0,0,0-2.14.46,4.85,4.85,0,0,0-1.57,1,5,5,0,0,0-1.12,1.57,11.47,11.47,0,0,0-.8,2.29,29.53,29.53,0,0,0-.57,3.18H0Z" fill="#444"/><path d="M36.83,106.12h1.7a15.32,15.32,0,0,0,1.08,4.63,8.68,8.68,0,0,0,2,3,6.76,6.76,0,0,0,2.71,1.55,11.36,11.36,0,0,0,3.23.45,10.66,10.66,0,0,0,3.51-.51,6.51,6.51,0,0,0,2.39-1.43,5.4,5.4,0,0,0,1.37-2.2,9,9,0,0,0,.42-2.82,6.84,6.84,0,0,0-.63-3.13,6.07,6.07,0,0,0-1.77-2.1A11.89,11.89,0,0,0,50.11,102c-1.06-.42-2.23-.86-3.49-1.31s-2.48-.94-3.63-1.44a12.36,12.36,0,0,1-3-1.88,8.27,8.27,0,0,1-2.09-2.75,9.45,9.45,0,0,1-.77-4,11.31,11.31,0,0,1,.74-4.15A8.46,8.46,0,0,1,40,83.23a9.74,9.74,0,0,1,3.58-2.06,15.23,15.23,0,0,1,5-.74c.75,0,1.53,0,2.32.11s1.59.19,2.38.33,1.57.32,2.34.53,1.48.42,2.17.67L58,90.93H56.33a13.08,13.08,0,0,0-1-4.3A7.57,7.57,0,0,0,53.51,84a6.14,6.14,0,0,0-2.41-1.29,11.3,11.3,0,0,0-6,.1,6.05,6.05,0,0,0-2.27,1.29,5.32,5.32,0,0,0-1.35,2.05,7.57,7.57,0,0,0-.46,2.72,6.3,6.3,0,0,0,.64,3A6.15,6.15,0,0,0,43.5,94a12.86,12.86,0,0,0,2.79,1.54c1.08.45,2.27.91,3.57,1.4s2.36.94,3.51,1.46a12.63,12.63,0,0,1,3.07,1.92,8.91,8.91,0,0,1,2.19,2.86,9.6,9.6,0,0,1,.83,4.21,10.68,10.68,0,0,1-.84,4.35,8.71,8.71,0,0,1-2.42,3.2,10.86,10.86,0,0,1-3.85,2,17.57,17.57,0,0,1-5.12.69,25.61,25.61,0,0,1-2.58-.13q-1.34-.12-2.64-.36c-.87-.16-1.72-.35-2.55-.56a19.75,19.75,0,0,1-2.32-.74Z" fill="#444"/><path d="M86.49,98.16a16.11,16.11,0,0,1,4.17,1.13,9,9,0,0,1,2.8,1.89A6.86,6.86,0,0,1,95,103.72a9.53,9.53,0,0,1,.49,3.06,10.19,10.19,0,0,1-.69,3.69,7.79,7.79,0,0,1-2.32,3.19,12.19,12.19,0,0,1-4.32,2.23,22.46,22.46,0,0,1-6.71.85H66.23v-2h4.88V83.22H66.23v-2H80.88a26.13,26.13,0,0,1,6.27.64,12.18,12.18,0,0,1,4.15,1.76,6.62,6.62,0,0,1,2.29,2.63,7.8,7.8,0,0,1,.69,3.27,8.58,8.58,0,0,1-.44,2.73,7.26,7.26,0,0,1-1.38,2.42,8.78,8.78,0,0,1-2.42,2,13.35,13.35,0,0,1-3.55,1.37Zm-10.62-.81h2.88A28,28,0,0,0,83.64,97a7.68,7.68,0,0,0,3.17-1.25,4.79,4.79,0,0,0,1.71-2.33A11.09,11.09,0,0,0,89,89.78a10.81,10.81,0,0,0-.34-2.89,4.14,4.14,0,0,0-1.27-2,6,6,0,0,0-2.57-1.22,18.58,18.58,0,0,0-4.29-.4H75.87Zm0,17.43H81.1a19.5,19.5,0,0,0,4.31-.4,6.31,6.31,0,0,0,2.8-1.33,5.18,5.18,0,0,0,1.53-2.43,12.75,12.75,0,0,0,.46-3.72,12.23,12.23,0,0,0-.42-3.43,4.74,4.74,0,0,0-1.59-2.36A7.71,7.71,0,0,0,85,99.74a26.08,26.08,0,0,0-5.28-.44H75.87Z" fill="#444"/><polygon points="0.29 71.03 43.8 71.03 22.25 38.5 0.29 71.03" fill="#ff4d4d"/><polygon points="48.23 0 32.1 23.9 63.33 71.03 95.29 71.03 48.23 0" fill="#444"/><polygon points="25.38 33.85 50.01 71.03 57.11 71.03 28.97 28.54 25.38 33.85" fill="#d8d9da"/></g></g></svg>