<svg xmlns="http://www.w3.org/2000/svg" xmlns:xlink="http://www.w3.org/1999/xlink" width="267.27" height="96.01" viewBox="0 0 267.27 96.01"><defs><radialGradient id="radial-gradient" cx="64.75" cy="0.79" r="94.56" gradientUnits="userSpaceOnUse"><stop offset="0" stop-color="#ade2f6"/><stop offset="0.5" stop-color="#60bce8"/><stop offset="1" stop-color="#3b6596"/></radialGradient></defs><g id="Layer_2" data-name="Layer 2"><g id="logos"><path d="M130,52V0H11S2,1,2,12,13,42,48,60s69,22,78,12-9-28-44-50a18.3,18.3,0,0,0-8,7s0-4,4-9l-8-6,10,5a31.51,31.51,0,0,1,13-1s-7,1-9,3C84,21,119,39,130,52ZM0,41v9S14,68,33,78H49S15,63,0,41ZM0,63S2,76,11,78H24S10,67,0,58Z" fill="url(#radial-gradient)"/><path d="M153.51.19h4.08l4.51,11.86L166.66.19h4.08L164.84,15l5.86,14.07L182.22,0h4.7L172.66,34.08h-3.74L162.15,18l-6.81,16.08h-3.75L137.38,0H142l11.57,29.09L159.42,15Z" fill="#4281b3"/><path d="M190.54,34.08V.05h4.32v34Z" fill="#4281b3"/><path d="M206.84,8.06v26h-4.32V0h3.36L227,26.54V.05h4.32v34h-3.64Z" fill="#4281b3"/><path d="M239,34.08V0h11.81A18,18,0,0,1,258,1.34,14.66,14.66,0,0,1,263.14,5a15.23,15.23,0,0,1,3.1,5.4,20.73,20.73,0,0,1,1,6.6,20.25,20.25,0,0,1-1.15,7,15.1,15.1,0,0,1-3.31,5.38,14.9,14.9,0,0,1-5.21,3.46,18.2,18.2,0,0,1-6.79,1.22ZM262.9,17a16.88,16.88,0,0,0-.79-5.3,11.35,11.35,0,0,0-2.35-4.15,10.91,10.91,0,0,0-3.82-2.72,12.79,12.79,0,0,0-5.13-1h-7.49v26.4h7.49a12.73,12.73,0,0,0,5.2-1,10.5,10.5,0,0,0,3.8-2.78,12.38,12.38,0,0,0,2.3-4.2A16.81,16.81,0,0,0,262.9,17Z" fill="#4281b3"/><path d="M141.08,78.08V44h4.32V74.24h19v3.84Z" fill="#4281b3"/><path d="M168.3,78.08v-34h4.33v34Z" fill="#4281b3"/><path d="M182.21,52.06v26h-4.32V44h3.36l21.12,26.54V44.05h4.32v34H203Z" fill="#4281b3"/><path d="M237.5,74.24v3.84H214.36V44h22.7v3.84H218.68v11h16v3.6h-16V74.24Z" fill="#4281b3"/><path d="M263.42,51.15a6.82,6.82,0,0,0-1.54-1.29,12.89,12.89,0,0,0-2.16-1.13,15.05,15.05,0,0,0-2.61-.82,13.61,13.61,0,0,0-3-.31c-2.66,0-4.6.5-5.84,1.49a5,5,0,0,0-1.84,4.08,4.55,4.55,0,0,0,.52,2.3A4.41,4.41,0,0,0,248.66,57a12.71,12.71,0,0,0,2.81,1.13c1.12.32,2.45.66,4,1a40.24,40.24,0,0,1,4.78,1.32,13.72,13.72,0,0,1,3.65,1.85,7.46,7.46,0,0,1,2.3,2.68,8.65,8.65,0,0,1,.79,3.89,8.92,8.92,0,0,1-1,4.25,8.6,8.6,0,0,1-2.61,3,11.29,11.29,0,0,1-3.92,1.72,20.38,20.38,0,0,1-4.89.56,22.45,22.45,0,0,1-7.46-1.23,20.8,20.8,0,0,1-6.41-3.57L242.78,70a11.59,11.59,0,0,0,2,1.63,16.59,16.59,0,0,0,2.79,1.46,19.71,19.71,0,0,0,3.36,1.06,17.06,17.06,0,0,0,3.76.41,10.41,10.41,0,0,0,5.67-1.3,4.81,4.81,0,0,0,1.37-6.31,5.56,5.56,0,0,0-1.9-1.7,14.49,14.49,0,0,0-3.1-1.28c-1.23-.36-2.63-.74-4.2-1.12A44,44,0,0,1,248,61.47a12.17,12.17,0,0,1-3.28-1.73,6.52,6.52,0,0,1-2-2.44,8.28,8.28,0,0,1-.67-3.46,9.87,9.87,0,0,1,.91-4.32,9.13,9.13,0,0,1,2.55-3.17,11.1,11.1,0,0,1,3.89-1.94,17.68,17.68,0,0,1,4.89-.65,17.22,17.22,0,0,1,11.19,3.89Z" fill="#4281b3"/><path d="M9.47,87.76H6.31V96H4.37V87.76H1.2V86.07H9.47Z" fill="#4281b3"/><path d="M53.42,96V86.07h4.39a2.85,2.85,0,0,1,1.27.29,3.25,3.25,0,0,1,1,.75,3.68,3.68,0,0,1,.66,1.07A3.12,3.12,0,0,1,61,89.37a3.33,3.33,0,0,1-.49,1.76,2.73,2.73,0,0,1-1.31,1.14L61.52,96H59.34l-2.09-3.33h-1.9V96Zm1.93-5h2.42a1.08,1.08,0,0,0,.5-.12,1.46,1.46,0,0,0,.4-.35,1.53,1.53,0,0,0,.26-.51,1.81,1.81,0,0,0,.1-.63,1.91,1.91,0,0,0-.11-.64,1.81,1.81,0,0,0-.3-.51,1.31,1.31,0,0,0-.44-.34,1.11,1.11,0,0,0-.49-.12H55.35Z" fill="#4281b3"/><path d="M104.49,96l3.92-9.94H110l3.9,9.94h-2l-.91-2.48h-3.49L106.53,96Zm4.7-7.85-1.43,4h2.82Z" fill="#4281b3"/><path d="M157.87,86.07l2.69,7.52,2.66-7.52h2L161.37,96h-1.62l-3.91-9.94Z" fill="#4281b3"/><path d="M215.9,94.32V96H209V86.07h6.77v1.69h-4.84v2.4h4.19v1.57h-4.19v2.59Z" fill="#4281b3"/><path d="M260.15,96V86.07h1.93v8.25h5.07V96Z" fill="#4281b3"/></g></g></svg>