<svg xmlns="http://www.w3.org/2000/svg" width="220.16" height="107" viewBox="0 0 220.16 107"><g id="Layer_2" data-name="Layer 2"><g id="logos"><path d="M113,63h5V52h-5Zm5-28h-5V46h5Zm13,17h-5V63h5Zm0-6V35h-5V46Zm13,6h-5V63h5ZM120,22H220V20H124V9A48.79,48.79,0,0,0,89,23.73v2.58a49.84,49.84,0,0,1,31-14.14Zm37,30h-5V63h5Zm62-17h-5V46h5ZM157,46V35h-5V46Zm-13,0V35h-5V46Zm70,17h5V52h-5ZM165,46h5V35h-5Zm13,17h5V52h-5Zm0-17h5V35h-5Zm27-21L195,35V63h10ZM165,63h5V52h-5Zm54.72,15.84c-.12,0-.18,0-.19.08a2.5,2.5,0,0,1-.46.77,1.85,1.85,0,0,1-.52.46,3.26,3.26,0,0,1-1.53.36h-.36c-.57,0-.88-.07-.93-.22a3.25,3.25,0,0,1-.11-1V77.21q0-.12,1-.12a2.9,2.9,0,0,1,1.06.11l.06,0,.05,0a.25.25,0,0,1,.05.07l.06.12c0,.05,0,.12.07.21s.06.2.09.32.1.11.22.11a.54.54,0,0,0,.29,0V75.46a.52.52,0,0,0-.3-.06q-.19,0-.21.09c0,.13-.06.26-.08.4s-.06.36-.11.4a4.14,4.14,0,0,1-.93,0h-.72c-.39,0-.59,0-.59-.08V74.15a5.31,5.31,0,0,1,.07-1.06c0-.12.31-.18.89-.18h.52a2,2,0,0,1,1.09.37,2.24,2.24,0,0,1,.82.89.19.19,0,0,0,.19.09c.17,0,.27,0,.32-.07-.26-1.25-.39-1.93-.4-2l-2.3,0c-1,0-1.71,0-2.12,0-.61,0-1.28,0-2-.07a.55.55,0,0,0,0,.26c0,.16,0,.25.06.25a1.68,1.68,0,0,1,.51.13c.24.09.38.18.4.25a4.35,4.35,0,0,1,.09,1.07v5.16a5.23,5.23,0,0,1-.09,1.21c0,.07-.15.14-.39.2a2.44,2.44,0,0,1-.51.1s-.05.09-.05.27a.37.37,0,0,0,.05.23l2-.08,2.46,0,2.21,0a21,21,0,0,1,.74-2.36A.67.67,0,0,0,219.75,78.84Zm-17.44-6.6h-2.37c-.61,0-1.28,0-2-.07,0,0,0,.11,0,.26s0,.25.05.25a1.68,1.68,0,0,1,.51.13c.24.09.38.18.41.25a5.1,5.1,0,0,1,.08,1.07v5.16a6.13,6.13,0,0,1-.08,1.21c0,.07-.16.14-.39.2a2.62,2.62,0,0,1-.52.1s0,.09,0,.27a.37.37,0,0,0,0,.23l2-.08,1.28,0,1.07,0a4.46,4.46,0,0,0,4.76-4.64,4.33,4.33,0,0,0-1.26-3.09A4.59,4.59,0,0,0,202.31,72.24Zm2,7.3a2,2,0,0,1-1.78,1,4.23,4.23,0,0,1-1.55-.17q-.12-.07-.12-1V74.08a1.53,1.53,0,0,1,.18-.86c.11-.14.55-.22,1.33-.22h.06a2.06,2.06,0,0,1,1.84,1,4.62,4.62,0,0,1,.67,2.55A5.54,5.54,0,0,1,204.3,79.54Zm-13.06-6.05a3.26,3.26,0,0,1,.06-.46c0-.06.15-.13.4-.21a2.11,2.11,0,0,1,.49-.12s.06-.08.06-.26a1,1,0,0,0,0-.24l-1.92.08h-.65l-.67,0-.66,0a.61.61,0,0,0,0,.27c0,.16,0,.23.06.23a1.47,1.47,0,0,1,.46.12.8.8,0,0,1,.38.22,2.81,2.81,0,0,1,.11,1.07v5.25a5.06,5.06,0,0,1-.09,1.1c0,.07-.16.14-.4.22a1.86,1.86,0,0,1-.5.12s0,.09,0,.28,0,.19.05.22l.9-.06c.48,0,.84,0,1.08,0s.6,0,1.08.06l.82,0a.7.7,0,0,0,0-.24c0-.18,0-.26-.05-.26a1.63,1.63,0,0,1-.48-.13c-.23-.08-.35-.15-.37-.21a4.82,4.82,0,0,1-.11-1.21V74C191.21,73.85,191.22,73.69,191.24,73.49Zm-8.92,4A1.62,1.62,0,0,0,182,77c-.17-.16-.3-.27-.39-.34s-.26-.17-.49-.3l-.45-.28a.93.93,0,0,1-.19-.12l-.67-.44a4.87,4.87,0,0,1-.53-.41,2.14,2.14,0,0,1-.46-.53,1.12,1.12,0,0,1-.13-.53,1.19,1.19,0,0,1,.32-.92,1.15,1.15,0,0,1,.79-.29,1.49,1.49,0,0,1,1.21.63,2.63,2.63,0,0,1,.59,1.3c0,.06.16.1.42.1a.22.22,0,0,0,.21-.14,20.58,20.58,0,0,0-.15-2.27l-.6-.13-.58-.13-.52-.08a4.22,4.22,0,0,0-.6,0,3.15,3.15,0,0,0-2,.72,2.18,2.18,0,0,0-.91,1.75,2.55,2.55,0,0,0,.13.86,1.84,1.84,0,0,0,.44.69,4.43,4.43,0,0,0,.54.49c.15.12.38.28.68.48a1.53,1.53,0,0,0,.21.13,4.66,4.66,0,0,0,.44.29l.54.36c.13.09.27.21.44.35a2.1,2.1,0,0,1,.37.45,1,1,0,0,1,.12.46c0,1-.45,1.49-1.35,1.49A1.73,1.73,0,0,1,178.1,80a2.58,2.58,0,0,1-.68-1.26c0-.06-.15-.09-.44-.09-.13,0-.22,0-.24.14a8.64,8.64,0,0,0,.1,1.07q.1.77.21,1.2a11.46,11.46,0,0,0,2.6.35,3.24,3.24,0,0,0,2.08-.71,2.23,2.23,0,0,0,.9-1.81,2.83,2.83,0,0,0-.1-.8A2.48,2.48,0,0,0,182.32,77.47Zm-20.14-5.29c-.38,0-.88,0-1.5,0s-1.13,0-1.51,0-.88,0-1.49,0-1.12,0-1.5,0a4.28,4.28,0,0,1-1-.15L155,74.26a.57.57,0,0,0,.4.1c.08,0,.13,0,.14-.07a2.07,2.07,0,0,1,.54-1A1.35,1.35,0,0,1,157,73a3.64,3.64,0,0,1,.75,0,1,1,0,0,1,.3.08.54.54,0,0,1,.07.12,3.54,3.54,0,0,1,.11,1.25v5a4.78,4.78,0,0,1-.09,1.06c0,.07-.16.14-.4.22a1.91,1.91,0,0,1-.51.12s0,.09,0,.28a.29.29,0,0,0,.06.22l.9-.06c.47,0,.83,0,1.08,0s.6,0,1.08.06l.82,0a.7.7,0,0,0,0-.24c0-.18,0-.26-.06-.26a1.59,1.59,0,0,1-.47-.13c-.23-.08-.36-.15-.38-.21a4.89,4.89,0,0,1-.1-1.11V74.41a5,5,0,0,1,.1-1.21c0-.17.43-.25,1.17-.25s1.23.45,1.46,1.35c0,0,.05.07.14.07a.58.58,0,0,0,.39-.09L163.12,72A4.12,4.12,0,0,1,162.18,72.18ZM137.3,78.92a2.5,2.5,0,0,1-.46.77,1.85,1.85,0,0,1-.52.46,3.27,3.27,0,0,1-1.54.36h-.35c-.58,0-.88-.07-.93-.22a3.25,3.25,0,0,1-.11-1V77.21c0-.08.33-.12,1-.12a2.93,2.93,0,0,1,1.07.11l.06,0,.05,0a.25.25,0,0,1,0,.07,1.34,1.34,0,0,1,.06.12c0,.05,0,.12.07.21s.06.2.09.32.1.11.22.11a.54.54,0,0,0,.29,0V75.46a.52.52,0,0,0-.3-.06q-.19,0-.21.09c0,.13-.06.26-.08.4s-.06.36-.11.4a4.14,4.14,0,0,1-.93,0H134c-.39,0-.59,0-.59-.08V74.15a5.31,5.31,0,0,1,.07-1.06c0-.12.31-.18.89-.18h.52a2,2,0,0,1,1.09.37,2.24,2.24,0,0,1,.82.89.19.19,0,0,0,.19.09c.17,0,.27,0,.32-.07-.26-1.25-.39-1.93-.4-2l-2.3,0c-1,0-1.71,0-2.12,0-.61,0-1.28,0-2-.07a.55.55,0,0,0,0,.26c0,.16,0,.25.06.25a1.68,1.68,0,0,1,.51.13c.24.09.38.18.4.25a4.35,4.35,0,0,1,.09,1.07v5.16a5.23,5.23,0,0,1-.09,1.21c0,.07-.15.14-.39.2a2.44,2.44,0,0,1-.51.1s-.05.09-.05.27a.37.37,0,0,0,.05.23l2-.08,2.46,0,2.21,0a21,21,0,0,1,.74-2.36.67.67,0,0,0-.41-.08C137.37,78.84,137.31,78.87,137.3,78.92Zm11.77-1.45a1.82,1.82,0,0,0-.37-.46,3.86,3.86,0,0,0-.4-.34c-.09-.06-.25-.17-.48-.3l-.45-.28a.93.93,0,0,1-.19-.12l-.67-.44a4.06,4.06,0,0,1-.53-.41,2,2,0,0,1-.46-.53,1.12,1.12,0,0,1-.13-.53,1.16,1.16,0,0,1,.32-.92,1.12,1.12,0,0,1,.78-.29,1.49,1.49,0,0,1,1.22.63,2.73,2.73,0,0,1,.59,1.3c0,.06.16.1.42.1a.22.22,0,0,0,.21-.14,20.58,20.58,0,0,0-.15-2.27l-.6-.13-.59-.13-.52-.08a4,4,0,0,0-.59,0,3.13,3.13,0,0,0-2,.72,2.18,2.18,0,0,0-.91,1.75,2.55,2.55,0,0,0,.13.86,1.81,1.81,0,0,0,.43.69,6.66,6.66,0,0,0,.54.49l.69.48.2.13c.07.05.21.15.45.29l.54.36a5.14,5.14,0,0,1,.43.35,1.63,1.63,0,0,1,.37.45.87.87,0,0,1,.13.46c0,1-.45,1.49-1.36,1.49a1.71,1.71,0,0,1-1.27-.64,2.58,2.58,0,0,1-.68-1.26c0-.06-.16-.09-.44-.09s-.22,0-.25.14a9.25,9.25,0,0,0,.11,1.07q.1.77.21,1.2a11.46,11.46,0,0,0,2.6.35,3.21,3.21,0,0,0,2.07-.71,2.22,2.22,0,0,0,.91-1.81,3.24,3.24,0,0,0-.1-.8A2.48,2.48,0,0,0,149.07,77.47ZM123.4,72.28c-.21,0-.75,0-1.62-.08,0,0-.06.13,0,.27s0,.22.06.22a2.25,2.25,0,0,1,.61.1c.24.07.36.18.36.34a1.89,1.89,0,0,1-.25.68l-2.33,4.64c-.08.12-.13.14-.18,0l-1.19-2.34,1-1.88a5.24,5.24,0,0,1,.76-1.18,1.31,1.31,0,0,1,.47-.28,1.44,1.44,0,0,1,.53-.13s0-.08,0-.21a.9.9,0,0,0,0-.28l-1.71.08c-.21,0-.75,0-1.63-.08a.42.42,0,0,0,0,.27c0,.15,0,.22.06.22l.33,0a1.66,1.66,0,0,1,.44.13c.16.07.24.16.24.28a2.53,2.53,0,0,1-.27.71l-.66,1.3-.79-1.58-.17-.42a.34.34,0,0,1,.21-.33.94.94,0,0,1,.42-.11s0-.08,0-.22a1.21,1.21,0,0,0,0-.28l-1.8.08-1.9-.08a.5.5,0,0,0,0,.24c0,.18,0,.26,0,.26a1.12,1.12,0,0,1,.8.34,6,6,0,0,1,.59,1l1.5,3-.85,1.5c-.09.15-.16.17-.2.07l-2.52-5-.16-.42c0-.31.21-.47.63-.47,0,0,0-.08,0-.22s0-.23,0-.28l-1.86.08-1.95-.08a.84.84,0,0,0,0,.24c0,.18,0,.26.05.26a1.78,1.78,0,0,1,.45.08.72.72,0,0,1,.37.21,5.94,5.94,0,0,1,.63,1.05l3.71,7.32a.13.13,0,0,0,.12.07c.15,0,.3-.15.46-.44l1.65-2.93,1.68,3.3a.16.16,0,0,0,.15.07c.16,0,.32-.15.46-.44l3.38-6.71a5.75,5.75,0,0,1,.79-1.21,1.3,1.3,0,0,1,.45-.26,1.57,1.57,0,0,1,.52-.12s0,0,0-.15a.94.94,0,0,0,0-.34Z" fill="#b79a4a"/><path d="M180.86,89.34c0-.13.3-.26.79-.41a4.88,4.88,0,0,1,1-.22c.08,0,.11-.15.11-.46a1.25,1.25,0,0,0-.08-.44l-3.5.16c-.49,0-1.2,0-2.12-.08l-1.52-.08a1.27,1.27,0,0,0-.05.49c0,.28,0,.41.11.41a3.51,3.51,0,0,1,1,.21c.44.13.7.28.77.42a8.46,8.46,0,0,1,.22,2.3v10.55a9.85,9.85,0,0,1-.22,2.3c-.06.15-.32.28-.78.41a4.2,4.2,0,0,1-1,.19c-.07,0-.1.18-.1.52a.54.54,0,0,0,.1.38l1.17-.06,1.32-.07,1.15,0,3.47.16a1.08,1.08,0,0,0,.06-.38c0-.34,0-.52-.11-.52a4.47,4.47,0,0,1-.94-.2c-.47-.14-.72-.27-.76-.4a10.41,10.41,0,0,1-.24-2.46V91.75A10,10,0,0,1,180.86,89.34Zm17.74-1.53-3,.1q-1.86.06-3,.06c-.79,0-1.79,0-3-.06l-3-.1a9.17,9.17,0,0,1-1.89-.27l-.52,4.15a.91.91,0,0,0,.71.22c.17,0,.26,0,.28-.16a4,4,0,0,1,1-2,3,3,0,0,1,2-.53c1.59,0,2.46.15,2.6.46a7.32,7.32,0,0,1,.25,2.65v9.9a8.44,8.44,0,0,1-.22,2.27c-.05.15-.31.28-.78.41a4.23,4.23,0,0,1-1,.19c-.08,0-.11.17-.11.49a.6.6,0,0,0,.11.44l1.59-.11c.87,0,1.55-.08,2-.08l1.14,0c.39,0,.82,0,1.28.08l1.05.08a1.29,1.29,0,0,0,.06-.44c0-.32,0-.49-.11-.49a4.83,4.83,0,0,1-1-.2c-.47-.14-.72-.27-.74-.4a9.52,9.52,0,0,1-.24-2.38V92.24a9.81,9.81,0,0,1,.24-2.57c.08-.31,1-.46,2.66-.46a3,3,0,0,1,2,.53,4,4,0,0,1,1,2c0,.09.12.13.27.13a1,1,0,0,0,.74-.19l-.52-4.18A9.17,9.17,0,0,1,198.6,87.81Zm-25.3,10.8a4.29,4.29,0,0,0-.84-.93c-.38-.33-.67-.56-.87-.7s-.55-.35-1.06-.65a9.89,9.89,0,0,1-.91-.59q-.13-.06-.78-.45c-.43-.26-.7-.44-.82-.53l-.68-.5a3.28,3.28,0,0,1-.69-.58l-.46-.59a2.08,2.08,0,0,1-.39-.73,3.21,3.21,0,0,1-.09-.78,2.65,2.65,0,0,1,.67-1.91,2.53,2.53,0,0,1,1.93-.71,3.12,3.12,0,0,1,2.46,1.2,4.85,4.85,0,0,1,1.17,2.46c0,.17.3.25.8.25a.29.29,0,0,0,.32-.25,25.4,25.4,0,0,0-.32-4.21c-.26,0-.73-.17-1.41-.34s-1.22-.29-1.6-.34a8.93,8.93,0,0,0-1.34-.08,6,6,0,0,0-3.88,1.4,4.33,4.33,0,0,0-1.73,3.46A4.18,4.18,0,0,0,163,94a5.35,5.35,0,0,0,.59,1.15,5.55,5.55,0,0,0,1,1c.43.35.78.62,1.05.8s.68.44,1.21.77a2,2,0,0,1,.3.22l.83.48c.39.22.69.4.89.53s.45.31.75.55a4,4,0,0,1,.69.65,3.42,3.42,0,0,1,.41.74,2.52,2.52,0,0,1,.17.9,3,3,0,0,1-.84,2.3,3.09,3.09,0,0,1-2.14.77,3.79,3.79,0,0,1-1.82-.43,3.6,3.6,0,0,1-1.28-1.09,8,8,0,0,1-.75-1.26,6,6,0,0,1-.39-1.08c-.05-.15-.31-.22-.79-.22-.27,0-.42.07-.44.22a18.33,18.33,0,0,0,.21,2c.14,1,.29,1.81.45,2.47a25.58,25.58,0,0,0,5,.77,6.33,6.33,0,0,0,4.09-1.43,4.41,4.41,0,0,0,1.76-3.61,4.46,4.46,0,0,0-.22-1.43A5.36,5.36,0,0,0,173.3,98.61Zm46.06-10.8-.84.07-1,.07c-.33,0-.71,0-1.13,0s-1.44,0-3.28-.16a.89.89,0,0,0-.08.49c0,.26,0,.39.1.39a3.14,3.14,0,0,1,1.33.23c.34.15.51.33.51.53a7.34,7.34,0,0,1-1.1,2.35c-.73,1.24-1.48,2.45-2.27,3.61q-.13.2-.27.06l-2.9-5.31a1.72,1.72,0,0,1-.24-.71c0-.25.18-.45.54-.57a3,3,0,0,1,1-.19s.08-.13.09-.39a1.17,1.17,0,0,0,0-.49c-2.19.11-3.44.16-3.77.16-2,0-3.17,0-3.61.06a.77.77,0,0,0,0,.38c0,.18,0,.28.09.28a3.18,3.18,0,0,1,.78.15,2.62,2.62,0,0,1,.81.34,5.29,5.29,0,0,1,1.42,1.88l1.1,2,1.06,1.9c.22.39.48.85.77,1.39s.49.94.61,1.2a1.77,1.77,0,0,1,.18.54v4a9.56,9.56,0,0,1-.22,2.41c0,.15-.31.29-.76.44a4.07,4.07,0,0,1-1,.22s-.08.14-.08.43a.65.65,0,0,0,.11.44l1.57-.11c.85,0,1.52-.08,2-.08l1.12,0c.39,0,.81,0,1.26.08l1,.08a1.29,1.29,0,0,0,.06-.44c0-.29,0-.43-.11-.43a3.78,3.78,0,0,1-.92-.24c-.46-.15-.72-.29-.75-.42a10.18,10.18,0,0,1-.22-2.46V97.76a21,21,0,0,1,2.05-3.67q2.05-3.33,2.84-4.5a2.22,2.22,0,0,1,1.06-.66,3.87,3.87,0,0,1,1.13-.24c.07,0,.11-.15.11-.44A2.2,2.2,0,0,0,219.36,87.81Zm-143.43.1c-.76.06-1.37.09-1.82.09s-1.48-.06-3.45-.19a.92.92,0,0,0-.07.49c0,.26,0,.39.13.39a4.62,4.62,0,0,1,1.16.23,1.79,1.79,0,0,1,1,.48,5.57,5.57,0,0,1,.27,2.18v6.68c0,2.13-.42,3.66-1.27,4.58a4.37,4.37,0,0,1-3.38,1.38,3.92,3.92,0,0,1-3.37-1.68A7.54,7.54,0,0,1,63.88,98V91.75a9.78,9.78,0,0,1,.22-2.41c0-.14.27-.29.76-.42a4.66,4.66,0,0,1,1-.21c.07,0,.11-.15.11-.46a1.67,1.67,0,0,0-.06-.44c-2,.11-3.17.16-3.5.16l-3.63-.16a.8.8,0,0,0-.09.49c0,.28,0,.41.11.41a3.63,3.63,0,0,1,1,.21c.44.13.69.28.76.42a7.43,7.43,0,0,1,.22,2.3v6c0,2.94.63,5.06,1.89,6.38a6.77,6.77,0,0,0,5.17,2,8.72,8.72,0,0,0,2.77-.41,6.14,6.14,0,0,0,2.18-1.3,5.76,5.76,0,0,0,1.47-2.44,11.44,11.44,0,0,0,.52-3.67V91.72a6.15,6.15,0,0,1,.3-2.27,1.8,1.8,0,0,1,1-.56,5,5,0,0,1,1.18-.2c.07,0,.11-.15.11-.44a1.46,1.46,0,0,0-.06-.44C77.15,87.81,76.68,87.84,75.93,87.91Zm28.88,1.43c0-.13.3-.26.8-.41a4.88,4.88,0,0,1,1-.22c.07,0,.11-.15.11-.46a1.52,1.52,0,0,0-.08-.44l-3.5.16c-.49,0-1.2,0-2.12-.08l-1.52-.08s0,.2,0,.49,0,.41.11.41a3.58,3.58,0,0,1,1,.21,1.35,1.35,0,0,1,.77.42,8.46,8.46,0,0,1,.22,2.3v10.55a9.85,9.85,0,0,1-.22,2.3c-.06.15-.32.28-.78.41a4.28,4.28,0,0,1-1,.19c-.07,0-.11.18-.11.52a.54.54,0,0,0,.11.38l1.16-.06,1.33-.07,1.15,0,3.47.16a1.08,1.08,0,0,0,.06-.38c0-.34,0-.52-.11-.52a4.52,4.52,0,0,1-1-.2c-.46-.14-.71-.27-.75-.4a10.35,10.35,0,0,1-.25-2.46V91.75A10.54,10.54,0,0,1,104.81,89.34Zm36.37,12a5.6,5.6,0,0,1-.85,1.67,3.19,3.19,0,0,1-1,1,7.39,7.39,0,0,1-3.26.57h-1c-1.15,0-1.77-.12-1.86-.35A7.56,7.56,0,0,1,133,102V97.76c0-.14.65-.22,2-.22a7.65,7.65,0,0,1,2.51.22l.23.17a1.29,1.29,0,0,1,.2.38,9.25,9.25,0,0,1,.34,1.09c.05.15.2.22.44.22s.44,0,.51-.11V94.35a.68.68,0,0,0-.51-.14c-.28,0-.42.06-.44.19s-.11.41-.17.68c-.11.55-.26.87-.46,1a7,7,0,0,1-1.89.14h-1.53c-.8,0-1.2-.06-1.2-.17V91.72a11.21,11.21,0,0,1,.16-2.21c0-.24.73-.36,2.08-.36h1.42a3.43,3.43,0,0,1,3.5,2.43.37.37,0,0,0,.38.2.85.85,0,0,0,.58-.14l-.36-1.6c-.22-1-.36-1.74-.43-2.28-1,0-2.57,0-4.6.09s-3.43.1-4.24.1c-1.22,0-2.43,0-3.63-.11-.08.07-.11.24-.11.49s0,.41.11.41a4.21,4.21,0,0,1,1.09.19c.46.13.71.29.77.49a9.12,9.12,0,0,1,.19,2.25V102a10.3,10.3,0,0,1-.19,2.49c-.08.16-.34.31-.8.42a4.4,4.4,0,0,1-1,.18s-.08.16-.08.47a.73.73,0,0,0,.08.43l3.64-.11q1.4,0,4.83,0c2.28.06,3.79.08,4.52.08a8,8,0,0,1,.25-1.06c.13-.44.24-.81.35-1.11l.48-1.33.4-1.12a1.2,1.2,0,0,0-.77-.16C141.33,101.21,141.2,101.26,141.18,101.37ZM125.46,87.91c-.62,0-1.17.06-1.64.06s-1,0-1.73-.08-1.14-.08-1.31-.08a1.74,1.74,0,0,0-.07.51c0,.26,0,.39.1.39a3.5,3.5,0,0,1,1.3.26c.43.18.64.43.64.75a5.44,5.44,0,0,1-.55,1.89l-4,9.43a3.15,3.15,0,0,1-.35-.65c-.24-.47-.52-1.08-.85-1.82s-.6-1.39-.82-1.95c-.15-.31-.33-.76-.55-1.34a42.19,42.19,0,0,1-2.08-5.61.68.68,0,0,1,.39-.59,2.45,2.45,0,0,1,.73-.3,3.88,3.88,0,0,1,.58-.07c.07,0,.11-.13.11-.39a1,1,0,0,0-.08-.51c-2.25.11-3.49.16-3.75.16-.49,0-1.18,0-2.05-.08l-1.5-.08a.87.87,0,0,0-.09.49c0,.28,0,.41.11.41a3.64,3.64,0,0,1,1,.21,1.34,1.34,0,0,1,.85.56c.27.53.62,1.34,1,2.43l5.63,14a.51.51,0,0,0,.44.28c.44,0,.79-.33,1.07-1l5.68-13.32a22.29,22.29,0,0,1,1.18-2.4,2.06,2.06,0,0,1,.91-.59,3,3,0,0,1,1-.2s0-.16,0-.47a1.37,1.37,0,0,0,0-.41Zm-29,0q-1.12.09-1.83.09c-.35,0-1.5-.06-3.45-.19a1,1,0,0,0-.06.51c0,.26,0,.39.12.39a6,6,0,0,1,1.22.19c.51.13.82.31.91.52a6.8,6.8,0,0,1,.27,2.19v7.44a7.47,7.47,0,0,1-.05,1.12c-.58-.8-1.68-2.26-3.28-4.36s-2.87-3.8-3.79-5.09a28.2,28.2,0,0,1-1.9-2.91c-1,.09-1.86.14-2.46.14-.26,0-1.34,0-3.25-.14-.08.07-.11.25-.1.52s.05.41.12.41a7,7,0,0,1,1.22.16c.56.11.87.23.94.36a4.48,4.48,0,0,1,.3,2V102a6.33,6.33,0,0,1-.27,2.3,1.53,1.53,0,0,1-1,.62,5.46,5.46,0,0,1-1.24.2c-.07,0-.11.15-.11.44a.68.68,0,0,0,.11.46l1.43-.09c.72-.05,1.33-.07,1.82-.07l3.42.16a1.37,1.37,0,0,0,0-.52c0-.25,0-.38-.09-.38a5.87,5.87,0,0,1-1.23-.23c-.59-.15-.92-.34-1-.56a7.9,7.9,0,0,1-.21-2.24V91L94,105.42q.44.63.87.63a1,1,0,0,0,.6-.11c-.07-1.9-.1-3.17-.1-3.83V91.75a6.41,6.41,0,0,1,.3-2.27,1.71,1.71,0,0,1,1-.56,5.07,5.07,0,0,1,1.17-.21c.07,0,.11-.15.11-.46a1.32,1.32,0,0,0,0-.44C97.71,87.81,97.25,87.84,96.5,87.91Zm62.63,16.35a12.19,12.19,0,0,1-2.06-2A32.32,32.32,0,0,1,154,97.6c-.08-.13,0-.22.1-.27a5.34,5.34,0,0,0,2.33-1.86,4.67,4.67,0,0,0,1-2.79,4.43,4.43,0,0,0-.41-1.92,3.86,3.86,0,0,0-1.07-1.36,6.65,6.65,0,0,0-1.49-.88,8.45,8.45,0,0,0-1.61-.5,7.92,7.92,0,0,0-1.49-.15l-2,0-1.9,0c-.49,0-1.71,0-3.64-.08-.07,0-.11.22-.11.49s0,.41.11.41a4.22,4.22,0,0,1,1.06.23c.48.16.75.31.8.45a10.7,10.7,0,0,1,.17,2.25V102a10.68,10.68,0,0,1-.17,2.49c-.07.16-.34.31-.8.42a4.7,4.7,0,0,1-1.06.18c-.05,0-.08.15-.08.44a1,1,0,0,0,.08.49l.55,0,1.46-.07c.61,0,1.17,0,1.66,0s1.87,0,3.88.16a1.42,1.42,0,0,0,.05-.46c0-.31,0-.47-.1-.47a6.06,6.06,0,0,1-1.22-.2c-.56-.14-.86-.32-.92-.54A8.74,8.74,0,0,1,149,102V98.17c0-.31.15-.46.44-.46a1.84,1.84,0,0,1,.66.08,1.76,1.76,0,0,1,.45.3,6.6,6.6,0,0,1,.56.66c.22.29.41.57.59.83s.42.64.75,1.14l.87,1.28a12.13,12.13,0,0,0,1.15,1.53,11.69,11.69,0,0,0,1.38,1.25,6,6,0,0,0,2,1,9.07,9.07,0,0,0,2.53.33,4.88,4.88,0,0,0,.85-.06,1.1,1.1,0,0,0,.11-.49.82.82,0,0,0-.11-.44A3.53,3.53,0,0,1,159.13,104.26Zm-5.88-8.82a2.33,2.33,0,0,1-1.82,1h-.71a3.64,3.64,0,0,1-1.28-.19.78.78,0,0,1-.47-.8V92.27c0-1.81.13-2.75.33-2.85a4.66,4.66,0,0,1,1.59-.19q3.17,0,3.17,3.72A3.73,3.73,0,0,1,153.25,95.44ZM78.85,65.62c1-.33.3-1.56.92-2.19,1.2,1,1.29,3.91,3.45,3.08A9.48,9.48,0,0,0,84,68.62a3.41,3.41,0,0,0-.49,1.16l.74-.18c0,.34,0,.67.08,1-1.23.59-1.26,1.76-.82,2.92.9-.36,1.68-1,2.68-.6l.28.31c.86-1,0-2.22.41-3.39-4.36-.5-2.56-2.78.23-3.8,0,.37-.09.72-.13,1.09a1.27,1.27,0,0,1,1.23.43c.26,0,.53,0,.79,0A2.39,2.39,0,0,0,88,66.19c.16-.06.31-.15.47-.21-.19-1.64,2.14-1.91,1.55-3.77.27-.19.78-.29.76-.7a3.61,3.61,0,0,0-.82-1.39c-.53.11-.69.74-1,1.11a9,9,0,0,1-1.53-.74c-.18.41-.39.8-.59,1.21-1.13-.43-2.17.24-3.23.53a6.52,6.52,0,0,1,.29-1.72c-.49-.26-.49-.77-.41-1.26l.8-.23c.08-.24.14-.51.22-.77a9.58,9.58,0,0,0,1.31-1c.3.4.65.79,1,1.18a2.24,2.24,0,0,0,1-2.51c-.25.26-.49.53-.74.82a4.25,4.25,0,0,1-.16-1.94c-.65-.11-1.31-.25-1.94-.39.1-.45.2-.88.31-1.33l-1.33.63c0-.26.06-.53.1-.79a2.4,2.4,0,0,1-2.86.39,3.27,3.27,0,0,0,0-2.05,3.67,3.67,0,0,0,2.19-1.69l.45.16c.22-1-.4-1.39-1.25-1.55-.06.47-.1.94-.16,1.43l-.65-.24c0-.33,0-.66,0-1L81,48.24a5.39,5.39,0,0,0,1.1-2c1.16,1,2.26-.37,3.17-1.06l-.47.73.18.27-.65.1a6.4,6.4,0,0,1-.14.63l.44-.12c0,.08.11.29.13.37.18-.18.36-.37.55-.53l.67.55.49-.14c-.14-.33-.3-.64-.45-1,.15-.29.31-.57.47-.86-.26-.47-.55-1.23.17-1.43,1.06,1.16,1.67-.21,1.55-1.27-.51-.14-1-.32-1.53-.49-.07-.2-.15-.38-.23-.59l-.37.76c-.71.16-1,.88-1.26,1.51a4.13,4.13,0,0,0-2.08-.84c-.6-1.06.34-1.58,1-2.24l.85.69c-.07-1.15,0-2.67,1.49-2.8a4.17,4.17,0,0,0-.22,2.21c.14-.25.29-.49.43-.72.12.31.24.6.37.9a5,5,0,0,1,1-1.35,11.74,11.74,0,0,1-.86-.87c.8-.39,1.51.14,2.18.51.07-.29.11-.57.15-.84l-.86,0c1-1,1-2-.45-2.49-.08-.86,0-1.84-.78-2.43a3.43,3.43,0,0,1-2.32.18l.53-1.08a1.31,1.31,0,0,0-1.35.35c-.06-.33-.12-.63-.2-1a5.26,5.26,0,0,0,1.73-.19c.65-1.21-.25-1.91-.75-2.91-.53-.11-1.07-.23-1.58-.37.24-1.48-1.42-2.36-.38-3.88a2.38,2.38,0,0,0,1.79.77c0-.32.11-.67.15-1,.26,0,.55,0,.83,0C84.05,22,82.75,23,83,19.29a9.37,9.37,0,0,0-1.28-.88,4,4,0,0,0-.94,2.29,7.49,7.49,0,0,1-2.29-1.9,4.09,4.09,0,0,1-1.55.43c.12-.53.26-1.06.41-1.59.32.2.63.41,1,.59.48-1.16-.82-2.1-1.88-2,.06-1.19,1.38-1.59,1.51-2.73a2.33,2.33,0,0,1-.86-.35,5.53,5.53,0,0,1,.43-3.39A4.15,4.15,0,0,0,77,9.7c.24-.33.47-.66.71-1a3.32,3.32,0,0,1-1.47,0c.25.45.49.9.76,1.34a2.32,2.32,0,0,0-2.1,1.62l-.49-.43L74,12.37a3,3,0,0,1-.8-1.9l-.65,1.09L72,11.41a4.59,4.59,0,0,0-.86-3.28c-.2.2-.41.38-.61.59l-.41-.1c.06-.25.12-.47.2-.72a17,17,0,0,1-1.85-.82A5.57,5.57,0,0,1,68.7,6a8,8,0,0,0-1.35-.55c.27-.24.53-.49.8-.75l-.9.14c-.35,2.32-1.93.43-2.63,2.51.3,0,.61,0,.92.08a6.51,6.51,0,0,0-.39.74c1.61,1.9-3.28,1.08-2.53-.64a6.7,6.7,0,0,0-1.54,1.41,9.37,9.37,0,0,0,.21-2.18l-.51.14L60.47,8l-1.06.19c0-.49,0-1,0-1.47-.39,2.07-3,2.4-2.55-.11-1.47,0-2.37-1.15-3.37-2-1.27,1.16-.34,2.56.76,3.39-.6.14-1.19.25-1.78.33C52.08,7.51,51,7,51.39,6c-1.1-.59-2.46-3.14-.66-3.55,1.32.61,1.77,0,2.33-1.18.27-.07.53-.11.8-.17C53.63.73,53.39.37,53.14,0c-.14.31-.28.61-.41.94a10.9,10.9,0,0,1-1.4,0c.18.39.34.77.51,1.16l-.74-.65c-.22.14-.43.31-.65.45,0-.23,0-.45.06-.7C49.65,1.55,49,2,48.82,3a10.65,10.65,0,0,0-1.13,0c.08-.37.15-.73.23-1.1-.21.16-.41.35-.62.51-.16-.16-.34-.31-.51-.47,0,.24,0,.49,0,.73l-.89-.28a10.28,10.28,0,0,0-.27,1.43,3.53,3.53,0,0,0-.94-.29c-.91.6-.31,1.55.43,2L45,6.21a2.43,2.43,0,0,1-1.55-.45c.35-1-.41-1.84-1.17-2.45.08-.29.19-.57.29-.86a12.08,12.08,0,0,0-1.29.31c0,.36-.06.73-.1,1.1l-.73-.21c.06,1.07.89,2.07.32,3.15h-.26c-.86-1.95-.43-5.1-3.15-5.53-.42,1,0,2.69,1.37,2.2C39,4.31,38.46,5,38,5.66a8.41,8.41,0,0,0-.84-.11c.18-.63.39-1.26.53-1.92-1.25.39-1.31,1.54-1,2.62-.41.14-.82.3-1.23.47a4.13,4.13,0,0,0-1.63-1.58,4.23,4.23,0,0,0,.47,2.29c.35-.08.69-.14,1-.2-.14.32-.16.75-.45,1a8.52,8.52,0,0,0-1.24.1,2.77,2.77,0,0,0-.27.61,8.32,8.32,0,0,0-1.08-.86,6.37,6.37,0,0,1-.72.41c-.14-.16-.28-.3-.42-.47A2,2,0,0,0,30,8.64a14,14,0,0,1-.06,1.83c-.6-2.79-3.73-1-1.61.84,0,.2-.1.41-.15.61A2.56,2.56,0,0,1,26.66,10a6.11,6.11,0,0,1-1.28.13c.08.18.16.34.24.53a1.73,1.73,0,0,1-1,.45,4.32,4.32,0,0,1,.17-.94,9,9,0,0,1,1.36-.84l-.61-.41a4.11,4.11,0,0,0-1,3c-.31.29-.69-.12-1-.2.12.41.24.82.37,1.22a19.64,19.64,0,0,0-2.62.54c.13.08.39.24.51.3,0,.37,0,.72,0,1.06l.55.35.66-.35c.55.64,1.51.7,1.92,1.49a4.14,4.14,0,0,0,.57-1.69A9.38,9.38,0,0,0,26,16.6a14.11,14.11,0,0,0,.59-1.88c.17.37.33.73.47,1.08.31-.2.62-.41.9-.61.74.71.61,1.78.74,2.69.26-.08.51-.18.75-.28.12.51.27,1,.41,1.47-.22.06-.45.12-.67.2-.12.66-.57,1.11-1.25.88a13.9,13.9,0,0,1-1.33-1.82l-.91,0c-.05-.2-.11-.41-.15-.63-.28.24-.57.51-.83.75a2.84,2.84,0,0,0-.54-1.55c.07.62.17,1.23.25,1.86-1.06-.12-1-1.39-1.53-2a3.18,3.18,0,0,1-.49,1.69c-.41-.18-.84-.34-1.27-.53a3.38,3.38,0,0,0,.21,3.6,3.28,3.28,0,0,0-1,1.87c-.18,1.08-1.52,1.51-1.49,2.72a1.28,1.28,0,0,1,1.59.92l.84.18a6.67,6.67,0,0,0,.1,1.27l1-1.21c-.63,1.18.4,2.56-.45,3.58a2.14,2.14,0,0,0-.84-1.94l-.51.81A3.48,3.48,0,0,1,20.46,28l-.25-.1c-.2.14-.38.26-.59.38l-.73-.4c.63,1,.94,2.08,1.57,3L19.8,31a10.71,10.71,0,0,1-1.36-1.24l1,0c-.23-1-1.27-1.09-2.08-1.33a2,2,0,0,1-.11-.29l.7-.06a7.47,7.47,0,0,0-.57-1.37c-.74-.32-1.61-.4-1.43-1.45.22.05.43.11.65.15A7.29,7.29,0,0,0,16.5,24c-.53.27-1.15.75-1.39-.08-.8.68-1.47.25-1.82-.64-.71.27-1.12,1-1.94,1.11-.22.57-.41,1.16-.59,1.73.23-.06.47-.14.69-.22-.08.57-.16,1.14-.26,1.71L12,27c0,.2,0,.41,0,.63a1.75,1.75,0,0,0-.74,1.41c.35-.3.66-.61,1-.92a5.1,5.1,0,0,0,.17,2.09l-.58.12a1.2,1.2,0,0,0-1.53-.66q0-.36-.06-.69a19.16,19.16,0,0,1-1.2,1.74l.65,0c-.14.24-.31.49-.45.73-.54-.89-1-1.87-2.14-1.9-.17.33-.33.68-.49,1a6.13,6.13,0,0,0-1-.65c-.68.18-1.15.78-1.8,1a13.78,13.78,0,0,1,.82-1.27c-.27.17-.53.33-.82.49A14,14,0,0,1,2.21,28c-.41.37-.72.86-1.15,1.2-.4,0-.65-.4-.94-.61-.57,1.66,1,1.31,1.82,2,.47.61,1.35.9,1.55,1.72L3,32.62c-.32-.38-.63-.77-.94-1.18a10.27,10.27,0,0,0-.61,1c-.06-.16-.14-.33-.2-.49-.72.83-1.18,1.9-.17,2.67-.16.43-.3.88-.49,1.31.25-.12.49-.22.74-.35l.51.72c1.34-.35,1.39-1.73,1.94-2.78.26.1.55.19.84.29a12,12,0,0,1,1.49-1.27c1,.31,1.55,1.47,2.73,1.13.35-.56.72-1.11,1.1-1.66l.49.61c.25-.12.49-.24.74-.38.24.1.51.2.75.32.31-.41.62-.81.92-1.22-.2-.25-.41-.49-.59-.72a1.22,1.22,0,0,1,2.08.57,7.08,7.08,0,0,1-1.22.09c.71.84,1.57,2.35,2.55.89a.64.64,0,0,0,.14.21c-.5,1.12.88,2.19-.26,3.12a2.49,2.49,0,0,1-.27-2.2c-.2.08-.39.18-.59.28-.16,1.33-1,2.39-1.2,3.72l-.41.06c-.08-.18-.15-.37-.23-.53a6.86,6.86,0,0,0,.66-1.33c-.78.47-1.23,1.37-2.11,1.72-.14-.41-.28-.84-.4-1.25a4.36,4.36,0,0,0-1.11,1.31,2.37,2.37,0,0,1,0-1.7,8.34,8.34,0,0,1-1.67.76,4.11,4.11,0,0,0-.33-2.12,2.76,2.76,0,0,1-.9.32c-.16-.18-.3-.34-.45-.53-.18.21-.34.41-.53.61l-.49-.42c.06.34.15.69.23,1l-1,.3c0-.4.08-.83.1-1.24a4.55,4.55,0,0,0-.63.88,7.27,7.27,0,0,0,.38.91c-.61.15-1.2.31-1.79.51l.51.78c.18-.2.39-.39.57-.57,0,.35.06.69.08,1,.37-.39.63-.86,1-1.27,1-.11,2.16.92,2.68,1.76-.33,0-.68,0-1-.08a21,21,0,0,0-1.38,1.61,8.29,8.29,0,0,1,1.26,2.9l.74.22-.06.86c-.37.06-.74.15-1.11.21-.14.78-.53,1.68.29,2.2a1.24,1.24,0,0,0-.35,2.12c.17-.22.35-.46.51-.69,0,.12.1.35.13.47.12-.27.26-.51.38-.78.23,0,.47-.08.7-.14A5.65,5.65,0,0,1,8,45.53,5.68,5.68,0,0,1,8.58,47c1,.38,1.89-.68,2.92-.39.1.39.2.77.32,1.14.45-.24.88-.49,1.33-.71,0,1-1,1.22-1.7,1.65s-1.38,1.06-2.24,1a7.29,7.29,0,0,1-.94-.9,4.69,4.69,0,0,1-1,1.7A3.65,3.65,0,0,1,5,48.67l-.18.69a2.83,2.83,0,0,1-.47.29c0-.43-.08-.88-.14-1.33-.44,1.86-2,6.43,1.49,5.62.16.41.3.81.47,1.22l.53,0c.14-.65.12-1.41.63-1.9,0,.53-.08,1.07-.14,1.6A4.39,4.39,0,0,0,8.56,51a28.89,28.89,0,0,1,2.55-1.61,4.93,4.93,0,0,1,.06,2.85c.31-.2.59-.4.9-.61l.43,1,1.1-.3c0,1.37-.52,3.19.41,4.3.36-1.16.37-2.86,2-2.71a8.7,8.7,0,0,1,.39-.88l.12,1.14a1.29,1.29,0,0,0,1.33-.2l.12.71c.16-.22.3-.47.45-.69.28.14.57.27.85.39.05.39.11.79.17,1.18.26-.2.53-.43.79-.65.89.53,2.11.78,2.78,1.55-.18.18-.39.37-.59.55a5.35,5.35,0,0,1,.47.29,9,9,0,0,1,1.26-2.15c1.8.63,4.68,1.78,4,4,2.34.62,3.44,2.89,5.56,3.83.75.29,1.71.11,2.26.8,3.08,3.22,6.56,6.13,5.58,11,.81,1.55,1.65,7.38,1.9,9.16,0,.6,2.5,10.06,1.87,12.46A15.3,15.3,0,0,0,43,92c0-4-2-4-3-4-2.53,0-2.66,5.38,0,5,.27,4.52-3.09,5.07-3,2l-2-3v2l-4,1,3,2-4,6-7,1-2-3,1,5c9,1,10-1,12-1,1.57.15,7.22,3.07,9.73.32L43.43,107h8s0-12-1-15S47,82.53,49.22,77.76c1.86-2.78,2.63-5.82,3.47-9,.37-.76,1.31-.88,2.05-1,2.56,0,4.81-1,7.12-1.84,2.22-.13,4.32.66,6.49.74,2.6-.73,5-.51,7.45-1.76.41,1-1.06,1.24-1,2.27.37,0,.74,0,1.11,0a7.15,7.15,0,0,1-.17,1.66c1.31-.18.59-1.36.92-2.19a4.15,4.15,0,0,1,0-1.49l.57.19c.51-.45,1.13-1.31,1.9-1-.18.24-.34.49-.53.75A5.89,5.89,0,0,0,78.85,65.62ZM25.26,11.9a5.52,5.52,0,0,1,1.24-1.22c.14.26.31.53.45.77A2.61,2.61,0,0,1,25.26,11.9Zm2.4,1.57c-.3,0-.63,0-.93,0-.21-.39-.41-.8-.62-1.19.39-.24.78-.49,1.17-.71-.06.59-.15,1.18-.21,1.77a3.62,3.62,0,0,1,.8-1.43A14.83,14.83,0,0,1,27.66,13.47ZM18.56,43A4.4,4.4,0,0,1,16,42.93a7.38,7.38,0,0,0-.45-2.38c-.53.53-.9,1.26-1.66,1.47-.14-.86-.32-1.7-.49-2.56l1.05.39c-.19-.16-.39-.31-.58-.45.06-.08.21-.26.27-.35,1.84.43,5.08-.69,4.53,2.37l.9.37C19.34,42.28,19.17,42.89,18.56,43Zm1.08-3.61-.77-1c-.92.74-2.09,0-3.09.35a1.45,1.45,0,0,1-1.59-.39c.67-.08.86-.69.92-1.27.14.27.29.53.43.78l.92-.37a3.72,3.72,0,0,0,.81.49,3.35,3.35,0,0,0,.33-1.22l1.45.06q-.09.3-.18.63c.28,0,.57,0,.85,0,.11.22.21.45.31.67.2,0,.43.11.65.15s.17.36.25.57Zm1.86-4.69a1.66,1.66,0,0,0-.65,1.51c-.17-1.25-.86-2.32-1.13-3.54a5.19,5.19,0,0,0,2.49-.42,8.29,8.29,0,0,1-1.16,2.2C21.19,34.52,21.36,34.6,21.5,34.69Zm5.49,7a1.72,1.72,0,0,1,1.29.67c-.45.19-.88.39-1.31.59C27,42.48,27,42.08,27,41.65ZM28,55.8a4.06,4.06,0,0,0-1.57-1.11,2.25,2.25,0,0,0-.84-1.61,3.82,3.82,0,0,1,2.17.8,11.57,11.57,0,0,1,.93-.8A2.65,2.65,0,0,1,28,55.8Zm2.82-36.67a3,3,0,0,0,2.77,0c-.1.29-.18.57-.28.86l-1-.11c-.25.33-.49.66-.76,1A1.24,1.24,0,0,1,30.77,19.13Zm2.75,25a3.67,3.67,0,0,1-1.57.47,10.79,10.79,0,0,1,.7-1.06C32.93,43.69,33.24,43.89,33.52,44.1Zm-2.24,7.35c0,.41-.06.81-.12,1.22-.15,0-.45,0-.6,0A2.16,2.16,0,0,1,31.28,51.45Zm-1.06,7a2.79,2.79,0,0,1-.49-2.33,9.89,9.89,0,0,1,1.16,1.41C30.65,57.84,30.44,58.14,30.22,58.45Zm1.18-2.72a10,10,0,0,1-1.1-2,2.81,2.81,0,0,1,1.06-.83,13.52,13.52,0,0,1,1.12,1.57,8.77,8.77,0,0,0-1.24-.16l-.08.65a2.67,2.67,0,0,0,1.57.55c-.17.29-.31.57-.45.86.26-.15.55-.29.82-.45a2.2,2.2,0,0,1,.55,1.51A3.26,3.26,0,0,1,31.4,55.73Zm1.16-3,1.07.41c-.13.17-.27.33-.39.51C33,53.37,32.79,53.06,32.56,52.75Zm-.53-2a4.4,4.4,0,0,1,1.62,2C32.63,52.63,32.32,51.59,32,50.77ZM78.19,23.48c-.14.3-.3.61-.45.92l-.47-.47Zm-7.71-6.17c0,.35.1.7.14,1,.41,0,.8-.06,1.18-.08-.32.33-.67.63-1,1a2.56,2.56,0,0,1-1.39-2Zm-.09,25.24a1.05,1.05,0,0,1-1.71.34C69.09,42.34,69.8,42.55,70.39,42.55Zm-.53-17a4.31,4.31,0,0,1-.59,2.29c-.12-.62-.2-1.23-.26-1.86Zm-2-9.72a5.13,5.13,0,0,1,1,1.64l-1.1-.19A5,5,0,0,1,67.9,15.86ZM66.66,31.17a8,8,0,0,1,1.43.86,18.32,18.32,0,0,1-.41,2.33,3.59,3.59,0,0,0-1-1,4.23,4.23,0,0,1,0-.7l-.66.15c-.18-.53-.38-1-.61-1.57C65.78,31.15,66.27,30.89,66.66,31.17Zm-.21,18.77a15.05,15.05,0,0,1-1.4,1,9.91,9.91,0,0,1,.34-3.11,5.42,5.42,0,0,1,1.13.78l-.58.86Zm-.81-27.36c0,.26,0,.53,0,.8a1,1,0,0,1-.82-1.05Zm-3-7.66c.89-.47,1.85-.83,2.73-1.4l.12.67c-.38.14-.79.26-1.2.41a1.18,1.18,0,0,0,1,1.14c-.12.2-.25.39-.37.57a4.69,4.69,0,0,0-2.57-.3C62.33,15.64,62.17,15.11,62.62,14.92Zm.06,4.13c.88.08,1.75-.06,2.63,0-.33.24-.67.49-1,.71.16.47.63,1,.27,1.53a4.25,4.25,0,0,1-.92.13l.61-.94c-1-.35-1.7.39-2.39-1C62.11,19.25,62.35,19,62.68,19.05Zm.59,32.87A18.71,18.71,0,0,1,60.62,55c.7-1.56-.93-2.29-1-3.65a1.59,1.59,0,0,1,2.71-.6c0-.2,0-.38,0-.59q.77-.39,1.53-.75c-.1.45-.18.89-.28,1.34l-.49,0C63.19,51.18,63.56,51.57,63.27,51.92Zm-2-32.22c.21.79.44,1.64,1.33,1.86a4.44,4.44,0,0,0,0,2.88c-1.19,0-2.11-.74-3.15-1.17,0-.79.74-1.16,1.37-1.43,0-.71,0-1.4,0-2.1A3.13,3.13,0,0,1,61.29,19.7ZM59.08,9.57A3.47,3.47,0,0,1,60.17,8.1c.28.35.55.7.83,1-1.79-.5-1.54,1-2.32,2a6.07,6.07,0,0,1-.39-1.49C58.55,9.6,58.82,9.6,59.08,9.57Zm-1.55,6.88a6.42,6.42,0,0,1,1.53,1c.07.63-.49,1.1-.81,1.57a1.66,1.66,0,0,0-.53-2,3.84,3.84,0,0,1-1.6,1.22C56.55,17.62,57,17.05,57.53,16.45ZM55.82,24c.3-.39.86-.41,1.3-.49,0-.41,0-.8-.06-1.19a1.56,1.56,0,0,1,.39,2.31,6.86,6.86,0,0,1,1.63-.35,3.62,3.62,0,0,1-2.89,2.23A4.72,4.72,0,0,0,57.08,29c0-.29,0-.55,0-.84a5.28,5.28,0,0,1,.74,1.66c-.57-.13-1.12-.27-1.68-.43,0-.37.05-.72.07-1.06a10.21,10.21,0,0,0-3.17.18A46.69,46.69,0,0,1,55.82,24Zm3.45,27.42-.47.45a7.65,7.65,0,0,1-1-1.21l.55-.67A1.4,1.4,0,0,1,59.27,51.45ZM56.57,51c.69.37,1.12.9.76,1.69-.27,0-.53,0-.8,0q-.12-.36-.24-.69c.26,0,.53-.1.77-.16C56.9,51.57,56.74,51.26,56.57,51Zm-.36-2.37c-.33-.63-.62-1.29-.9-2a4.85,4.85,0,0,0,1.77-.16A19.64,19.64,0,0,1,56.21,48.61ZM52.55,27.4c-.61-.41-.77-1.17-1.08-1.8a4.41,4.41,0,0,0,2.14.12A11.61,11.61,0,0,1,52.55,27.4ZM54,8.15a2.45,2.45,0,0,1-1.16.73C52.71,8.17,53.45,8.15,54,8.15ZM51.37,23.21c.1.21.22.43.32.64l1.15-.66c.2.12.43.27.65.39C52.88,24.17,50.87,24.65,51.37,23.21Zm-2.19-4.37.78,0-.06.92-1-.16Q49.06,19.25,49.18,18.84Zm-.61,4.45A4.3,4.3,0,0,0,49,21.86c.1.33.2.66.31,1l.85-.18a20.39,20.39,0,0,0,.33,2.92,4,4,0,0,0-.86.25,3.82,3.82,0,0,0-.35,1.47c.47-.25,1-.49,1.43-.72a4,4,0,0,1,0,3.47,4.75,4.75,0,0,1-1-.75l-1.3.28c-.27-.24-.56-.47-.84-.71.2.32.41.65.61,1-.45-.19-.92-.37-1.37-.53.06-.31.13-.62.19-.92A3.78,3.78,0,0,1,45,26c.28.06.55.14.81.22.13-.28.25-.59.39-.87-.14-.21-.26-.41-.39-.62a8.36,8.36,0,0,0,.09.86,3.45,3.45,0,0,0-.43.23,4.49,4.49,0,0,0-.51-.23C45.3,23.52,46.66,20.46,48.57,23.29Zm-1.37,25a3.64,3.64,0,0,0-1.47-.76c.16.27.32.53.47.8L45,48.38a2.78,2.78,0,0,1,.66-.86,1.57,1.57,0,0,0-1.32.5,1.82,1.82,0,0,1,.76-1.15c-.29-.26-.57-.53-.86-.77l.49-.49a8.07,8.07,0,0,0,.78.47,3.37,3.37,0,0,0,1.06-.72,5.13,5.13,0,0,0-1.25-1.12,4.12,4.12,0,0,1,1.13-1.82,13.31,13.31,0,0,1,2,2.15C48,45.8,47.06,46.94,47.2,48.28ZM45.32,33.87a3.47,3.47,0,0,1,.29-3.31C45.45,31.66,45.77,32.83,45.32,33.87Zm3,8.43c-.4-.41-.79-.82-1.18-1.24l.92-.25-.37-.55a6.59,6.59,0,0,1,1.94.63l-1,.49C48.53,41.69,48.41,42,48.28,42.3ZM44.22,15.19a2.44,2.44,0,0,1,1.59-1.33l-.36.55c.87.14,2.2,0,2.06,1.25l-1,.28c-.16-.2-.35-.38-.53-.59-1,.39-.87,1.31-.08,1.84C44.81,17.84,43.59,16.17,44.22,15.19ZM43,15c1.06.52,1.06,1.58.69,2.58-.31-.25-.59-.51-.92-.74,0-.55,0-1.1-.08-1.65A1.82,1.82,0,0,1,43,15Zm.08,12.34-1,.57.51.22a8,8,0,0,0-.53.76l-.55-.13a3.49,3.49,0,0,1,.69-2.61A13.25,13.25,0,0,1,43.06,27.32ZM42.43,53.9l-.56,0a5.44,5.44,0,0,1,.45-3.31A13.39,13.39,0,0,1,42.43,53.9Zm-.94-42.59a6.43,6.43,0,0,1-.72.67,3.39,3.39,0,0,1-.65-1A13.37,13.37,0,0,1,41.49,11.31ZM38.26,8.55c.33.75.62,1.48,1.55,1.47a5.36,5.36,0,0,1-.43,1.13,4,4,0,0,0-1.16-1.66A7.47,7.47,0,0,1,38.26,8.55Zm.92,7.37a7.48,7.48,0,0,1-.88,1.49c.23.31.43.6.65.88a2.75,2.75,0,0,0,.47-1.55l.43,1.06c.29,0,.55-.1.84-.16-.08-.41-.18-.84-.27-1.25a1.76,1.76,0,0,1,1.09,1.19,2.37,2.37,0,0,0-1.07,2.33C38.78,19.33,36.78,17,39.18,15.92ZM41,25.62a2.55,2.55,0,0,1-1.43-.77l1-1C40.77,24.46,40.89,25,41,25.62ZM36.57,36.46a4.88,4.88,0,0,1,.55-.12A2.41,2.41,0,0,1,37.67,38C37.16,37.61,36.42,37.24,36.57,36.46Zm-.27,5.23,1.37-.14c0,.14.1.4.12.55.14-.33.27-.66.39-1a14.79,14.79,0,0,1,2.39.85l-.25.82-1-.08a7.35,7.35,0,0,1-1,1.86c-.26-.17-.51-.35-.75-.53.26-.19.51-.39.77-.6-.14-1.3-1.56-.55-2.18-1.32a3.78,3.78,0,0,0-1.41-1A3.18,3.18,0,0,0,35.89,40l-.71-.42.88-.31C36.2,40.08,36.16,40.89,36.3,41.69ZM34.87,29.81c-.26-.64.23-1.15.59-1.6a14.11,14.11,0,0,1,.15,1.7Zm0-17.34c.23.21.45.39.67.6h0a10,10,0,0,0-1.3.89A1.36,1.36,0,0,1,34.85,12.47ZM35.52,52a5,5,0,0,1-1.22.16c.2-.43.41-.86.61-1.28a2.28,2.28,0,0,1-.45-1.7c.86.37,1,1.39,1.41,2.14.08-.34.17-.69.25-1,.51.64,1.38.62,2,1.15.42-1.19,0-2.32-1.37-2.37a2.39,2.39,0,0,0,1.16-.27c-.83,0-2.74-.57-2.28.82a2.3,2.3,0,0,1-1.07-1.88,3.09,3.09,0,0,1,2.25.53c.12-.28.27-.57.39-.85l.61.91a13.86,13.86,0,0,1,1.47-1.08,1.76,1.76,0,0,1,2.08-1.69c.35.3.06.79,0,1.16l.76.25a14.24,14.24,0,0,1-.31,1.94c-.34-.09-.69-.15-1.06-.23l.86.74a7.13,7.13,0,0,1-3.06,1.12c0,1.33.75,2.47.93,3.76a9.64,9.64,0,0,1-2.1,1.38l-.86-.79a2.25,2.25,0,0,0-.08,1.9C35.65,55.34,34.49,53.6,35.52,52Zm5.25.73c-.55-.1-1.08-.3-1.24-.89.38,0,.79,0,1.18,0C40.73,52.16,40.75,52.47,40.77,52.75Zm-3.31,9.09a6.86,6.86,0,0,1-1-1.76c.69-.42,1.24,0,1.64.57C37.85,61,37.65,61.45,37.46,61.84Zm3-1.19-.53-.55-1,0a3.83,3.83,0,0,1-.16-2.24,4.2,4.2,0,0,1,1-.39c-.19.94-.36,2.36.94,2.41C40.59,60.16,40.51,60.41,40.42,60.65Zm.31-5.45a3.27,3.27,0,0,1-1-2.3c.35.06.69.14,1,.22C40.79,53.82,40.79,54.51,40.73,55.2Zm2.53,5.56a5.14,5.14,0,0,0-.41.4,10,10,0,0,0-1.92-.53C41.61,60.14,42.51,60.72,43.26,60.76ZM43,64.94c-1-.39-1.11-1.53-1.47-2.41L43,62.41c.06.18.12.39.18.59.25-.06.49-.1.74-.14A4.45,4.45,0,0,1,43,64.94Zm6,6.15c-.35,6.06-4.69,1.25-1.53,1.16-.17-.12-.33-.27-.49-.39a7.18,7.18,0,0,1,2.84-2.65A3.66,3.66,0,0,0,49,71.09Zm2.33-6c-1.18,1.63-3.16,2.16-4.82,3.15-1.67-.21-1.17-2.31.06-2.78,1.63-.92,3.58-1.15,4.8-2.69A10,10,0,0,1,51.31,65Zm-4.78-2.67a4.39,4.39,0,0,0,2.22-.82,6.36,6.36,0,0,0,.17.66,16.72,16.72,0,0,1-1.72,1C47,62.94,46.75,62.66,46.53,62.37Zm5.12-6.45a20.07,20.07,0,0,1-.45,2.26,1.89,1.89,0,0,0-1.38,1L49.24,59c-.32-1.06,0-2.16,0-3.23-.76-.48-1.51-.73-1.51-1.81A6.23,6.23,0,0,0,45,55.24v-.61c-1,.78-2.31-.21-3.19.92,0-.37.06-.73.08-1.1l.9-.35c-1-2.81,2.6-2.6,3.53-4.63,1.23-.49,2.28.9,3.52.08a4.46,4.46,0,0,0-.76,1.24l.57-.24c.33.35.59.75.35,1.22a2.84,2.84,0,0,1,.63.76l-.88.49c.39,0,.76,0,1.15,0A5.31,5.31,0,0,1,51.65,55.92Zm.29-5.43c-.19-1,.89-1.83.57-2.92a5.58,5.58,0,0,0,.57-.08c.06-.21.12-.39.17-.6.65.19,1.44.39,1.63,1.15-.1.34-.31.67-.43,1,.1.49.61.65,1,.82a2.83,2.83,0,0,1-2.71,1.83,5.14,5.14,0,0,0,1.61.1c-.27.29-.53.6-.8.88C52.63,52.39,52.29,51.34,51.94,50.49Zm1.73,13.84c.23-1.11-.3-3,1-3.53a5.13,5.13,0,0,1,.88.65c.33-.18.63-.39,1-.59-.84.94-.48,2.46-1.2,3.33A4,4,0,0,1,53.67,64.33Zm5.74,1c-1.16.27-2.35.57-3.53.82,1.35-.43,2.65-1,4-1.45C59.78,65,59.76,65.33,59.41,65.37Zm1.23-4.45a8.44,8.44,0,0,1-2.47,1.2C58.09,60.28,60.33,60,61.39,59A16.51,16.51,0,0,0,60.64,60.92Zm2.43,4.16a2.87,2.87,0,0,1-.72-.47c.49,0,1,0,1.43,0C63.58,64.8,63.41,65.19,63.07,65.08Zm4.79.68c-1.14-.23-2.22-.57-3.37-.82,1.06-.67,2.29,0,3.43.06Zm-1.63-3.15c.18-.26.35-.53.53-.81a3.26,3.26,0,0,1,1.65.41C67.74,62.55,67,63.12,66.23,62.61Zm3.08-3a2.14,2.14,0,0,1-2.41,1.74c.21-.37.41-.76.62-1.13l-.47.13a11.43,11.43,0,0,0-.82-1,4.75,4.75,0,0,1-1.74,1c.68-1.64-.67-2.66-2-3.35a5.26,5.26,0,0,0-.81.55,4.72,4.72,0,0,0,.67-2c2.56-1.07,3.24-3.69,6.29-.88-.33,1.62-1.7,3.25-.61,4.86.61-.31,1.22-.63,1.81-1,.19.29.39.57.58.88Zm2.35-34.3a2.07,2.07,0,0,1-1.27-1.1l.51-.12c.15.24.31.51.47.75a3.23,3.23,0,0,1,2.13.84,2.4,2.4,0,0,0-1.76,1C71.72,26.19,71.68,25.74,71.66,25.27Zm2.94,34.1a4.51,4.51,0,0,1-1.43,1.16,4.1,4.1,0,0,0,.27-.86c-.31-.55-1.17-.65-1.37-1.24a3.54,3.54,0,0,1,2.57-1.84c-.08-.3-.16-.61-.22-.92.24.21.49.41.73.64a2.14,2.14,0,0,0-1,1.59,3.36,3.36,0,0,0,1.55-.39C75.31,58.1,75,58.74,74.6,59.37ZM78,45.93l-1.14-.26a12.89,12.89,0,0,1,0-1.39,3.94,3.94,0,0,1,.49-.14c.06.28.1.57.14.88.28-.29.59-.56.88-.84.1.37.2.73.28,1.1l-1.14-.12C77.64,45.42,77.83,45.67,78,45.93Zm-.23-19.35-.85-.33c.47.43,1,.88,1.45,1.31-2.45,1.19-3.66-2.3-1.6-3.41.58,0,.78.7,1.09,1.1,0-.22,0-.45,0-.67l.87-.57A13.32,13.32,0,0,0,77.76,26.58ZM79.87,58a2.43,2.43,0,0,1,0,2.27c.26,0,.53-.09.79-.15l.35.37c-.65,0-1.53.16-1.77-.63A5.32,5.32,0,0,1,79.87,58ZM45.68,47.52h0l0,0Z" fill="#2876a9"/></g></g></svg>