<svg xmlns="http://www.w3.org/2000/svg" width="300" height="59" viewBox="0 0 300 59"><g id="Layer_2" data-name="Layer 2"><g id="logos"><path d="M50,38,74,15H86V11H51v4H62L46,32,28,8H41V3H0V7H12L35,38V54H22v5H63V55H50ZM97,23h5V21H81v3h5L73,48H67v5H86V49H80l4-7H95l5,11H93v4h22V52h-7ZM85,38l4-10,5,10Zm38-26h-6V26h6V19h27L126,51h-5v5h42v1h4V40h-5v9H138l23-27h6V14H123Zm73,2c-13.81,0-25,7.61-25,17s11.19,17,25,17,25-7.61,25-17S209.81,14,196,14Zm.5,30c-9.11,0-16.5-5.6-16.5-12.5S187.39,19,196.5,19,213,24.6,213,31.5,205.61,44,196.5,44ZM254,7c-15.46,0-28,8.73-28,19.5S238.54,46,254,46s28-8.73,28-19.5S269.46,7,254,7Zm.5,34C244.28,41,236,34.73,236,27s8.28-14,18.5-14S273,19.27,273,27,264.72,41,254.5,41ZM287,0V37h7l6-37Zm-2,51h9V43h-9Z" fill="red"/></g></g></svg>